<svg width="878" height="878" viewBox="0 0 878 878" fill="none" xmlns="http://www.w3.org/2000/svg">
<path d="M0 878H877.994V0.00622801H0V878Z" fill="white"/>
<path d="M457.26 419.352H839.793V36.8195H457.26V419.352Z" fill="#E5E8ED"/>
<path d="M38.2729 418.904H420.806V36.3713H38.2729V418.904Z" fill="#E5E8ED"/>
<path d="M420.878 418.904V128.458H38.2012V418.904H420.878Z" fill="#78D1BF"/>
<path d="M420.878 96.609H38.2012V128.458H420.878V96.609" fill="white"/>
<path d="M340.196 248.32C340.196 258.936 331.589 267.542 320.974 267.542H145.284C134.668 267.542 126.061 258.936 126.061 248.32V167.15C126.061 156.533 134.668 147.922 145.284 147.922H320.974C331.589 147.922 340.196 156.533 340.196 167.15V248.32Z" fill="#A3E0DF"/>
<path d="M268.953 418.904V271.001C268.953 257.439 247.688 241.33 231.119 241.33L224.127 241.225V241.194L223.351 241.202L222.573 241.194V241.225L215.591 241.33C199.023 241.33 177.752 257.439 177.752 271.001V418.904H268.953" fill="white"/>
<path d="M231.352 226.457H214.734V243.463C214.734 245.879 215.758 248.626 223.652 248.626C228.647 248.626 230.848 246.315 231.352 244.291V226.457" fill="#F68A54"/>
<path d="M249.287 211.015C249.287 212.886 247.786 214.406 245.911 214.406C244.04 214.406 242.518 212.886 242.518 211.015C242.518 209.138 244.04 207.618 245.911 207.618C247.786 207.618 249.287 209.138 249.287 211.015Z" fill="#F68A54"/>
<path d="M204.584 211.015C204.584 212.886 203.053 214.406 201.18 214.406C199.307 214.406 197.788 212.886 197.788 211.015C197.788 209.138 199.307 207.618 201.18 207.618C203.053 207.618 204.584 209.138 204.584 211.015Z" fill="#F68A54"/>
<path d="M245.452 213.846C245.452 226.457 234.636 235.088 223.537 235.088C212.882 235.088 201.651 226.151 201.651 213.361V201.936C201.651 189.906 211.449 180.161 223.537 180.161C235.654 180.161 245.452 189.906 245.452 201.936V213.846" fill="#F68A54"/>
<path d="M235.491 208.135C235.066 208.135 234.659 208.308 234.403 208.618C234.163 208.88 234.054 209.239 234.054 209.619C234.054 210.365 234.547 211.11 235.491 211.11C235.937 211.11 236.323 210.933 236.596 210.615C236.815 210.365 236.955 209.989 236.955 209.619C236.955 208.872 236.453 208.135 235.491 208.135" fill="#35346F"/>
<path d="M210.827 208.135C210.377 208.135 209.982 208.308 209.722 208.618C209.489 208.88 209.369 209.239 209.369 209.619C209.369 210.365 209.863 211.11 210.827 211.11C211.261 211.11 211.655 210.933 211.911 210.615C212.153 210.365 212.279 209.989 212.279 209.619C212.279 208.872 211.775 208.135 210.827 208.135" fill="#35346F"/>
<path d="M225.606 218.455L225.145 218.426C224.891 218.404 224.695 218.16 224.726 217.918C224.738 217.669 224.957 217.439 225.23 217.479C226.194 217.567 226.921 217.305 227.008 217.076C227.035 216.995 226.942 216.665 226.155 216.149C223.784 214.528 223.512 208.913 223.483 208.676C223.483 208.393 223.679 208.182 223.945 208.182C224.214 208.147 224.429 208.372 224.443 208.626C224.503 210.123 225.046 214.237 226.686 215.35C227.724 216.068 228.131 216.746 227.904 217.402C227.631 218.141 226.607 218.455 225.606 218.455" fill="#35346F"/>
<path d="M240.93 216.653C240.93 218.476 238.654 219.975 235.85 219.975C233.034 219.975 230.762 218.476 230.762 216.653C230.762 214.8 233.034 213.309 235.85 213.309C238.654 213.309 240.93 214.8 240.93 216.653Z" fill="#F36050"/>
<path d="M216.328 216.653C216.328 218.476 214.055 219.975 211.228 219.975C208.438 219.975 206.151 218.476 206.151 216.653C206.151 214.8 208.438 213.309 211.228 213.309C214.055 213.309 216.328 214.8 216.328 216.653Z" fill="#F36050"/>
<path d="M207.397 184.308C207.397 184.308 217.951 170.886 236.955 177.568C254.089 183.597 246.676 208.135 246.676 208.135C246.676 208.135 240.273 205.946 230.111 195.504C229.019 194.378 231.119 204.973 228.833 204.973C216.136 204.973 216.931 193.837 216.328 193.837C211.975 193.837 207.179 196.823 206.151 201.203C205.583 203.582 203.611 211.015 203.611 211.015C203.611 211.015 201.09 211.6 199.824 201.981C198.565 192.361 198.412 180.843 207.397 184.308" fill="#35346F"/>
<path d="M248.272 203.654C248.171 204.123 247.758 204.521 247.484 204.521H200.228C199.753 204.521 199.543 203.654 199.543 203.654C199.543 203.183 199.465 202.795 199.937 202.795H247.797C248.272 202.795 248.394 203.086 248.272 203.654Z" fill="white"/>
<path d="M238.382 201.457C237.957 201.259 237.492 201.145 236.996 201.145H211.363C211.028 201.145 210.71 201.211 210.407 201.302C206.465 202.033 203.478 205.473 203.478 209.619C203.478 214.305 207.274 218.104 211.959 218.104C216.643 218.104 219.674 215.857 221.718 211.647C222.416 210.204 223.339 210.103 224.091 210.103C225.067 210.103 226.143 210.204 226.726 211.647C228.696 216.52 231.541 218.104 236.222 218.104C240.905 218.104 244.703 214.305 244.703 209.619C244.703 205.69 242.012 202.417 238.382 201.457Z" fill="#374EA9"/>
<path d="M249.637 236.628L254.657 229.343C255.326 228.445 256.162 227.345 256.579 226.707V226.614H250.263V223.037H262.52V226.013L257.626 233.023C256.957 233.987 256.162 235.022 255.702 235.689V235.79H262.729V239.367H249.637V236.628" fill="#3C47A4"/>
<path d="M270.755 225.013L275.771 217.737C276.44 216.838 277.278 215.738 277.697 215.096V214.999H271.381V211.43H283.638V214.398L278.742 221.408C278.075 222.374 277.278 223.411 276.817 224.082V224.181H283.844V227.751H270.755V225.013" fill="#3C47A4"/>
<path d="M291.494 214.173L296.516 206.896C297.187 206.002 298.021 204.897 298.44 204.263V204.162H292.123V200.594H304.383V203.561L299.489 210.571C298.814 211.538 298.021 212.57 297.562 213.241V213.34H304.591V216.915H291.494V214.173" fill="#3C47A4"/>
<path d="M420.878 418.904V335.969H38.2012V418.904H420.878Z" fill="#A3E0DF"/>
<path d="M242.187 270.037C242.395 270.057 243.492 270.284 244.21 270.497C245.034 270.712 245.864 270.966 246.686 271.243C248.361 271.804 250.004 272.465 251.572 273.223C254.723 274.732 257.612 276.595 260.054 278.757C265.006 283.097 268.242 288.61 269.642 295.284C270.011 296.934 270.253 298.673 270.4 300.438L270.866 307.085L271.744 320.555L273.419 347.52L275.729 418.904H295.988L295.85 346.42L294.755 319.326L294.161 305.766L293.82 298.89C293.659 296.164 293.337 293.405 292.806 290.651C290.846 279.576 284.866 268.509 276.307 260.827C272.085 256.931 267.375 253.769 262.437 251.281C259.976 250.026 257.449 248.946 254.845 248.006C253.55 247.529 252.228 247.097 250.87 246.699C249.435 246.294 248.324 245.989 246.319 245.605L245.854 245.514C245.569 245.464 245.263 245.421 244.97 245.392C238.166 244.622 232.015 249.522 231.253 256.321C230.483 263.125 235.381 269.262 242.187 270.037" fill="white"/>
<path d="M170.356 418.904L172.677 347.52L174.346 320.555L175.214 307.085L175.686 300.438C175.829 298.673 176.081 296.934 176.422 295.284C177.845 288.61 181.076 283.097 186.016 278.757C188.47 276.595 191.35 274.732 194.522 273.223C196.08 272.465 197.732 271.804 199.386 271.243C200.22 270.966 201.05 270.712 201.862 270.497C202.6 270.284 203.679 270.057 203.887 270.037C210.702 269.262 215.591 263.125 214.829 256.321C214.063 249.522 207.914 244.622 201.118 245.392C200.817 245.421 200.523 245.464 200.229 245.514L199.75 245.605C197.751 245.989 196.639 246.294 195.205 246.699C193.848 247.097 192.522 247.529 191.233 248.006C188.639 248.946 186.109 250.026 183.645 251.281C178.707 253.769 173.992 256.931 169.783 260.827C161.225 268.509 155.25 279.576 153.273 290.651C152.754 293.405 152.424 296.164 152.272 298.89L151.93 305.766L151.336 319.326L150.242 346.42L150.101 418.904H170.356" fill="white"/>
<path d="M420.805 841.635H38.2729V459.102H420.805V841.635ZM230.916 790.444H271.622C271.622 790.444 271.622 678.655 271.622 639.583C271.622 622.205 254.279 615.345 235.676 611.643L228.674 621.107C228.269 621.096 227.866 621.086 227.462 621.078L218.335 611.788C201.041 612.725 180.188 623.549 180.188 641.182C180.188 675.017 180.188 790.444 180.188 790.444H224.032H230.916" fill="#E5E8ED"/>
<path d="M712.661 392.657C712.661 398.34 708.035 402.974 702.34 402.974H598.719C593.013 402.974 588.4 398.34 588.4 392.657C588.4 386.966 593.013 382.32 598.719 382.32H702.34C708.035 382.32 712.661 386.966 712.661 392.657Z" fill="#78D1BF"/>
<path d="M712.661 325.738C712.661 336.981 703.546 346.073 692.329 346.073H608.746C597.503 346.073 588.4 336.981 588.4 325.738V286.703C588.4 275.482 597.503 266.376 608.746 266.376H692.329C703.546 266.376 712.661 275.482 712.661 286.703V325.738Z" fill="#78D1BF"/>
<path d="M608.471 419.352V394.452C608.471 391.09 605.76 388.391 602.433 388.391C599.076 388.391 596.365 391.09 596.365 394.452V419.352H608.471" fill="#78D1BF"/>
<path d="M704.68 419.352V394.452C704.68 391.09 701.989 388.391 698.631 388.391C695.293 388.391 692.577 391.09 692.577 394.452V419.352H704.68Z" fill="#78D1BF"/>
<path d="M643.901 182.627H659.801V198.686C659.801 200.963 658.816 203.578 651.254 203.578C646.482 203.578 644.38 201.385 643.901 199.468V182.627Z" fill="#F68A54"/>
<path d="M626.346 168.043C626.346 169.806 627.828 171.245 629.66 171.245C631.51 171.245 632.982 169.806 632.982 168.043C632.982 166.269 631.51 164.836 629.66 164.836C627.828 164.836 626.346 166.269 626.346 168.043Z" fill="#F68A54"/>
<path d="M670.08 168.043C670.08 169.806 671.579 171.245 673.402 171.245C675.24 171.245 676.723 169.806 676.723 168.043C676.723 166.269 675.24 164.836 673.402 164.836C671.579 164.836 670.08 166.269 670.08 168.043Z" fill="#F68A54"/>
<path d="M630.122 170.717C630.122 182.627 640.686 190.785 651.531 190.785C661.977 190.785 672.954 182.336 672.954 170.256V159.457C672.954 148.1 663.365 138.884 651.531 138.884C639.701 138.884 630.122 148.1 630.122 159.457V170.717Z" fill="#F68A54"/>
<path d="M639.837 165.329C640.263 165.329 640.663 165.47 640.915 165.765C641.138 166.019 641.264 166.357 641.264 166.727C641.264 167.413 640.771 168.131 639.837 168.131C639.422 168.131 639.034 167.954 638.772 167.667C638.543 167.413 638.413 167.074 638.413 166.727C638.413 166.015 638.906 165.329 639.837 165.329" fill="#35346F"/>
<path d="M663.979 165.329C664.404 165.329 664.794 165.47 665.05 165.765C665.282 166.019 665.41 166.357 665.41 166.727C665.41 167.413 664.914 168.131 663.979 168.131C663.551 168.131 663.182 167.954 662.909 167.667C662.688 167.413 662.562 167.074 662.562 166.727C662.562 166.015 663.045 165.329 663.979 165.329" fill="#35346F"/>
<path d="M659.801 176.496C659.712 179.391 656.435 182.662 651.952 182.627C647.469 182.662 644.213 179.391 644.128 176.496C648.636 180.131 655.287 180.131 659.801 176.496Z" fill="white"/>
<path d="M649.514 175.067L649.962 175.041C650.209 175.007 650.41 174.795 650.383 174.559C650.36 174.314 650.156 174.109 649.885 174.153C648.962 174.233 648.231 173.967 648.151 173.773C648.128 173.684 648.211 173.378 648.981 172.874C651.314 171.359 651.568 166.054 651.589 165.825C651.589 165.571 651.393 165.368 651.143 165.36C650.868 165.344 650.674 165.538 650.666 165.788C650.604 167.196 650.073 171.076 648.458 172.133C647.443 172.802 647.05 173.442 647.292 174.08C647.544 174.77 648.541 175.067 649.514 175.067" fill="#35346F"/>
<path d="M634.528 173.358C634.528 175.096 636.758 176.496 639.503 176.496C642.259 176.496 644.473 175.096 644.473 173.358C644.473 171.613 642.259 170.213 639.503 170.213C636.758 170.213 634.528 171.613 634.528 173.358Z" fill="#F36050"/>
<path d="M658.586 173.358C658.586 175.096 660.825 176.496 663.575 176.496C666.309 176.496 668.548 175.096 668.548 173.358C668.548 171.613 666.309 170.213 663.575 170.213C660.825 170.213 658.586 171.613 658.586 173.358Z" fill="#F36050"/>
<path d="M668.223 144.707C668.223 144.707 657.798 131.89 639.017 138.267C622.091 144.034 629.407 167.454 629.407 167.454C629.407 167.454 635.732 165.356 645.786 155.403C646.858 154.319 644.785 164.437 647.042 164.437C659.588 164.437 658.803 153.803 659.398 153.803C663.705 153.803 668.444 156.642 669.458 160.828C670.024 163.114 671.959 170.2 671.959 170.2C671.959 170.2 674.459 170.764 675.705 161.577C676.956 152.399 677.113 141.401 668.223 144.707" fill="#35346F"/>
<path d="M605.572 222.984C605.572 205.723 626.959 195.111 643.901 194.197C643.901 194.197 645.138 199.512 651.851 199.512C657.022 199.512 659.927 194.056 659.927 194.056C678.152 197.686 695.14 204.399 695.14 221.425C695.14 259.702 695.14 369.206 695.14 369.206H605.572C605.572 369.206 605.572 256.14 605.572 222.984" fill="#FCD7B8"/>
<path d="M693.686 392.657H607.567L605.573 367.777L605.523 359.212H695.14V367.777L693.686 392.657" fill="#262551"/>
<path d="M690.839 419.352C692.404 403.696 693.888 387.443 695.123 371.356C695.854 361.962 688.262 354.397 673.353 354.397C658.455 354.397 653.431 367.624 653.431 371.356V419.352H690.839Z" fill="#35346F"/>
<path d="M647.257 419.352V371.356C647.257 367.624 642.231 354.397 627.324 354.397C612.422 354.397 604.831 361.962 605.573 371.356C606.818 387.443 608.298 403.696 609.863 419.352H647.257Z" fill="#35346F"/>
<path d="M827.971 294.655H473.092V319.729H493.489V325.597V419.352H507.894V325.597H793.186V419.352H807.547V325.597V319.729H827.971V294.655" fill="#CCCBCC"/>
<path d="M681.924 278.265C681.924 281.051 667.208 283.314 649.057 283.314C630.906 283.314 616.192 281.051 616.192 278.265C616.192 275.478 630.906 273.221 649.057 273.221C667.208 273.221 681.924 275.478 681.924 278.265Z" fill="#51B7A1"/>
<path d="M652.54 284.101C649.476 285.429 646.311 285.104 646.311 285.104L647.006 279.031L647.708 272.958L652.621 276.599L657.533 280.241C657.533 280.241 655.859 282.662 652.54 284.101" fill="#FCD7B8"/>
<path d="M651.44 281.567C649.637 282.35 647.806 282.556 646.598 282.598L646.311 285.104C646.311 285.104 649.476 285.429 652.54 284.101C655.859 282.662 657.533 280.241 657.533 280.241L655.53 278.761C654.715 279.587 653.352 280.737 651.44 281.567" fill="#B5E179"/>
<path d="M647.706 287.739L641.177 281.608L643.736 278.879L650.267 285.011L647.706 287.739Z" fill="#F14624"/>
<path d="M635.045 286.403L628.516 280.27L631.076 277.543L637.605 283.673L635.045 286.403Z" fill="#F14624"/>
<path d="M628.516 272.558C626.978 271.241 623.711 271.664 620.787 273.675C617.861 275.684 616.298 278.583 616.975 280.495L628.516 272.558Z" fill="#FBC951"/>
<path d="M644.529 279.079L631.961 284.815L630.481 281.565L643.044 275.829L644.529 279.079Z" fill="#FBCA75"/>
<path d="M621.962 282.501C618.988 280.979 617.223 278.338 617.223 278.338L622.356 275.011L627.489 271.682L627.801 277.792L628.115 283.903C628.115 283.903 625.187 284.152 621.962 282.501" fill="#FCD7B8"/>
<path d="M623.217 280.039C621.468 279.149 620.14 277.867 619.341 276.962L617.223 278.338C617.223 278.338 618.988 280.979 621.962 282.501C625.187 284.152 628.115 283.903 628.115 283.903L627.987 281.41C626.831 281.309 625.075 280.991 623.217 280.039" fill="#F14448"/>
<path d="M645.142 280.58L638.611 274.445L641.173 271.72L647.701 277.85L645.142 280.58Z" fill="#F14624"/>
<path d="M667.096 278.117L661.767 281.133L658.75 275.808L664.08 272.789L667.096 278.117" fill="#F58048"/>
<path d="M656.658 280.559C653.684 279.036 651.919 276.395 651.919 276.395L657.052 273.066L662.188 269.744L662.5 275.854L662.811 281.955C662.811 281.955 659.881 282.205 656.658 280.559" fill="#FCD7B8"/>
<path d="M657.915 278.1C656.166 277.204 654.841 275.926 654.04 275.019L651.919 276.395C651.919 276.395 653.684 279.036 656.658 280.559C659.881 282.205 662.811 281.955 662.811 281.955L662.683 279.471C661.525 279.366 659.774 279.052 657.915 278.1Z" fill="#F14448"/>
<path d="M677.79 281.202C674.726 282.527 671.561 282.205 671.561 282.205L672.261 276.132L672.958 270.057L677.871 273.7L682.783 277.342C682.783 277.342 681.113 279.76 677.79 281.202Z" fill="#FCD7B8"/>
<path d="M676.692 278.664C674.889 279.446 673.056 279.657 671.85 279.696L671.561 282.205C671.561 282.205 674.726 282.527 677.79 281.202C681.113 279.76 682.783 277.342 682.783 277.342L680.78 275.858C679.967 276.688 678.604 277.838 676.692 278.664Z" fill="#B5E179"/>
<path d="M671.718 278.296L665.19 272.164L667.749 269.434L674.28 275.567L671.718 278.296Z" fill="#F14624"/>
<path d="M637.921 275.354C637.921 276.446 637.035 277.334 635.941 277.334C634.846 277.334 633.962 276.446 633.962 275.354C633.962 274.259 634.846 273.374 635.941 273.374C637.035 273.374 637.921 274.259 637.921 275.354Z" fill="#B52181"/>
<path d="M658.271 281.134C658.271 282.226 657.383 283.114 656.293 283.114C655.2 283.114 654.312 282.226 654.312 281.134C654.312 280.039 655.2 279.153 656.293 279.153C657.383 279.153 658.271 280.039 658.271 281.134Z" fill="#B52181"/>
<path d="M670.043 275.354C670.043 276.446 669.157 277.334 668.063 277.334C666.97 277.334 666.083 276.446 666.083 275.354C666.083 274.259 666.97 273.374 668.063 273.374C669.157 273.374 670.043 274.259 670.043 275.354Z" fill="#B52181"/>
<path d="M652.661 274.454C652.661 275.546 651.775 276.434 650.68 276.434C649.588 276.434 648.702 275.546 648.702 274.454C648.702 273.357 649.588 272.473 650.68 272.473C651.775 272.473 652.661 273.357 652.661 274.454Z" fill="#B52181"/>
<path d="M643.158 282.831C643.158 283.927 642.27 284.815 641.177 284.815C640.083 284.815 639.199 283.927 639.199 282.831C639.199 281.738 640.083 280.855 641.177 280.855C642.27 280.855 643.158 281.738 643.158 282.831Z" fill="#B52181"/>
<path d="M630.093 278.587C630.093 279.684 629.207 280.568 628.115 280.568C627.018 280.568 626.137 279.684 626.137 278.587C626.137 277.495 627.018 276.611 628.115 276.611C629.207 276.611 630.093 277.495 630.093 278.587Z" fill="#B52181"/>
<path d="M671.713 281.782C671.713 282.874 670.827 283.762 669.733 283.762C668.64 283.762 667.754 282.874 667.754 281.782C667.754 280.69 668.64 279.802 669.733 279.802C670.827 279.802 671.713 280.69 671.713 281.782Z" fill="#B52181"/>
<path d="M671.414 279.928L658.847 285.662L657.364 282.412L669.933 276.68L671.414 279.928Z" fill="#FBCA75"/>
<path d="M636.777 277.305L631.452 280.322L628.433 274.994L633.76 271.978L636.777 277.305" fill="#F58048"/>
<path d="M634.477 273.221C634.406 275.244 636.775 277.534 640.17 278.567C643.566 279.599 646.808 279.011 647.876 277.289L634.477 273.221" fill="#FBC951"/>
<path d="M662.111 279.789C662.291 277.77 660.042 275.362 656.703 274.156C653.366 272.95 650.1 273.361 648.943 275.03L662.111 279.789Z" fill="#FBC951"/>
<path d="M682.482 272.36C680.94 271.038 677.675 271.466 674.751 273.475C671.827 275.482 670.26 278.383 670.941 280.293L682.482 272.36Z" fill="#FBC951"/>
<path d="M628.906 282.412C630.523 283.644 634.797 287.134 635.768 287.739L636.389 287.118L629.635 281.152L629.567 280.617L629.589 280.588L630.099 280.547L637.163 286.347L637.731 285.775L631.33 279.285L631.312 278.744L631.32 278.736L631.328 278.728L631.863 278.744L638.446 285.065L639.014 284.491L633.131 277.516L633.172 277.004L633.199 276.979L633.734 277.051L639.701 283.805L640.323 283.186C639.718 282.213 636.226 277.943 634.993 276.324C634.215 275.308 632.784 272.591 630.457 274.918L629.629 275.744L609.041 254.139C608.827 253.914 607.575 253.986 606.84 254.721C606.095 255.462 606.021 256.673 606.213 256.877L628.222 277.152L627.5 277.873C625.173 280.2 627.89 281.633 628.906 282.412" fill="#3C47A4"/>
<path d="M649.092 283.314C630.921 283.314 616.192 280.964 616.192 278.063C616.514 295.962 631.115 310.373 649.09 310.373C667.069 310.373 681.666 295.962 681.99 278.063C681.99 280.964 667.261 283.314 649.092 283.314Z" fill="#78D1BF"/>
<path d="M605.378 251.244L568.841 291.966C565.081 295.555 559.124 295.414 555.535 291.654C551.942 287.896 552.082 281.935 555.843 278.346L611.558 207.99C613.427 213.725 611.279 230.679 605.378 251.244" fill="#FAB991"/>
<path d="M607.684 270.768C610.148 271.538 616.997 268.242 619.58 265.448C623.718 261.003 624.265 254.639 621.552 252.671C618.806 250.715 615.068 253.014 611.209 256.871C610.552 257.515 609.751 257.693 610.121 256.439C610.879 253.926 610.651 252.514 609.863 252.285C608.649 251.95 602.033 259.886 602.245 263.198C602.406 265.589 602.739 269.235 607.684 270.768" fill="#F68A54"/>
<path d="M610.252 273.107L566.377 294.776C561.679 297.002 556.064 294.997 553.838 290.3C551.614 285.606 553.617 279.987 558.313 277.766L602.19 256.096C605.168 254.886 612.856 271.732 610.252 273.107" fill="#FBC89D"/>
<path d="M731.007 287.844C734.327 293.164 734.061 298.289 730.004 302.58C725.69 307.137 716.334 306.629 712.363 301.77L695.14 257.629C688.274 246.957 682.783 201.742 682.783 201.742C682.783 201.742 687.679 204.558 692.315 209.337C707.403 224.871 719.421 269.275 731.007 287.844Z" fill="#FCD7B8"/>
<path d="M670.803 303.903C669.655 306.214 662.533 308.88 658.73 308.812C652.661 308.727 647.686 304.713 648.141 301.394C648.628 298.064 652.873 296.955 658.331 296.833C659.246 296.8 659.929 296.35 658.769 295.749C656.431 294.555 655.566 293.418 655.95 292.687C656.543 291.578 666.853 292.292 669.097 294.739C670.712 296.511 673.114 299.27 670.803 303.903Z" fill="#F68A54"/>
<path d="M732.802 293.88C733.376 299.93 728.941 305.299 722.888 305.871L673.087 308.351C667.035 308.927 664.067 292.119 670.115 291.547L720.809 283.969C726.859 283.39 732.23 287.828 732.802 293.88" fill="#FCD7B8"/>
<path d="M289.509 814.389C289.509 820.183 284.786 824.913 278.973 824.913H173.193C167.368 824.913 162.661 820.183 162.661 814.389C162.661 808.572 167.368 803.829 173.193 803.829H278.973C284.786 803.829 289.509 808.572 289.509 814.389Z" fill="#78D1BF"/>
<path d="M289.509 746.068C289.509 757.546 280.206 766.826 268.754 766.826H183.428C171.953 766.826 162.661 757.546 162.661 746.068V706.222C162.661 694.768 171.953 685.472 183.428 685.472H268.754C280.206 685.472 289.509 694.768 289.509 706.222V746.068Z" fill="#78D1BF"/>
<path d="M183.151 841.635V816.214C183.151 812.778 180.382 810.027 176.985 810.027C173.557 810.027 170.788 812.778 170.788 816.214V841.635H183.151" fill="#78D1BF"/>
<path d="M281.362 841.635V816.214C281.362 812.778 278.612 810.027 275.184 810.027C271.779 810.027 269.008 812.778 269.008 816.214V841.635H281.362" fill="#78D1BF"/>
<path d="M219.316 599.976H235.549V616.37C235.549 618.697 234.541 621.363 226.824 621.363C221.951 621.363 219.804 619.128 219.316 617.169V599.976" fill="#F68A54"/>
<path d="M201.397 585.09C201.397 586.889 202.909 588.357 204.778 588.357C206.669 588.357 208.172 586.889 208.172 585.09C208.172 583.279 206.669 581.815 204.778 581.815C202.909 581.815 201.397 583.279 201.397 585.09Z" fill="#F68A54"/>
<path d="M246.04 585.09C246.04 586.889 247.572 588.357 249.431 588.357C251.31 588.357 252.823 586.889 252.823 585.09C252.823 583.279 251.31 581.815 249.431 581.815C247.572 581.815 246.04 583.279 246.04 585.09Z" fill="#F68A54"/>
<path d="M205.25 587.82C205.25 599.976 216.037 608.304 227.107 608.304C237.768 608.304 248.976 599.681 248.976 587.347V576.323C248.976 564.73 239.185 555.323 227.107 555.323C215.031 555.323 205.25 564.73 205.25 576.323V587.82" fill="#F68A54"/>
<path d="M215.167 582.315C215.601 582.315 216.012 582.46 216.268 582.767C216.497 583.026 216.625 583.368 216.625 583.746C216.625 584.448 216.121 585.179 215.167 585.179C214.744 585.179 214.348 585.002 214.077 584.706C213.848 584.448 213.716 584.101 213.716 583.746C213.716 583.021 214.218 582.315 215.167 582.315Z" fill="#35346F"/>
<path d="M239.812 582.315C240.246 582.315 240.646 582.46 240.907 582.767C241.142 583.026 241.272 583.368 241.272 583.746C241.272 584.448 240.766 585.179 239.812 585.179C239.372 585.179 238.999 585.002 238.72 584.706C238.495 584.448 238.365 584.101 238.365 583.746C238.365 583.021 238.858 582.315 239.812 582.315Z" fill="#35346F"/>
<path d="M235.548 593.724C235.457 596.677 232.112 600.011 227.534 599.976C222.961 600.011 219.634 596.677 219.549 593.724C224.15 597.426 230.937 597.426 235.548 593.724Z" fill="white"/>
<path d="M225.046 592.264L225.502 592.237C225.756 592.2 225.961 591.983 225.934 591.739C225.909 591.49 225.7 591.281 225.424 591.328C224.482 591.409 223.737 591.139 223.654 590.942C223.631 590.849 223.716 590.533 224.501 590.021C226.884 588.473 227.142 583.056 227.162 582.827C227.162 582.569 226.968 582.359 226.708 582.354C226.427 582.336 226.231 582.532 226.221 582.786C226.157 584.227 225.618 588.188 223.966 589.268C222.929 589.945 222.533 590.604 222.777 591.248C223.035 591.958 224.049 592.264 225.046 592.264Z" fill="#35346F"/>
<path d="M209.748 590.519C209.748 592.293 212.023 593.724 214.825 593.724C217.64 593.724 219.901 592.293 219.901 590.519C219.901 588.735 217.64 587.304 214.825 587.304C212.023 587.304 209.748 588.735 209.748 590.519" fill="#F36050"/>
<path d="M234.31 590.519C234.31 592.293 236.591 593.724 239.4 593.724C242.193 593.724 244.477 592.293 244.477 590.519C244.477 588.735 242.193 587.304 239.4 587.304C236.591 587.304 234.31 588.735 234.31 590.519Z" fill="#F36050"/>
<path d="M244.146 561.272C244.146 561.272 233.5 548.188 214.331 554.693C197.053 560.586 204.518 584.485 204.518 584.485C204.518 584.485 210.976 582.352 221.24 572.185C222.337 571.08 220.216 581.409 222.521 581.409C235.329 581.409 234.53 570.551 235.139 570.551C239.533 570.551 244.369 573.45 245.406 577.721C245.984 580.056 247.958 587.296 247.958 587.296C247.958 587.296 250.51 587.868 251.784 578.487C253.058 569.118 253.22 557.887 244.146 561.272" fill="#35346F"/>
<path d="M180.188 641.182C180.188 623.549 201.042 612.725 218.335 611.788L228.166 621.794L235.677 611.643C254.279 615.345 271.623 622.205 271.623 639.583C271.623 678.655 271.623 790.444 271.623 790.444H180.188C180.188 790.444 180.188 675.017 180.188 641.182Z" fill="#FCD7B8"/>
<path d="M224.033 790.444H230.917V621.185C228.611 621.088 226.31 621.045 224.033 621.045V790.444Z" fill="#FABE96"/>
<path d="M229.044 645.675C229.044 646.513 228.344 647.191 227.473 647.191C226.607 647.191 225.905 646.513 225.905 645.675C225.905 644.834 226.607 644.157 227.473 644.157C228.344 644.157 229.044 644.834 229.044 645.675Z" fill="white"/>
<path d="M229.044 659.617C229.044 660.455 228.344 661.137 227.473 661.137C226.607 661.137 225.905 660.455 225.905 659.617C225.905 658.781 226.607 658.099 227.473 658.099C228.344 658.099 229.044 658.781 229.044 659.617Z" fill="white"/>
<path d="M229.044 673.562C229.044 674.402 228.344 675.083 227.473 675.083C226.607 675.083 225.905 674.402 225.905 673.562C225.905 672.727 226.607 672.05 227.473 672.05C228.344 672.05 229.044 672.727 229.044 673.562Z" fill="white"/>
<path d="M229.044 687.508C229.044 688.349 228.344 689.03 227.473 689.03C226.607 689.03 225.905 688.349 225.905 687.508C225.905 686.67 226.607 685.992 227.473 685.992C228.344 685.992 229.044 686.67 229.044 687.508Z" fill="white"/>
<path d="M229.044 701.454C229.044 702.293 228.344 702.972 227.473 702.972C226.607 702.972 225.905 702.293 225.905 701.454C225.905 700.616 226.607 699.939 227.473 699.939C228.344 699.939 229.044 700.616 229.044 701.454Z" fill="white"/>
<path d="M229.044 715.4C229.044 716.239 228.344 716.918 227.473 716.918C226.607 716.918 225.905 716.239 225.905 715.4C225.905 714.562 226.607 713.881 227.473 713.881C228.344 713.881 229.044 714.562 229.044 715.4Z" fill="white"/>
<path d="M229.044 729.347C229.044 730.182 228.344 730.863 227.473 730.863C226.607 730.863 225.905 730.182 225.905 729.347C225.905 728.509 226.607 727.832 227.473 727.832C228.344 727.832 229.044 728.509 229.044 729.347Z" fill="white"/>
<path d="M229.044 743.29C229.044 744.128 228.344 744.809 227.473 744.809C226.607 744.809 225.905 744.128 225.905 743.29C225.905 742.455 226.607 741.778 227.473 741.778C228.344 741.778 229.044 742.455 229.044 743.29Z" fill="white"/>
<path d="M229.044 757.236C229.044 758.074 228.344 758.756 227.473 758.756C226.607 758.756 225.905 758.074 225.905 757.236C225.905 756.402 226.607 755.72 227.473 755.72C228.344 755.72 229.044 756.402 229.044 757.236Z" fill="white"/>
<path d="M229.044 771.182C229.044 772.021 228.344 772.702 227.473 772.702C226.607 772.702 225.905 772.021 225.905 771.182C225.905 770.344 226.607 769.665 227.473 769.665C228.344 769.665 229.044 770.344 229.044 771.182Z" fill="white"/>
<path d="M238.437 754.929L227.933 766.693L217.423 754.929L223.967 627.243H231.896L238.437 754.929" fill="#3C47A4"/>
<path d="M232.111 631.431L231.896 627.243L232.193 631.349L232.111 631.431V631.431ZM223.754 631.427L223.673 631.349L223.967 627.243L223.754 631.427" fill="#98806D"/>
<path d="M227.933 635.528L223.754 631.427L223.967 627.243H231.896L232.111 631.431L227.933 635.528Z" fill="#22285D"/>
<path d="M227.933 633.612L221.445 627.243L227.933 620.879L234.423 627.243L227.933 633.612Z" fill="#3C47A4"/>
<path d="M241.122 612.764L231.287 624.167L227.813 620.972L235.677 611.643L241.122 612.764" fill="#FABE96"/>
<path d="M213.749 612.135L224.437 624.303L227.974 620.972L219.271 611.643L213.749 612.135Z" fill="#FABE96"/>
<path d="M270.14 814.389H182.225L180.189 788.984L180.139 780.243H271.623V788.984L270.14 814.389" fill="#262551"/>
<path d="M267.23 841.635C268.83 825.652 270.344 809.061 271.606 792.637C272.351 783.051 264.601 775.325 249.381 775.325C234.173 775.325 229.042 788.826 229.042 792.637V841.635H267.23Z" fill="#35346F"/>
<path d="M222.744 841.635V792.637C222.744 788.826 217.611 775.325 202.394 775.325C187.18 775.325 179.433 783.051 180.189 792.637C181.46 809.061 182.973 825.652 184.571 841.635H222.744" fill="#35346F"/>
<path d="M324.484 735.453C324.484 739.986 320.792 743.688 316.247 743.688H140.072C135.529 743.688 131.855 739.986 131.855 735.453V643.408C131.855 638.846 135.529 635.183 140.072 635.183H316.247C320.792 635.183 324.484 638.846 324.484 643.408V735.453" fill="#35346F"/>
<path d="M270.683 771.288H185.653V743.688H270.683V771.288Z" fill="#35346F"/>
<path d="M290.789 771.288H165.537V764.81H290.789V771.288Z" fill="#35346F"/>
<path d="M387.931 841.635V784.47H373.317V841.635H387.931" fill="#9C9A9B"/>
<path d="M83.0414 841.635V784.47H68.3838V841.635H83.0414" fill="#9C9A9B"/>
<path d="M408.71 784.47H47.6304V771.288H408.71V784.47" fill="#BDBCBC"/>
<path d="M387.93 841.635V784.47H68.3838V841.635H387.93Z" fill="#BDBCBC"/>
<path d="M387.93 796.414H68.3838V784.47H387.93V796.414" fill="#9C9A9B"/>
<path d="M369.857 771.839H330.491V768.717H369.857V771.839Z" fill="#B73334"/>
<path d="M370.546 752.263C370.391 753.162 370.175 754.042 369.912 754.896C371.641 755.437 372.902 757.029 372.902 758.937C372.902 761.285 370.996 763.193 368.651 763.193C367.629 763.193 366.701 762.817 365.968 762.217C365.396 762.91 364.775 763.567 364.118 764.184C365.334 765.237 366.918 765.882 368.651 765.882C372.477 765.882 375.593 762.766 375.593 758.937C375.593 755.768 373.456 753.094 370.546 752.263Z" fill="#F14448"/>
<path d="M349.463 752.404C337.646 752.404 328.064 750.876 328.064 748.992C328.275 760.631 337.772 770.001 349.461 770.001C361.151 770.001 370.647 760.631 370.858 748.992C370.858 750.876 361.279 752.404 349.463 752.404Z" fill="#F14448"/>
<path d="M349.463 745.575C360.841 745.575 370.135 746.992 370.812 748.778C370.135 745.951 360.841 743.708 349.463 743.708C338.083 743.708 328.785 745.951 328.11 748.778C328.785 746.992 338.083 745.575 349.463 745.575Z" fill="#CD393C"/>
<path d="M370.858 748.992C370.858 750.876 361.279 752.404 349.463 752.404C337.646 752.404 328.064 750.876 328.064 748.992C328.064 747.106 337.646 745.575 349.463 745.575C361.279 745.575 370.858 747.106 370.858 748.992" fill="#5B291E"/>
<path d="M345.616 721.628C345.616 721.628 354.574 727.076 348.003 729.279C341.435 731.48 344.757 734.916 350.411 735.812C356.066 736.706 357.262 745.367 348.75 747.012C348.75 747.012 355.47 744.766 348.75 741.782C342.033 738.796 336.359 732.3 342.331 729.279C348.302 726.254 348.154 724.912 345.616 721.628" fill="#FCD7B8"/>
<path d="M457.26 839.836H839.793V457.303H457.26V839.836Z" fill="#E5E8ED"/>
<path d="M593.996 839.836H701.397V675.643C701.397 668.969 703.073 655.572 694.909 651.946C679.364 645.033 668.199 640.705 656.846 640.705L648.603 640.568V640.552L647.701 640.564L646.786 640.552V640.568L638.549 640.705C632.243 640.705 616.463 642.113 607.206 645.933C593.282 651.675 593.996 664.823 593.996 675.643V839.836" fill="#3C47A4"/>
<path d="M657.461 627.252H637.151V648.021C637.151 650.969 638.412 654.329 648.047 654.329C654.149 654.329 656.832 651.506 657.461 649.037V627.252" fill="#F68A54"/>
<path d="M679.363 608.389C679.363 610.675 677.52 612.531 675.246 612.531C672.95 612.531 671.089 610.675 671.089 608.389C671.089 606.095 672.95 604.247 675.246 604.247C677.52 604.247 679.363 606.095 679.363 608.389Z" fill="#F68A54"/>
<path d="M624.751 608.389C624.751 610.675 622.897 612.531 620.607 612.531C618.311 612.531 616.463 610.675 616.463 608.389C616.463 606.095 618.311 604.247 620.607 604.247C622.897 604.247 624.751 606.095 624.751 608.389Z" fill="#F68A54"/>
<path d="M674.672 611.85C674.672 627.252 661.463 637.789 647.909 637.789C634.894 637.789 621.168 626.872 621.168 611.253V597.298C621.168 582.602 633.135 570.696 647.909 570.696C662.706 570.696 674.672 582.602 674.672 597.298V611.85Z" fill="#F68A54"/>
<path d="M662.523 604.868C662 604.868 661.503 605.081 661.187 605.452C660.891 605.779 660.751 606.219 660.751 606.696C660.751 607.586 661.352 608.506 662.523 608.506C663.055 608.506 663.532 608.279 663.861 607.901C664.121 607.586 664.296 607.133 664.296 606.696C664.296 605.77 663.683 604.868 662.523 604.868Z" fill="#35346F"/>
<path d="M632.379 604.868C631.84 604.868 631.359 605.081 631.043 605.452C630.754 605.779 630.595 606.219 630.595 606.696C630.595 607.586 631.206 608.506 632.379 608.506C632.905 608.506 633.386 608.279 633.713 607.901C634.002 607.586 634.155 607.133 634.155 606.696C634.155 605.77 633.543 604.868 632.379 604.868Z" fill="#35346F"/>
<path d="M637.595 619.335C637.698 623.085 641.784 627.295 647.395 627.252C652.989 627.295 657.067 623.085 657.174 619.335C651.535 624.028 643.244 624.028 637.595 619.335Z" fill="white"/>
<path d="M650.438 617.479C650.238 617.479 650.061 617.452 649.879 617.439C649.573 617.398 649.323 617.123 649.359 616.818C649.381 616.496 649.641 616.238 649.972 616.293C651.155 616.403 652.039 616.072 652.142 615.802C652.175 615.692 652.059 615.294 651.105 614.656C648.2 612.676 647.88 605.812 647.841 605.529C647.841 605.199 648.087 604.936 648.419 604.928C648.747 604.881 649.001 605.151 649.005 605.469C649.086 607.301 649.743 612.325 651.756 613.675C653.018 614.555 653.513 615.387 653.243 616.188C652.9 617.105 651.655 617.479 650.438 617.479" fill="#35346F"/>
<path d="M669.155 615.277C669.155 617.499 666.373 619.335 662.945 619.335C659.518 619.335 656.738 617.499 656.738 615.277C656.738 613.014 659.518 611.191 662.945 611.191C666.373 611.191 669.155 613.014 669.155 615.277Z" fill="#F36050"/>
<path d="M639.104 615.277C639.104 617.499 636.325 619.335 632.885 619.335C629.465 619.335 626.671 617.499 626.671 615.277C626.671 613.014 629.465 611.191 632.885 611.191C636.325 611.191 639.104 613.014 639.104 615.277Z" fill="#F36050"/>
<path d="M628.204 575.765C628.204 575.765 641.086 559.368 664.296 567.539C685.224 574.91 676.18 604.868 676.18 604.868C676.18 604.868 668.364 602.19 655.933 589.449C654.599 588.062 657.174 601.009 654.382 601.009C638.871 601.009 639.839 587.397 639.104 587.397C633.787 587.397 627.925 591.046 626.671 596.394C625.982 599.322 623.574 608.389 623.574 608.389C623.574 608.389 620.487 609.103 618.949 597.35C617.418 585.602 617.218 571.538 628.204 575.765" fill="#35346F"/>
<path d="M517.954 596.491C517.954 596.491 514.023 586.191 515.786 577.644C517.549 569.106 541.409 581.169 541.409 581.169C541.409 581.169 538.832 598.254 532.326 601.508L517.954 596.491" fill="#F68A54"/>
<path d="M572.81 592.588L482.429 575.778L483.926 567.632L574.307 584.436L572.81 592.588" fill="#35346F"/>
<path d="M559.07 602.487L550.147 600.848L556.072 568.652L564.994 570.293L559.07 602.487Z" fill="#3C47A4"/>
<path d="M565.546 599.169L559.824 598.116L564.144 574.648L569.865 575.697L565.546 599.169Z" fill="#4E6ABC"/>
<path d="M491.749 589.926L500.669 591.562L506.591 559.368L497.671 557.73L491.749 589.926Z" fill="#3C47A4"/>
<path d="M486.875 584.516L492.598 585.569L496.914 562.093L491.192 561.045L486.875 584.516Z" fill="#4E6ABC"/>
<path d="M530.903 572.046C533.827 572.451 543.462 574.656 542.34 577.876C541.002 581.714 533.327 581.396 526.629 580.899C521.14 580.496 515.053 575.46 515.594 572.955C516.137 570.446 526.986 571.511 530.903 572.046" fill="#F68A54"/>
<path d="M538.863 591.481C538.863 591.481 529.705 583.306 534.857 579.197C537.767 576.87 539.962 581.939 540.447 585.945C540.447 585.945 539.929 590.635 538.863 591.481Z" fill="#F79465"/>
<path d="M515.375 704.793C506.535 707.133 497.462 701.855 495.128 693.013C492.791 684.161 498.083 675.083 506.913 672.76L603.324 647.327C612.176 644.985 621.237 650.259 623.566 659.111C625.895 667.953 620.623 677.03 611.788 679.358L515.375 704.793Z" fill="#F68A54"/>
<path d="M495.682 684.105C492.51 692.077 496.41 701.091 504.377 704.25C512.349 707.416 521.367 703.507 524.534 695.547L532.325 601.509C535.47 593.554 521.117 588.51 517.954 596.491L495.682 684.105Z" fill="#F68A54"/>
<path d="M626.714 658.112C624.385 649.264 615.017 643.141 606.164 645.485L568.6 655.128L572.94 691.287L611.8 682.31C620.635 679.983 629.048 666.952 626.714 658.112Z" fill="#3C47A4"/>
<path d="M777.879 596.491C777.879 596.491 781.812 586.191 780.051 577.644C778.287 569.106 754.423 581.169 754.423 581.169C754.423 581.169 757 598.254 763.509 601.508L777.879 596.491Z" fill="#F68A54"/>
<path d="M723.02 592.588L813.404 575.778L811.904 567.632L721.525 584.436L723.02 592.588" fill="#35346F"/>
<path d="M736.762 602.487L745.684 600.848L739.762 568.652L730.84 570.293L736.762 602.487Z" fill="#3C47A4"/>
<path d="M730.288 599.169L736.008 598.116L731.69 574.648L725.971 575.697L730.288 599.169Z" fill="#4E6ABC"/>
<path d="M804.088 589.926L795.168 591.562L789.244 559.368L798.164 557.73L804.088 589.926Z" fill="#3C47A4"/>
<path d="M808.958 584.516L803.236 585.569L798.918 562.093L804.64 561.045L808.958 584.516Z" fill="#4E6ABC"/>
<path d="M764.931 572.046C762.005 572.451 752.373 574.656 753.492 577.876C754.832 581.714 762.507 581.396 769.206 580.899C774.692 580.496 780.78 575.46 780.237 572.955C779.696 570.446 768.849 571.511 764.931 572.046Z" fill="#F68A54"/>
<path d="M756.971 591.481C756.971 591.481 766.127 583.306 760.975 579.197C758.068 576.87 755.871 581.939 755.388 585.945C755.388 585.945 755.904 590.635 756.971 591.481Z" fill="#F79465"/>
<path d="M780.458 704.793C789.3 707.133 798.375 701.855 800.706 693.013C803.04 684.161 797.749 675.083 788.92 672.76L692.511 647.327C683.657 644.985 674.6 650.259 672.267 659.111C669.935 667.953 675.211 677.03 684.045 679.358L780.458 704.793Z" fill="#F68A54"/>
<path d="M800.152 684.105C803.326 692.077 799.421 701.091 791.457 704.25C783.482 707.416 774.465 703.507 771.297 695.547L763.509 601.509C760.362 593.554 774.715 588.51 777.878 596.491L800.152 684.105Z" fill="#F68A54"/>
<path d="M731.914 656.939L688.297 644.609C679.442 642.266 670.633 650.063 668.3 658.911C665.973 667.755 672.928 678.547 681.761 680.878L722.938 692.732L731.914 656.939" fill="#3C47A4"/>
</svg>
