<svg width="1140" height="941" viewBox="0 0 1140 941" fill="none" xmlns="http://www.w3.org/2000/svg">
<path d="M982.578 940.055C975.514 940.055 968.411 939.864 961.228 939.397C933.791 937.616 905.977 936.727 878.677 934.184C816.02 928.351 753.335 928.005 690.223 928.005C665.167 928.005 640.116 927.843 615.065 927.843C578.583 927.843 542.111 928.188 505.7 929.883C448.889 932.527 391.992 932.948 335.079 932.948C326.509 932.948 317.932 932.939 309.364 932.925C308.805 932.924 308.252 932.924 307.695 932.924C276.195 932.924 244.816 934.275 213.364 935.228C181.767 936.186 151.037 937.758 119.623 937.758C116.791 937.758 113.952 937.747 111.107 937.719C79.7172 937.419 31.9226 931.057 9.52856 914.845C-3.7673 905.213 -1.9641 882.04 11.3515 872.753C17.1679 868.696 26.5452 865.519 34.2052 863.586C56.0266 858.079 78.2319 858.064 101.033 857.951C101.312 857.95 101.591 857.948 101.871 857.948C117.604 857.948 133.964 860.155 149.043 863.219C162.763 866.007 176.78 866.984 190.733 868.72C202.151 870.14 214.367 870.82 226.448 870.82C234.309 870.82 242.116 870.532 249.604 869.972C269.863 868.459 290.267 867.755 310.585 866.562C335.817 865.081 360.509 861.868 385.652 860.147C398.239 859.284 410.533 857.148 423.092 856.176C456.4 853.599 489.767 853.041 523.133 852.972C525.829 852.967 528.524 852.964 531.22 852.964C547.115 852.964 563.008 853.047 578.893 853.047C591.809 853.047 604.713 853.02 617.623 853.02C661.784 853.02 705.912 853.335 749.955 856.121C763.604 856.986 777.164 856.463 790.623 858.517C804.136 860.58 817.777 862.462 831.621 862.829C843.468 863.143 855.347 863.247 867.241 863.247C888.396 863.247 909.591 862.919 930.675 862.865C932.788 862.86 935.729 862.852 939.38 862.852C986.587 862.852 1150.98 864.362 1139.19 894.876C1134.65 906.603 1108.31 921.864 1093.53 926.776C1074.86 932.983 1054.44 936.653 1033.89 937.892C1016.57 938.935 999.681 940.055 982.578 940.055" fill="#E4E4E4"/>
<path d="M901.124 884.302H885.678L885.042 754.544L913.803 760.729L901.124 884.302" fill="#E5BBAE"/>
<path d="M782.803 885.781L784.025 895.295L766.223 907.253L755.487 898.964L763.776 888.228L781.579 876.269L782.803 885.781" fill="#122235"/>
<path d="M783.404 882.588L769.675 761.265L786.193 625.446L782.479 596.555L708.696 593.751L706.033 640.775L718.42 761.452L765.019 888.788L783.404 882.588" fill="#1A3151"/>
<path d="M656.065 635.604L653.193 730.084L673.286 888.336L691.021 888.671L704.966 743.261L725.684 631.921L656.065 635.604Z" fill="#1A3151"/>
<path d="M690.778 896.147L671.419 905.375L662.01 895.605L671.78 886.196L690.958 886.557L690.778 896.147" fill="#122235"/>
<path d="M790.72 649.046C789.969 640.796 791.5 625.003 791.016 620.922C787.731 593.136 788.903 566.232 784.115 538.423C782.324 528.032 776.089 502.095 771.584 492.456C760.381 468.49 763.843 466.275 714.635 459.158C700.956 457.179 690.008 463.76 681.483 474.131C670.549 487.43 672.583 508.974 666.755 524.699C660.083 542.698 662.583 562.322 659.875 581.222C656.601 604.074 652.361 627.772 650.267 650.171C650.2 650.886 650.172 651.712 650.701 652.198C651.135 652.594 651.785 652.608 652.373 652.595C669.265 652.215 686.059 650.35 703.029 650.476C716.176 650.574 729.035 653.59 742.119 654.424C748.02 654.8 754.363 653.52 760.764 652.24C771.719 650.05 782.843 647.859 792.212 653.974C791.408 653.448 790.953 651.612 790.72 649.046" fill="#145566"/>
<path d="M714.572 465.916C717.056 467.143 722.916 467.583 729.031 465.188C730.263 464.704 731.093 463.516 731.076 462.194C731.028 458.48 730.729 454.771 730.183 451.096C734.768 449.484 740.067 447.067 740.867 442.272C741.117 440.762 740.856 439.219 740.596 437.71C739.519 431.474 738.44 425.236 737.363 419C736.989 416.843 736.593 414.623 735.421 412.775C733.363 409.532 729.368 408.112 725.583 407.455C715.925 405.779 705.401 407.871 697.913 414.198C695.92 415.88 694.119 417.904 693.239 420.36C691.884 424.147 692.899 428.326 693.92 432.215C694.863 435.807 695.805 439.398 696.748 442.988C697.832 447.119 699.399 451.814 703.377 453.363C705.491 454.186 707.985 453.946 709.899 455.162C713.272 457.308 712.817 462.323 714.572 465.916" fill="#E5BBAE"/>
<path d="M658.833 403.719C657.884 402.16 656.863 400.657 655.72 399.248C653.243 396.195 650.192 393.577 648.199 390.189C646.207 386.8 645.505 382.207 647.896 379.087C649.439 377.072 651.943 376.066 654.376 375.35C662.397 372.988 671.052 372.83 679.153 374.891C686.871 376.855 693.776 380.108 701.544 377.207C708.843 374.481 714.115 375.592 721.743 378.314C729.997 381.259 741.079 381.953 748.551 386.112C751.671 387.848 754.16 390.562 756.101 393.559C762.824 403.944 762.861 418.261 756.192 428.681C754.696 431.019 752.905 433.156 751.024 435.196C747.129 439.42 742.472 444.636 737.115 446.202C736.987 441.41 741.352 426.298 737.672 422.37C731.831 416.136 718.625 418.311 711.379 419.845C703.476 421.52 696.431 427.116 688.596 428.312C682.957 429.172 675.761 426.408 670.967 423.494C665.049 419.895 662.295 409.403 658.833 403.719" fill="#101E30"/>
<path d="M804.829 396.379L797.089 376.19L804.257 367.255L811.838 373.742L814.99 381.962L820.54 382.096L820.27 397.116L852.061 461.65L907.042 461.107L894.869 504.8L840.685 485.959L824.144 470.066L804.829 396.379" fill="#E5BBAE"/>
<path d="M1001.41 384.006L1000.93 368.882L1012.76 356.662L1022.49 359.01L1014.12 394.8L1001.41 384.006" fill="#E5BBAE"/>
<path d="M940.532 455.608L984.549 471.686L1001.41 384.006L1013.19 386.516L1016.82 486.611L1002.97 508.08L959.115 495.494L940.532 455.608" fill="#E5BBAE"/>
<path d="M919.148 672.372L988.495 649.101L970.907 768.912L934.519 781.46L921.339 682.572L919.148 672.372" fill="#145566"/>
<path d="M963.174 879.45L977.224 879.497L980.469 891.447L980.113 891.541L980.202 891.553L956.597 904.643L945.526 905.553L944.485 892.9L947.529 890.802L963.174 879.45Z" fill="#122235"/>
<path d="M871.081 673.097L884.26 764.397L916.177 769.776L943.004 659.765L871.081 673.097" fill="#145566"/>
<path d="M885.679 884.302L867.395 893.987L868.837 902.526L901.124 902.281V884.302H885.679" fill="#122235"/>
<path d="M867.395 677.856C870.764 678.725 874.783 677.499 878.299 677.455C894.463 677.249 910.103 677.567 926.273 676.004C943.551 674.335 960.82 672.207 978.201 672.071C985.426 671.338 992.655 670.948 999.853 671.14C992.167 630.376 983.196 591.867 983.201 591.864C980.16 580.266 977.84 568.468 976.451 556.639C975.463 548.219 954.533 452.515 955.921 452.392C941.505 453.661 913.708 449.552 903.031 461.896C902.725 462.25 902.433 462.616 902.157 462.996C893.832 474.442 889.508 497.616 885.572 511.882C879.831 532.692 880.444 554.474 879.703 575.85C878.653 606.115 869.211 634.637 868.344 664.852C868.22 669.205 867.649 673.531 867.395 677.856Z" fill="#B5D6CA"/>
<path d="M929.489 404.673C921.588 405.583 911.525 411.623 909.104 419.736C907.937 423.644 908.989 427.382 907.576 431.514C904.818 439.671 914.062 452.56 903.74 457.678C898.434 460.31 892.11 458.93 886.364 457.498C885.668 457.323 884.939 457.134 884.411 456.647C883.541 455.847 883.477 454.452 883.9 453.348C884.321 452.243 885.13 451.34 885.848 450.4C893.354 440.574 892.665 425.728 896.088 414.2C899.505 402.696 906.543 391.476 918.427 387.442C923.949 391.556 927.631 395.832 928.627 402.647L929.489 404.673Z" fill="#101E30"/>
<path d="M919.053 453.055C911.752 449.349 907.276 441.376 906.165 433.264C905.053 425.152 906.896 416.904 909.624 409.184C918.7 383.493 951.054 393.144 957.246 416.027C962.644 435.97 940.282 463.828 919.053 453.055Z" fill="#E5BBAE"/>
<path d="M953.696 471.214C950.159 468.679 946.701 466.043 944.845 461.621C941.845 454.475 944.007 443.819 944.087 436.284C944.173 428.343 944.017 419.673 938.971 413.543C935.675 409.537 931.384 408.216 926.495 407.392C923.145 406.828 922.824 408.077 920.26 405.845C918.295 404.135 917.063 399.73 916.925 397.242C916.696 393.047 918.98 389.005 922.148 386.245C927.023 381.997 932.291 380.322 938.541 381.13C960.487 383.966 974.937 399.424 977.86 421.728C979.265 432.449 975.336 443.551 976.999 453.916C978.024 460.314 981.319 464.974 981.916 471.712C983.471 489.2 989.515 512.179 986.159 529.507C986.035 530.148 985.851 530.852 985.303 531.207C984.185 531.931 982.873 530.644 982.165 529.516C978.041 522.938 973.917 516.358 969.792 509.778C968.173 507.194 966.533 504.565 965.689 501.636C963.587 494.34 966.547 485.765 962.516 479.332C960.316 475.821 956.972 473.562 953.696 471.214" fill="#101E30"/>
<path d="M201.189 340.227L200.705 325.103L212.536 312.881L220.188 317.307L213.433 346.225L201.189 340.227Z" fill="#E5BBAE"/>
<path d="M156.646 480.161L184.329 427.906L201.189 340.227L212.966 342.737L213.44 436.616L202.748 464.3L175.229 520.047L156.646 480.161Z" fill="#E5BBAE"/>
<path d="M97.924 883.447L96.9919 890.889L110.304 900.509L118.355 894.157L112.165 885.627L98.8533 876.005L97.924 883.447" fill="#122235"/>
<path d="M103.648 655.388L100.821 677.988L119.273 756.303L97.4785 880.935L111.233 886.05L150.688 764.8L157.331 729.413L158.896 654.204L103.648 655.388" fill="#9EA6AD"/>
<path d="M209.719 683.156L175.597 892.052L162.337 891.739L163.124 757.339L141.217 662.475L209.719 683.156" fill="#9EA6AD"/>
<path d="M162.453 890.083L162.275 897.612L176.436 905.477L183.784 898.119L176.792 890.421L162.453 890.083Z" fill="#122235"/>
<path d="M109.12 595.75C110.152 591.57 110.871 588.614 111.127 587.546C115.765 568.238 114.264 545.659 115.419 525.657C116.319 510.047 115.573 494.335 116.629 478.755C117.448 466.677 127.072 460.628 127.072 460.628C131.256 459.895 134.932 457.583 139.155 456.736C167.717 451.007 182.755 470.796 192.896 491.996C200.977 508.891 207.475 524.057 208.039 542.631C208.96 572.948 205.731 603.243 211.864 632.941C215.42 650.155 216.729 667.828 215.749 685.376C204.016 681.725 193.052 676.944 181.659 672.852C170.572 668.871 157.668 668.875 145.565 668.877C142.908 668.879 140.291 668.879 137.737 668.837C133.039 668.76 128.371 668.819 123.716 668.877C112.132 669.023 100.636 669.168 88.9746 667.235C91.1293 667.592 103.989 616.536 109.12 595.75" fill="#1A3151"/>
<path d="M164.8 457.66L168.329 537.184L129.408 460.75L141.38 456.79L149.921 454.447L164.8 457.66" fill="#ECECEC"/>
<path d="M340.719 733.468L164.14 695.899L213.815 462.306L390.393 499.875L340.719 733.468Z" fill="#145566"/>
<path d="M333.948 721.537L175.18 687.757L221.139 471.64L379.907 505.42L333.948 721.537Z" fill="white"/>
<path d="M334.998 495.866L266.045 481.195L266.288 480.053L335.241 494.724L334.998 495.866Z" fill="#124B5A"/>
<path d="M333.877 501.14L264.924 486.47L266.045 481.195L334.998 495.866L333.877 501.14Z" fill="#E0E0E0"/>
<path d="M313.916 470.192L295.749 466.327C293.892 465.932 292.693 464.103 293.085 462.262C293.476 460.422 295.316 459.238 297.173 459.632L315.34 463.498C317.197 463.894 318.396 465.723 318.004 467.563C317.613 469.404 315.773 470.587 313.916 470.192ZM325.236 472.307L324.167 472.079L324.318 471.364C325.75 464.627 320.585 457.82 312.779 456.159L302.499 453.972C294.692 452.311 287.204 456.427 285.771 463.163L285.618 463.878L284.549 463.65C276.743 461.99 269.254 466.104 267.821 472.842L264.924 486.47L333.877 501.14L336.776 487.512C338.208 480.775 333.041 473.968 325.236 472.307" fill="#B5D6CA"/>
<path d="M247.507 567.032C247.417 567.032 247.324 567.023 247.225 567.002C239.456 565.35 231.685 563.696 223.916 562.043C223.257 561.903 222.819 561.232 222.957 560.582C224.596 552.879 226.233 545.176 227.872 537.474C227.992 536.904 228.521 536.502 229.091 536.502C229.175 536.502 229.257 536.511 229.341 536.528C237.112 538.181 244.881 539.835 252.652 541.488C253.309 541.627 253.748 542.299 253.609 542.95C251.972 550.652 250.333 558.355 248.696 566.056C248.62 566.413 248.431 566.656 248.192 566.806L248.164 566.825L248.115 566.855C247.944 566.965 247.741 567.032 247.507 567.032V567.032ZM230.044 539.193C228.576 546.093 227.109 552.993 225.641 559.893C232.601 561.375 239.563 562.856 246.524 564.336C247.991 557.436 249.459 550.536 250.925 543.636C243.965 542.155 237.004 540.673 230.044 539.193Z" fill="#C7CBCD"/>
<path d="M238.421 609.757C238.332 609.757 238.237 609.748 238.14 609.727C230.37 608.075 222.6 606.422 214.829 604.768C214.172 604.628 213.733 603.956 213.872 603.307C215.509 595.604 217.148 587.9 218.785 580.199C218.906 579.63 219.436 579.227 220.005 579.227C220.088 579.227 220.172 579.236 220.256 579.253C228.025 580.907 235.796 582.56 243.566 584.214C244.224 584.352 244.662 585.024 244.524 585.675C242.885 593.378 241.248 601.08 239.609 608.782C239.534 609.139 239.345 609.381 239.106 609.532L239.079 609.551L239.029 609.58C238.858 609.691 238.656 609.757 238.421 609.757V609.757ZM220.958 581.919C219.49 588.819 218.022 595.719 216.556 602.619C223.516 604.1 230.477 605.581 237.437 607.061C238.905 600.161 240.373 593.261 241.84 586.361C234.878 584.88 227.918 583.399 220.958 581.919Z" fill="#C7CBCD"/>
<path d="M229.335 652.483C229.247 652.483 229.152 652.473 229.053 652.452C221.284 650.8 213.515 649.145 205.744 647.493C205.087 647.353 204.647 646.681 204.787 646.032C206.424 638.328 208.063 630.627 209.7 622.923C209.821 622.355 210.351 621.952 210.92 621.952C211.003 621.952 211.087 621.962 211.171 621.979C218.94 623.632 226.709 625.284 234.48 626.938C235.137 627.078 235.576 627.748 235.437 628.4C233.8 636.103 232.163 643.806 230.524 651.507C230.448 651.864 230.26 652.107 230.02 652.257L229.993 652.276L229.944 652.306C229.773 652.416 229.571 652.483 229.335 652.483V652.483ZM211.872 624.644C210.404 631.544 208.937 638.444 207.471 645.344C214.431 646.826 221.392 648.307 228.352 649.787C229.82 642.887 231.287 635.987 232.755 629.087C225.793 627.605 218.833 626.124 211.872 624.644Z" fill="#C7CBCD"/>
<path d="M235.333 546.942L241.068 546.311L242.915 552.255L272.403 539.408L275.253 540.631L240.344 558.493L235.333 546.942Z" fill="#145566"/>
<path d="M224.074 590.338L229.808 589.706L231.654 595.651L261.142 582.803L263.993 584.027L229.085 601.888L224.074 590.338Z" fill="#145566"/>
<path d="M214.989 630.672L220.724 630.042L222.571 635.985L252.059 623.139L254.909 624.362L220 642.224L214.989 630.672Z" fill="#145566"/>
<path d="M327.233 668.561L245 651.065L247.457 639.511L329.691 657.007L327.233 668.561Z" fill="#D8DCDD"/>
<path d="M336.856 623.308L254.624 605.812L257.08 594.259L339.313 611.755L336.856 623.308" fill="#D8DCDD"/>
<path d="M346.48 578.056L264.247 560.56L266.704 549.006L348.936 566.501L346.48 578.056" fill="#D8DCDD"/>
<path d="M106.861 292.589L139.731 288.535C140.456 286.664 142.1 285.256 144.157 285.003L230.913 274.303C232.971 274.049 234.908 275.015 236.065 276.653L268.935 272.6L273.237 307.459L240.725 311.468C240.217 313.756 238.404 315.568 236.041 315.86L149.287 326.56C146.925 326.851 144.725 325.535 143.676 323.437L111.164 327.447L106.861 292.589" fill="#145566"/>
<path d="M249.981 310.332V310.327L262.431 308.792V308.796L249.981 310.332Z" fill="#E0E0E0"/>
<path d="M249.981 310.327L254.655 275.183L258.239 274.856L262.431 308.792L249.981 310.327" fill="#124B5A"/>
<path d="M283.811 350.817L285.727 350.581C294.207 349.535 300.239 341.863 299.2 333.444L287.901 241.899C286.863 233.48 279.145 227.504 270.665 228.55L268.751 228.786C260.269 229.832 254.237 237.504 255.276 245.923L266.575 337.468C267.613 345.887 275.331 351.864 283.811 350.817Z" fill="#145566"/>
<path d="M316.216 346.82L318.132 346.584C326.612 345.539 332.644 337.865 331.605 329.448L320.307 237.903C319.268 229.484 311.551 223.507 303.071 224.553L301.155 224.789C292.675 225.835 286.643 233.508 287.681 241.925L298.98 333.472C300.019 341.889 307.736 347.867 316.216 346.82Z" fill="#145566"/>
<path d="M329.673 301.23L332.9 299.753C335.248 298.679 336.608 295.446 336.178 291.964L333.856 273.152C333.426 269.67 331.321 266.864 328.782 266.392L325.293 265.743C321.802 265.093 319.04 269.038 319.63 273.827L322.214 294.766C322.805 299.555 326.444 302.708 329.673 301.23Z" fill="#145566"/>
<path d="M115.921 371.524L114.005 371.76C105.524 372.807 97.8079 366.829 96.7693 358.411L85.4706 266.866C84.4306 258.448 90.4639 250.775 98.9439 249.728L100.86 249.494C109.34 248.447 117.057 254.424 118.096 262.843L129.395 354.387C130.433 362.805 124.401 370.478 115.921 371.524Z" fill="#145566"/>
<path d="M83.5146 375.522L81.6 375.758C73.12 376.803 65.4026 370.827 64.364 362.408L53.0653 270.863C52.0266 262.444 58.0586 254.772 66.5386 253.725L68.4546 253.489C76.9346 252.444 84.652 258.42 85.6906 266.839L96.988 358.384C98.028 366.803 91.9946 374.475 83.5146 375.522Z" fill="#145566"/>
<path d="M59.3758 334.567L55.8878 333.919C53.3491 333.446 51.2438 330.641 50.8145 327.159L48.4918 308.347C48.0625 304.864 49.4225 301.632 51.7705 300.558L54.9971 299.08C58.2251 297.602 61.8651 300.756 62.4558 305.545L65.0398 326.483C65.6305 331.274 62.8678 335.216 59.3758 334.567Z" fill="#145566"/>
<path d="M686.436 519.384C684.845 515.757 678.458 512.478 678.458 512.478L648.349 500.848C645.161 499.616 642.357 497.223 640.389 494.129C641.684 493.496 642.268 491.96 641.686 490.634C641.09 489.272 639.496 488.655 638.128 489.256L638.028 489.3L636.127 484.967L610.358 496.268L612.258 500.602L611.34 501.004C609.972 501.604 609.347 503.193 609.944 504.556C610.54 505.917 612.135 506.534 613.503 505.934L614.256 505.603C615.317 509.363 615.152 513.296 613.736 516.628L601.073 546.417C601.073 546.417 599.159 553.336 600.749 556.964L608.893 575.533C608.893 575.533 634.636 585.565 625.088 611.927L673.586 723.041C673.586 723.041 721.078 730.723 759.273 685.461L710.383 574.519C685.441 564.192 694.58 537.953 694.58 537.953L686.436 519.384" fill="#D1E7F5"/>
<path d="M735.545 631.361L710.969 575.324L691.084 586.027C675.069 593.907 662.856 598.955 645.452 606.04L625.282 612.903L649.86 668.941L649.589 669.059C700.57 665.129 735.816 631.243 735.816 631.243L735.545 631.361Z" fill="#3ABABA"/>
<path d="M671.216 606.153L686.66 599.38L679.06 619.043L695.009 618.416L680.63 649.05L680.881 628.193L668.094 631.035L671.216 606.153" fill="white"/>
<path d="M634.837 489.316L613.615 498.623C609.923 500.243 605.619 498.562 603.999 494.871L601.105 488.274C599.487 484.583 601.167 480.278 604.859 478.659L626.081 469.351C629.772 467.732 634.077 469.412 635.696 473.104L638.589 479.7C640.208 483.392 638.528 487.698 634.837 489.316" fill="#1A3151"/>
<path d="M614.34 505.911L640.289 494.186C640.289 494.186 641.283 495.555 642.141 496.456L614.34 505.911Z" fill="#B3C6D2"/>
<path d="M625.291 591.139C620.455 580.462 609.117 576.043 609.117 576.043L609.004 575.784L609.244 575.68C611.224 576.539 621.075 581.227 625.291 591.139Z" fill="#F0F1F1"/>
<path d="M695.365 560.823C690.923 550.987 693.836 540.347 694.468 538.303L694.691 538.206L694.804 538.464C694.804 538.464 690.776 550.027 695.365 560.823" fill="#135161"/>
<path d="M625.477 612.817L625.312 612.436C628.523 603.57 627.743 596.55 625.291 591.139C621.075 581.227 611.224 576.539 609.244 575.68L694.468 538.303C693.836 540.347 690.923 550.987 695.365 560.823C697.689 566.288 702.223 571.558 710.605 575.03L710.773 575.41L671.312 594.889C668.941 596.059 666.517 597.119 664.048 598.063L625.477 612.817" fill="#C5DAE7"/>
<path d="M735.849 631.275L735.784 631.211L735.785 631.21L735.849 631.275Z" fill="#A2A4A7"/>
<path d="M383.837 336.551V314.93L393.728 309.152L398.487 317.923V326.727L403.62 328.839L397.991 342.768L390.403 437.078L454.933 462.214L438.907 496.217L370.476 456.063L364.584 432.22L383.837 336.551" fill="#A37567"/>
<path d="M423.352 737.364L430.65 881.808L446.677 883.719L459.869 737.364H423.352" fill="#A37567"/>
<path d="M525.148 736.763L529.975 879.503L514.137 881.414L488.7 739.015L525.148 736.763Z" fill="#A37567"/>
<path d="M528.178 744.023L528.317 742.151L524.898 662.85L459.869 651.96L482.264 744.023H528.178" fill="#145566"/>
<path d="M464.711 744.023L482.581 628.624L418.735 634.789L415.443 694.729L418.144 744.023H464.711" fill="#145566"/>
<path d="M506.047 458.206L459.187 453.185C459.187 453.185 433.119 455.971 415.431 517.88C405.589 552.323 402.595 606.588 401.873 647.96C402.98 653.861 409.409 679.712 436.596 675.327C483.284 667.796 508.133 660.267 528.465 664.031C545.784 667.796 544.32 643.951 542.416 625.753L535.515 569.45L506.047 458.206" fill="#9EA6AD"/>
<path d="M496.997 399.878C485.185 397.274 473.031 394.941 461.207 397.281C458.617 397.795 455.837 398.696 454.432 400.931C453.888 401.798 453.6 402.796 453.335 403.784C450.351 414.875 446.567 431.316 453.868 441.535C455.26 443.483 457.129 445.031 459.139 446.285C461.825 447.965 464.799 449.107 467.876 449.714C467.239 452.472 466.353 455.172 465.231 457.768C467.933 461.846 480.547 462.335 482.879 458.426C483.011 455.043 483.141 451.662 483.271 448.28C484.807 447.659 486.291 446.906 487.683 445.988C493.073 442.438 496.625 437.05 498.688 431.023C500.935 424.459 504.096 418.22 506.148 411.531C506.896 409.094 507.485 406.312 506.203 404.109C504.839 401.764 501.892 400.966 499.243 400.375C498.496 400.21 497.748 400.043 496.997 399.878" fill="#A37567"/>
<path d="M457.685 406.219C463.523 402.464 472.281 400.848 477.769 401.246C494.365 402.448 500.444 414.635 501.33 429.894C505.902 424.083 514.482 416.774 515 409.296C515.424 403.176 514.577 394.831 511.149 389.546C507.94 384.6 499.737 381.883 494.858 379.018C490.26 376.316 485.66 373.615 481.061 370.914C480.105 370.351 479.123 369.78 478.029 369.59C476.736 369.366 475.42 369.696 474.149 370.024C463.28 372.834 452.41 375.643 441.541 378.452C439.453 378.992 437.073 379.78 436.305 381.795C435.837 383.02 436.112 384.39 436.392 385.671C437.625 391.314 439.994 397.082 440.581 402.798C441.245 406.118 443.225 423.139 449.105 421.174C450.832 418.351 451.09 414.874 452.436 411.85C453.43 409.616 455.317 407.742 457.685 406.219" fill="#101E30"/>
<path d="M568.114 336.78L572.689 315.648L564.245 307.908L557.738 315.475L555.876 324.079L550.412 325.058L552.966 339.862L540.428 433.642L501.584 460.836L510.053 497.46L555.886 456.414L566.689 434.356L568.114 336.78" fill="#A37567"/>
<path d="M430.651 881.808L416.131 891L417.5 899.103L448.14 895.377L446.677 883.719L430.651 881.808Z" fill="#122235"/>
<path d="M529.975 879.503L544.684 888.695L543.315 896.797L512.675 893.072L514.137 881.414L529.975 879.503" fill="#122235"/>
<path d="M553.492 287.233C553.705 286.276 561.303 284.905 562.119 284.704C569.899 282.779 577.871 281.584 585.868 281.084C608.872 279.645 626.916 285.423 647.741 294.761C666.813 303.312 698.34 310.659 752.811 297.016L766.597 334.992C766.949 335.961 697.629 357.333 651.288 342.217C640.623 338.739 627.784 334.374 617.432 330.066C609.892 326.927 602.028 324.499 594.037 322.817C578.091 319.463 561.292 319.121 545.484 323.404L553.492 287.233" fill="#EBB044"/>
<path d="M600.257 301.473L596.532 300.151L603.341 280.958L607.067 282.279L600.257 301.473Z" fill="#145566"/>
<path d="M638.512 309.755L634.73 308.604L639.905 291.597L643.686 292.748L638.512 309.755Z" fill="#145566"/>
<path d="M677.394 320.304L673.52 319.522L676.857 302.989L680.732 303.772L677.394 320.304Z" fill="#145566"/>
<path d="M716.301 320.888L714.012 303.897L717.928 303.369L720.218 320.36L716.301 320.888Z" fill="#145566"/>
<path d="M590.638 90.2575C562.114 69.4722 531.944 74.0362 510.597 82.3282C495.148 88.3282 477.916 87.7202 462.782 80.9629C441.732 71.5629 411.214 65.2575 381.37 85.2655C341.354 112.092 332.69 161.076 339.806 205.972C345.072 239.197 355.916 273.659 374.732 302.111C392.94 329.643 428.136 359.139 463.672 348.049C474.506 344.668 486.182 344.839 496.706 349.094C547.085 369.46 585.608 312.857 604.118 274.725C623.448 234.905 637.558 185.816 625.648 141.74C620.049 121.019 607.989 102.9 590.638 90.2575" fill="#C8D6A1"/>
<path d="M472.793 47.8255C477.714 35.2708 487.517 24.5161 497.741 17.7068C507.965 10.8988 518.649 7.55746 529.018 5.15346C538.216 3.02279 547.328 1.55483 556.292 0.757492C554.133 9.03082 550.605 17.2281 546.928 25.2895C541.62 36.9228 535.857 48.5695 528.413 58.9655C520.968 69.3602 511.633 78.5082 501.774 82.8882C481.462 91.9108 462.437 74.2481 472.793 47.8255" fill="#3ABABA"/>
<path d="M346.013 130.61C346.013 130.61 330.023 144.394 357.744 150.3C378.875 154.186 400.224 157.076 421.545 159.651C465.847 165 510.587 168.486 555.235 167.572C570.599 167.258 585.971 166.394 601.236 164.578C608.328 163.734 615.444 162.755 622.449 161.339C627.979 160.223 630.785 157.91 628.7 152.064C638.833 154.499 638.717 163.294 638.583 171.739C638.495 177.344 637.987 182.943 637.153 188.486C636.4 193.502 636.652 200.908 634.101 205.314C630.885 210.87 622.773 211.075 617.237 211.882C610.156 212.915 603.045 213.74 595.921 214.42C581.689 215.779 567.408 216.539 553.127 217.115C519.188 218.482 485.157 217.704 451.312 214.86C430.875 213.143 410.501 210.66 390.255 207.39C379.428 205.642 368.639 203.667 357.896 201.462C351.012 200.048 340.569 198.275 335.975 192.174C334.059 189.631 332.7 186.698 331.689 183.692C328.011 172.74 329.328 160.39 331.679 149.323C331.679 149.323 334.744 134.032 346.013 130.61" fill="#EBB044"/>
<path d="M340.035 208.879C340.035 208.879 341.848 227.76 355.904 228.976C355.904 228.976 535.175 248.941 626.588 215.864C626.588 215.864 625.211 234.935 608.92 268.275C584.524 275.188 572.129 278.093 547.064 281.111C514.835 284.991 482.355 286.74 449.897 286.414C430.297 286.216 410.701 285.252 391.167 283.492C374.163 281.96 358.284 278.317 348.424 263.144C346.229 259.768 344.537 256.051 343.089 252.301C340.305 245.097 338.528 237.563 336.331 230.172C335.573 227.627 335.125 224.891 334.899 222.248C334.489 217.468 334.843 210.985 340.035 208.879" fill="#EBB044"/>
<path d="M365.244 174.312L361.34 173.699L364.816 151.589L368.72 152.203L365.244 174.312Z" fill="#145566"/>
<path d="M411.952 181.416L408.044 180.819L411.472 158.355L415.379 158.951L411.952 181.416" fill="#145566"/>
<path d="M458.442 186.221L454.517 185.763L457.124 163.441L461.049 163.9L458.442 186.221Z" fill="#145566"/>
<path d="M507.376 189.851L503.43 189.607L504.856 166.67L508.801 166.915L507.376 189.851" fill="#145566"/>
<path d="M549.196 190.356L547.024 168.125L550.959 167.741L553.129 189.972L549.196 190.356Z" fill="#145566"/>
<path d="M594.309 187.388L594.092 165.173L598.044 165.135L598.261 187.348L594.309 187.388" fill="#145566"/>
<path d="M364.368 250.948L361.267 230.004L365.177 229.425L368.279 250.368L364.368 250.948Z" fill="#145566"/>
<path d="M407.457 254.391L405.814 233.195L409.754 232.888L411.397 254.084L407.457 254.391Z" fill="#145566"/>
<path d="M456.28 254.563L454.195 235.02L458.124 234.601L460.209 254.144L456.28 254.563Z" fill="#145566"/>
<path d="M505.054 255.501L502.632 234.652L506.558 234.197L508.98 255.045L505.054 255.501Z" fill="#145566"/>
<path d="M553.147 253.527L551.271 231.276L555.209 230.944L557.085 253.195L553.147 253.527Z" fill="#145566"/>
<path d="M595.94 246.773L592.906 224.954L596.823 224.41L599.855 246.228L595.94 246.773" fill="#145566"/>
<path d="M176.649 604.575L193.813 617.723L204.415 613.385L200.345 604.274L193.356 598.92L194.801 593.56L180.321 589.559L127.456 540.77L133.461 505.952L117.619 473.475L100.917 544.783L111.467 565.153L176.649 604.575" fill="#E5BBAE"/>
<path d="M154.091 386.815C154.091 386.815 173.02 397.272 174.528 420.48C176.037 443.69 181.428 457.936 181.428 457.936C181.428 457.936 174.503 463.164 168.113 460.912C161.723 458.662 159.464 458.431 159.531 448.851C159.597 439.269 154.091 394.88 154.091 394.88V386.815Z" fill="#101E30"/>
<path d="M167.307 412.106C157.709 389.828 129.595 400.332 125.481 421.028C123.143 432.798 128.927 453.483 143.031 454.01C143.693 456.023 144.824 459.824 146.703 460.85C148.737 461.96 153.783 459.34 155.775 458.384C156.328 458.117 156.9 457.815 157.227 457.296C157.637 456.647 157.408 455.206 157.067 453.63C158.585 453.179 160.097 452.526 161.588 451.638C167.84 447.91 171.329 440.56 171.825 433.287C172.323 426.016 170.192 418.799 167.307 412.106" fill="#E5BBAE"/>
<path d="M155.64 388.647C155.64 388.647 161.263 400.636 145.928 407.742C130.592 414.848 122.944 429.803 128.701 442.496C134.459 455.19 148.565 462.339 143.041 467.252C137.516 472.165 113.607 473.831 113.607 473.831C113.607 473.831 89.0973 430.01 103.476 405.458C117.855 380.904 145.029 374.095 155.64 388.647Z" fill="#101E30"/>
<path d="M1025.37 376.131L851.237 354.63C844.819 353.838 840.259 347.991 841.051 341.573L862.552 167.443C863.345 161.026 869.191 156.464 875.608 157.258L1049.74 178.759C1056.16 179.551 1060.72 185.396 1059.92 191.815L1038.42 365.944C1037.63 372.363 1031.79 376.923 1025.37 376.131Z" fill="#3ABABA"/>
<path d="M935.352 226.52C941.629 224.039 948.597 223.048 955.768 223.933C962.937 224.819 969.456 227.476 974.94 231.408L1007.5 212.196C997.896 195.961 981.15 184.19 960.982 181.699C940.814 179.208 921.709 186.553 908.445 199.964L935.352 226.52" fill="#ECECEC"/>
<path d="M959.482 224.435L951.708 223.475L958.593 201.048L959.482 224.435Z" fill="#59595B"/>
<path d="M1011.45 358.231L869.093 340.653C864.836 340.128 861.81 336.251 862.337 331.993L873.847 238.772C874.373 234.515 878.251 231.491 882.508 232.016L1024.86 249.594C1029.12 250.119 1032.14 253.997 1031.62 258.253L1020.11 351.475C1019.58 355.731 1015.7 358.756 1011.45 358.231" fill="#9EA6AD"/>
<path d="M943.004 778.535L963.175 879.45L977.224 879.497L970.907 768.912L943.004 778.535" fill="#E5BBAE"/>
<path d="M746.365 611.962L734.176 629.82L722.749 629.016L723.764 619.089L728.728 611.817L725.679 607.179L738.18 598.848L773.128 535.97L756.532 504.779L761.419 468.975L799.589 531.479L795.943 554.127L746.365 611.962" fill="#E5BBAE"/>
</svg>
