<svg width="1180" height="962" viewBox="0 0 1180 962" fill="none" xmlns="http://www.w3.org/2000/svg">
<path d="M832.162 961.73C788.264 961.73 752.677 954.656 752.677 945.932C752.677 937.207 788.264 930.134 832.162 930.134C876.062 930.134 911.647 937.207 911.647 945.932C911.647 954.656 876.062 961.73 832.162 961.73Z" fill="#D4BEBE"/>
<path d="M585.542 961.73C541.642 961.73 506.057 954.656 506.057 945.932C506.057 937.207 541.642 930.134 585.542 930.134C629.44 930.134 665.028 937.207 665.028 945.932C665.028 954.656 629.44 961.73 585.542 961.73Z" fill="#D4BEBE"/>
<path d="M338.92 961.73C295.022 961.73 259.435 954.656 259.435 945.932C259.435 937.207 295.022 930.134 338.92 930.134C382.818 930.134 418.406 937.207 418.406 945.932C418.406 954.656 382.818 961.73 338.92 961.73Z" fill="#D4BEBE"/>
<path d="M92.2993 961.73C48.4003 961.73 12.8152 954.656 12.8152 945.932C12.8152 937.207 48.4003 930.134 92.2993 930.134C136.198 930.134 171.783 937.207 171.783 945.932C171.783 954.656 136.198 961.73 92.2993 961.73Z" fill="#D4BEBE"/>
<path d="M1078.78 961.73C1034.89 961.73 999.299 954.656 999.299 945.932C999.299 937.207 1034.89 930.134 1078.78 930.134C1122.68 930.134 1158.27 937.207 1158.27 945.932C1158.27 954.656 1122.68 961.73 1078.78 961.73Z" fill="#D4BEBE"/>
<path d="M847.075 747.928L835.968 761.875L844.24 768.183L856.553 752.719L847.075 747.928Z" fill="#EAC5B0"/>
<path d="M844.701 767.115L838.903 759.621L835.223 758.056L828.701 760.765L834.698 784.328C838.276 785.269 841.801 782.655 841.844 779.029L841.857 777.832L844.701 767.115" fill="#3B455A"/>
<path d="M811.722 747.942L822.84 761.882L814.573 768.195L802.247 752.741L811.722 747.942" fill="#EAC5B0"/>
<path d="M814.031 768.106L818.938 760.027L822.413 758.068L829.206 760.048L825.936 784.118C822.487 785.445 818.685 783.232 818.229 779.634L818.079 778.446L814.031 768.106" fill="#3B455A"/>
<path d="M907.046 610.041C899.778 593.238 890.634 581.703 882.834 565.868C873.681 564.45 864.477 561.524 855.32 559.4C855.998 558.275 856.663 557.143 857.354 556.022C845.055 557.118 832.484 555.788 820.219 557.184C815.133 557.394 810.042 557.555 804.925 557.266C805.527 558.208 806.139 559.142 806.742 560.081C797.838 562.789 789.101 566.583 780.12 568.652C773.384 585.405 766.057 598.273 760.459 616.214C754.86 634.155 751.231 657.051 744.868 675.693C763.21 704.316 786.837 737.419 804.676 766.225C811.016 763.828 812.668 756.229 819.117 754.125C810.829 727.658 803.653 700.875 794.498 674.675C804.904 656.811 814.036 638.388 823.172 619.955C827.465 611.294 839.807 610.597 845.094 618.713C855.604 634.84 865.939 651.07 875.763 667.645C865.669 697.417 852.181 725.427 839.526 754.174C845.551 757.239 845.386 764.31 851.42 767.362C875.396 735.602 905.019 700.623 925.965 666.661C919.607 648.699 914.311 626.843 907.046 610.041" fill="#D67086"/>
<path d="M855.003 390.607C853.012 389.188 850.78 387.998 848.273 387.079C843.935 385.488 839.181 385.446 834.55 385.591C823.913 385.921 812.492 387.476 804.718 394.59C790.055 408.007 791.669 438.053 788.912 456.623C786.763 471.11 784.613 485.598 782.464 500.085L776.531 569.715L859.303 570.959L886.552 566.693L879.542 493.584C878.008 477.593 875.561 461.635 873.574 445.693C871.423 428.427 871.104 402.082 855.003 390.607" fill="#474EBB"/>
<path d="M844.655 330.693C840.547 326.637 834.721 324.295 828.884 324.356C808.634 324.563 807.088 343.845 810.859 358.845C812.522 365.457 815.851 371.941 821.492 375.927C823.023 377.009 824.749 377.853 826.555 378.453C825.736 381.181 826.282 384.715 826.105 387.539C825.999 389.246 825.479 390.723 826.589 392.098C827.979 393.819 831.045 394.027 833.078 393.971C834.708 393.924 836.405 393.712 837.762 392.828C839.994 391.372 839.46 389.388 839.366 387.199C839.234 384.056 839.645 380.925 839.355 377.777C839.921 377.488 840.475 377.171 840.998 376.798C846.419 372.943 848.179 365.901 849.191 359.421C850.506 351.002 851.3 337.252 844.655 330.693" fill="#EAC5B0"/>
<path d="M846.052 349.16C846.7 349.911 847.806 350.1 848.595 350.706C851.237 352.735 848.678 357.197 850.275 360.085C852.323 363.786 851.954 370.282 848.026 373.355C846.69 374.399 844.893 375.13 844.335 376.711C843.687 378.551 844.999 380.933 843.659 382.37C845.791 384.522 849.451 384.065 852.282 382.912C855.11 381.759 857.877 380.043 860.94 380.152C861.911 380.187 863.076 380.334 863.678 379.586C864.038 379.138 864.046 378.52 864.105 377.949C864.813 371.069 873.101 372.831 874.209 367.253C874.505 365.753 872.633 362.05 872.667 360.088C872.718 356.96 874.543 354.17 873.457 350.963C873.01 349.64 872.108 348.497 871.644 347.179C870.7 344.494 871.687 341.584 872.249 338.801C872.813 336.017 872.723 332.645 870.394 330.953C868.574 329.631 865.938 329.795 864.145 328.436C860.174 325.425 863.088 317.566 858.618 315.324C856.324 314.174 853.536 315.432 850.984 315.067C848.293 314.682 846.261 312.583 844.009 311.087C841.758 309.591 838.382 308.789 836.545 310.754C834.998 312.409 835.415 315.166 833.995 316.927C832.78 318.433 830.628 318.757 828.849 319.577C820.516 323.429 836.21 325.943 838.464 328.643C840.362 330.916 842.387 335.192 843.766 337.814C845.368 340.866 844.348 347.193 846.052 349.16" fill="#3B455A"/>
<path d="M821.752 329.798C811.56 331.921 817.741 339.366 814.484 345.448C813.203 347.843 809.695 348.743 808.999 351.359C808.436 353.465 810.01 355.472 811.266 357.268C812.524 359.064 813.492 361.663 811.973 363.254C811.515 363.732 810.874 364.053 810.554 364.63C809.719 366.135 811.613 367.664 813.22 368.343C814.824 369.024 816.793 370.364 816.153 371.956C814.28 376.614 813.081 374.648 816.119 378.607C816.854 379.562 818.123 379.394 818.836 380.37C817.508 381.77 815.535 382.266 813.619 381.538C808.875 379.735 810.184 381.998 806.478 382.568C802.575 383.166 802.451 381.997 799.037 379.865C795.851 377.877 789.173 376.486 788.044 372.452C787.413 370.196 789.203 367.876 788.675 365.606C788.182 363.476 785.777 361.862 784.666 359.859C782.417 355.801 785.822 351.364 786.525 347.022C787.501 341.003 783.862 333.515 790.352 329.722C791.747 328.906 793.452 328.415 794.874 327.626C799.07 325.3 799.903 321.061 801.546 317.413C803.189 313.765 807.433 309.857 812.586 310.696C817.266 311.46 819.748 315.812 824.504 316.268C826.17 316.429 827.995 316.08 829.468 316.673C830.612 317.133 831.241 318.053 831.726 318.936C832.857 320.987 836.156 327.879 833.665 329.778C830.425 332.246 826.072 328.9 821.752 329.798" fill="#3B455A"/>
<path d="M860.428 353.311C860.92 352.581 861.416 351.778 861.521 350.889C861.685 349.506 860.962 348.447 859.779 347.76C859.081 347.353 858.31 347.134 857.566 346.828C855.997 346.183 854.729 345.461 855.446 343.226C855.559 342.871 855.876 342.519 856.031 342.175C856.607 340.89 856.738 339.331 856.29 337.988C855.943 336.949 855.211 336.038 854.122 335.692C853.233 335.408 852.374 335.713 851.478 335.652C848.132 335.427 849.388 332.402 849.61 330.56C850.005 327.278 847.704 324.479 844.373 324.06C843.854 323.995 843.856 324.794 844.372 324.858C846.049 325.07 847.482 326.026 848.299 327.484C849.119 328.946 848.787 330.385 848.516 331.951C848.287 333.267 848.218 334.88 849.354 335.851C851.131 337.368 853.733 335.289 855.197 337.531C856.607 339.69 855.046 341.508 854.405 343.495C852.778 348.532 863.275 346.935 860.077 352.377C859.251 353.782 857.675 355.159 857.943 356.95C858.136 358.243 859.146 359.254 860.505 359.114C861.021 359.061 861.029 358.262 860.506 358.316C858.278 358.543 858.767 355.84 859.335 354.863C859.653 354.316 860.074 353.834 860.428 353.311" fill="#C69C6D"/>
<path d="M814.391 327.671C811.543 327.323 807.115 327.405 806.717 331.069C806.512 332.963 807.664 334.669 807.97 336.485C808.584 340.119 804.844 340.889 802.234 341.981C799.441 343.15 797.01 346.301 799.977 348.682C800.337 348.925 800.688 349.178 801.033 349.44C800.821 350.251 800.609 351.062 800.397 351.872C800.144 352.19 799.414 352.441 799.094 352.718C798.655 353.099 798.242 353.532 798.16 354.127C798.017 355.15 798.67 355.95 799.683 355.995C800.208 356.018 800.21 355.219 799.686 355.196C799.763 354.499 799.842 353.803 799.919 353.106C800.139 352.966 800.36 352.83 800.584 352.697C800.796 352.524 801.063 352.407 801.278 352.231C801.608 351.96 801.932 351.648 802.125 351.268C802.583 350.363 802.31 349.557 801.61 348.878C800.924 348.209 800.208 347.979 799.748 347.039C798.963 345.444 800.08 344.025 801.548 343.179C803.081 342.297 804.905 342.039 806.428 341.126C808.864 339.665 809.203 337.478 808.397 334.948C807.787 333.035 806.665 330.492 808.808 329.09C810.391 328.052 812.587 328.249 814.39 328.47C814.909 328.533 814.907 327.735 814.391 327.671" fill="#C69C6D"/>
<path d="M795.371 342.03C795.874 341.884 795.662 341.113 795.155 341.259C792.93 341.902 790.054 342.995 790.126 345.728C790.145 346.503 790.461 347.197 791.066 347.699C791.983 348.464 793.096 348.41 793.883 349.402C795.403 351.315 793.457 353.644 791.148 352.961C790.645 352.812 790.427 353.582 790.93 353.73C793.18 354.395 795.685 352.867 795.327 350.387C795.132 349.037 794.308 348.393 793.18 347.772C791.575 346.888 790.168 345.548 791.68 343.812C792.58 342.776 794.098 342.397 795.371 342.03" fill="#C69C6D"/>
<path d="M794.104 359.115V376.809C794.104 382.557 798.754 387.217 804.491 387.217H850.878C856.613 387.217 861.263 382.557 861.263 376.809V359.115H794.104" fill="#737270"/>
<path d="M769.777 278.264V353.429C769.777 356.569 772.258 359.115 775.317 359.115H880.05C883.109 359.115 885.59 356.569 885.59 353.429V278.264H769.777Z" fill="#BCBEC0"/>
<path d="M885.59 310.808H769.777V296.928H885.59V310.808" fill="#9E9E9E"/>
<path d="M885.59 340.452H769.777V326.571H885.59V340.452" fill="#9E9E9E"/>
<path d="M833.271 326.571H885.59V310.808H853.317C846.563 316.794 839.852 322.012 833.271 326.571Z" fill="#A7A7A8"/>
<path d="M885.59 296.927V278.264H883.768C878.446 285.046 873.063 291.252 867.663 296.927H885.59" fill="#A7A7A8"/>
<path d="M775.317 359.115H880.05C883.109 359.115 885.59 356.569 885.59 353.429V340.452H809.969C794.636 348.171 780.83 352.465 769.972 354.849C770.589 357.298 772.738 359.115 775.317 359.115Z" fill="#A7A7A8"/>
<path d="M853.317 310.808H885.59V296.928H867.663C862.883 301.953 858.09 306.577 853.317 310.808Z" fill="#737270"/>
<path d="M809.969 340.452H885.59V326.571H833.271C825.254 332.125 817.431 336.694 809.969 340.452Z" fill="#737270"/>
<path d="M861.263 369.863C848.201 382.466 823.18 386.277 814.913 387.217H850.877C856.613 387.217 861.263 382.557 861.263 376.81V369.863Z" fill="#5D5A5A"/>
<path d="M898.211 314.144C897.227 310.996 895.602 308.039 893.039 305.854C891.214 304.297 885.256 300.092 883.056 303.314C882.925 303.507 882.905 303.75 882.892 303.981C882.796 305.884 882.735 309.27 883.886 310.92C884.98 312.49 886.645 311.894 888.121 313.219C889.092 314.089 889.303 315.867 888.193 316.56C887.575 316.945 886.783 316.88 886.064 317.016C885.344 317.152 884.562 317.717 884.716 318.418C884.797 318.793 885.124 319.062 885.432 319.299C886.847 320.399 888.262 321.499 889.678 322.599C891.735 324.196 894.017 326.337 893.54 328.865C895.853 329.046 898.191 328.906 900.464 328.45C899.915 323.578 899.59 318.542 898.211 314.144Z" fill="#EAC5B0"/>
<path d="M852.187 422.265C851.259 419.563 850.416 416.799 849.611 413.924C849.144 412.25 843.742 386.86 848.051 387.75C857.543 389.712 867.261 390.099 876.904 389.207C878.323 389.076 892.863 388.085 892.853 386.752C892.756 372.537 892.241 358.326 891.312 344.141C890.849 337.082 889.56 329.809 889.553 322.753C889.55 319.731 889.503 320.28 892.078 319.058C894.168 318.065 897.597 317.391 899.469 319.057C901.176 320.574 901.693 322.955 902.163 325.164C905.954 342.97 912.517 360.033 917.883 377.407C921.424 388.868 927.893 404.506 920.338 415.804C917.889 419.465 913.908 421.827 910.024 423.995C897.101 431.207 883.738 437.663 870.027 443.316C868.39 443.991 866.623 444.668 864.881 444.312C862.348 443.794 860.818 441.328 859.591 439.096C856.485 433.438 854.151 427.989 852.187 422.265" fill="#474EBB"/>
<path d="M759.809 318.896C760.794 315.749 762.418 312.791 764.98 310.608C766.807 309.05 772.763 304.846 774.964 308.067C775.096 308.259 775.115 308.501 775.126 308.734C775.223 310.637 775.285 314.023 774.134 315.673C773.04 317.243 771.376 316.646 769.899 317.972C768.929 318.842 768.718 320.62 769.827 321.313C770.445 321.698 771.237 321.632 771.956 321.769C772.676 321.905 773.459 322.469 773.304 323.171C773.223 323.545 772.896 323.814 772.589 324.053C771.173 325.151 769.758 326.251 768.343 327.351C766.285 328.95 764.003 331.089 764.479 333.617C762.168 333.798 759.828 333.658 757.556 333.203C758.104 328.332 758.43 323.296 759.809 318.896" fill="#EAC5B0"/>
<path d="M809.608 427.717C810.972 420.02 811.929 413.003 811.916 411.668C811.875 407.94 812.405 394.81 808.744 392.828C805.866 391.272 793.951 395.56 789.734 395.12C784.753 394.599 780.322 391.539 777.24 387.673C774.159 383.806 772.262 379.175 770.627 374.542C768.013 367.121 764.774 358.82 765.477 350.927C766.172 343.127 768.458 335.542 768.467 327.507C768.47 324.484 768.517 325.033 765.942 323.811C763.852 322.818 760.425 322.144 758.552 323.808C753.702 328.117 753.047 337.866 751.571 343.654C749.204 352.935 746.838 362.217 744.471 371.499C742.995 377.286 741.508 383.245 742.328 389.155C743.164 395.157 746.315 400.603 749.767 405.632C762.94 424.829 781.513 440.439 802.893 450.286C804.86 451.192 807.652 438.754 809.608 427.717" fill="#474EBB"/>
<path d="M319.692 914.622L319.649 932.27L330.117 932.293L330.162 912.729L319.692 914.622Z" fill="#EDD3B8"/>
<path d="M367.263 912.024L369.332 931.092L380.64 929.917L378.346 908.777L367.263 912.024" fill="#EDD3B8"/>
<path d="M380.479 929.278L370.315 931.508L367.08 934.354L366.88 941.871L393.339 946.677C395.897 943.645 394.847 939.066 391.209 937.396L390.009 936.843L380.479 929.278" fill="#3B455A"/>
<path d="M319.938 931.085L330.405 931.061L334.073 935.781L333.664 944.119L306.803 945.748L305.71 943.187C304.195 939.833 306.395 935.994 310.11 935.509L310.704 935.432L319.938 931.085Z" fill="#3B455A"/>
<path d="M288.781 753.141L298.702 840.147L302.647 925.459L336.302 925.572L349.766 692.375L295.524 693.209L288.781 753.141" fill="#3B455A"/>
<path d="M389.196 741.561L396.497 826.437L387.253 925.308L354.574 924.353L349.859 828.622L344.327 751.207L338.675 693.503L377.803 692.403L389.196 741.561" fill="#3B455A"/>
<path d="M360.96 560.681L323.019 562.038L302.901 579.688L290.475 644.837L283.588 700.644L372.282 701.035L394.406 695.556L387.45 637.058L384.111 572.532L360.96 560.681" fill="#F7F7F7"/>
<path d="M355.636 502.833C351.4 498.473 345.323 495.883 339.174 495.819C317.85 495.596 315.785 515.863 319.416 531.738C321.014 538.734 324.374 545.633 330.22 549.952C331.809 551.125 333.608 552.051 335.5 552.711L335.496 552.721C335.145 553.795 334.93 566.876 333.988 566.733C338.925 567.484 344.062 566.956 348.733 565.216C348.67 561.31 349.284 556.514 348.987 552.288C349.588 551.996 350.18 551.675 350.739 551.293C356.533 547.353 358.545 539.978 359.758 533.177C361.334 524.342 362.481 509.882 355.636 502.833" fill="#EAC5B0"/>
<path d="M352.217 512.264C356.26 516.963 356.555 523.664 356.356 529.805C356.089 537.969 355.23 546.352 351.418 553.618C356.599 549.752 361.782 545.887 366.964 542.021C368.913 540.566 370.918 539.05 372.102 536.949C373.294 534.828 373.523 532.333 373.69 529.917C374.571 517.051 373.953 503.034 365.74 492.947C360.552 486.577 352.573 482.46 344.27 481.872C337.491 481.392 309.132 489.878 320.298 500.204C323.517 503.182 331.46 503.647 335.579 504.73C341.464 506.277 348.077 507.454 352.217 512.264" fill="#1A3151"/>
<path d="M327.505 509.376C326.68 509.423 325.821 509.478 325.098 509.866C324.234 510.329 323.686 511.191 323.209 512.031C316.338 524.092 316.027 539.501 322.402 551.819C311.58 548.421 303.515 538.509 301.37 527.586C299.226 516.665 302.605 505.072 309.332 496.108C315.621 487.727 325.777 481.2 336.332 482.413C342.626 483.136 348.524 486.68 352.032 491.844C365.277 511.349 340.276 508.654 327.505 509.376" fill="#1A3151"/>
<path d="M283.207 474.962C283.323 474.64 283.479 474.337 283.698 474.065C285.77 471.483 289.62 469.389 292.434 467.676C294.61 466.352 297.167 468.422 298.828 469.583C299.311 469.922 299.835 470.319 299.925 470.893C299.979 471.225 299.874 471.563 299.73 471.869C298.907 473.623 296.908 474.169 295.625 475.488C295.059 476.071 294.384 476.869 294.553 477.74C294.941 479.76 296.819 478.001 297.857 477.539C299.922 479.526 297.828 480.767 296.176 481.984C294.131 483.489 291.979 484.852 289.739 486.063C287.999 487.003 287.273 487.638 285.601 486.466C285.182 486.173 281.196 483.737 281.253 483.498C281.727 481.541 282.2 479.585 282.658 477.625C282.86 476.758 282.903 475.797 283.207 474.962" fill="#EAC5B0"/>
<path d="M342.786 583.62C342.857 583.043 342.889 582.457 342.882 581.862C342.641 564.935 317.475 561.584 305.313 558.751C295.618 556.492 287.411 552.932 280.06 546.557C281.793 526.01 285.261 505.484 290.968 485.643C287.137 483.205 283.309 480.77 279.415 478.425C279.283 478.345 265.467 511.31 264.323 514.369C259.705 526.718 254.184 539.063 250.182 551.598C248.421 557.114 254.674 561.589 258.274 565.751C262.642 570.8 267.096 575.776 271.636 580.679C280.713 590.483 290.128 599.99 299.857 609.176C300.052 609.36 300.246 609.544 300.442 609.726C301.886 611.087 303.405 612.481 305.309 613.091C308.869 614.23 312.647 612.362 315.828 610.429C321.609 606.918 327.127 602.991 332.32 598.689C337.169 594.674 342.045 589.644 342.786 583.62" fill="#F7F7F7"/>
<path d="M388.495 484.206C388.16 483.878 387.497 483.299 386.98 482.958C385.788 482.178 384.212 481.87 382.982 481.142C381.752 480.415 380.246 479.507 380.549 477.803C380.852 476.099 383.253 477.057 384.522 477.322C385.792 477.587 387.006 477.629 388.037 476.569C389.066 475.508 388.948 473.594 388.031 472.383C387.113 471.171 385.837 470.456 384.775 469.417C388.103 469.395 391.014 469.49 393.683 471.639C394.981 472.683 395.626 474.071 396.389 475.496C398.883 480.132 401.644 484.559 404.432 489.041C402.272 489.408 400.05 489.919 398.035 490.72C396.02 491.519 395.455 491.611 393.817 490.072C392.181 488.533 390.747 486.577 389.163 484.878C388.958 484.658 388.831 484.532 388.495 484.206" fill="#EAC5B0"/>
<path d="M379.328 610.672C373.692 596.651 368.745 582.068 363.209 568.42C374.051 559.705 391.201 563.517 395.998 546.522C400.796 529.528 398.366 507.404 390.525 489.752C395.356 487.652 400.146 486.273 405.436 484.591C418.061 506.467 426.517 528.537 423.599 554.308C420.681 580.08 394.809 592.185 379.328 610.672" fill="#F7F7F7"/>
<path d="M308.521 535.562V550.079C308.521 554.792 312.331 558.615 317.03 558.615H355.043C359.741 558.615 363.552 554.792 363.552 550.079V535.562H308.521Z" fill="#3B455A"/>
<path d="M428.207 340.665C428.207 289.598 386.942 248.202 336.036 248.202C285.131 248.202 243.866 289.598 243.866 340.665C243.866 358.812 249.081 375.734 258.084 390.015H258.08C283.728 433.127 289.655 469.237 289.655 469.237H336.036H382.417C382.417 469.237 388.345 433.127 413.993 390.015H413.989C422.991 375.734 428.207 358.812 428.207 340.665Z" fill="#8CABEF"/>
<path d="M288.587 469.237V530.898C288.587 533.474 290.62 535.562 293.127 535.562H378.946C381.453 535.562 383.486 533.474 383.486 530.898V469.237H288.587" fill="#9EA6AD"/>
<path d="M426.57 323.354C403.159 369.268 357.691 440.2 289.612 468.988C289.637 469.135 289.655 469.237 289.655 469.237H336.036H382.417C382.417 469.237 388.345 433.127 413.993 390.015H413.989C422.991 375.734 428.207 358.812 428.207 340.665C428.207 334.745 427.629 328.964 426.57 323.354" fill="#799FE2"/>
<path d="M258.928 348.27C258.928 303.688 294.954 267.546 339.395 267.546C365.372 267.546 388.469 279.899 403.182 299.062C389.287 274.863 363.243 258.573 333.406 258.573C288.965 258.573 252.938 294.713 252.938 339.295C252.938 357.818 259.161 374.881 269.621 388.503C262.819 376.659 258.928 362.92 258.928 348.27Z" fill="#D6E1F2"/>
<path d="M318.114 469.237L306.947 350.88L322.506 363.859L336.081 342.285L349.839 363.171L365.136 350.769L353.959 469.237H358.72L370.914 339.97L350.917 356.183L335.99 333.526L321.381 356.739L301.146 339.858L313.352 469.237H318.114" fill="#F6F7F7"/>
<path d="M312.238 457.433L313.352 469.237H318.114L316.738 454.657C315.251 455.602 313.753 456.528 312.238 457.433Z" fill="#EDECED"/>
<path d="M358.56 420.458L353.959 469.237H358.72L363.839 414.964C362.108 416.814 360.349 418.645 358.56 420.458" fill="#EDECED"/>
<path d="M288.587 495.934H383.486V484.546H288.587V495.934Z" fill="#3B455A"/>
<path d="M288.587 520.253H383.486V508.865H288.587V520.253Z" fill="#3B455A"/>
<path d="M378.946 535.563H372.735V535.562H378.946C381.453 535.562 383.486 533.474 383.486 530.898V520.253V508.865V495.934V484.546V481.411V484.546V495.934V508.865V520.253V530.898C383.486 533.474 381.453 535.563 378.946 535.563" fill="#D4BEBE"/>
<path d="M363.552 535.563H372.735V535.562H363.552V535.563Z" fill="#172C48"/>
<path d="M304.068 535.563H293.127C292.891 535.563 292.661 535.544 292.436 535.508C292.661 535.544 292.891 535.562 293.127 535.562H304.068V535.563" fill="#D4BEBE"/>
<path d="M304.068 535.563H308.52V535.562H304.068V535.563Z" fill="#172C48"/>
<path d="M308.521 535.563H363.553V535.562H308.521V535.563Z" fill="#353D50"/>
<path d="M292.433 535.508C292.428 535.507 292.423 535.507 292.416 535.506C292.421 535.507 292.428 535.508 292.433 535.508Z" fill="#D4BEBE"/>
<path d="M378.946 535.562H293.127C292.891 535.562 292.661 535.544 292.436 535.508C292.436 535.508 292.434 535.508 292.433 535.508C292.428 535.508 292.421 535.507 292.416 535.506C290.627 535.215 289.194 533.842 288.747 532.063C297.645 530.107 308.956 526.584 321.521 520.253H383.486V530.898C383.486 533.474 381.453 535.562 378.946 535.562V535.562ZM383.486 508.865H340.614C346.008 505.126 351.506 500.844 357.041 495.934H383.486V508.865ZM383.486 484.546H368.796C373.221 479.891 377.631 474.8 381.993 469.237H383.486V477.065V481.411V484.546Z" fill="#8D949A"/>
<path d="M383.486 495.934H357.041C360.951 492.463 364.878 488.67 368.796 484.546H383.486V495.934Z" fill="#353D50"/>
<path d="M383.486 520.253H321.521C327.636 517.17 334.044 513.422 340.614 508.865H383.486V520.253Z" fill="#353D50"/>
<path d="M557.748 942.368L556.21 950.113L539.62 955.315L533.633 946.299L542.697 939.826L559.287 934.622L557.748 942.368Z" fill="#3B455A"/>
<path d="M603.976 933.658L604.677 941.694L620.786 948.401L627.787 939.699L619.382 932.328L603.976 933.658Z" fill="#3B455A"/>
<path d="M533.633 705.813L526.606 730.79L530.249 742.203L529.902 742.163L534.267 808.004L543.494 940.556L559.033 940.004L586.944 785.077L588.975 792.247L604.048 935.434L618.295 934.204L640.371 747.342V709.448L533.633 705.813" fill="#3B455A"/>
<path d="M596.916 532.9L578.712 531.414C538.034 528.096 535.138 583.592 529.86 611.2C522.218 651.187 518.855 692.155 522.761 732.742C535.555 725.904 553.285 727.328 567.832 726.836C594.617 725.93 622.34 725.212 648.168 729.244C652.989 729.996 650.882 696 649.904 689.68C647.913 676.812 645.923 663.944 643.933 651.076C640.336 627.82 636.74 604.564 633.142 581.31C633.038 580.627 632.932 579.945 632.825 579.263C632.439 576.759 631.583 574.347 630.3 572.147L613.439 543.214C610.005 537.323 603.824 533.464 596.916 532.9" fill="#F7F7F7"/>
<path d="M613.688 481.892C608.021 483.656 601.983 482.992 595.977 482.327C589.137 481.57 582.338 480.812 576.181 483.647C569.932 486.525 564.196 493.413 564.719 500.29C565.276 507.615 567.508 515.933 572.025 521.882C576.024 527.148 577.372 529.203 575.425 535.498C577.996 537.423 580.565 539.348 583.136 541.273C583.72 541.71 584.329 542.159 585.045 542.327C586.061 542.564 587.113 542.197 588.091 541.836C589.98 541.139 591.872 540.441 593.762 539.742C595.753 539.007 595.409 532.311 595.697 530.497C595.825 529.692 595.971 528.865 596.413 528.173C596.937 527.355 597.809 526.826 598.645 526.314C608.585 520.255 616.589 508.514 616.467 496.809C616.412 491.724 615.064 486.768 613.688 481.892" fill="#EAC5B0"/>
<path d="M584.032 483.517C584.503 483.47 584.976 483.431 585.446 483.402C592.265 482.967 599.166 484.058 605.551 486.439C609.924 488.071 614.539 491.01 614.876 496.063C615.028 498.347 614.418 500.606 613.812 502.817C613.056 505.586 612.298 508.355 611.54 511.125C611.404 511.623 611.267 512.147 611.397 512.647C611.787 514.164 614.143 514.13 615.391 513.148C619.935 509.569 625.975 503.621 628.47 498.504C630.503 494.33 630.231 488.779 633.192 485.102C635.148 482.669 636.785 478.817 639.597 477.474C643.455 475.632 647.414 473.659 650.126 470.404C652.839 467.149 653.967 462.245 651.644 458.715C649.43 455.356 644.938 454.255 640.858 454.065C636.776 453.875 632.541 454.29 628.733 452.842C627.084 452.213 625.553 451.246 623.814 450.909C618.122 449.812 609.308 451.499 604.117 454.084C599.277 456.496 594.646 459.642 589.282 460.485C586.886 460.861 584.456 460.756 582.024 460.649C580.09 460.566 578.154 460.481 576.231 460.64C568.988 461.237 562.235 465.424 558.232 471.361C553.747 478.014 551.966 487.336 556.012 494.44C558.041 498.002 559.465 501.783 560.926 505.581C561.433 506.899 564.952 512.184 565.74 507.756C566.351 504.319 565.813 500.758 566.449 497.325C567.997 488.958 575.928 484.346 584.032 483.517" fill="#3B455A"/>
<path d="M540.787 469.524L531.829 465.708L536.548 450.494L546.601 448.814L552.4 455.26L546.336 459.963L548.015 460.679L550.433 459.72L551.374 462.109L540.787 469.524" fill="#EAC5B0"/>
<path d="M549.841 589.022C557.943 573.138 560.595 554.637 557.226 537.189C547.157 536.021 537.442 532.07 529.494 525.909C529.016 525.539 528.533 525.147 528.242 524.623C527.637 523.531 528.016 522.191 528.406 521.008C534.157 503.589 540.718 486.235 545.403 468.565L531.988 462.14C527.817 469.513 523.645 476.887 519.474 484.259C514.533 492.994 509.59 501.729 504.65 510.464C502.829 513.68 501.009 516.896 499.19 520.114C498.534 521.273 497.814 522.405 497.155 523.556C493.752 529.512 498.047 539.553 500.165 545.341C503.24 553.735 507.295 561.74 511.334 569.718C515.848 578.632 520.363 587.546 524.875 596.458C526.739 600.14 529.198 604.267 533.345 604.902C540.842 606.047 546.009 596.126 548.873 590.86C549.205 590.251 549.527 589.639 549.841 589.022" fill="#F7F7F7"/>
<path d="M637.021 476.641L646.42 474.035L643.827 458.34L634.095 455.358L627.465 460.983L632.832 466.44L631.069 466.928L628.804 465.662L627.546 467.906L637.021 476.641" fill="#EAC5B0"/>
<path d="M611.684 593.876C605.832 577.073 598.364 554.788 604.092 537.941C614.229 538.103 631.772 539.063 640.49 534C641.015 533.695 641.548 533.371 641.907 532.889C642.655 531.886 642.464 530.508 642.239 529.286C638.927 511.268 634.802 493.211 632.578 475.086L646.752 470.478C649.875 478.331 653 486.185 656.125 494.039C659.826 503.342 663.526 512.647 667.227 521.95C668.59 525.377 669.953 528.803 671.315 532.229C671.806 533.465 672.365 534.681 672.86 535.908C675.418 542.256 669.786 551.643 666.893 557.101C662.699 565.016 657.583 572.419 652.487 579.794C646.795 588.035 641.1 596.277 635.406 604.518C633.056 607.922 630.055 611.689 625.859 611.774C618.271 611.927 614.51 601.417 612.393 595.822C612.148 595.177 611.912 594.527 611.684 593.876" fill="#F7F7F7"/>
<path d="M561.175 535.562V550.079C561.175 554.792 564.985 558.615 569.685 558.615H607.698C612.396 558.615 616.205 554.792 616.205 550.079V535.562H561.175Z" fill="#3B455A"/>
<path d="M680.861 340.665C680.861 289.598 639.596 248.202 588.691 248.202C537.785 248.202 496.52 289.598 496.52 340.665C496.52 358.812 501.736 375.734 510.738 390.015H510.734C536.382 433.127 542.31 469.237 542.31 469.237H588.691H635.072C635.072 469.237 640.999 433.127 666.647 390.015H666.643C675.646 375.734 680.861 358.812 680.861 340.665Z" fill="#8CABEF"/>
<path d="M541.242 469.237V530.898C541.242 533.474 543.275 535.562 545.782 535.562H631.6C634.107 535.562 636.14 533.474 636.14 530.898V469.237H541.242" fill="#9EA6AD"/>
<path d="M679.225 323.354C655.813 369.268 610.346 440.2 542.267 468.988C542.293 469.135 542.31 469.237 542.31 469.237H588.691H635.072C635.072 469.237 640.999 433.127 666.647 390.015H666.643C675.646 375.734 680.861 358.812 680.861 340.665C680.861 334.745 680.284 328.964 679.225 323.354" fill="#799FE2"/>
<path d="M511.583 348.27C511.583 303.688 547.609 267.546 592.05 267.546C618.026 267.546 641.124 279.899 655.837 299.062C641.942 274.863 615.898 258.573 586.061 258.573C541.62 258.573 505.592 294.713 505.592 339.295C505.592 357.818 511.816 374.881 522.275 388.503C515.473 376.659 511.583 362.92 511.583 348.27" fill="#D6E1F2"/>
<path d="M570.768 469.237L559.602 350.88L575.16 363.859L588.735 342.285L602.494 363.171L617.791 350.769L606.614 469.237H611.375L623.569 339.97L603.571 356.183L588.645 333.526L574.036 356.739L553.801 339.858L566.007 469.237H570.768" fill="#F6F7F7"/>
<path d="M925.341 149.463C925.341 98.3963 884.076 57 833.17 57C782.265 57 741 98.3963 741 149.463C741 167.61 746.215 184.532 755.218 198.814H755.214C780.862 241.926 786.789 278.035 786.789 278.035H833.17H879.552C879.552 278.035 885.479 241.926 911.127 198.814H911.123C920.126 184.532 925.341 167.61 925.341 149.463Z" fill="#EDE869"/>
<path d="M757.062 153.068C757.062 108.486 793.089 72.3444 837.53 72.3444C863.506 72.3444 886.603 84.6971 901.316 103.86C887.422 79.6611 861.377 63.3712 831.541 63.3712C787.1 63.3712 751.072 99.5118 751.072 144.094C751.072 162.617 757.295 179.679 767.755 193.301C760.953 181.458 757.062 167.718 757.062 153.068" fill="white"/>
<path d="M816.248 274.035L805.081 155.678L820.64 168.658L834.215 147.084L847.974 167.969L863.27 155.567L852.093 274.035H856.854L869.049 144.768L849.051 160.981L834.125 138.324L819.515 161.538L799.281 144.657L811.487 274.035H816.248" fill="#F6F7F7"/>
<path d="M564.893 457.433L566.007 469.237H570.768L569.392 454.657C567.905 455.602 566.407 456.528 564.893 457.433Z" fill="#EDECED"/>
<path d="M611.215 420.458L606.614 469.237H611.375L616.493 414.964C614.763 416.814 613.003 418.645 611.215 420.458" fill="#EDECED"/>
<path d="M541.242 495.934H636.14V484.546H541.242V495.934Z" fill="#3B455A"/>
<path d="M541.242 520.253H636.14V508.865H541.242V520.253Z" fill="#3B455A"/>
<path d="M548.87 535.563H636.14V497.646H548.87V535.563Z" fill="#D4BEBE"/>
<path d="M561.175 535.563H558.887C558.888 535.562 558.885 535.563 558.888 535.562H561.175" fill="#DCDCDC"/>
<path d="M548.871 535.563H545.782C545.547 535.563 545.317 535.544 545.093 535.51C545.318 535.544 545.547 535.562 545.782 535.562H548.87L548.871 535.563Z" fill="#DCDCDC"/>
<path d="M561.175 535.563H616.205V535.562H561.175V535.563Z" fill="#353D50"/>
<path d="M545.084 535.508C545.08 535.507 545.077 535.507 545.074 535.506C545.077 535.507 545.08 535.507 545.084 535.508Z" fill="#DCDCDC"/>
<path d="M631.6 535.562H545.781C545.547 535.562 545.318 535.544 545.093 535.51C545.09 535.508 545.086 535.508 545.084 535.508C545.08 535.507 545.077 535.507 545.074 535.506C543.284 535.217 541.85 533.843 541.401 532.063C550.299 530.107 561.612 526.584 574.176 520.253H636.14V530.898C636.14 533.474 634.107 535.562 631.6 535.562V535.562ZM636.14 508.865H593.269C598.662 505.126 604.16 500.844 609.695 495.934H636.14V497.646V508.865ZM636.14 484.546H621.451C625.876 479.891 630.286 474.8 634.646 469.237H636.14V473.929V484.546Z" fill="#8D949A"/>
<path d="M636.14 495.934H609.695C613.605 492.463 617.533 488.67 621.451 484.546H636.14V495.934Z" fill="#353D50"/>
<path d="M636.14 520.253H574.176C580.29 517.17 586.7 513.422 593.269 508.865H636.14V520.253Z" fill="#353D50"/>
<path d="M1100.42 934.826V941.967L1119.14 951.123L1128.5 941.967L1119.14 932.809H1117.93L1117.63 934.826H1100.42" fill="#3B455A"/>
<path d="M1054.33 932.809H1053.04L1043.68 941.967L1053.04 951.123L1071.76 941.967V934.826H1054.55L1054.33 932.809" fill="#3B455A"/>
<path d="M1074.75 509.461C1064.79 509.129 1051.96 514.626 1045.67 522.284C1041.02 527.951 1038.26 534.879 1035.57 541.685C1027.99 560.85 1024.55 578.605 1020.77 598.756C1018.36 611.605 1016.13 624.394 1014.37 637.149C1012.43 651.276 1011.06 665.363 1010.67 679.365C1010.62 680.914 1010.31 685.243 1010.13 690.415C1009.76 701.248 1010 715.737 1014.58 716.278C1015.44 716.38 1016.27 716.002 1017.03 715.637C1022.92 712.787 1027.57 709.065 1032.77 705.813C1034.59 704.669 1036.49 703.584 1038.53 702.615C1042.63 700.674 1047.01 699.195 1051.49 698.023C1043.95 698.414 1043.01 697.025 1043.01 697.025C1043.01 697.025 1049.82 669.815 1054.59 646.147C1057.06 633.95 1058.99 622.692 1059.16 616.585C1059.69 598.223 1062.05 537.576 1062.05 537.576L1073.51 514.379L1075.62 514.398C1075.47 514.382 1075.32 514.364 1075.17 514.346C1075.66 514.403 1074.93 509.862 1074.75 509.461" fill="#F7F7F7"/>
<path d="M1159.95 704.225C1158.77 692.2 1157.56 680.176 1156.07 668.186C1153.1 644.268 1149.07 620.407 1142.24 597.254C1139.63 588.409 1136.62 579.687 1133.61 570.968C1129.95 560.35 1126.28 549.733 1122.62 539.117C1118.07 525.921 1110.38 516.625 1096.92 512.009C1094.52 511.185 1091.99 510.548 1089.38 510.083C1089.32 510.356 1089.26 510.633 1089.23 510.924C1089.07 512.191 1088.7 513.596 1087.9 514.515L1096.73 514.6C1096.73 514.6 1121.65 601.258 1122.57 616.193C1122.92 621.872 1124.07 634.266 1125.36 647.321C1127.4 667.984 1129.76 690.307 1129.76 690.307C1129.76 690.307 1118.82 690.565 1103 691.74C1104.17 691.713 1105.34 691.682 1106.51 691.67C1117.52 691.574 1128.93 696.228 1139.47 699.244C1140.23 699.463 1140.98 699.672 1141.73 699.869C1146.03 701.003 1149.52 704.117 1153.09 706.558C1158.35 710.165 1160.67 711.593 1159.95 704.225" fill="#F7F7F7"/>
<path d="M1139.47 699.246C1128.93 696.228 1117.52 691.574 1106.51 691.672C1105.34 691.682 1104.17 691.713 1103 691.74C1102.02 691.812 1101.02 691.888 1100 691.969C1092.63 692.549 1084.34 693.324 1075.69 694.352C1075.26 694.402 1074.84 694.451 1074.41 694.504C1063.34 696.861 1056.16 697.782 1051.49 698.023C1047.01 699.195 1042.63 700.674 1038.53 702.615C1036.49 703.584 1034.59 704.669 1032.77 705.813L1032.71 717.58L1053.81 935.096H1071.11V937.131H1071.21L1090.23 785.42L1090.31 784.665L1100.73 937.131H1100.83V935.096H1118.21L1140.26 767.32L1139.47 699.246" fill="#3B455A"/>
<path d="M1125.36 647.321C1124.07 634.266 1122.92 621.872 1122.57 616.193C1121.45 598.003 1114.5 579.131 1109.8 561.622C1106.99 551.188 1104.12 540.772 1101.2 530.368C1100.22 526.862 1099.86 520.607 1097.97 517.744C1094.88 513.088 1088.01 515.114 1083.39 515.267C1081.47 515.331 1079.48 515.025 1077.49 514.718C1073.08 514.04 1068.66 513.36 1064.94 516.724C1061.39 519.935 1062.14 525.886 1061.96 530.145C1061.56 539.739 1061.23 549.336 1060.94 558.935C1060.35 578.152 1059.89 597.373 1059.16 616.585C1058.99 622.692 1057.06 633.95 1054.59 646.148C1052.17 658.177 1049.45 670.151 1046.62 682.095C1045.7 685.995 1044.76 689.893 1043.81 693.787C1043.36 695.613 1037.36 701.818 1038.95 703.09C1039.82 703.794 1045.24 702.062 1046.4 701.832C1049.11 701.291 1051.8 700.696 1054.5 700.087C1065.07 697.695 1075.65 695.011 1086.5 694.23C1092.77 693.779 1099.05 693.965 1105.33 694.21C1110.41 694.407 1115.51 694.646 1120.49 695.632C1126.4 696.804 1132.39 699.03 1138.29 697.811C1138.21 695.146 1135.96 693.125 1134.17 691.122C1128.96 685.308 1128.62 679.386 1127.88 672.209C1127.02 663.914 1126.18 655.62 1125.36 647.321" fill="#D7E8F4"/>
<path d="M1103.91 459.137C1106.13 463.511 1107.05 468.466 1107.01 473.364C1107 474.666 1107.01 476.172 1108.03 476.995C1109.12 477.873 1108.03 479.624 1108.95 478.57C1109.86 477.515 1112.98 473.848 1113.18 472.469C1113.66 469.236 1113.82 465.958 1113.67 462.695C1113.55 459.856 1113.12 456.875 1111.37 454.627C1110.34 453.294 1108.91 452.321 1107.51 451.377C1105.48 450.008 1103.38 448.624 1100.99 448.054C1096.88 447.071 1094.25 448.424 1097.77 451.494C1100.29 453.694 1102.39 456.14 1103.91 459.137Z" fill="#1A3151"/>
<path d="M1074.77 513.306C1074.84 514.906 1075.15 516.418 1076.01 517.738C1076.86 519.056 1078.23 519.96 1079.63 520.713C1081.37 521.651 1083.25 522.432 1085.23 522.535C1087.22 522.638 1089.32 521.967 1090.55 520.439C1094.14 515.962 1094.14 506.346 1094.58 500.925C1099.6 500.33 1105.54 499.028 1107.51 493.927C1108.13 492.319 1108.24 490.544 1108.35 488.805C1108.77 481.619 1109.2 474.432 1109.62 467.246C1109.77 464.761 1109.91 462.199 1109.17 459.847C1107.88 455.721 1104.19 453.114 1100.53 451.402C1091.18 447.039 1080.04 446.622 1070.95 451.683C1068.52 453.029 1066.21 454.803 1064.73 457.294C1062.44 461.136 1062.45 466.026 1062.54 470.6C1062.62 474.822 1062.7 479.043 1062.78 483.264C1062.88 488.119 1063.32 493.725 1066.96 496.474C1068.9 497.932 1071.47 498.315 1073.11 500.159C1076.24 503.68 1074.57 508.833 1074.77 513.306" fill="#EAC5B0"/>
<path d="M1091.7 495.229C1089.02 496.83 1086.16 496.777 1083.31 495.763C1082.1 495.331 1082.73 493.306 1083.94 493.738C1086.3 494.578 1088.56 494.676 1090.8 493.342C1091.92 492.67 1092.82 494.56 1091.7 495.229V495.229ZM1110.25 486.028C1110.23 484.692 1109.85 480.754 1107.71 483.106C1107.15 483.721 1106.97 484.622 1106.9 485.476C1106.82 486.329 1106.81 487.21 1106.5 488.002C1105.78 489.818 1103.68 490.553 1101.86 490.427C1101.13 490.376 1100.39 490.218 1099.77 489.821C1099.16 489.436 1098.7 488.847 1098.24 488.269C1097.14 486.868 1096.03 485.467 1094.93 484.066C1093.03 481.657 1088.97 482.448 1086.23 482.663C1083.07 482.909 1079.89 483.689 1077.22 485.612C1076.95 485.806 1076.69 486.01 1076.42 486.214C1075.78 486.713 1075.13 487.205 1074.39 487.517C1071.91 488.566 1068.98 487.188 1067.39 484.906C1066.67 483.86 1066.01 482.529 1064.81 482.298C1063.87 482.119 1062.92 482.746 1062.39 483.601C1061.85 484.457 1061.67 485.499 1061.55 486.515C1061.12 490.217 1061.44 494.072 1062.88 497.448C1066.02 504.77 1072.76 505.994 1079.58 506.183C1082.28 506.258 1084.97 506.334 1087.67 506.408C1092.6 506.546 1097.82 506.609 1102.12 503.972C1105.91 501.646 1108.3 497.485 1109.42 493.056C1110 490.768 1110.27 488.392 1110.25 486.028" fill="#1A3151"/>
<path d="M1113.29 447.126C1113.86 445.408 1114.3 443.651 1114.62 441.872C1112.92 442.368 1111.1 442.429 1109.37 442.049C1109.42 441.015 1109.47 439.98 1109.52 438.947C1109.56 438.087 1097.9 436.886 1096.95 436.759C1088.1 435.578 1080 434.471 1071.72 438.807C1064.64 442.512 1059.92 448.343 1058.46 456.172C1057.06 463.654 1059.03 473.618 1063.09 480.094C1063.16 478.087 1062.25 473.298 1062.82 471.416C1063.21 469.521 1063.97 467.713 1064.97 466.06C1066.98 462.759 1069.95 460.048 1073.33 458.176C1078.71 455.193 1084.86 453.786 1090.95 453.257C1096.54 452.772 1103.33 452.41 1108.73 454.152C1111.33 454.99 1111.73 455.669 1113.46 453.106C1113.77 452.655 1116.28 447.325 1116.06 447.31C1115.14 447.249 1114.21 447.188 1113.29 447.126" fill="#1A3151"/>
<path d="M1148 470.618C1148.4 470.419 1148.8 470.22 1149.21 470.021C1149.71 467.444 1149.1 464.797 1148.47 462.247C1147.01 456.33 1144.94 450.575 1139.77 446.841C1137.25 445.025 1130.56 444.028 1129.59 448.479C1129.21 450.245 1131.63 451.061 1132.87 452.365C1133.27 452.788 1136.07 457.072 1136.01 457.082C1134.81 457.267 1133.61 456.545 1132.55 455.804C1131.8 456.719 1131.05 457.635 1130.3 458.551C1130.13 458.749 1129.96 458.998 1130.05 459.236C1130.12 459.411 1130.31 459.508 1130.48 459.589C1137.03 462.683 1138.2 468.12 1141.58 473.791C1143.72 472.733 1145.86 471.676 1148 470.618" fill="#EAC5B0"/>
<path d="M1127.65 570.745L1107.15 523.107L1138.25 524.565C1142.67 524.1 1145.76 520.092 1145.02 515.81L1136.9 469.17L1150.66 466.005L1168.29 501.812C1175.74 516.948 1174.97 534.727 1166.24 549.196L1127.65 570.745Z" fill="#F7F7F7"/>
<path d="M1023.22 471.605C1022.84 471.376 1022.45 471.15 1022.07 470.923C1021.76 468.317 1022.56 465.72 1023.38 463.222C1025.28 457.427 1027.78 451.835 1033.22 448.484C1035.86 446.855 1042.61 446.341 1043.24 450.851C1043.49 452.639 1041.02 453.279 1039.69 454.49C1039.26 454.883 1036.14 458.953 1036.2 458.969C1037.38 459.24 1038.63 458.605 1039.74 457.942C1040.42 458.909 1041.11 459.877 1041.79 460.845C1041.93 461.054 1042.09 461.315 1041.98 461.545C1041.9 461.715 1041.7 461.798 1041.53 461.867C1034.76 464.481 1033.18 469.819 1029.39 475.231C1027.33 474.024 1025.28 472.814 1023.22 471.605Z" fill="#EAC5B0"/>
<path d="M1026.66 585.118L1059.53 514.162C1053.52 517.895 1047.51 521.628 1041.5 525.361C1037.49 527.85 1033.48 530.337 1029.47 532.826C1025.33 535.4 1022.05 536.899 1019.05 531.367C1018.23 529.857 1017.61 528.059 1017.39 526.36C1016.54 519.983 1035.12 471.182 1034.4 470.96L1020.92 466.812L1000.65 501.254C995.166 510.561 992.912 521.863 992.557 532.496C992.369 538.08 992.738 543.745 994.059 549.192C995.191 553.867 996.068 558.885 1000.27 561.86C1004.15 564.61 1007.71 567.412 1011.33 570.789C1012.52 571.907 1027.13 584.092 1026.66 585.118" fill="#F7F7F7"/>
<path d="M1059.94 535.562V550.079C1059.94 554.792 1063.75 558.615 1068.45 558.615H1106.46C1111.16 558.615 1114.97 554.792 1114.97 550.079V535.562H1059.94Z" fill="#3B455A"/>
<path d="M1179.63 340.665C1179.63 289.598 1138.36 248.202 1087.45 248.202C1036.55 248.202 995.284 289.598 995.284 340.665C995.284 358.812 1000.5 375.734 1009.5 390.015H1009.5C1035.15 433.127 1041.07 469.237 1041.07 469.237H1087.45H1133.84C1133.84 469.237 1139.76 433.127 1165.41 390.015H1165.41C1174.41 375.734 1179.63 358.812 1179.63 340.665" fill="#8CABEF"/>
<path d="M1040.01 469.237V530.898C1040.01 533.474 1042.04 535.562 1044.54 535.562H1130.36C1132.87 535.562 1134.9 533.474 1134.9 530.898V469.237H1040.01Z" fill="#9EA6AD"/>
<path d="M1177.99 323.354C1154.58 369.268 1109.11 440.2 1041.03 468.988C1041.06 469.135 1041.07 469.237 1041.07 469.237H1087.45H1133.84C1133.84 469.237 1139.76 433.127 1165.41 390.015H1165.41C1174.41 375.734 1179.63 358.812 1179.63 340.665C1179.63 334.745 1179.05 328.964 1177.99 323.354" fill="#799FE2"/>
<path d="M1010.35 348.27C1010.35 303.688 1046.37 267.546 1090.81 267.546C1116.79 267.546 1139.89 279.899 1154.6 299.062C1140.71 274.863 1114.66 258.573 1084.82 258.573C1040.38 258.573 1004.36 294.713 1004.36 339.295C1004.36 357.818 1010.58 374.881 1021.04 388.503C1014.24 376.659 1010.35 362.92 1010.35 348.27Z" fill="#D6E1F2"/>
<path d="M1069.53 469.237L1058.37 350.88L1073.92 363.859L1087.5 342.285L1101.26 363.171L1116.55 350.769L1105.38 469.237H1110.14L1122.33 339.97L1102.33 356.183L1087.41 333.526L1072.8 356.739L1052.56 339.858L1064.77 469.237H1069.53" fill="#F6F7F7"/>
<path d="M1063.66 457.433L1064.77 469.237H1069.53L1068.16 454.657C1066.67 455.602 1065.17 456.528 1063.66 457.433Z" fill="#EDECED"/>
<path d="M1109.98 420.458L1105.38 469.237H1110.14L1115.26 414.964C1113.53 416.814 1111.77 418.645 1109.98 420.458" fill="#EDECED"/>
<path d="M1040.01 495.934H1134.9V484.546H1040.01V495.934Z" fill="#3B455A"/>
<path d="M1040.01 520.253H1134.9V508.865H1040.01V520.253Z" fill="#3B455A"/>
<path d="M1049.61 535.563H1059.94V535.562H1049.61V535.563Z" fill="#DCDCDC"/>
<path d="M1130.36 535.563H1114.97V535.562H1130.36C1132.87 535.562 1134.9 533.474 1134.9 530.898V524.408V530.898C1134.9 533.474 1132.87 535.563 1130.36 535.563" fill="#DCDCDC"/>
<path d="M1049.61 535.563H1044.54C1044.31 535.563 1044.08 535.544 1043.85 535.508C1044.08 535.544 1044.31 535.562 1044.54 535.562H1049.61V535.563" fill="#DCDCDC"/>
<path d="M1059.94 535.563H1114.97V535.562H1059.94V535.563Z" fill="#353D50"/>
<path d="M1043.85 535.508C1043.85 535.508 1043.84 535.507 1043.83 535.506C1043.84 535.507 1043.85 535.508 1043.85 535.508Z" fill="#DCDCDC"/>
<path d="M1130.36 535.562H1044.54C1044.31 535.562 1044.08 535.544 1043.85 535.508C1043.85 535.508 1043.85 535.508 1043.85 535.508C1043.85 535.508 1043.84 535.507 1043.83 535.506C1042.04 535.215 1040.61 533.842 1040.16 532.063C1049.06 530.107 1060.37 526.584 1072.94 520.253H1134.9V524.408V530.898C1134.9 533.474 1132.87 535.562 1130.36 535.562V535.562ZM1134.9 508.865H1092.03C1097.43 505.126 1102.92 500.844 1108.46 495.934H1134.9V508.865ZM1134.9 484.546H1120.21C1124.64 479.891 1129.05 474.8 1133.41 469.237H1134.9V484.546" fill="#8D949A"/>
<path d="M1134.9 495.934H1108.46C1112.37 492.463 1116.3 488.67 1120.21 484.546H1134.9V495.934" fill="#353D50"/>
<path d="M1134.9 520.253H1072.94C1079.05 517.17 1085.46 513.422 1092.03 508.865H1134.9V520.253Z" fill="#353D50"/>
<path d="M107.266 931.086L104.723 934.141L103.616 937.423L111.259 948.736L118.482 951.451L126.575 950.773C126.575 950.773 130.044 949.528 127.963 946.812C125.881 944.097 120.332 942.74 120.332 942.74L121.141 933.605L107.266 931.086Z" fill="#3B455A"/>
<path d="M77.0877 931.427L76.0469 937.082L70.3825 946.699L72.9261 949.754L82.4078 948.962L88.1888 940.93V925.09L77.3194 926.108L77.0877 931.427" fill="#3B455A"/>
<path d="M64.3712 709.567L58.7159 739.887L74.6685 933.605L91.3659 930.178L119.065 716.053L64.3712 709.567" fill="#3B455A"/>
<path d="M151.694 705.587L154.92 830.453L122.509 938.238L103.616 931.365L119.527 835.241L104.918 704.521L151.694 705.587Z" fill="#3B455A"/>
<path d="M58.0456 561.449C55.0596 568.442 54.5477 576.191 53.5986 584.634C51.9531 599.265 51.186 613.983 51.0813 628.702C50.9595 645.81 51.741 662.915 53.113 679.968C53.7989 688.497 54.6354 697.012 55.5806 705.516C56.0702 709.923 54.316 721.214 58.8036 723.558C61.2961 724.859 64.3031 724.597 67.1124 724.302C91.8961 721.686 116.678 719.071 141.461 716.454C145.434 716.035 149.55 715.571 152.977 713.562C159.119 709.962 158.006 702.806 158.944 696.79C160.185 688.815 160.427 680.715 160.225 672.663C159.81 656.098 157.324 639.682 156.104 623.174C154.791 605.424 151.974 581.613 145.554 564.704C140.3 550.861 126.286 532.986 105.134 533.555C90.5294 533.947 75.9684 540.928 65.5441 550.757C62.0095 554.091 59.665 557.658 58.0456 561.449" fill="#F7F7F7"/>
<path d="M64.7613 519.666C69.1362 523.6 74.0479 526.962 79.3262 529.633C74.1317 520.786 70.1861 511.237 67.6373 501.344C67.4423 500.59 67.1949 499.749 66.5024 499.368C65.8544 499.009 65.0466 499.183 64.3358 499.391C51.6285 503.125 57.1358 512.806 64.7613 519.666Z" fill="#1A3151"/>
<path d="M102.394 530.729C103.131 529.831 103.76 528.884 104.283 527.946C111.493 514.969 109.088 467.512 74.6803 475.192C43.4362 482.165 65.3177 517.693 79.1181 529.98C81.7336 532.309 85.0077 534.64 88.7962 535.543C89.8094 535.785 89.922 545.34 90.8711 546.74C92.7706 549.544 97.0055 550.218 99.9483 548.754C102.497 547.487 104.872 543.863 105.33 541.175C105.661 539.23 101.704 531.574 102.394 530.729Z" fill="#EAC5B0"/>
<path d="M102.18 517.006C105.418 518.528 109.027 515.697 111.057 512.798C119.391 500.888 118.472 483.554 108.922 472.554C100.93 463.347 83.192 462.789 87.7398 477.088C89.3526 482.159 95.7462 486.935 97.9494 492.336C101.095 500.055 101.553 508.816 102.18 517.006Z" fill="#1A3151"/>
<path d="M40.3546 477.228C31.3952 491.961 34.897 511.119 28.0897 526.915C41.881 525.578 54.9941 518.503 63.5111 507.802C71.8631 497.309 96.1638 479.951 83.9617 467.108C71.5424 454.034 48.2052 464.321 40.3546 477.228" fill="#1A3151"/>
<path d="M65.0296 535.562V550.079C65.0296 554.792 68.8404 558.615 73.5387 558.615H111.551C116.25 558.615 120.061 554.792 120.061 550.079V535.562H65.0296Z" fill="#3B455A"/>
<path d="M184.716 340.665C184.716 289.598 143.451 248.202 92.5454 248.202C41.6401 248.202 0.374695 289.598 0.374695 340.665C0.374695 358.812 5.59038 375.734 14.593 390.015H14.5891C40.2368 433.127 46.1643 469.237 46.1643 469.237H92.5454H138.927C138.927 469.237 144.854 433.127 170.502 390.015H170.498C179.5 375.734 184.716 358.812 184.716 340.665Z" fill="#8CABEF"/>
<path d="M45.0961 469.237V530.898C45.0961 533.474 47.1291 535.562 49.636 535.562H135.455C137.962 535.562 139.995 533.474 139.995 530.898V469.237H45.0961Z" fill="#9EA6AD"/>
<path d="M183.08 323.354C159.668 369.268 114.2 440.2 46.1212 468.988C46.1473 469.135 46.1643 469.237 46.1643 469.237H92.5454H138.927C138.927 469.237 144.854 433.127 170.502 390.015H170.498C179.5 375.734 184.716 358.812 184.716 340.665C184.716 334.745 184.139 328.964 183.08 323.354" fill="#799FE2"/>
<path d="M15.4374 348.27C15.4374 303.688 51.4635 267.546 95.9046 267.546C121.881 267.546 144.978 279.899 159.691 299.062C145.797 274.863 119.752 258.573 89.9155 258.573C45.4745 258.573 9.44696 294.713 9.44696 339.295C9.44696 357.818 15.6704 374.881 26.13 388.503C19.328 376.659 15.4374 362.92 15.4374 348.27Z" fill="#D6E1F2"/>
<path d="M74.6226 469.237L63.4561 350.88L79.0147 363.859L92.5899 342.285L106.348 363.171L121.645 350.769L110.468 469.237H115.229L127.424 339.97L107.426 356.183L92.4996 333.526L77.8901 356.739L57.6555 339.858L69.8615 469.237H74.6226Z" fill="#F6F7F7"/>
<path d="M68.7474 457.433L69.8615 469.237H74.6226L73.2468 454.657C71.7597 455.602 70.2621 456.528 68.7474 457.433Z" fill="#EDECED"/>
<path d="M115.07 420.458L110.468 469.237H115.229L120.348 414.964C118.617 416.814 116.858 418.645 115.07 420.458" fill="#EDECED"/>
<path d="M45.0961 495.934H139.995V484.546H45.0961V495.934Z" fill="#3B455A"/>
<path d="M45.0961 520.253H139.995V508.865H45.0961V520.253Z" fill="#3B455A"/>
<path d="M48.9448 535.563H139.995V469.237H48.9448V535.563Z" fill="#D4BEBE"/>
<path d="M65.0296 535.563H120.062V535.562H65.0296V535.563Z" fill="#353D50"/>
<path d="M48.9422 535.508C48.937 535.508 48.9317 535.507 48.9252 535.506C48.9317 535.507 48.937 535.508 48.9422 535.508Z" fill="#D4BEBE"/>
<path d="M135.455 535.562H49.636C49.4004 535.562 49.17 535.544 48.9448 535.508C48.9448 535.508 48.9435 535.508 48.9422 535.508C48.937 535.508 48.9317 535.507 48.9252 535.506C47.1357 535.215 45.7035 533.842 45.2558 532.063C54.1537 530.107 65.4655 526.584 78.0302 520.253H139.995V530.898C139.995 533.474 137.962 535.562 135.455 535.562V535.562ZM139.995 508.865H97.1233C102.517 505.126 108.015 500.844 113.55 495.934H139.995V508.865ZM139.995 484.546H125.305C129.73 479.891 134.14 474.8 138.501 469.237H139.995V484.546" fill="#8D949A"/>
<path d="M139.995 495.934H113.55C117.46 492.463 121.387 488.67 125.305 484.546H139.995V495.934Z" fill="#353D50"/>
<path d="M139.995 520.253H78.0302C84.145 517.17 90.553 513.422 97.1233 508.865H139.995V520.253Z" fill="#353D50"/>
<path d="M36.6629 492.801C36.9994 490.217 37.6906 487.74 38.3621 485.111C38.5205 484.49 38.6842 483.855 39.0363 483.314C39.4605 482.663 40.1216 482.199 40.7656 481.752C41.7029 481.101 42.6403 480.451 43.5776 479.802C44.1614 479.397 44.7571 478.986 45.4365 478.765C47.188 478.196 49.0666 478.985 50.7357 479.757C51.0747 479.914 51.4295 480.084 51.6534 480.38C52.0278 480.876 51.9139 481.603 51.5565 482.111C50.4228 483.723 49.7552 484.017 49.2067 486.157C48.738 487.979 48.3165 489.842 48.3453 491.732C49.1713 491.652 49.8141 491.013 50.5341 490.481C51.1376 490.035 51.8942 489.564 52.5959 489.842C53.5306 490.209 53.5044 491.537 53.0868 492.435C52.2503 494.234 50.5891 495.511 49.3048 497.037C47.3949 499.306 45.8279 504.276 42.563 504.068C40.5784 503.942 38.3333 502.906 36.4037 502.376C36.4195 500.182 36.4339 497.989 36.4483 495.794C36.4561 494.771 36.5333 493.779 36.6629 492.801" fill="#EAC5B0"/>
<path d="M66.3047 620.971C69.1481 621.025 72.5661 592.184 72.824 589.134C73.5086 581.015 74.4158 572.397 73.0871 564.296C72.6708 561.766 69.8536 550.087 66.8977 550.214C65.5768 550.27 64.6788 551.495 63.9392 552.569C59.9713 558.343 54.7245 563.271 48.666 566.918C47.2077 567.795 45.2532 568.58 43.8957 567.559C42.8406 566.765 42.7267 565.278 42.7044 563.976C42.5892 557.576 48.1751 501.088 48.2131 501.096C45.1 500.408 36.9654 496.949 34.1587 497.964C28.7744 499.911 24.6337 516.02 22.3782 521.714C14.5275 541.54 8.43372 562.031 4.19489 582.885C2.21685 592.615 11.7431 598.183 19.3162 602.504C26.1366 606.398 33.1179 610.018 40.2407 613.352C48.4827 617.212 57.1712 620.749 66.3047 620.971" fill="#F7F7F7"/>
<path d="M158.738 476.612C158.164 474.067 157.247 471.662 156.336 469.102C156.119 468.498 155.899 467.881 155.498 467.374C155.015 466.761 154.315 466.357 153.63 465.969C152.637 465.405 151.644 464.841 150.651 464.277C150.032 463.925 149.402 463.569 148.703 463.408C146.907 462.997 145.108 463.948 143.519 464.865C143.194 465.053 142.858 465.251 142.661 465.566C142.334 466.094 142.515 466.808 142.918 467.282C144.194 468.787 144.887 469.02 145.633 471.104C146.267 472.877 146.858 474.694 147.005 476.579C146.174 476.573 145.476 475.993 144.709 475.527C144.066 475.136 143.269 474.735 142.596 475.072C141.7 475.522 141.848 476.842 142.347 477.699C143.347 479.415 145.118 480.541 146.539 481.948C148.65 484.039 150.67 488.85 153.903 488.354C155.867 488.052 158.008 486.822 159.881 486.124C159.664 483.94 159.445 481.757 159.228 479.573C159.126 478.556 158.956 477.573 158.738 476.612" fill="#EAC5B0"/>
<path d="M140.027 600.229C138.006 600.578 136.031 600.417 134.452 599.183C133.427 598.382 132.759 597.237 132.141 596.106C126.6 585.959 123.374 574.629 122.618 563.154C122.266 557.831 121.614 550.584 123.423 545.461C125.659 539.131 129.599 543.541 135.201 544.709C142.312 546.192 149.503 547.306 156.734 548.043C157.431 548.115 158.203 548.164 158.764 547.752C159.325 547.343 159.495 546.608 159.615 545.935C163.507 524.308 152.466 506.443 148.046 485.834C151.809 484.564 157.612 480.434 161.722 481.536C167.259 483.02 172.865 498.676 175.635 504.141C182.058 516.826 187.736 529.872 192.627 543.195C194.931 549.47 196.472 556.287 199.225 562.356C201.021 566.316 203.63 569.994 199.543 573.988C198.145 575.355 196.296 576.173 194.491 576.962C178.03 584.162 161.57 591.363 145.108 598.563C143.527 599.256 141.761 599.929 140.027 600.229" fill="#F7F7F7"/>
</svg>
