<svg width="67" height="67" viewBox="0 0 67 67" fill="none" xmlns="http://www.w3.org/2000/svg">
<path d="M28.88 57.33C28.55 57.24 28.47 57.01 28.47 56.7C28.47 55.95 28.47 55.2 28.47 54.46C28.4685 53.9739 28.619 53.4995 28.9005 53.1032C29.1821 52.7069 29.5805 52.4086 30.04 52.25C30.46 52.09 30.52 51.89 30.52 51.51C30.52 48.33 30.52 45.14 30.52 41.96C30.52 41.49 30.38 41.35 29.94 41.28C24.3119 40.3958 19.1433 37.6488 15.2615 33.4788C11.3798 29.3088 9.00944 23.9569 8.53002 18.28C8.35002 16.17 8.47002 14.05 8.43002 11.94C8.40781 11.8018 8.43465 11.6601 8.50587 11.5396C8.5771 11.4191 8.68822 11.3272 8.82002 11.28C9.25002 11.36 9.34002 11.64 9.34002 12.03C9.34002 13.4 9.34002 14.77 9.34002 16.14C9.31581 19.2201 9.88625 22.276 11.02 25.14C13.1981 30.7212 17.3613 35.301 22.71 38C28.4673 40.9104 35.1321 41.4628 41.29 39.54C46.3683 37.9418 50.7788 34.7156 53.84 30.36C56.7403 26.3767 58.324 21.5871 58.37 16.66C58.43 12.36 58.37 8.05999 58.37 3.75999C58.3759 3.50429 58.349 3.24889 58.29 3C58.1222 2.43186 57.7595 1.94102 57.2658 1.61368C56.772 1.28633 56.1787 1.14341 55.59 1.21001C55.0033 1.29608 54.4668 1.58953 54.0779 2.03717C53.689 2.48481 53.4733 3.057 53.47 3.64999C53.47 7.85999 53.47 12.08 53.47 16.29C53.4663 18.2112 53.1661 20.1204 52.58 21.95C51.8089 24.4912 50.5232 26.8467 48.8028 28.8698C47.0825 30.8929 44.9643 32.5405 42.58 33.71C38.9167 35.5841 34.7391 36.2025 30.69 35.47C28.129 35.0675 25.6757 34.1514 23.4778 32.7766C21.2798 31.4018 19.3826 29.5968 17.9 27.47C15.4448 24.0359 14.1646 19.9006 14.25 15.68C14.25 11.8733 14.25 8.06666 14.25 4.25999C14.2714 3.92576 14.224 3.5907 14.1108 3.2755C13.9976 2.96029 13.821 2.67163 13.5919 2.42737C13.3628 2.1831 13.086 1.98841 12.7786 1.85532C12.4713 1.72222 12.1399 1.65355 11.805 1.65355C11.4701 1.65355 11.1387 1.72222 10.8314 1.85532C10.5241 1.98841 10.2473 2.1831 10.0181 2.42737C9.78901 2.67163 9.61239 2.96029 9.4992 3.2755C9.386 3.5907 9.33864 3.92576 9.36002 4.25999C9.36002 5.25999 9.36002 6.17999 9.36002 7.14999C9.36002 7.53999 9.24002 7.77 8.82002 7.77C8.40002 7.77 8.46002 7.44999 8.46002 7.17999C8.46002 6.17999 8.46002 5.07999 8.46002 4.03999C8.46002 3.15417 8.81191 2.30464 9.43828 1.67827C10.0647 1.0519 10.9142 0.699997 11.8 0.699997C12.6858 0.699997 13.5354 1.0519 14.1618 1.67827C14.7881 2.30464 15.14 3.15417 15.14 4.03999C15.14 4.61999 15.14 5.2 15.14 5.77C15.14 6.12 15.23 6.25999 15.6 6.25999C16.95 6.25999 18.29 6.25999 19.6 6.25999C19.6566 6.26845 19.7142 6.26555 19.7696 6.25145C19.825 6.23735 19.8771 6.21234 19.9227 6.17789C19.9683 6.14343 20.0066 6.10023 20.0354 6.0508C20.0641 6.00137 20.0827 5.9467 20.09 5.89C20.2614 5.21054 20.6653 4.61253 21.2316 4.19972C21.7978 3.78691 22.4907 3.58535 23.19 3.63H27.36C27.7725 3.61325 28.184 3.68181 28.5688 3.83141C28.9536 3.981 29.3034 4.20842 29.5963 4.4994C29.8891 4.79039 30.1188 5.13869 30.2708 5.52251C30.4229 5.90633 30.4941 6.31739 30.48 6.73C30.48 8.73 30.48 10.73 30.48 12.73C30.4948 13.1331 30.4281 13.5351 30.284 13.9119C30.1399 14.2886 29.9213 14.6325 29.6412 14.9228C29.3611 15.2131 29.0254 15.444 28.6541 15.6016C28.2827 15.7592 27.8834 15.8403 27.48 15.84C26.0067 15.84 24.53 15.84 23.05 15.84C22.3802 15.8646 21.7227 15.6556 21.19 15.2487C20.6574 14.8419 20.2826 14.2626 20.13 13.61C20.04 13.28 19.9 13.22 19.6 13.22C18.25 13.22 16.91 13.22 15.6 13.22C15.33 13.22 15.18 13.22 15.17 13.59C14.8863 17.4444 15.6281 21.3052 17.32 24.78C19.1728 28.3064 22.1017 31.1503 25.6812 32.8985C29.2606 34.6467 33.3042 35.2081 37.2245 34.5011C41.1449 33.7942 44.7377 31.8558 47.4811 28.9675C50.2245 26.0792 51.9756 22.3915 52.48 18.44C52.6315 16.8214 52.6849 15.1951 52.64 13.57C52.64 13.28 52.53 13.21 52.27 13.21C50.88 13.21 49.49 13.21 48.1 13.21C47.83 13.21 47.74 13.31 47.66 13.55C47.5049 14.2484 47.1004 14.8663 46.5224 15.2878C45.9443 15.7094 45.2324 15.9057 44.52 15.84C43.17 15.84 41.82 15.84 40.52 15.84C40.0851 15.8737 39.6481 15.8122 39.2394 15.6598C38.8306 15.5073 38.4601 15.2675 38.1536 14.9572C37.847 14.6468 37.6118 14.2734 37.4644 13.8628C37.317 13.4522 37.2609 13.0145 37.3 12.58C37.3 10.6533 37.3 8.73 37.3 6.81C37.2687 6.38043 37.3303 5.94916 37.4806 5.54552C37.6308 5.14187 37.8662 4.7753 38.1708 4.47075C38.4753 4.16619 38.8419 3.9308 39.2455 3.78055C39.6492 3.6303 40.0804 3.56872 40.51 3.60001H44.68C45.3588 3.56317 46.0293 3.7635 46.5766 4.16669C47.1239 4.56987 47.514 5.15081 47.68 5.81C47.6896 5.87704 47.7127 5.94143 47.748 5.99927C47.7832 6.0571 47.8298 6.10718 47.885 6.14645C47.9402 6.18573 48.0027 6.21339 48.0689 6.22775C48.1351 6.24211 48.2035 6.24287 48.27 6.23C49.57 6.23 50.88 6.23 52.18 6.23C52.57 6.23 52.71 6.14 52.69 5.73C52.69 5.05 52.69 4.35999 52.69 3.67999C52.6665 2.91433 52.9101 2.16432 53.379 1.55858C53.8479 0.952834 54.5129 0.529093 55.26 0.360001C55.31 0.360001 55.35 0.29 55.4 0.25H56.68C57.3136 0.400456 57.8935 0.722782 58.3557 1.1815C58.818 1.64022 59.1447 2.21757 59.3 2.85001C59.3615 3.12235 59.3917 3.4008 59.39 3.67999C59.39 7.97999 59.39 12.28 59.39 16.58C59.2958 22.023 57.4574 27.2921 54.1452 31.6123C50.8331 35.9326 46.2219 39.0759 40.99 40.58C39.9657 40.8846 38.9192 41.1086 37.86 41.25C37.5 41.25 37.31 41.39 37.32 41.83C37.32 45.08 37.32 48.33 37.32 51.58C37.3018 51.7119 37.3338 51.8458 37.4098 51.9551C37.4858 52.0644 37.6001 52.1411 37.73 52.17C38.2231 52.3331 38.6493 52.653 38.9436 53.0809C39.2379 53.5088 39.3841 54.0212 39.36 54.54C39.36 57.5133 39.36 60.4867 39.36 63.46C39.3741 63.8077 39.314 64.1544 39.1836 64.477C39.0533 64.7996 38.8557 65.0908 38.604 65.3311C38.3523 65.5714 38.0524 65.7554 37.7241 65.8707C37.3958 65.986 37.0467 66.0301 36.7 66C34.82 66 32.9367 66 31.05 66C30.7066 66.0142 30.3639 65.9569 30.0438 65.8316C29.7236 65.7063 29.4331 65.5159 29.1905 65.2724C28.9479 65.0288 28.7586 64.7375 28.6345 64.4169C28.5105 64.0963 28.4545 63.7534 28.47 63.41C28.47 62.75 28.47 62.08 28.47 61.41C28.47 61.09 28.47 60.81 28.88 60.71C29.29 60.77 29.37 61.05 29.36 61.41C29.36 62.12 29.36 62.82 29.36 63.53C29.3574 63.7339 29.3953 63.9363 29.4715 64.1255C29.5477 64.3146 29.6607 64.4868 29.8039 64.6319C29.9472 64.777 30.1179 64.8922 30.306 64.9709C30.4942 65.0495 30.6961 65.09 30.9 65.09C31.58 65.09 32.27 65.09 32.9 65.09C34.2 65.09 35.5 65.09 36.81 65.09C37.1761 65.0954 37.5313 64.9659 37.808 64.7261C38.0847 64.4864 38.2634 64.1531 38.31 63.79C38.3836 63.3474 38.4104 62.8982 38.39 62.45C38.39 59.95 38.39 57.45 38.39 54.95C38.39 53.45 37.81 52.87 36.39 52.87L33 53C32.36 53 31.72 53 31.08 53C30.855 52.9881 30.63 53.0242 30.42 53.1058C30.21 53.1874 30.0197 53.3128 29.8618 53.4735C29.7039 53.6343 29.582 53.8267 29.5041 54.0382C29.4262 54.2496 29.3941 54.4752 29.41 54.7C29.41 55.36 29.41 56.02 29.41 56.7C29.36 57 29.28 57.27 28.88 57.33ZM29.63 9.8C29.63 8.8 29.63 7.75 29.63 6.72C29.6446 6.42947 29.5978 6.13913 29.4926 5.86792C29.3874 5.59671 29.2262 5.3507 29.0196 5.14595C28.813 4.9412 28.5655 4.78231 28.2933 4.67963C28.0212 4.57694 27.7304 4.53277 27.44 4.55H23.14C22.8388 4.5276 22.5363 4.57042 22.2532 4.67557C21.97 4.78072 21.7129 4.94571 21.4993 5.15929C21.2857 5.37286 21.1207 5.63 21.0156 5.91315C20.9105 6.19629 20.8676 6.49879 20.89 6.8C20.89 8.8 20.89 10.8 20.89 12.8C20.8668 13.1011 20.9081 13.4036 21.0113 13.6874C21.1144 13.9712 21.277 14.2297 21.4881 14.4455C21.6993 14.6614 21.9541 14.8297 22.2355 14.9391C22.517 15.0485 22.8185 15.0966 23.12 15.08C24.55 15.08 25.99 15.08 27.42 15.08C27.7204 15.094 28.0203 15.0435 28.2996 14.9321C28.5789 14.8207 28.8312 14.6509 29.0395 14.4341C29.2478 14.2172 29.4074 13.9584 29.5075 13.6748C29.6076 13.3913 29.646 13.0896 29.62 12.79C29.63 11.77 29.63 10.79 29.63 9.8ZM46.83 9.8C46.83 8.79334 46.83 7.79334 46.83 6.8C46.83 6.8 46.83 6.71 46.83 6.67C46.8371 6.38581 46.7858 6.10318 46.6793 5.83958C46.5729 5.57599 46.4135 5.33701 46.2111 5.13741C46.0087 4.9378 45.7675 4.78181 45.5025 4.67906C45.2374 4.57631 44.9541 4.52897 44.67 4.53999C43.2167 4.53999 41.7634 4.53999 40.31 4.53999C40.0143 4.52238 39.7183 4.56782 39.4415 4.67329C39.1647 4.77877 38.9135 4.94188 38.7045 5.15179C38.4956 5.36171 38.3336 5.61364 38.2294 5.8909C38.1252 6.16816 38.0811 6.4644 38.1 6.75999C38.1 8.75999 38.1 10.76 38.1 12.76C38.079 13.0511 38.1191 13.3433 38.2179 13.618C38.3166 13.8926 38.4718 14.1435 38.6734 14.3545C38.875 14.5655 39.1185 14.7319 39.3883 14.8431C39.6582 14.9543 39.9483 15.0077 40.24 15C41.71 15 43.24 15 44.67 15C44.9656 15.0107 45.2602 14.9589 45.5343 14.8479C45.8085 14.7369 46.0561 14.5692 46.261 14.3558C46.4659 14.1425 46.6234 13.8882 46.7231 13.6098C46.8229 13.3313 46.8627 13.0349 46.84 12.74C46.83 11.8 46.83 10.81 46.83 9.83V9.8ZM31.41 46.71C31.41 48.27 31.41 49.83 31.41 51.39C31.41 51.91 31.57 52.04 32.07 52.03C33.31 52.03 34.55 52.03 35.79 52.03C36.15 52.03 36.33 51.97 36.33 51.54C36.33 48.3533 36.33 45.1667 36.33 41.98C36.33 41.63 36.23 41.45 35.86 41.5C34.5326 41.6771 33.1875 41.6771 31.86 41.5C31.43 41.45 31.37 41.68 31.38 42.03C31.42 43.62 31.41 45.18 31.41 46.74V46.71ZM52.58 9.71001C52.58 8.98001 52.58 8.26 52.58 7.53C52.58 7.19 52.47 7.08 52.13 7.09C50.8 7.09 49.48 7.09 48.13 7.09C47.74 7.09 47.67 7.24 47.67 7.58C47.67 9.01 47.67 10.44 47.67 11.88C47.67 12.25 47.78 12.36 48.15 12.35C49.45 12.35 50.76 12.35 52.06 12.35C52.47 12.35 52.57 12.2 52.55 11.83C52.57 11.18 52.58 10.47 52.58 9.77V9.71001ZM19.99 9.78C19.99 9.03 19.99 8.27999 19.99 7.53999C19.99 7.20999 19.9 7.09 19.55 7.09C18.25 7.09 16.94 7.09 15.64 7.09C15.23 7.09 15.13 7.25 15.13 7.62C15.13 9.03 15.13 10.44 15.13 11.85C15.13 12.25 15.27 12.36 15.65 12.35C16.93 12.35 18.21 12.35 19.5 12.35C19.91 12.35 20.01 12.21 19.99 11.83C20 11.21 20 10.52 20 9.84L19.99 9.78Z" fill="#3E352E"/>
<path d="M8.79999 7.78999C9.21999 7.78999 9.33998 7.56 9.33998 7.17C9.33998 6.17 9.33998 5.25 9.33998 4.28C9.31859 3.94577 9.36597 3.61069 9.47916 3.29549C9.59236 2.98028 9.76898 2.69164 9.99812 2.44737C10.2273 2.20311 10.504 2.00841 10.8114 1.87532C11.1187 1.74223 11.4501 1.67355 11.785 1.67355C12.1199 1.67355 12.4513 1.74223 12.7586 1.87532C13.0659 2.00841 13.3427 2.20311 13.5719 2.44737C13.801 2.69164 13.9776 2.98028 14.0908 3.29549C14.204 3.61069 14.2514 3.94577 14.23 4.28C14.23 8.08667 14.23 11.8933 14.23 15.7C14.1445 19.9206 15.4248 24.0559 17.88 27.49C19.3625 29.6168 21.2598 31.4218 23.4577 32.7966C25.6557 34.1714 28.1089 35.0875 30.67 35.49C34.7191 36.2225 38.8967 35.6041 42.56 33.73C44.9443 32.5605 47.0624 30.9129 48.7828 28.8898C50.5031 26.8667 51.7889 24.5113 52.56 21.97C53.1461 20.1404 53.4463 18.2312 53.45 16.31C53.45 12.1 53.45 7.88 53.45 3.67C53.4533 3.077 53.6689 2.50482 54.0579 2.05717C54.4468 1.60953 54.9833 1.31607 55.57 1.23C56.1587 1.1634 56.7519 1.30634 57.2457 1.63368C57.7395 1.96103 58.1021 2.45187 58.27 3.02C58.3289 3.26889 58.3558 3.52429 58.35 3.78C58.35 8.08 58.35 12.38 58.35 16.68C58.304 21.6071 56.7203 26.3967 53.82 30.38C50.7588 34.7356 46.3482 37.9618 41.27 39.56C35.1156 41.4712 28.459 40.9117 22.71 38C17.3445 35.2928 13.1726 30.6933 11 25.09C9.86621 22.226 9.29578 19.1701 9.31998 16.09C9.31998 14.72 9.31998 13.35 9.31998 11.98C9.31998 11.59 9.22999 11.3 8.79999 11.23C8.88754 10.085 8.88754 8.93499 8.79999 7.78999V7.78999Z" fill="#83786E"/>
<path d="M28.88 57.33C29.29 57.26 29.37 56.98 29.36 56.63C29.36 55.97 29.36 55.31 29.36 54.63C29.3441 54.4053 29.3762 54.1797 29.454 53.9682C29.5319 53.7568 29.6539 53.5643 29.8118 53.4036C29.9697 53.2428 30.16 53.1175 30.37 53.0358C30.58 52.9542 30.805 52.9181 31.03 52.93C31.67 52.93 32.31 52.93 32.95 52.93C33.3095 53.1534 33.5988 53.4736 33.7845 53.8539C33.9702 54.2342 34.0449 54.6592 34 55.08C33.9333 57.7067 33.9333 60.3334 34 62.96C34.0449 63.3809 33.9702 63.8059 33.7845 64.1862C33.5988 64.5665 33.3095 64.8867 32.95 65.11C32.27 65.11 31.58 65.11 30.95 65.11C30.7461 65.11 30.5442 65.0696 30.356 64.9909C30.1679 64.9123 29.9972 64.797 29.8539 64.6519C29.7107 64.5068 29.5976 64.3347 29.5214 64.1455C29.4452 63.9563 29.4074 63.7539 29.41 63.55C29.41 62.85 29.41 62.14 29.41 61.43C29.41 61.07 29.33 60.79 28.93 60.73C28.8967 59.5767 28.88 58.4434 28.88 57.33Z" fill="#ED6C7A"/>
<path d="M40.72 24.06C40.72 24.37 40.48 24.47 40.26 24.56C39.5052 24.8601 38.803 25.2787 38.18 25.8C37.4572 26.3523 36.9825 27.1686 36.86 28.07C36.86 28.34 36.77 28.6 36.45 28.63C36.13 28.66 35.99 28.37 35.92 28.09C35.7514 27.3785 35.4604 26.7018 35.06 26.09C34.8209 25.6705 34.4862 25.3133 34.0831 25.0474C33.6799 24.7816 33.2198 24.6146 32.74 24.56C32.46 24.56 32.21 24.42 32.21 24.12C32.21 23.82 32.44 23.72 32.72 23.64C33.5621 23.507 34.3378 23.1031 34.9297 22.4896C35.5216 21.8761 35.8974 21.0863 36 20.24C36 20.01 36.12 19.82 36.37 19.79C36.4285 19.78 36.4883 19.7816 36.5462 19.7948C36.604 19.808 36.6586 19.8325 36.707 19.8669C36.7553 19.9012 36.7963 19.9448 36.8277 19.9951C36.8592 20.0455 36.8803 20.1015 36.89 20.16C37.1107 20.8773 37.4486 21.5531 37.89 22.16C38.143 22.5444 38.4741 22.8713 38.8618 23.1194C39.2494 23.3675 39.6849 23.5313 40.14 23.6C40.44 23.63 40.71 23.72 40.72 24.06ZM34.18 24.06C35.1609 24.6647 35.9297 25.5593 36.38 26.62C36.9954 25.5968 37.8676 24.7522 38.91 24.17C37.8954 23.5841 37.0695 22.7201 36.53 21.68C36.037 22.7177 35.2093 23.5596 34.18 24.07V24.06Z" fill="#3F372F"/>
<path d="M30.12 24.72C30.42 24.72 30.52 24.96 30.6 25.18C30.7399 25.6073 30.9421 26.0117 31.2 26.38C31.3705 26.6469 31.5962 26.8742 31.8618 27.0467C32.1274 27.2192 32.4269 27.3328 32.74 27.38C32.98 27.38 33.21 27.49 33.25 27.77C33.29 28.05 33.08 28.22 32.83 28.32C32.3951 28.496 31.985 28.728 31.61 29.01C31.3231 29.1986 31.0794 29.4458 30.895 29.7353C30.7105 30.0249 30.5896 30.3503 30.54 30.69C30.54 30.95 30.41 31.16 30.14 31.19C29.87 31.22 29.71 30.98 29.63 30.72C29.5538 30.4554 29.4637 30.1951 29.36 29.94C29.2248 29.5211 28.9769 29.1475 28.6436 28.86C28.3102 28.5725 27.9042 28.3823 27.47 28.31C27.21 28.31 27.02 28.16 27.02 27.86C27.02 27.56 27.19 27.48 27.42 27.43C28.0072 27.3433 28.5492 27.0648 28.9615 26.6379C29.3739 26.2111 29.6336 25.6598 29.7 25.07C29.7167 24.9711 29.7682 24.8815 29.8453 24.8173C29.9223 24.7531 30.0197 24.7186 30.12 24.72V24.72ZM28.81 27.89C29.3303 28.2968 29.7681 28.7991 30.1 29.37C30.5169 28.8287 31.0164 28.3562 31.58 27.97C31.0361 27.5621 30.5689 27.061 30.2 26.49C29.8512 27.0579 29.3754 27.5371 28.81 27.89V27.89Z" fill="#3F372F"/>
<path d="M30.13 23.46C29.83 23.46 29.73 23.27 29.65 23.06C29.57 22.85 29.43 22.37 29.27 22.06C29.1321 21.6763 28.8911 21.338 28.5736 21.0822C28.2561 20.8265 27.8742 20.6631 27.47 20.61C27.4105 20.6113 27.3514 20.6006 27.2962 20.5785C27.241 20.5564 27.1908 20.5233 27.1488 20.4812C27.1067 20.4392 27.0736 20.389 27.0515 20.3338C27.0293 20.2786 27.0186 20.2195 27.02 20.16C27.0168 20.0524 27.054 19.9475 27.1244 19.866C27.1947 19.7846 27.2931 19.7325 27.4 19.72C27.9863 19.6353 28.5281 19.3588 28.9406 18.9337C29.3531 18.5085 29.6131 17.9586 29.68 17.37C29.6846 17.2724 29.7248 17.1799 29.793 17.1098C29.8611 17.0398 29.9526 16.9972 30.05 16.99C30.1567 16.974 30.2656 16.9977 30.3559 17.0567C30.4462 17.1157 30.5118 17.2058 30.54 17.31C30.6629 17.6274 30.8031 17.9379 30.96 18.24C31.1233 18.6128 31.3755 18.94 31.6945 19.1928C32.0135 19.4456 32.3897 19.6163 32.79 19.69C33.02 19.69 33.21 19.81 33.25 20.06C33.29 20.31 33.12 20.48 32.89 20.59C32.66 20.7 32.23 20.9 31.89 21.09C31.5171 21.2786 31.1952 21.5543 30.9515 21.8937C30.7078 22.2332 30.5495 22.6264 30.49 23.04C30.5 23.3 30.37 23.45 30.13 23.46ZM30.08 21.61C30.4412 21.1299 30.8807 20.7141 31.38 20.38C31.55 20.27 31.58 20.17 31.38 20.05C30.9125 19.6811 30.5044 19.2427 30.17 18.75C29.8175 19.3056 29.3504 19.7795 28.8 20.14C29.3249 20.5321 29.7582 21.0337 30.07 21.61H30.08Z" fill="#3F372F"/>
<path d="M29.63 9.79999C29.63 10.8 29.63 11.8 29.63 12.8C29.656 13.0996 29.6176 13.4012 29.5175 13.6848C29.4174 13.9683 29.2578 14.2272 29.0495 14.444C28.8412 14.6609 28.5889 14.8307 28.3096 14.9421C28.0303 15.0535 27.7304 15.1039 27.43 15.09C26 15.09 24.56 15.09 23.13 15.09C22.8285 15.1065 22.5269 15.0585 22.2455 14.9491C21.9641 14.8397 21.7093 14.6714 21.4981 14.4555C21.287 14.2397 21.1244 13.9812 21.0212 13.6974C20.9181 13.4136 20.8768 13.111 20.9 12.81C20.9 10.81 20.9 8.80999 20.9 6.80999C20.8776 6.50878 20.9204 6.20628 21.0256 5.92313C21.1307 5.63998 21.2957 5.38286 21.5093 5.16928C21.7229 4.95571 21.98 4.79071 22.2632 4.68557C22.5463 4.58042 22.8488 4.53758 23.15 4.55999H27.45C27.7404 4.54276 28.0311 4.58692 28.3033 4.68961C28.5755 4.79229 28.8229 4.9512 29.0296 5.15595C29.2362 5.3607 29.3974 5.60669 29.5026 5.8779C29.6077 6.14912 29.6546 6.43945 29.64 6.72998C29.64 7.74998 29.63 8.77999 29.63 9.79999Z" fill="#86C1D8"/>
<path d="M46.83 9.83001C46.83 10.83 46.83 11.83 46.83 12.83C46.8527 13.1249 46.8129 13.4213 46.7131 13.6998C46.6133 13.9782 46.4558 14.2325 46.251 14.4459C46.0461 14.6592 45.7985 14.8269 45.5243 14.9379C45.2501 15.0489 44.9556 15.1007 44.66 15.09C43.19 15.09 41.66 15.09 40.23 15.09C39.9382 15.0977 39.6481 15.0443 39.3783 14.9331C39.1085 14.8219 38.8649 14.6555 38.6633 14.4445C38.4617 14.2335 38.3066 13.9826 38.2078 13.708C38.1091 13.4333 38.0689 13.1411 38.09 12.85C38.09 10.85 38.09 8.85001 38.09 6.85001C38.071 6.55442 38.1151 6.25816 38.2194 5.9809C38.3236 5.70364 38.4855 5.45171 38.6945 5.2418C38.9035 5.03188 39.1547 4.86877 39.4315 4.7633C39.7083 4.65782 40.0043 4.6124 40.3 4.63001C41.7533 4.63001 43.2067 4.63001 44.66 4.63001C44.9441 4.61899 45.2274 4.66631 45.4924 4.76906C45.7575 4.87182 45.9987 5.0278 46.2011 5.22741C46.4035 5.42701 46.5628 5.666 46.6693 5.9296C46.7757 6.1932 46.827 6.47581 46.82 6.76C46.82 6.76 46.82 6.85001 46.82 6.89001C46.8267 7.84334 46.83 8.82334 46.83 9.83001Z" fill="#86C1D8"/>
<path d="M33 65.14C33.3487 64.911 33.6268 64.5897 33.8034 64.2118C33.98 63.8339 34.0481 63.4143 34 63C33.9333 60.3733 33.9333 57.7467 34 55.12C34.0442 54.7089 33.9743 54.2935 33.7979 53.9195C33.6215 53.5455 33.3454 53.2274 33 53H36.46C37.91 53 38.46 53.58 38.46 55.08C38.46 57.58 38.46 60.08 38.46 62.58C38.4804 63.0282 38.4536 63.4774 38.38 63.92C38.3334 64.2831 38.1547 64.6164 37.878 64.8561C37.6013 65.0959 37.2461 65.2254 36.88 65.22C35.56 65.17 34.26 65.15 33 65.14Z" fill="#CE4E5B"/>
<path d="M31.41 46.74C31.41 45.18 31.41 43.62 31.41 42.06C31.41 41.7 31.46 41.47 31.89 41.53C33.2174 41.7071 34.5625 41.7071 35.89 41.53C36.26 41.48 36.36 41.66 36.36 42.01C36.36 45.1967 36.36 48.3833 36.36 51.57C36.36 51.99 36.18 52.06 35.82 52.06C34.58 52.06 33.34 52.06 32.1 52.06C31.61 52.06 31.43 51.95 31.44 51.42C31.43 49.87 31.41 48.3 31.41 46.74Z" fill="#83786F"/>
<path d="M52.58 9.76999C52.58 10.48 52.58 11.18 52.58 11.89C52.58 12.27 52.5 12.42 52.09 12.41C50.79 12.41 49.48 12.41 48.18 12.41C47.82 12.41 47.7 12.31 47.7 11.94C47.7 10.51 47.7 9.07998 47.7 7.63998C47.7 7.29998 47.77 7.13998 48.16 7.14998C49.49 7.14998 50.81 7.14998 52.16 7.14998C52.49 7.14998 52.61 7.24998 52.61 7.58998C52.57 8.31998 52.58 8.99999 52.58 9.76999Z" fill="#EB6B79"/>
<path d="M20 9.83998C20 10.52 20 11.21 20 11.89C20 12.27 19.92 12.42 19.51 12.41C18.23 12.41 16.95 12.41 15.66 12.41C15.28 12.41 15.13 12.31 15.14 11.91C15.14 10.5 15.14 9.08997 15.14 7.67997C15.14 7.29997 15.24 7.13998 15.65 7.14998C16.95 7.14998 18.26 7.14998 19.56 7.14998C19.9 7.14998 20 7.26999 20 7.59999C20 8.33999 20 9.08998 20 9.83998Z" fill="#EA6A78"/>
<path d="M34.18 24.07C35.2077 23.5621 36.0352 22.724 36.53 21.69C37.0695 22.7301 37.8953 23.5941 38.91 24.18C37.8676 24.7622 36.9954 25.6068 36.38 26.63C35.9297 25.5693 35.1609 24.6747 34.18 24.07Z" fill="#CFD856"/>
<path d="M28.81 27.89C29.3753 27.5371 29.8511 27.0578 30.2 26.49C30.5689 27.061 31.0361 27.5621 31.58 27.97C31.0164 28.3562 30.5169 28.8286 30.1 29.37C29.7681 28.7991 29.3302 28.2968 28.81 27.89Z" fill="#CED655"/>
<path d="M30.07 21.61C29.7611 21.0347 29.3312 20.5332 28.81 20.14C29.3604 19.7795 29.8275 19.3056 30.18 18.75C30.5144 19.2427 30.9225 19.6811 31.39 20.05C31.57 20.17 31.55 20.27 31.39 20.38C30.8835 20.7123 30.4372 21.1282 30.07 21.61V21.61Z" fill="#CDD555"/>
</svg>
