<svg width="87" height="87" viewBox="0 0 87 87" fill="none" xmlns="http://www.w3.org/2000/svg">
<path d="M0.839996 13.44C1.11816 12.9073 1.55923 12.4774 2.09889 12.2129C2.63855 11.9485 3.24857 11.8634 3.84 11.97C4.76 12.04 5.68 11.97 6.6 11.97C6.93 11.97 7.08 11.97 7.19 11.59C7.2856 11.0596 7.58241 10.5866 8.01844 10.2699C8.45447 9.95308 8.99602 9.81699 9.53 9.89H16.65C16.9788 9.84953 17.3125 9.88452 17.6258 9.99233C17.939 10.1001 18.2236 10.2779 18.4578 10.5122C18.6921 10.7464 18.8699 11.031 18.9777 11.3442C19.0855 11.6575 19.1205 11.9912 19.08 12.32C19.08 16.26 19.08 20.19 19.08 24.13C19.08 24.84 19.28 25 19.96 24.99C22.92 24.95 25.8767 24.95 28.83 24.99C29.55 24.99 29.71 24.78 29.69 24.1C29.64 22.68 29.69 21.25 29.69 19.83C29.6549 19.5077 29.6901 19.1816 29.7932 18.8743C29.8964 18.567 30.0651 18.2857 30.2876 18.0499C30.51 17.8141 30.7811 17.6294 31.0819 17.5085C31.3827 17.3877 31.7062 17.3336 32.03 17.35C33.26 17.35 34.56 17.03 35.69 17.82C35.83 17.92 35.93 17.82 36.07 17.82C36.8563 17.4674 37.7083 17.2851 38.57 17.2851C39.4317 17.2851 40.2837 17.4674 41.07 17.82C41.1393 17.8568 41.2165 17.876 41.295 17.876C41.3734 17.876 41.4507 17.8568 41.52 17.82C42.3063 17.4674 43.1583 17.2851 44.02 17.2851C44.8817 17.2851 45.7337 17.4674 46.52 17.82C46.5873 17.8627 46.6653 17.8853 46.745 17.8853C46.8247 17.8853 46.9027 17.8627 46.97 17.82C48.33 17.04 49.79 17.32 51.22 17.48C51.6878 17.5631 52.1107 17.81 52.413 18.1764C52.7153 18.5429 52.8773 19.005 52.87 19.48C52.93 19.97 52.92 20.48 52.95 21.05C53.5897 20.6564 54.2938 20.3788 55.03 20.23C55.3595 20.1629 55.6997 20.1685 56.0268 20.2465C56.3539 20.3244 56.66 20.4729 56.9238 20.6814C57.1876 20.89 57.4027 21.1536 57.554 21.4539C57.7054 21.7542 57.7893 22.0839 57.8 22.42C57.8 23.12 57.8 23.82 57.8 24.51C57.8 24.9 57.92 25.04 58.32 25.04C61.5 25.04 64.68 25.04 67.86 25.04C68.53 25.04 68.38 24.62 68.38 24.26C68.38 20.4067 68.38 16.5567 68.38 12.71C68.38 10.71 69.11 9.95 71.15 9.95H77.93C78.2086 9.91238 78.4919 9.93135 78.763 10.0058C79.0341 10.0802 79.2874 10.2085 79.5077 10.3831C79.728 10.5577 79.9109 10.7749 80.0453 11.0218C80.1797 11.2687 80.2629 11.5402 80.29 11.82C80.38 12.2 80.51 12.3 80.9 12.29C82.07 12.29 83.24 12.29 84.42 12.29C84.7148 12.2707 85.0102 12.3148 85.2866 12.4192C85.5629 12.5235 85.8137 12.6859 86.0221 12.8952C86.2305 13.1045 86.3916 13.3561 86.4948 13.6329C86.5979 13.9097 86.6406 14.2053 86.62 14.5C86.62 24.9067 86.62 35.3167 86.62 45.73C86.636 46.0253 86.5895 46.3206 86.4834 46.5967C86.3774 46.8727 86.2142 47.1233 86.0046 47.3319C85.7951 47.5405 85.5438 47.7025 85.2673 47.8073C84.9907 47.9121 84.6952 47.9573 84.4 47.94C83.2267 47.94 82.0533 47.94 80.88 47.94C80.5 47.94 80.36 48.01 80.25 48.39C80.1547 48.8966 79.8675 49.3469 79.4483 49.6468C79.0291 49.9468 78.5102 50.0733 78 50H70.88C70.5385 50.0541 70.1891 50.027 69.86 49.9209C69.531 49.8147 69.2316 49.6325 68.9861 49.389C68.7407 49.1454 68.556 48.8475 68.4473 48.5193C68.3385 48.1911 68.3086 47.8419 68.36 47.5C68.36 43.59 68.36 39.69 68.36 35.78C68.36 35.1 68.21 34.89 67.5 34.9C64.5 34.9 61.5 34.9 58.5 34.9C57.97 34.9 57.72 35 57.62 35.59C57.4041 36.8386 56.7985 37.9868 55.89 38.87C53.89 40.87 52.07 43.09 49.89 44.92C49.771 45.0134 49.6788 45.1366 49.6226 45.277C49.5664 45.4175 49.5483 45.5703 49.57 45.72C49.83 50.37 50.08 55.02 50.34 59.72C50.6 64.42 50.86 68.91 51.13 73.51C51.13 74.21 51.21 74.9 51.27 75.6C51.33 76.3 51.05 76.68 50.27 76.68C44.27 76.68 38.2967 76.68 32.35 76.68C31.57 76.68 31.35 76.34 31.35 75.61C31.55 72.13 31.73 68.61 31.93 65.16C32.1833 60.7333 32.4367 56.3033 32.69 51.87C32.8 49.87 32.91 47.87 33.04 45.87C33.0655 45.679 33.0379 45.4847 32.9603 45.3083C32.8827 45.1319 32.758 44.9803 32.6 44.87C31.6828 44.1333 30.9452 43.1978 30.4427 42.1341C29.9403 41.0703 29.6864 39.9063 29.7 38.73C29.7 37.73 29.7 36.66 29.7 35.63C29.7 35.06 29.52 34.94 28.99 34.94C25.9233 34.94 22.8533 34.94 19.78 34.94C19.21 34.94 19.09 35.12 19.09 35.65C19.09 39.56 19.09 43.46 19.09 47.37C19.09 49.3 18.35 50.03 16.4 50.03H9.53C9.25176 50.0706 8.96817 50.054 8.69654 49.9814C8.42491 49.9087 8.17093 49.7815 7.95009 49.6074C7.72925 49.4334 7.54619 49.2161 7.41207 48.969C7.27795 48.7219 7.19558 48.45 7.17 48.17C7.09 47.8 6.97 47.68 6.57 47.7C5.68 47.75 4.78 47.7 3.89 47.76C3.30673 47.8457 2.71112 47.7577 2.17757 47.507C1.64403 47.2562 1.19619 46.8538 0.889999 46.35L0.839996 13.44ZM41.25 75.21C43.79 75.21 46.33 75.21 48.87 75.21C49.66 75.21 49.87 74.96 49.73 74.26C49.7215 74.1201 49.7215 73.9799 49.73 73.84C49.3433 67.0733 48.96 60.31 48.58 53.55C48.45 51.24 48.29 48.93 48.16 46.62C48.16 46.13 48.01 45.99 47.5 46.18C46.5773 46.4955 45.6044 46.6379 44.63 46.6C42.29 46.6 39.94 46.6 37.63 46.6C36.8482 46.6276 36.0682 46.5089 35.33 46.25C34.61 45.97 34.4 46.1 34.33 46.91C34.19 50.42 33.98 53.91 33.78 57.44C33.46 63.09 33.15 68.74 32.78 74.44C32.78 75.16 33.01 75.26 33.62 75.26C36.17 75.19 38.71 75.2 41.25 75.2V75.21ZM17.58 29.96C17.58 24.13 17.58 18.3 17.58 12.47C17.58 11.66 17.33 11.41 16.53 11.47C14.27 11.47 12.01 11.47 9.75 11.47C8.62 11.47 8.52 11.57 8.52 12.73C8.52 24.2833 8.52 35.8333 8.52 47.38C8.52 48.47 8.68 48.65 9.77 48.65H16.3C17.4 48.65 17.57 48.48 17.57 47.4C17.5833 41.5667 17.59 35.75 17.59 29.95L17.58 29.96ZM69.83 29.96C69.83 35.7933 69.83 41.6233 69.83 47.45C69.83 48.39 70.02 48.61 70.93 48.61C73.22 48.61 75.51 48.61 77.79 48.61C78.53 48.61 78.89 48.33 78.89 47.51C78.89 35.85 78.89 24.1833 78.89 12.51C78.89 11.51 78.74 11.42 77.75 11.42H71C69.88 11.42 69.88 11.42 69.88 12.53C69.8533 18.3367 69.84 24.14 69.84 29.94L69.83 29.96ZM41.83 34.89C38.51 34.89 35.19 34.89 31.83 34.89C31.26 34.89 31.04 35.02 31.07 35.63C31.12 36.83 31.07 38.03 31.07 39.23C31.1604 40.7824 31.8245 42.2458 32.9332 43.336C34.042 44.4263 35.5163 45.0657 37.07 45.13C39.77 45.13 42.48 45.13 45.19 45.13C45.9455 45.1311 46.6938 44.9833 47.3922 44.695C48.0905 44.4067 48.7252 43.9837 49.26 43.45C51.11 41.64 52.91 39.79 54.71 37.93C55.2048 37.4347 55.5944 36.8446 55.8556 36.1951C56.1168 35.5455 56.2441 34.8499 56.23 34.15C56.23 32.92 56.23 31.7 56.23 30.47C56.23 27.9033 56.23 25.3367 56.23 22.77C56.23 22.19 56.13 21.7 55.41 21.64C54.7642 21.6115 54.1321 21.8322 53.6445 22.2566C53.1568 22.6809 52.8509 23.2764 52.79 23.92C52.88 27.18 52.6 30.43 52.52 33.69C52.52 34.77 52.39 34.91 51.32 34.91L41.83 34.89ZM7.08 29.89C7.08 29.4967 7.08 29.1067 7.08 28.72C7.08 23.98 7.08 19.23 7.08 14.49C7.08 13.72 6.82 13.43 6.08 13.49C5.34 13.55 4.46 13.49 3.65 13.49C2.34 13.49 2.25 13.59 2.25 14.93C2.25 24.8633 2.25 34.7967 2.25 44.73C2.25 44.93 2.25 45.12 2.25 45.32C2.25 45.97 2.57 46.32 3.25 46.32C3.93 46.32 4.98 46.32 5.84 46.32C6.95 46.32 7.04 46.24 7.04 45.13C7.04667 40.01 7.05 34.91 7.05 29.83L7.08 29.89ZM80.41 30.12C80.41 35.2 80.41 40.28 80.41 45.36C80.41 46.5 80.41 46.52 81.6 46.52H83.78C85.18 46.52 85.26 46.45 85.26 45.07C85.26 35.1367 85.26 25.2033 85.26 15.27C85.26 15.07 85.26 14.88 85.26 14.68C85.26 14.02 84.91 13.68 84.2 13.68C83.34 13.68 82.47 13.68 81.61 13.68C80.52 13.68 80.42 13.78 80.42 14.89C80.3933 19.9233 80.38 24.98 80.38 30.06L80.41 30.12ZM35.12 33.49H50.52C50.9 33.49 51.29 33.59 51.29 32.95C51.29 32.31 50.86 32.49 50.51 32.47C49.28 32.39 47.98 32.79 46.89 31.88C46.68 31.7 46.55 31.95 46.38 32.03C45.6389 32.38 44.8295 32.5615 44.01 32.5615C43.1904 32.5615 42.3811 32.38 41.64 32.03C41.44 31.94 41.32 31.8 41.05 31.94C40.2935 32.3514 39.4461 32.5669 38.585 32.5669C37.7239 32.5669 36.8765 32.3514 36.12 31.94C35.97 31.87 35.84 31.74 35.67 31.88C34.67 32.73 33.44 32.43 32.29 32.45C31.9468 32.4699 31.6032 32.4176 31.2814 32.2965C30.9596 32.1754 30.6668 31.9882 30.4218 31.747C30.1769 31.5058 29.9852 31.2159 29.8591 30.8961C29.7331 30.5762 29.6755 30.2335 29.69 29.89C29.69 29 29.69 28.1 29.69 27.21C29.69 26.72 29.58 26.52 29.04 26.53C25.94 26.53 22.8433 26.53 19.75 26.53C19.24 26.53 19.08 26.69 19.09 27.2C19.09 29.01 19.09 30.83 19.09 32.64C19.09 33.33 19.26 33.54 19.97 33.53C25 33.42 30 33.43 35.09 33.43L35.12 33.49ZM63.01 33.49C64.57 33.49 66.13 33.49 67.69 33.49C68.25 33.49 68.4 33.32 68.4 32.78C68.4 30.9133 68.4 29.0467 68.4 27.18C68.4 26.68 68.27 26.5 67.75 26.5C64.6567 26.5 61.56 26.5 58.46 26.5C57.95 26.5 57.79 26.66 57.8 27.17C57.8 29.04 57.8 30.91 57.8 32.77C57.8 33.39 58.03 33.5 58.58 33.49C60 33.41 61.5 33.43 63 33.43L63.01 33.49ZM40.57 24.86C40.57 23.21 40.57 21.57 40.57 19.92C40.57 19.18 40.25 18.83 39.52 18.85H37.9C36.73 18.85 36.52 19.05 36.52 20.2C36.52 22.96 36.52 25.72 36.52 28.48C36.52 31.24 36.86 31.08 39.23 31.05C40.17 31.05 40.54 30.65 40.54 29.71C40.54 28 40.53 26.42 40.53 24.8L40.57 24.86ZM47.44 24.86C47.44 26.06 47.44 27.26 47.44 28.45C47.33 31.28 47.82 31.05 50.21 31.04C50.94 31.04 51.32 30.74 51.3 29.92C51.3 28.11 51.19 26.29 51.3 24.49C51.42 22.96 51.43 21.44 51.45 19.91C51.45 19.18 51.13 18.83 50.39 18.84C49.81 18.84 49.22 18.84 48.63 18.84C47.63 18.84 47.42 19.09 47.42 20.1C47.4 21.64 47.41 23.22 47.41 24.81L47.44 24.86ZM35.08 24.86C35.08 23.19 35.08 21.52 35.08 19.86C35.08 19.15 34.78 18.86 34.08 18.86C33.38 18.86 32.97 18.86 32.41 18.86C31.32 18.86 31.14 19.04 31.14 20.12C31.14 22.91 31.14 25.69 31.14 28.48C31.14 31.11 31.14 31.12 33.89 31.06C34.76 31.06 35.09 30.69 35.09 29.82C35.06 28.1 35 26.46 35 24.81L35.08 24.86ZM45.97 24.86C45.97 23.19 45.97 21.52 45.97 19.86C45.97 19.16 45.68 18.86 44.97 18.86C44.26 18.86 43.8 18.86 43.22 18.86C42.22 18.86 42.05 19.03 42.05 20.03C42.05 22.87 42.05 25.71 42.05 28.55C42.05 31.07 41.96 31.11 44.76 31.05C45.64 31.05 45.96 30.68 45.96 29.81C45.94 28.11 45.93 26.46 45.94 24.82L45.97 24.86Z" fill="#3B65C9"/>
<path d="M41.25 75.2C38.71 75.2 36.17 75.2 33.63 75.2C33.01 75.2 32.74 75.11 32.79 74.38C33.14 68.73 33.45 63.08 33.79 57.38C33.99 53.87 34.2 50.38 34.34 46.85C34.34 46.04 34.58 45.91 35.34 46.19C36.0782 46.4489 36.8582 46.5676 37.64 46.54C39.98 46.54 42.33 46.54 44.64 46.54C45.6144 46.5779 46.5873 46.4355 47.51 46.12C48.02 45.93 48.14 46.12 48.17 46.56C48.3 48.87 48.45 51.18 48.59 53.49C48.9767 60.2567 49.36 67.02 49.74 73.78C49.7315 73.9199 49.7315 74.0601 49.74 74.2C49.87 74.9 49.67 75.2 48.88 75.15C46.33 75.17 43.79 75.2 41.25 75.2Z" fill="#F4CBCB"/>
<path d="M17.59 29.95C17.59 35.75 17.59 41.5533 17.59 47.36C17.59 48.44 17.42 48.6 16.32 48.61H9.79001C8.71001 48.61 8.54001 48.44 8.54001 47.34C8.54001 35.7867 8.54001 24.2367 8.54001 12.69C8.54001 11.53 8.64 11.43 9.77 11.43C12.03 11.43 14.29 11.43 16.55 11.43C17.35 11.43 17.61 11.66 17.6 12.43C17.57 18.29 17.59 24.12 17.59 29.95Z" fill="#4671C2"/>
<path d="M69.84 29.94C69.84 24.14 69.84 18.3367 69.84 12.53C69.84 11.42 69.84 11.42 70.96 11.42H77.74C78.74 11.42 78.88 11.56 78.88 12.51C78.88 24.17 78.88 35.8366 78.88 47.51C78.88 48.33 78.52 48.61 77.78 48.61C75.49 48.61 73.2 48.61 70.92 48.61C70.01 48.61 69.82 48.39 69.82 47.45C69.8333 41.61 69.84 35.7733 69.84 29.94Z" fill="#4671C2"/>
<path d="M41.81 34.88H51.43C52.5 34.88 52.6 34.75 52.63 33.66C52.7 30.4 52.98 27.16 52.9 23.89C52.9609 23.2464 53.2668 22.6509 53.7545 22.2266C54.2421 21.8022 54.8742 21.5815 55.52 21.61C56.24 21.67 56.34 22.16 56.34 22.74C56.34 25.3067 56.34 27.8733 56.34 30.44C56.34 31.67 56.34 32.89 56.34 34.12C56.3541 34.8199 56.2268 35.5155 55.9656 36.1651C55.7044 36.8146 55.3148 37.4047 54.82 37.9C53.02 39.76 51.22 41.62 49.37 43.42C48.8352 43.9537 48.2005 44.3767 47.5022 44.665C46.8038 44.9533 46.0555 45.1011 45.3 45.1C42.59 45.1 39.89 45.1 37.18 45.1C35.6263 45.0357 34.152 44.3963 33.0432 43.306C31.9345 42.2158 31.2704 40.7524 31.18 39.2C31.12 38 31.18 36.8 31.18 35.6C31.18 35 31.37 34.86 31.94 34.86C35.17 34.89 38.49 34.88 41.81 34.88Z" fill="#F4CBCB"/>
<path d="M7.05001 29.83C7.05001 34.91 7.05001 39.99 7.05001 45.07C7.05001 46.18 6.97001 46.26 5.85001 46.26C4.99001 46.26 4.12001 46.26 3.26001 46.26C2.40001 46.26 2.26001 45.9 2.26001 45.26C2.26001 45.07 2.26001 44.87 2.26001 44.67C2.26001 34.7367 2.26001 24.8033 2.26001 14.87C2.26001 13.52 2.35001 13.43 3.66001 13.43C4.47001 13.43 5.28 13.43 6.09 13.43C6.9 13.43 7.09 13.68 7.09 14.43C7.09 19.17 7.09 23.92 7.09 28.66C7.06334 29.0467 7.05001 29.4367 7.05001 29.83Z" fill="#9FC4FA"/>
<path d="M80.38 30.06C80.38 24.98 80.38 19.9 80.38 14.82C80.38 13.71 80.48 13.62 81.57 13.61C82.44 13.61 83.3 13.61 84.16 13.61C84.87 13.61 85.16 13.96 85.22 14.61C85.22 14.8 85.22 15 85.22 15.2C85.22 25.1333 85.22 35.0667 85.22 45C85.22 46.38 85.14 46.45 83.74 46.45H81.56C80.4 46.45 80.37 46.45 80.37 45.29C80.3767 40.2166 80.38 35.14 80.38 30.06Z" fill="#9FC4FA"/>
<path d="M35.09 33.43C30.04 33.43 24.99 33.43 19.94 33.43C19.23 33.43 19.05 33.23 19.06 32.54C19.06 30.73 19.06 28.91 19.06 27.1C19.06 26.59 19.21 26.43 19.72 26.43C22.82 26.43 25.9167 26.43 29.01 26.43C29.55 26.43 29.67 26.62 29.66 27.11C29.66 28 29.66 28.9 29.66 29.79C29.6454 30.1335 29.7031 30.4762 29.8291 30.7961C29.9552 31.1159 30.1469 31.4058 30.3918 31.647C30.6368 31.8882 30.9296 32.0754 31.2514 32.1965C31.5732 32.3176 31.9168 32.3699 32.26 32.35C33.41 32.35 34.63 32.64 35.64 31.78C35.81 31.64 35.93 31.78 36.09 31.84C36.8465 32.2514 37.6939 32.4669 38.555 32.4669C39.4161 32.4669 40.2635 32.2514 41.02 31.84C41.29 31.69 41.41 31.84 41.61 31.93C42.3511 32.28 43.1604 32.4615 43.98 32.4615C44.7995 32.4615 45.6089 32.28 46.35 31.93C46.52 31.86 46.65 31.61 46.86 31.78C47.95 32.69 49.26 32.29 50.48 32.37C50.83 32.37 51.26 32.15 51.26 32.85C51.26 33.55 50.87 33.39 50.49 33.39H35.09V33.43Z" fill="#DAE5F7"/>
<path d="M63 33.43C61.52 33.43 60 33.43 58.57 33.43C58.02 33.43 57.78 33.33 57.79 32.71C57.79 30.84 57.79 28.97 57.79 27.11C57.79 26.6 57.94 26.44 58.45 26.44C61.5433 26.44 64.64 26.44 67.74 26.44C68.27 26.44 68.4 26.62 68.39 27.12C68.39 28.9867 68.39 30.8533 68.39 32.72C68.39 33.26 68.24 33.45 67.68 33.43C66.1 33.41 64.53 33.43 63 33.43Z" fill="#DAE6F7"/>
<path d="M40.53 24.8C40.53 26.42 40.53 28.04 40.53 29.65C40.53 30.58 40.15 30.97 39.22 30.99C36.85 30.99 36.45 31.18 36.51 28.42C36.57 25.66 36.51 22.9 36.51 20.14C36.51 18.99 36.71 18.8 37.89 18.79H39.48C40.22 18.79 40.54 19.12 40.53 19.86C40.52 21.51 40.53 23.15 40.53 24.8Z" fill="#F4CBCB"/>
<path d="M47.41 24.81C47.41 23.22 47.41 21.63 47.41 20.05C47.41 19.05 47.65 18.8 48.62 18.79C49.2 18.79 49.79 18.79 50.38 18.79C51.12 18.79 51.45 19.13 51.44 19.86C51.44 21.39 51.44 22.91 51.29 24.44C51.15 26.24 51.22 28.06 51.29 29.87C51.29 30.69 50.93 30.99 50.2 30.99C47.81 30.99 47.33 31.24 47.43 28.4C47.44 27.21 47.41 26 47.41 24.81Z" fill="#F3CACB"/>
<path d="M35 24.81C35 26.45 35 28.1 35 29.74C35 30.61 34.67 30.96 33.8 30.98C31.08 31.04 31.02 31.04 31.05 28.4C31.05 25.61 31.05 22.83 31.05 20.04C31.05 18.96 31.24 18.79 32.32 18.78C32.88 18.78 33.43 18.78 33.99 18.78C34.55 18.78 34.99 19.08 34.99 19.78C35 21.47 35 23.14 35 24.81Z" fill="#F4CBCB"/>
<path d="M45.93 24.82C45.93 26.46 45.93 28.11 45.93 29.75C45.93 30.62 45.6 30.97 44.73 30.99C41.93 31.05 41.99 30.99 42.02 28.49C42.02 25.65 42.02 22.81 42.02 19.97C42.02 18.97 42.19 18.81 43.19 18.8C43.77 18.8 44.36 18.8 44.94 18.8C45.52 18.8 45.94 19.11 45.94 19.8C45.92 21.48 45.94 23.15 45.93 24.82Z" fill="#F4CBCB"/>
</svg>
