<svg width="65" height="64" viewBox="0 0 65 64" fill="none" xmlns="http://www.w3.org/2000/svg">
<path d="M63.93 31.3201C63.6907 32.1974 63.53 33.0942 63.45 34.0001C62.6375 38.4662 60.7422 42.665 57.9301 46.2285C55.118 49.792 51.4749 52.6116 47.32 54.4401C47.1398 54.497 46.9853 54.6151 46.883 54.774C46.7807 54.9329 46.7372 55.1225 46.76 55.3101C46.76 56.8901 46.76 58.4701 46.76 60.0501C46.76 60.7801 46.62 60.93 45.9 60.93H25.6C23.43 60.93 21.25 60.93 19.08 60.93C18.27 60.93 18.14 60.8 18.14 60.01C18.14 58.41 18.14 56.8101 18.14 55.2101C18.1604 55.0628 18.1272 54.9131 18.0464 54.7883C17.9656 54.6635 17.8427 54.5718 17.7 54.5301C13.2584 52.5875 9.39724 49.525 6.49443 45.6423C3.59162 41.7596 1.74662 37.1898 1.14 32.3801C1.02 31.4401 0.959998 30.5001 0.919998 29.5601C0.919998 28.9201 1.06 28.7501 1.69 28.7401H4.58C4.84 28.7401 5.01 28.7401 4.96 28.3901C4.54 25.3001 5.18 22.3101 5.74 19.3101C5.98969 17.7064 5.98969 16.0737 5.74 14.4701C5.41527 12.5373 5.66565 10.5517 6.46 8.76005C8.19 5.18005 12.3 4.26006 15.66 6.69006C16.6494 7.38881 17.509 8.25518 18.2 9.25005C19.492 11.117 21.1196 12.7277 23 14.0001C24.2908 14.8857 25.4961 15.8901 26.6 17.0001C27.7249 18.1521 28.73 19.4152 29.6 20.7701C29.94 18.4301 30.6 16.4101 32.73 15.1701C31.8994 14.4139 31.1178 13.6056 30.39 12.7501C29.882 12.1718 29.5033 11.4917 29.2791 10.7554C29.0549 10.019 28.9905 9.2433 29.09 8.48005C29.1452 7.91061 29.3403 7.36365 29.658 6.88785C29.9757 6.41206 30.4061 6.02218 30.9109 5.75295C31.4157 5.48372 31.9792 5.3435 32.5513 5.34473C33.1234 5.34597 33.6864 5.48864 34.19 5.76005C34.57 5.94005 34.72 5.91006 34.95 5.57006C35.2865 5.00128 35.7738 4.53673 36.358 4.22785C36.9422 3.91898 37.6005 3.77784 38.26 3.82006C38.9505 3.8771 39.6103 4.13057 40.1614 4.55053C40.7125 4.97049 41.1318 5.5394 41.37 6.19006C41.48 6.42006 41.49 6.71005 41.9 6.59005C42.5896 6.32945 43.3453 6.30074 44.0527 6.50826C44.7601 6.71578 45.3805 7.14822 45.82 7.74006C46.2654 8.34822 46.5299 9.06985 46.5829 9.82178C46.636 10.5737 46.4755 11.3254 46.12 11.9901C45.5198 13.1881 44.5945 14.1931 43.45 14.8901C42.88 15.2901 42.29 15.6501 41.67 16.0501C42.3936 16.727 42.9507 17.5622 43.2977 18.4904C43.6447 19.4186 43.7721 20.4144 43.67 21.4C44.5934 20.6744 45.577 20.0287 46.61 19.4701C49.5739 17.982 52.8802 17.309 56.19 17.5201C56.94 17.5201 57.06 17.69 57.1 18.45C57.3156 21.7978 56.6247 25.1418 55.1 28.1301L54.78 28.7501H57.23C59.16 28.7501 61.09 28.7501 63.01 28.7501C63.3609 28.7311 63.7093 28.8182 64.01 29.0001L63.93 31.3201ZM7.69 28.7201C8.86 28.7201 10.03 28.7201 11.19 28.7201C11.53 28.7201 11.64 28.6601 11.58 28.2801C11.349 26.7762 11.4514 25.2399 11.88 23.7801C12.95 20.2801 16.11 18.6401 19.33 20.0601C20.9745 20.7528 22.4037 21.8729 23.4693 23.3042C24.5349 24.7356 25.198 26.426 25.39 28.2001C25.46 28.6301 25.58 28.73 25.98 28.73C27.56 28.73 29.14 28.73 30.72 28.73C31.15 28.73 31.28 28.63 31.22 28.18C30.9309 26.1481 30.2735 24.186 29.28 22.3901C27.6381 19.3922 25.299 16.8335 22.46 14.93C20.4382 13.5565 18.6914 11.8165 17.31 9.80006C17.0189 9.36358 16.6838 8.95812 16.31 8.59005C15.7033 7.89272 14.9485 7.33963 14.1008 6.97114C13.2531 6.60264 12.3338 6.42804 11.41 6.46006C10.5039 6.51227 9.6339 6.83308 8.91084 7.38161C8.18777 7.93015 7.6444 8.68154 7.35 9.54005C6.79918 10.8741 6.6195 12.3322 6.83 13.76C7.19864 16.3012 7.09011 18.8887 6.51 21.3901C6.04532 23.4523 5.88028 25.5707 6.02 27.68C6.09 28.73 6.08 28.73 7.1 28.68L7.69 28.7201ZM19.69 53.8201H19.81H38.88C39.1235 53.8103 39.3621 53.749 39.58 53.6401C44.7743 51.4396 49.1392 47.6522 52.05 42.8201C54.1739 39.3683 55.4615 35.4679 55.81 31.43C55.8188 31.125 55.8489 30.8209 55.9 30.5201C56.04 29.9001 55.79 29.7901 55.21 29.8001C45.8767 29.8001 36.5433 29.8001 27.21 29.8001C18.99 29.8001 10.77 29.8001 2.55 29.8001C2.01 29.8001 1.91 29.9501 1.96 30.4501C2.07647 32.1676 2.34757 33.8712 2.77 35.54C3.73153 39.3092 5.50263 42.8236 7.96008 45.8389C10.4175 48.8541 13.5024 51.2979 17 53.0001C17.7858 53.5848 18.752 53.875 19.73 53.8201H19.69ZM36.44 28.7401C37.65 28.7401 38.86 28.7401 40.07 28.7401C40.2101 28.7644 40.3541 28.7345 40.473 28.6565C40.5918 28.5785 40.6766 28.4582 40.71 28.3201C41.3013 26.8141 41.7924 25.2708 42.18 23.7001C42.5566 22.2701 42.6147 20.7749 42.35 19.3201C42.1881 18.4082 41.7148 17.5807 41.0109 16.9789C40.3069 16.3771 39.416 16.0382 38.49 16.0201C37.98 16.0201 37.49 15.8901 36.97 15.8501C36.1836 15.72 35.3869 15.6631 34.59 15.68C33.8579 15.7417 33.159 16.0131 32.5773 16.4619C31.9955 16.9106 31.5555 17.5176 31.31 18.2101C30.8704 19.1133 30.6304 20.1006 30.6063 21.1048C30.5821 22.109 30.7744 23.1067 31.17 24.0301C31.7832 25.3741 32.1523 26.8166 32.26 28.29C32.26 28.64 32.42 28.74 32.75 28.73C34 28.72 35.26 28.73 36.49 28.73L36.44 28.7401ZM42 53.84H45.75C45.9545 53.8364 46.1557 53.7887 46.34 53.7001C50.9846 51.7361 54.9864 48.5106 57.892 44.389C60.7976 40.2675 62.4909 35.4146 62.78 30.3801C62.78 29.9601 62.71 29.8101 62.26 29.8201C60.68 29.8201 59.1 29.8201 57.52 29.8201C57.12 29.8201 56.99 29.94 56.99 30.34C56.9578 31.6862 56.7937 33.0259 56.5 34.34C55.1928 41.0547 51.454 47.051 46 51.18C44.76 52.15 43.4 53 42 53.84ZM41.72 28.68H41.91C45.62 28.68 49.33 28.68 53.05 28.68C53.39 28.68 53.51 28.5001 53.65 28.2701C54.5005 26.8176 55.1212 25.2423 55.49 23.6001C55.8101 22.1987 55.9811 20.7674 56 19.3301C56 18.4701 56 18.46 55.17 18.48C54.58 18.48 53.98 18.48 53.39 18.59C50.1094 18.8237 46.9744 20.0359 44.39 22.0701C43.7536 22.518 43.3161 23.1957 43.17 23.9601C42.8565 25.576 42.3842 27.157 41.76 28.68H41.72ZM29 54.93C25.92 54.93 22.85 54.93 19.77 54.93C19.32 54.93 19.17 55.0301 19.18 55.5001C19.18 56.7901 19.18 58.08 19.18 59.37C19.18 59.74 19.28 59.8601 19.66 59.8601C25.8933 59.8601 32.1267 59.8601 38.36 59.8601C38.76 59.8601 38.89 59.76 38.89 59.34C38.89 58.07 38.89 56.8001 38.89 55.5301C38.89 55.0401 38.76 54.9201 38.28 54.9201C35.23 54.9401 32.14 54.93 29 54.93ZM18.42 28.73C20.18 28.73 21.95 28.73 23.71 28.73C24.23 28.73 24.35 28.5601 24.26 28.1001C24.039 26.5162 23.4 25.0198 22.4087 23.7648C21.4174 22.5099 20.1097 21.5418 18.62 20.9601C17.7314 20.5583 16.7244 20.505 15.7984 20.8106C14.8724 21.1162 14.0949 21.7584 13.62 22.6101C12.6007 24.3421 12.2453 26.3855 12.62 28.3601C12.67 28.7401 12.91 28.73 13.19 28.73H18.42ZM35.07 8.73005C35.1983 10.333 35.4932 11.9182 35.95 13.4601C36.16 14.3501 36.53 14.8701 37.5 14.7801C37.5797 14.7704 37.6603 14.7704 37.74 14.7801C37.8486 14.805 37.9625 14.7905 38.0614 14.7392C38.1603 14.6879 38.2378 14.6032 38.28 14.5001C39.0852 13.0864 39.7548 11.5998 40.28 10.0601C40.5406 9.4351 40.6588 8.75995 40.6259 8.08362C40.5931 7.4073 40.41 6.74679 40.09 6.15005C39.9072 5.79573 39.6394 5.49229 39.3106 5.2669C38.9817 5.04151 38.6021 4.90122 38.2057 4.8586C37.8093 4.81599 37.4085 4.87239 37.0393 5.02273C36.6701 5.17307 36.3439 5.41267 36.09 5.72005C35.7309 6.13299 35.4589 6.61426 35.2905 7.13496C35.1221 7.65565 35.0607 8.20502 35.11 8.75005L35.07 8.73005ZM42.79 54.93C42.03 54.93 41.27 54.93 40.51 54.93C40.14 54.93 39.96 55 39.97 55.43C39.97 56.74 39.97 58.05 39.97 59.37C39.97 59.75 40.09 59.8601 40.46 59.8601C42.04 59.8601 43.62 59.8601 45.2 59.8601C45.53 59.8601 45.68 59.7801 45.67 59.4201C45.67 58.0701 45.67 56.7101 45.67 55.3601C45.67 55.0401 45.56 54.9301 45.25 54.9401C44.47 55.0001 43.65 54.9501 42.83 54.9401L42.79 54.93ZM32.61 6.41006C32.1262 6.36818 31.6418 6.48252 31.2278 6.7363C30.8138 6.99009 30.4922 7.36995 30.31 7.82006C30.0745 8.37957 29.9822 8.98898 30.0416 9.59313C30.1009 10.1973 30.3101 10.7771 30.65 11.2801C31.4763 12.5088 32.4884 13.6018 33.65 14.5201C33.7095 14.5714 33.7812 14.6066 33.8583 14.6224C33.9353 14.6382 34.0151 14.6339 34.09 14.6101C35.09 14.4301 35.09 14.44 34.82 13.45C34.77 13.27 34.71 13.1001 34.66 12.9201C34.1256 11.2447 33.9019 9.48581 34 7.73005C34.1 6.82005 34.09 6.73006 33.21 6.52006C33.0252 6.47949 32.8382 6.44943 32.65 6.43005L32.61 6.41006ZM39.4 14.8101C39.7326 15.0875 40.1581 15.2284 40.5906 15.2043C41.0231 15.1801 41.4303 14.9928 41.73 14.68C42.12 14.38 42.56 14.1501 42.95 13.8601C44.1405 13.1469 45.008 11.9998 45.37 10.6601C45.5046 10.2202 45.5147 9.75161 45.3992 9.30634C45.2837 8.86107 45.0471 8.4565 44.7157 8.1375C44.3843 7.81851 43.971 7.59755 43.5216 7.49915C43.0722 7.40075 42.6044 7.42876 42.17 7.58005C41.84 7.68005 41.72 7.83005 41.74 8.18005C41.76 9.05978 41.6001 9.93434 41.27 10.7501C40.7659 12.1551 40.1541 13.5192 39.44 14.8301L39.4 14.8101Z" fill="#663632"/>
<path d="M55.87 31.45C55.5215 35.4878 54.2339 39.3882 52.11 42.84C49.1992 47.6721 44.8343 51.4595 39.64 53.66C39.422 53.7689 39.1834 53.8302 38.94 53.84H19.85H19.73L19.02 53.49C15.7376 51.8008 12.8137 49.4916 10.41 46.69C8.57784 44.5352 7.09022 42.1098 5.99999 39.5C5.03661 37.2703 4.4033 34.9122 4.12 32.5C4 31.45 3.96999 31.5 5.03999 31.5H55.89L55.87 31.45Z" fill="#80D7FB"/>
<path d="M11.38 6.47004C12.3038 6.43802 13.2231 6.61262 14.0708 6.98111C14.9185 7.34961 15.6733 7.90271 16.28 8.60004C16.6538 8.96811 16.9889 9.37356 17.28 9.81003C18.6614 11.8265 20.4082 13.5665 22.43 14.94C25.269 16.8435 27.6081 19.4022 29.25 22.4C30.2435 24.196 30.9009 26.1581 31.19 28.19C31.25 28.64 31.12 28.74 30.69 28.74C29.11 28.74 27.53 28.74 25.95 28.74C25.55 28.74 25.42 28.65 25.36 28.21C25.168 26.436 24.5049 24.7456 23.4393 23.3142C22.3737 21.8829 20.9445 20.7628 19.3 20.07C16.07 18.65 12.91 20.29 11.85 23.79C11.4214 25.2499 11.319 26.7862 11.55 28.29C11.6 28.67 11.55 28.74 11.16 28.73C9.99001 28.73 8.82001 28.73 7.66001 28.73C7.66734 28.2804 7.62712 27.8312 7.54 27.39C7.47262 25.0837 7.70115 22.7783 8.22 20.53C8.66243 18.5167 8.73697 16.4399 8.44 14.4C8.22513 13.0484 8.28637 11.6673 8.62 10.34C9.01191 8.74485 9.99946 7.36014 11.38 6.47004Z" fill="#F5D999"/>
<path d="M36.49 28.73C35.26 28.73 34.03 28.73 32.8 28.73C32.47 28.73 32.34 28.63 32.31 28.29C32.2023 26.8166 31.8332 25.3741 31.22 24.03C30.8244 23.1067 30.6321 22.109 30.6563 21.1048C30.6804 20.1006 30.9204 19.1133 31.36 18.21C31.6055 17.5176 32.0455 16.9106 32.6273 16.4618C33.209 16.0131 33.9079 15.7417 34.64 15.68C35.4369 15.6631 36.2336 15.72 37.02 15.85C37.53 15.85 38.02 15.99 38.54 16.02C39.4659 16.0382 40.3569 16.3771 41.0609 16.9789C41.7648 17.5807 42.2381 18.4082 42.4 19.32C42.6646 20.7749 42.6066 22.2701 42.23 23.7C41.8424 25.2708 41.3513 26.8141 40.76 28.32C40.7265 28.4582 40.6418 28.5785 40.523 28.6565C40.4041 28.7345 40.2601 28.7643 40.12 28.74C38.91 28.72 37.7 28.73 36.49 28.73Z" fill="#F49E83"/>
<path d="M42 53.84C43.36 52.98 44.72 52.15 46 51.18C51.4574 47.0592 55.2031 41.0703 56.52 34.36C56.8137 33.0459 56.9778 31.7061 57.01 30.36C57.01 29.96 57.14 29.84 57.54 29.84C59.12 29.84 60.7 29.84 62.28 29.84C62.73 29.84 62.83 29.98 62.8 30.4C62.5109 35.4345 60.8176 40.2874 57.912 44.4089C55.0064 48.5305 51.0046 51.756 46.36 53.72C46.1757 53.8086 45.9745 53.8563 45.77 53.86L42 53.84Z" fill="#52B3D4"/>
<path d="M55.87 31.4501H5.00001C3.93001 31.4501 4.00001 31.4501 4.08001 32.4501C4.36331 34.8623 4.99663 37.2204 5.96001 39.4501C7.0582 42.0541 8.55253 44.4727 10.39 46.6201C12.7937 49.4217 15.7177 51.7309 19 53.4201L19.71 53.7701C18.7448 53.8347 17.787 53.5626 17 53.0001C13.524 51.2864 10.4613 48.8386 8.02345 45.8259C5.58562 42.8131 3.83074 39.3072 2.88 35.5501C2.45758 33.8812 2.18648 32.1776 2.07001 30.4601C2.07001 29.9601 2.12001 29.8101 2.66001 29.8101C10.88 29.8101 19.1 29.8101 27.32 29.8101C36.6533 29.8101 45.9867 29.8101 55.32 29.8101C55.9 29.8101 56.15 29.9201 56.01 30.5301C55.9416 30.833 55.8948 31.1405 55.87 31.4501V31.4501Z" fill="#C5EFFA"/>
<path d="M41.76 28.68C42.4044 27.1788 42.9001 25.618 43.24 24.0201C43.3861 23.2557 43.8236 22.578 44.46 22.1301C47.0444 20.0959 50.1795 18.8837 53.46 18.65C54.05 18.59 54.65 18.56 55.24 18.54C56.07 18.54 56.09 18.54 56.07 19.39C56.0511 20.8274 55.8801 22.2587 55.56 23.66C55.1912 25.3023 54.5705 26.8776 53.72 28.33C53.58 28.57 53.45 28.7401 53.12 28.7401C49.41 28.7401 45.7 28.7401 41.98 28.7401L41.76 28.68Z" fill="#F4D899"/>
<path d="M29 54.9299C32.1 54.9299 35.19 54.9299 38.29 54.9299C38.77 54.9299 38.92 55.0499 38.9 55.5399C38.9 56.8099 38.9 58.0799 38.9 59.3499C38.9 59.7599 38.77 59.8699 38.37 59.8699C32.1367 59.8699 25.9033 59.8699 19.67 59.8699C19.29 59.8699 19.18 59.7499 19.19 59.3799C19.19 58.0899 19.19 56.7999 19.19 55.5099C19.19 55.0399 19.32 54.9299 19.78 54.9399C22.89 54.9399 26 54.9299 29 54.9299Z" fill="#F4D899"/>
<path d="M18.46 28.73H13.23C12.95 28.73 12.71 28.7301 12.66 28.3601C12.2853 26.3855 12.6407 24.3421 13.66 22.6101C14.1349 21.7584 14.9124 21.1162 15.8384 20.8106C16.7644 20.505 17.7715 20.5583 18.66 20.9601C20.1497 21.5418 21.4575 22.5099 22.4487 23.7648C23.44 25.0198 24.079 26.5162 24.3 28.1001C24.39 28.5601 24.3 28.74 23.75 28.73C22 28.71 20.22 28.73 18.46 28.73Z" fill="#F49E83"/>
<path d="M35.11 8.75C35.0675 8.20848 35.1341 7.66394 35.3059 7.14863C35.4777 6.63333 35.7511 6.15773 36.11 5.75C36.3639 5.44262 36.6901 5.20301 37.0593 5.05267C37.4286 4.90233 37.8293 4.84595 38.2257 4.88856C38.6221 4.93118 39.0017 5.07146 39.3306 5.29684C39.6594 5.52223 39.9272 5.82567 40.11 6.17999C40.43 6.77673 40.6131 7.43725 40.6459 8.11357C40.6788 8.78989 40.5606 9.46504 40.3 10.09C39.7748 11.6297 39.1052 13.1164 38.3 14.53C38.2578 14.6331 38.1803 14.7178 38.0814 14.7691C37.9825 14.8204 37.8686 14.8349 37.76 14.81C37.6803 14.8004 37.5997 14.8004 37.52 14.81C36.52 14.9 36.18 14.38 35.97 13.49C35.5193 11.9442 35.2311 10.3556 35.11 8.75V8.75Z" fill="#80D6FA"/>
<path d="M11.38 6.46997C10.0128 7.36326 9.03679 8.7433 8.65001 10.33C8.31637 11.6573 8.25514 13.0384 8.47001 14.39C8.76697 16.4298 8.69244 18.5066 8.25001 20.52C7.73116 22.7682 7.50263 25.0736 7.57001 27.38C7.65712 27.8212 7.69735 28.2703 7.69001 28.72H7.08001C6.08001 28.72 6.08001 28.72 6.00001 27.72C5.86029 25.6107 6.02532 23.4922 6.49 21.43C7.07012 18.9286 7.17864 16.3411 6.81 13.8C6.59951 12.3722 6.77919 10.914 7.33001 9.57997C7.61888 8.71736 8.15861 7.9606 8.88012 7.40656C9.60162 6.85251 10.4721 6.5264 11.38 6.46997Z" fill="#F9E8C9"/>
<path d="M42.83 54.95C43.65 54.95 44.47 54.95 45.29 54.95C45.61 54.95 45.72 55.05 45.71 55.37C45.71 56.72 45.71 58.08 45.71 59.43C45.71 59.8 45.57 59.87 45.24 59.87C43.66 59.87 42.08 59.87 40.5 59.87C40.13 59.87 40 59.76 40.01 59.38C40.01 58.07 40.01 56.76 40.01 55.44C40.01 55.01 40.18 54.93 40.55 54.94C41.31 55 42.07 54.94 42.83 54.95Z" fill="#EABE69"/>
<path d="M32.65 6.42997C32.852 6.45439 33.0524 6.49113 33.25 6.53997C34.13 6.78997 34.14 6.83998 34.04 7.74998C33.9419 9.50574 34.1656 11.2646 34.7 12.94C34.7 13.12 34.8 13.29 34.86 13.47C35.15 14.47 35.15 14.47 34.13 14.63C34.0551 14.6538 33.9753 14.6581 33.8983 14.6423C33.8212 14.6266 33.7495 14.5913 33.69 14.54C32.5284 13.6217 31.5163 12.5287 30.69 11.3C30.3501 10.797 30.141 10.2172 30.0816 9.61306C30.0222 9.00891 30.1145 8.39948 30.35 7.83997C30.5322 7.38986 30.8538 7.01002 31.2678 6.75623C31.6818 6.50245 32.1662 6.38809 32.65 6.42997V6.42997Z" fill="#80D5F9"/>
<path d="M39.44 14.8299C40.1639 13.5232 40.7858 12.1625 41.3 10.7599C41.6301 9.94423 41.79 9.06968 41.77 8.18995C41.77 7.83995 41.87 7.68994 42.2 7.58994C42.6344 7.43865 43.1022 7.41066 43.5516 7.50906C44.001 7.60746 44.4143 7.82841 44.7457 8.14741C45.0771 8.46641 45.3137 8.87098 45.4292 9.31625C45.5447 9.76151 45.5346 10.2301 45.4 10.6699C45.038 12.0097 44.1705 13.1568 42.98 13.8699C42.58 14.1599 42.15 14.3899 41.76 14.6899C41.4621 15.0013 41.0576 15.1887 40.6274 15.2147C40.1973 15.2406 39.7732 15.1032 39.44 14.8299V14.8299Z" fill="#80D5F8"/>
</svg>
