<svg width="1271" height="816" viewBox="0 0 1271 816" fill="none" xmlns="http://www.w3.org/2000/svg">
<path d="M585.642 678.453H581.929V289.265H585.642V678.453Z" fill="#F3F3F3"/>
<path d="M623.774 251.455H583.786V241.311H623.774V251.455Z" fill="white"/>
<path d="M615.781 270.204H583.786V260.06H615.781V270.204Z" fill="white"/>
<path d="M627.604 715.034H585.642V701.51H627.604V715.034Z" fill="white"/>
<path d="M737.229 91.8864C737.229 91.8864 835.915 208.909 773.312 284.684C710.709 360.456 693.481 286.161 693.481 286.161C693.481 286.161 656.011 293.114 720.914 198.335C751.503 153.666 737.229 91.8864 737.229 91.8864" fill="url(#paint0_linear)"/>
<path d="M830.944 217.931V155.187C830.944 141.449 822.638 129.653 810.766 124.555C841.466 81.7781 887.08 39.2744 953.547 0.57876C953.547 0.57876 1005.5 77.2797 945.779 175.919C916.285 183.452 883.977 192.069 849.476 207.658C843.165 210.51 836.967 213.971 830.944 217.931" fill="url(#paint1_linear)"/>
<path d="M919.433 332.977C915.803 313.739 898.903 299.188 878.616 299.188H830.942V217.93C836.968 213.97 843.163 210.509 849.479 207.658C883.98 192.069 916.287 183.454 945.778 175.915C987.805 165.171 1024.1 156.611 1052.85 133.177C1052.85 133.177 1035.38 258.278 919.433 332.977" fill="url(#paint2_linear)"/>
<path d="M217.048 678.453H213.339V289.265H217.048V678.453Z" fill="#E0E0E0"/>
<path d="M480.802 678.453H477.095V289.265H480.802V678.453Z" fill="#F3F3F3"/>
<path d="M744.554 678.454H740.849V289.267H744.554V678.454Z" fill="#F3F3F3"/>
<path d="M278.368 251.455H215.193V241.311H278.368V251.455Z" fill="#E0E0E0"/>
<path d="M304.807 270.204H215.193V260.06H304.807V270.204Z" fill="#E0E0E0"/>
<path d="M550.273 251.455H476.105V241.311H550.273V251.455Z" fill="white"/>
<path d="M523.531 270.204H476.105V260.06H523.531V270.204Z" fill="white"/>
<path d="M790.518 251.456H744.556V241.312H790.518V251.456Z" fill="white"/>
<path d="M798.129 270.207H744.556V260.061H798.129V270.207Z" fill="white"/>
<path d="M1075.26 251.456H1008.32V241.312H1075.26V251.456Z" fill="white"/>
<path d="M1061.89 270.205H1008.32V260.06H1061.89V270.205Z" fill="white"/>
<path d="M520.913 715.034H478.951V701.51H520.913V715.034Z" fill="white"/>
<path d="M786.522 715.035H744.556V701.511H786.522V715.035Z" fill="white"/>
<path d="M215.194 440.295V414.381C215.9 413.493 227.825 398.009 262.323 383.224C279.89 375.698 304.113 369.02 334.768 369.02C344.985 369.02 355.913 369.762 367.547 371.46V389.307C357.164 387.749 347.309 387.05 337.981 387.05C256.978 387.05 215.663 439.707 215.194 440.295V440.295ZM1270.78 439.818C1212.11 380.89 1156.53 357.172 1101.34 357.172C1041.68 357.172 982.445 384.861 920.156 425.704V403.895C959.82 378.226 998.76 357.725 1037.39 346.637C1058.19 340.665 1079.25 337.476 1100.37 337.476C1157.72 337.476 1215.62 360.996 1270.78 416.143V439.818" fill="url(#paint3_linear)"/>
<path d="M75.0914 434.049H62.4174V488.773H75.0914V434.049Z" fill="#E0E0E0"/>
<path d="M106.563 411.814H93.8883V488.773H106.563V411.814" fill="#E0E0E0"/>
<path d="M138.034 400.214H125.36V488.773H138.034V400.214Z" fill="#E0E0E0"/>
<path d="M169.505 395.378H156.831V488.773H169.505V395.378Z" fill="#E0E0E0"/>
<path d="M75.0914 454.437H62.4174V488.773H75.0914V454.437Z" fill="url(#paint4_linear)"/>
<path d="M106.563 440.491H93.8883V488.773H106.563V440.491Z" fill="url(#paint5_linear)"/>
<path d="M138.034 433.215H125.36V488.773H138.034V433.215Z" fill="url(#paint6_linear)"/>
<path d="M169.505 430.18H156.831V488.773H169.505V430.18Z" fill="url(#paint7_linear)"/>
<path d="M797.627 734.968H400.863C382.464 734.968 367.545 720.054 367.545 701.65V526.188C377.039 523.72 386.133 520.552 394.966 516.839V704.051H653.111C660.734 713.267 672.247 719.137 685.141 719.137H825.99C820.123 728.636 809.616 734.968 797.627 734.968V734.968ZM367.545 508.651V389.308V371.462V155.182C367.545 138.794 379.374 125.169 394.966 122.387V498.167C386.05 502.386 376.984 505.961 367.545 508.651ZM830.945 299.188H803.528V122.387C806.049 122.836 808.47 123.573 810.77 124.552C822.638 129.655 830.945 141.449 830.945 155.182V217.929V299.188" fill="url(#paint8_linear)"/>
<path d="M803.528 49.3787H417.343C404.982 49.3787 394.967 59.3999 394.967 71.7548V704.05H803.528V49.3787Z" fill="#F5F5F5"/>
<path d="M765.456 192.201H644.992V176.965H765.456V192.201Z" fill="url(#paint9_linear)"/>
<path d="M755.572 256.07H644.987V240.838H755.572V256.07Z" fill="url(#paint10_linear)"/>
<path d="M740.667 224.139H644.989V208.902H740.667V224.139Z" fill="url(#paint11_linear)"/>
<path d="M515.738 89.9067C466.178 89.9067 425.861 130.228 425.861 179.789C425.861 214.963 446.556 247.097 478.596 261.655C490.28 266.969 502.775 269.665 515.738 269.665C528.701 269.665 541.196 266.969 552.88 261.655C584.92 247.097 605.62 214.963 605.62 179.789C605.62 130.228 565.298 89.9067 515.738 89.9067V89.9067ZM515.738 274.673C502.053 274.673 488.857 271.827 476.522 266.219C442.704 250.849 420.848 216.92 420.848 179.789C420.848 127.466 463.415 84.8984 515.738 84.8984C568.061 84.8984 610.628 127.466 610.628 179.789C610.628 216.92 588.772 250.849 554.954 266.219C542.619 271.827 529.423 274.673 515.738 274.673Z" fill="url(#paint12_linear)"/>
<path d="M559.267 326.457H420.848V312.872H559.267V326.457Z" fill="#4E7ED6"/>
<path d="M559.267 363.01H420.848V349.425H559.267V363.01Z" fill="#E0E0E0"/>
<path d="M559.267 399.558H420.848V385.973H559.267V399.558Z" fill="#E0E0E0"/>
<path d="M610.628 326.457H587.521V312.872H610.628V326.457Z" fill="#4E7ED6"/>
<path d="M610.628 363.01H587.521V349.425H610.628V363.01Z" fill="#E0E0E0"/>
<path d="M610.628 399.558H587.521V385.973H610.628V399.558Z" fill="#E0E0E0"/>
<path d="M1178.82 562.817C1096.55 562.823 1025.04 527.254 950.485 490.177C940.423 485.18 930.324 480.155 920.159 475.198V455.548C933.004 461.74 945.699 468.06 958.356 474.347C1030.65 510.3 1100.53 544.613 1179.76 544.613C1208.66 544.613 1238.8 540.05 1270.77 529.338V548.243C1236.28 559.788 1209.15 562.817 1178.82 562.817ZM318.399 532.078C242.389 532.078 215.661 499.144 215.195 497.048V474.052C215.3 474.447 233.436 514.202 327.088 514.202C327.643 514.202 328.199 514.197 328.761 514.197C342.607 514.124 355.386 512.118 367.548 508.649C376.986 505.958 386.053 502.384 394.969 498.166C413.412 489.427 431.194 477.894 450.205 465.559C496.724 435.376 549.447 401.165 634.665 392.456C637.662 392.149 640.641 391.874 643.604 391.632V409.372C641.235 409.573 638.852 409.801 636.461 410.04C555.49 418.316 504.667 451.296 459.826 480.389C438.365 494.313 417.526 507.348 394.969 516.837C386.136 520.55 377.042 523.718 367.548 526.186C355.408 529.344 342.602 531.351 328.849 531.872C325.27 532.012 321.778 532.073 318.399 532.078" fill="url(#paint13_radial)"/>
<path d="M878.62 719.136H825.996C829.136 714.049 830.949 708.063 830.949 701.648V489.733C846.709 477.787 862.193 466.22 877.459 455.208C891.899 461.612 906.1 468.343 920.155 475.198V677.596C920.155 700.537 901.559 719.136 878.62 719.136V719.136ZM830.949 467.493V436.342C840.203 439.705 849.334 443.28 858.349 447.009C849.269 453.702 840.131 460.551 830.949 467.493V467.493ZM920.155 455.548C911.561 451.401 902.916 447.315 894.176 443.324C902.908 437.227 911.553 431.34 920.155 425.704V455.548ZM875.059 434.836C860.648 428.633 845.984 422.791 830.949 417.499V372.207C865.464 362.563 894.684 348.92 919.437 332.974C919.908 335.484 920.155 338.076 920.155 340.724V403.895C905.236 413.553 890.209 423.941 875.059 434.836" fill="white"/>
<path d="M830.946 372.211V299.189H878.616C898.904 299.189 915.799 313.74 919.43 332.978C894.678 348.924 865.454 362.567 830.946 372.211" fill="url(#paint14_linear)"/>
<path d="M830.949 489.733V467.493C840.131 460.55 849.269 453.702 858.349 447.009C864.768 449.667 871.142 452.407 877.459 455.208C862.193 466.22 846.709 477.787 830.949 489.733V489.733ZM894.176 443.324C887.859 440.439 881.477 437.599 875.059 434.836C890.209 423.941 905.236 413.553 920.155 403.895V425.704C911.553 431.34 902.908 437.227 894.176 443.324" fill="url(#paint15_linear)"/>
<path d="M825.99 719.137H685.141C672.247 719.137 660.734 713.267 653.111 704.051H803.528V427.174C812.801 430.003 821.934 433.077 830.946 436.346V467.495V489.735V701.65C830.946 708.064 829.135 714.051 825.99 719.137V719.137ZM830.946 417.502C821.941 414.328 812.815 411.359 803.528 408.63V299.188H830.946V372.211V417.502" fill="url(#paint16_linear)"/>
<path d="M803.529 704.05H653.113C647.17 696.863 643.601 687.647 643.601 677.597V409.374C655.577 408.351 667.259 407.873 678.692 407.873C723.817 407.873 764.921 415.399 803.529 427.172V704.05ZM803.529 408.628C765.098 397.327 724.111 390.167 679.084 390.167C667.527 390.167 655.708 390.638 643.601 391.632V340.725C643.601 317.783 662.199 299.19 685.144 299.19H803.529V408.628" fill="white"/>
<path d="M920.155 475.198C906.099 468.343 891.899 461.612 877.459 455.208C871.142 452.407 864.768 449.667 858.349 447.009C849.334 443.28 840.203 439.705 830.949 436.342C821.942 433.074 812.811 430 803.528 427.171C764.923 415.398 723.823 407.872 678.698 407.872C667.261 407.872 655.577 408.35 643.603 409.373V391.631C655.707 390.637 667.529 390.166 679.082 390.166C724.106 390.166 765.097 397.326 803.528 408.628C812.818 411.357 821.949 414.325 830.949 417.499C845.984 422.791 860.648 428.633 875.059 434.836C881.477 437.599 887.859 440.439 894.176 443.324C902.916 447.315 911.561 451.401 920.155 455.548V475.198" fill="url(#paint17_radial)"/>
<path d="M856.629 408.852C842.951 413.738 828.221 409.324 819.338 398.887C817.221 396.399 815.437 393.567 814.08 390.436C813.774 389.746 813.497 389.039 813.242 388.32C810.662 381.095 810.669 373.574 812.801 366.777C815.871 356.965 823.346 348.661 833.77 344.934C837.209 343.703 840.72 343.063 844.18 342.957C858.498 342.525 872.077 351.252 877.158 365.462C883.468 383.112 874.273 402.537 856.629 408.852V408.852ZM887.824 361.648C881.045 342.697 862.939 331.057 843.846 331.631C839.227 331.77 834.545 332.624 829.954 334.266C816.048 339.24 806.079 350.314 801.979 363.399C799.151 372.467 799.122 382.499 802.576 392.136C802.917 393.095 803.286 394.038 803.691 394.958C805.503 399.133 807.877 402.908 810.705 406.227C822.55 420.152 842.212 426.039 860.438 419.518C883.987 411.097 896.244 385.189 887.824 361.648Z" fill="#E0E0E0"/>
<path d="M812.802 366.776L801.985 363.399C806.077 350.315 816.053 339.24 829.952 334.266C834.546 332.624 839.222 331.769 843.843 331.631L844.183 342.957C840.722 343.063 837.213 343.702 833.772 344.934C823.342 348.661 815.87 356.965 812.802 366.776" fill="#537FFD"/>
<path d="M814.075 390.438L803.684 394.96C803.288 394.039 802.911 393.096 802.575 392.138C799.122 382.501 799.142 372.468 801.981 363.401L812.794 366.778C810.668 373.575 810.655 381.097 813.236 388.322C813.494 389.04 813.778 389.748 814.075 390.438" fill="#4BA6F3"/>
<path d="M810.708 406.225C807.882 402.907 805.501 399.131 803.689 394.957L814.078 390.435C815.438 393.566 817.223 396.397 819.339 398.885L810.708 406.225Z" fill="#46BBED"/>
<path d="M844.799 624.329H820.395V704.339H844.799V624.329Z" fill="#46BBED"/>
<path d="M808.521 646.771H784.116V704.341H808.521V646.771Z" fill="#46BBED"/>
<path d="M879.99 587.248H855.588V704.339H879.99V587.248Z" fill="#46BBED"/>
<path d="M680.548 616.086L678.428 614.458L718.19 562.718L767.27 565.381L804.28 506.449L844.147 502.336L868.102 454.949L870.485 456.155L845.87 504.843L805.843 508.972L768.694 568.138L719.455 565.464L680.548 616.086" fill="#46BBED"/>
<path d="M755.746 358.809H686.358C681.979 358.809 678.423 355.257 678.423 350.876C678.423 346.495 681.979 342.944 686.358 342.944H755.746C760.132 342.944 763.681 346.495 763.681 350.876C763.681 355.257 760.132 358.809 755.746 358.809Z" fill="#4E7ED6"/>
<path d="M755.746 386.485H686.358C681.979 386.485 678.423 382.933 678.423 378.552C678.423 374.171 681.979 370.62 686.358 370.62H755.746C760.132 370.62 763.681 374.171 763.681 378.552C763.681 382.933 760.132 386.485 755.746 386.485Z" fill="#E0E0E0"/>
<path d="M755.746 414.161H686.358C681.979 414.161 678.423 410.61 678.423 406.229C678.423 401.848 681.979 398.296 686.358 398.296H755.746C760.132 398.296 763.681 401.848 763.681 406.229C763.681 410.61 760.132 414.161 755.746 414.161Z" fill="#E0E0E0"/>
<path d="M530.374 624.457C530.374 624.457 502.886 616.686 469.313 624.457L485.421 541.94C485.421 541.94 525.638 584.58 530.374 624.457Z" fill="#B3B7C4"/>
<path d="M617.482 482.195C617.482 482.195 623.652 486.613 625.473 486.058C627.299 485.502 630.359 486.397 632.096 486.213C633.827 486.036 638.36 483.868 640.182 484.329C640.927 484.518 645.051 487.458 646.603 487.681C648.155 487.903 651.349 487.976 651.136 489.299C650.923 490.616 648.054 491.328 648.054 491.328C648.054 491.328 649.455 491.617 649.629 492.839C649.971 495.218 648.721 496.052 648.721 496.052C648.721 496.052 649.971 497.269 649.864 498.293C649.618 500.543 648.385 501.316 648.385 501.316C648.385 501.316 648.923 502.5 648.424 503.956C647.774 505.818 645.818 506.096 645.818 506.096C645.818 506.096 645.55 508.62 644.16 508.959C642.77 509.299 641.566 508.809 640.417 508.776C639.268 508.748 629.395 505.335 623.511 500.199C617.634 495.068 610.837 492.061 610.837 492.061L617.482 482.195" fill="#EEA987"/>
<path d="M490.93 313.361C490.93 313.361 481.714 307.452 473.409 317.958C465.099 328.469 468.09 338.569 469.824 348.002C471.547 357.357 479.924 378.763 476.361 388.196C472.804 397.623 477.35 402.537 477.35 402.537C477.35 402.537 505.921 409.852 502.592 366.879C499.262 323.906 490.93 313.361 490.93 313.361" fill="#FCCCA2"/>
<path d="M503.17 394.511C503.17 394.511 514.048 393.021 521.352 398.496C528.656 403.966 533.648 414.221 535.877 417.434C538.111 420.653 564.181 449.429 565.476 449.952C566.777 450.474 583.008 459.429 593.936 466.661C604.864 473.898 622.09 482.608 622.09 482.608L612.746 494.065C612.746 494.065 566.727 477.589 557.149 468.679C546.927 459.168 499.64 411.953 499.64 411.953C499.64 411.953 487.756 402.348 503.17 394.511" fill="#DBDFF0"/>
<path d="M582.318 794.766C582.318 794.766 594.086 810.608 592.474 813.121C590.862 815.628 578.483 815.989 570.951 813.121C563.419 810.247 563.241 791.681 559.834 783.705C558.405 780.364 561.457 770.509 565.754 769.792C570.045 769.08 574.714 771.181 574.714 771.181C574.714 771.181 570.262 782.415 582.318 794.766" fill="#1D3B54"/>
<path d="M574.792 771.048C574.792 771.048 577.266 777.796 578.172 784.238C578.922 789.58 586.554 800.925 586.198 802.359C585.837 803.793 576.154 805.094 572.207 801.392C568.261 797.696 565.726 786.94 564.853 780.503C564.047 774.511 563.025 771.548 563.025 771.548C563.025 771.548 571.023 767.107 574.792 771.048Z" fill="#EEA886"/>
<path d="M559.517 782.309V798.896H561.668V786.078L559.517 782.309Z" fill="#1D3B54"/>
<path d="M479.896 795.027C479.896 795.027 491.241 810.608 489.624 813.121C488.012 815.628 475.633 815.989 468.101 813.121C460.569 810.247 460.391 791.681 456.984 783.705C455.555 780.364 458.607 770.509 462.904 769.792C467.195 769.08 472.225 771.331 472.225 771.331C472.225 771.331 467.834 782.676 479.896 795.027Z" fill="#1D3B54"/>
<path d="M472.225 771.331C472.225 771.331 473.126 778.685 474.56 783.883C475.994 789.085 483.704 800.925 483.348 802.359C482.987 803.793 473.304 805.094 469.357 801.392C465.411 797.696 462.365 786.984 462.003 780.503C461.648 774.022 462.904 769.792 462.904 769.792C462.904 769.792 468.462 767.385 472.225 771.331" fill="#EEA886"/>
<path d="M456.667 782.309V798.896H458.818V786.078L456.667 782.309Z" fill="#1D3B54"/>
<path d="M528.912 513.425C528.912 513.425 539.012 560.395 541.33 572.223C543.647 584.052 550.14 641.333 550.835 651.072C551.529 660.816 561.374 697.514 560.907 700.993C560.445 704.473 576.054 773.499 576.054 773.499C576.054 773.499 559.99 777.868 557.283 774.922C554.987 772.421 531.908 709.303 531.908 691.911C531.908 667.87 513.776 637.259 511.48 631.878C490.168 581.912 494.721 565.859 491.936 562.613C489.157 559.367 488.912 564.619 487.289 571.807C485.666 578.999 482.192 641.15 480.102 649.032C478.017 656.919 479.641 683.589 478.479 697.036C477.317 710.487 475.983 770.753 475.983 770.753C475.983 770.753 464.349 773.427 458.818 770.853C457.228 770.108 453.204 703.717 452.971 687.714C452.737 671.711 452.493 649.643 452.042 642.723C447.745 576.415 441.409 567.004 453.821 520.017C477.623 429.885 528.912 513.425 528.912 513.425" fill="#3B3B40"/>
<path d="M502.775 388.263C502.775 388.263 513.314 393.238 516.972 393.971C520.635 394.705 534.832 413.148 537.322 419.88C539.807 426.617 537.322 436.717 532.197 448.573C527.072 460.43 531.902 464.382 529.562 476.238C527.222 488.095 529.44 515.887 529.879 522.474C530.318 529.061 476.016 537.432 455.144 516.399C455.144 516.399 466.472 495.126 468.229 492.197C469.985 489.267 468.518 473.314 466.911 469.212C465.299 465.115 454.583 430.258 454.583 430.258C454.583 430.258 445.817 403.488 453.732 397.34C460.614 391.998 479.368 390.091 482.731 388.919C486.1 387.746 495.894 387.24 502.775 388.263" fill="#E8734D"/>
<path d="M506.138 411.759L512.542 404.26L506.983 384.516C506.983 384.516 505.116 395.511 506.138 411.759Z" fill="#D6C5BE"/>
<path d="M507.806 376.101C507.806 376.101 505.699 395.433 506.138 401.731C506.138 401.731 495.188 412.704 482.731 388.919C482.731 388.919 487.973 379.113 484.026 365.756C480.085 352.399 507.806 376.101 507.806 376.101" fill="#EEA886"/>
<path d="M506.138 401.731V411.759L493.537 402.337L506.138 401.731Z" fill="#EEA886"/>
<path d="M506.138 411.759L500.908 405.277L483.281 387.712L477.578 393.204L506.138 411.759" fill="#D6C5BE"/>
<path d="M512.542 404.26L520.613 406.489L506.983 384.516L512.542 404.26Z" fill="#FAE6DE"/>
<path d="M500.908 405.277L493.537 414.944L478.479 389.23L483.721 386.545L500.908 405.277Z" fill="#FAE6DE"/>
<path d="M507.372 380.353L507.011 384.227C507.011 384.227 498.306 385.861 486.911 371.971C486.911 371.971 494.988 381.82 507.372 380.353Z" fill="#A77860"/>
<path d="M505.16 380.636C508.59 380.514 518.161 379.391 522.886 357.34C528.656 330.398 515.905 316.424 504.988 313.839C494.076 311.249 484.01 315.04 478.418 329.125C478.418 329.125 474.332 340.103 480.963 359.658C487.595 379.219 501.491 380.77 505.16 380.636" fill="#EEA987"/>
<path d="M496.405 331.31C496.405 331.31 511.063 332.221 524.687 352.693C524.687 352.693 531.068 328.063 514.398 316.818C497.723 305.579 486.05 315.245 481.981 320.148C481.981 320.148 476.15 321.488 475.966 332.555C475.783 343.622 468.34 360.325 484.671 368.246C484.671 368.246 483.115 355.612 484.554 352.721C485.988 349.831 490.98 351.782 496.405 331.31" fill="#FCCCA2"/>
<path d="M485.355 347.813C484.615 345.901 482.603 345.128 481.492 347.179C480.385 349.236 481.703 357.202 484.66 358.074C487.623 358.947 486.85 351.699 485.355 347.813Z" fill="#EEA987"/>
<path d="M478.479 389.23C478.479 389.23 495.038 409.035 496.772 450.674C498.506 492.314 483.732 625.297 484.649 641.522L441.714 620.739C441.714 620.739 441.959 553.641 456.339 511.429C473.204 461.897 454.021 446.789 452.27 416.317C452.27 416.317 453.065 394.01 465.5 391.987C477.173 390.08 478.479 389.23 478.479 389.23" fill="#DBDFF0"/>
<path d="M511.752 392.204C511.752 392.204 518.489 392.982 520.613 395.5C522.742 398.018 536.049 413.36 537.022 417.873C537.989 422.392 541.091 425.761 534.709 446.794C528.995 465.632 530.429 486.733 531.613 495.187C532.797 503.636 553.353 617.809 552.23 620.739C551.102 623.668 542.541 630.655 542.541 630.655C542.541 630.655 524.126 518 524.32 499.184C524.515 480.368 531.886 424.349 511.752 392.204" fill="#DBDFF0"/>
<path d="M652.599 451.653L638.241 525.577L590.794 516.361L603.295 442.076L652.599 451.653Z" fill="#616161"/>
<path d="M649.039 455.249L636.29 520.901L594.147 512.718L605.253 446.744L649.039 455.249Z" fill="#E0CEC7"/>
<path d="M635.681 454.349L636.576 449.74L619.538 446.433L617.977 450.913L635.681 454.349Z" fill="#616161"/>
<path d="M647.261 490.729C647.261 490.729 638.765 487.956 636.247 489.551C633.73 491.147 636.741 492.313 636.741 492.313C636.741 492.313 633.78 491.113 632.614 493.325C631.436 495.543 635.036 496.722 635.036 496.722C635.036 496.722 632.558 496.405 632.244 499.006C631.935 501.608 635.132 501.919 635.132 501.919C635.132 501.919 631.425 503.381 633.763 505.755C637.711 509.751 644.278 509.162 644.278 509.162C644.278 509.162 645.898 508.767 646.022 506.244C646.022 506.244 649.936 505.571 648.68 501.363C648.68 501.363 651.848 497.9 648.713 496.055C648.713 496.055 652.056 492.103 647.261 490.729" fill="#DB9C7C"/>
<path d="M441.581 533.169C441.581 533.169 439.869 541.162 443.365 546.571C444.705 548.638 443.415 564.275 443.299 566.226C443.199 567.86 441.726 569.255 441.114 568.922C440.508 568.583 440.375 559.928 439.458 557.138C438.679 554.797 437.996 553.914 437.573 554.664C437.151 555.409 438.585 567.971 439.408 572.129C440.23 576.287 439.202 585.053 437.04 583.641C434.877 582.223 427.668 562.763 428.202 556.265C428.735 549.767 431.192 541.651 431.192 541.651L441.581 533.169" fill="#EEA886"/>
<path d="M475.944 390.408C475.944 390.408 458.796 389.352 450.197 399.358C441.598 409.363 442.065 421.247 439.875 426.411C437.69 431.57 432.682 453.77 431.592 457.367C430.497 460.963 429.43 481.18 427.863 497.439C426.301 513.703 426.617 544.069 426.617 544.069L443.021 541.096C443.021 541.096 443.682 512.146 444.099 495.365C444.516 478.578 458.173 448.923 463.332 435.944C468.49 422.97 489.035 398.552 475.944 390.408" fill="#DBDFF0"/>
<path d="M119.696 580.55H147.632L139.081 562.818H111.144L119.696 580.55Z" fill="url(#paint18_linear)"/>
<path d="M106.624 580.55H113.28L104.729 562.818H98.0728L106.624 580.55Z" fill="url(#paint19_linear)"/>
<path d="M790.522 15.2665H845.832V5.24846H790.522V15.2665Z" fill="url(#paint20_linear)"/>
<path d="M790.522 2.45502H845.832V0.572436H790.522V2.45502Z" fill="url(#paint21_linear)"/>
<path d="M993.68 638.976C993.68 638.976 966.194 631.205 932.622 638.976L948.73 556.454C948.73 556.454 988.95 599.094 993.68 638.976Z" fill="#B3B7C4"/>
<path d="M919.589 780.292C919.589 780.292 907.07 801.515 901.775 804.983C894.603 809.691 899.099 814.45 902.508 814.455C905.916 814.461 923.323 815.706 927.161 811.354C930.991 807 932.899 793.955 936.463 790.542C940.034 787.129 943.295 774.539 934.733 770.27C925.327 765.589 919.589 780.292 919.589 780.292" fill="#2D2D30"/>
<path d="M924.286 769.164C924.286 769.164 910.671 795.811 908.195 799.486C905.726 803.16 912.853 803.154 917.269 801.409C921.685 799.664 933.147 781.982 934.389 778.585C935.63 775.189 934.727 770.27 934.727 770.27L924.286 769.164Z" fill="#EEA886"/>
<path d="M939.544 784.327L936.234 809.813L934.48 809.891L935.025 791.559L939.544 784.327Z" fill="#2D2D30"/>
<path d="M1026.96 759.597C1026.96 759.597 1023.96 784.055 1020.5 789.347C1015.8 796.529 1021.82 799.096 1024.95 797.74C1028.08 796.378 1044.53 790.569 1046.31 785.044C1048.08 779.524 1044.62 766.801 1046.53 762.254C1048.43 757.702 1046.4 744.856 1036.83 744.361C1026.35 743.827 1026.96 759.597 1026.96 759.597" fill="#2D2D30"/>
<path d="M1026.82 747.518C1026.82 747.518 1024.98 777.39 1024.19 781.743C1023.38 786.095 1029.92 783.243 1033.27 779.881C1036.62 776.518 1040.06 755.734 1039.85 752.12C1039.63 748.507 1036.83 744.361 1036.83 744.361L1026.82 747.518" fill="#EEA886"/>
<path d="M1046.86 755.328L1054 780.014L1052.43 780.787L1045.61 763.761L1046.86 755.328" fill="#2D2D30"/>
<path d="M908.466 535.692C908.466 535.692 908.078 540.322 908.379 545.258C908.53 547.665 904.545 561.923 903.891 563.724C903.345 565.236 902.613 564.013 902.405 562.84C902.29 562.168 902.886 556.998 902.785 554.119C902.706 551.701 902.304 550.683 901.701 551.272C901.091 551.856 897.572 560.722 897.198 564.858C896.825 568.999 893.177 577.67 891.54 575.741C889.895 573.813 890.146 556.158 892.437 550.194C894.735 544.23 899.288 537.276 899.288 537.276L908.466 535.692" fill="#EEA886"/>
<path d="M910.354 539.13C911.025 537.228 927.409 510.947 931.331 502.582C935.254 494.211 938.693 486.523 940.534 483.255C940.662 483.038 940.858 482.66 941.122 482.154C942.405 479.713 945.196 474.261 948.009 469.192C948.205 468.836 948.401 468.486 948.597 468.136L949.088 466.118C951.064 462.61 949.925 460.27 950.302 457.313C950.423 456.423 950.672 455.478 951.192 454.434L951.245 454.317C953.644 449.575 955.53 445.407 956.125 443C958.094 435.001 967.523 399.506 967.523 399.506C967.523 399.506 952.301 404.874 949.925 410.326C946.327 418.603 942.095 431.065 940.941 434.917C939.787 438.775 929.038 470.703 926.821 477.19C924.603 483.677 922.332 489.119 919.866 493.271C917.399 497.423 899.567 535.016 898.323 538.429C898.323 538.429 909.683 541.03 910.354 539.13" fill="#DBDFF0"/>
<path d="M974.689 573.863C974.063 576.876 970.075 589.483 965.607 603.496C961.528 616.264 957.051 630.2 954.378 639.093C953.377 642.412 952.621 645.024 952.231 646.614C949.657 657.142 952.552 673.656 953.484 687.458C954.424 701.26 949.153 771.221 949.153 771.221C945.639 772.854 923.128 769.947 923.128 769.947C925.694 765.033 926.496 677.025 925.099 671.649C923.693 666.269 922.761 651.295 924.167 645.446C924.449 644.246 924.594 642.662 924.617 640.755C924.74 633.373 923.219 621.167 922.288 607.782C921.119 590.94 927.673 549.067 928.605 545.326C928.689 544.981 928.826 544.497 929.002 543.903C930.721 538.027 936.274 521.357 936.274 521.357C947.526 518.011 955.997 517.405 962.322 518.694C970.694 520.396 975.3 525.42 977.607 531.802C983.107 547.026 975.499 569.955 974.689 573.863" fill="#3B3B40"/>
<path d="M1039.85 744.35L1021.82 758.964C1019.88 749.609 978.434 675.624 975.606 668.371C972.787 661.122 969.776 647.087 969.776 641.939C969.776 641.017 969.712 639.471 969.584 637.459C969.081 629.656 967.651 614.948 965.599 603.496C965.223 601.357 964.816 599.334 964.393 597.493C962.125 587.616 961.741 553.876 961.709 534.037C961.701 525.205 961.757 519.129 961.757 519.129C961.757 519.129 961.957 518.973 962.324 518.695C966.589 515.465 993.952 495.783 1003.49 514.182C1006.01 519.046 1007.65 524.26 1008.66 529.701C1011.71 546.371 1008.71 565.154 1006.24 582.258C1004.13 596.898 1000.08 617.582 998.92 632.935C998.273 641.378 998.505 648.21 1000.42 651.528C1005.8 660.889 1011.06 668.809 1021.94 701.822C1025.48 712.561 1039.85 744.35 1039.85 744.35Z" fill="#3B3B40"/>
<path d="M955.039 348.807C955.039 348.807 949.086 310.312 980.97 311.023C1012.85 311.732 1012.43 330.767 1011.86 349.66C1011.29 368.552 999.074 367.131 1012.85 393.412C1026.63 419.69 1000.92 419.69 1000.92 419.69L980.97 392.275L955.039 348.807" fill="#2D3133"/>
<path d="M977.485 314.715C977.485 314.715 955.888 318.125 955.039 348.808C954.191 379.49 960.861 386.025 979.757 379.632C998.646 373.24 1004.62 341.137 1005.04 336.165C1005.46 331.194 1006.6 311.022 977.485 314.715Z" fill="#EEA886"/>
<path d="M1015.39 421.436C1015.48 432.003 1003.33 457.256 1001.46 465.055C999.594 472.853 996.631 475.349 999.124 485.332C1001.62 495.31 1009.35 529.079 1009.05 532.041C1008.73 535.004 961.81 549.901 929.003 543.903C929.003 543.903 941.77 496.238 942.711 490.78C943.643 485.321 941.574 464.86 941.104 459.09C940.634 453.315 934.795 440.897 934.991 435.116C935.195 429.219 938.087 424.132 942.139 417.841C943.393 415.889 944.709 413.905 946.026 411.971C950.313 405.675 954.6 399.961 956.7 397.993C958.268 396.529 959.733 395.408 961.003 394.562L961.011 394.554C963.66 392.791 965.439 392.222 965.439 392.222L983.998 389.259C983.998 389.259 995.565 393.443 1002.22 395C1002.22 395 1015.21 396.894 1015.39 421.436" fill="#E55353"/>
<path d="M961.009 394.556L950.249 411.511L940.323 427.152C940.345 427.069 941.005 424.701 942.131 417.842C942.348 416.541 942.573 415.073 942.821 413.434C942.896 412.95 943.001 412.467 943.129 411.989C947.375 402.194 960.521 394.807 961.001 394.563L961.009 394.556" fill="#E55353"/>
<path d="M991.907 365.812C990.027 369.346 988.055 391.284 988.055 391.284C988.055 391.284 961.645 401.266 964.349 395.62C965.574 393.059 965.936 389.733 965.959 386.866C965.982 384.607 965.798 382.632 965.667 381.537C965.597 380.96 965.543 380.628 965.543 380.628C965.543 380.628 993.771 362.276 991.907 365.812" fill="#EEA886"/>
<path d="M968.666 336.736C968.666 336.736 979.75 354.776 989.834 361.878C999.918 368.981 994.809 374.662 994.809 374.662C994.809 374.662 1021.12 319.264 996.108 315.429C971.083 311.593 955.748 311.31 955.032 348.81C955.032 348.81 966.399 336.452 968.666 336.736" fill="#2D3133"/>
<path d="M980.724 379.278C976.676 385.258 965.964 386.867 965.964 386.867C965.979 384.608 965.796 382.632 965.667 381.537C972.551 382.863 980.724 379.278 980.724 379.278Z" fill="#A77860"/>
<path d="M943.18 411.871C943.18 411.871 942.609 413.06 942.137 417.841L946.023 411.971C946.023 411.971 952.971 402.009 955.35 399.42C957.728 396.83 960.999 394.562 960.999 394.562C960.999 394.562 947.329 401.129 943.18 411.871" fill="#DBDFF0"/>
<path d="M1001.72 475.472C1001.72 475.472 993.918 478.218 986.662 479.752C979.414 481.286 986.911 489.974 986.911 489.974C986.911 489.974 999.468 488.812 1005.51 488.223C1008.43 487.939 1001.72 475.472 1001.72 475.472" fill="#EEA886"/>
<path d="M995.733 426.728C995.733 426.728 1012.68 420.08 1017.7 419.69C1017.7 419.69 1014.28 392.472 997.641 395.357C980.989 398.241 995.733 426.728 995.733 426.728Z" fill="#E55353"/>
<path d="M965.438 392.221C965.438 392.221 952.995 411.352 957.209 413.025C961.424 414.698 984.223 410.796 993.916 392.621C993.916 392.621 979.423 385.189 965.438 392.221Z" fill="#EEA886"/>
<path d="M988.117 390.514C988.117 390.514 974.929 412.411 973.184 454.05C971.454 495.684 986.229 628.672 985.313 644.891L1025.19 627.66C1025.19 627.66 1010.16 518.912 1005.17 498.174C1000.18 477.435 1015.94 450.159 1017.69 419.693C1017.69 419.693 1016.58 398.791 1004.46 395.359C992.342 391.927 988.117 390.514 988.117 390.514Z" fill="#DBDFF0"/>
<path d="M1014.77 412.52C1014.77 412.52 1011.79 392.411 997.059 395.726C982.895 398.91 996.163 425.277 997.202 428.395C998.241 431.519 1008.73 457.016 1009.64 460.357C1012.52 470.924 1009.82 471.168 1005.49 473.664C992.721 481.018 966.463 480.535 963.433 482.558C960.404 484.576 960.594 490.868 965.678 491.09C972.3 491.374 1010.12 487.81 1015.4 487.294C1020.51 486.793 1030.7 486.365 1028.03 468.178C1026.23 455.932 1014.77 412.52 1014.77 412.52" fill="#EEA886"/>
<path d="M965.439 392.221C965.439 392.221 951.41 415.504 950.672 443.092C949.942 470.673 924.256 588.209 926.959 648.408L920.98 642.622C919.045 640.749 918.021 638.131 918.186 635.446C919.218 618.148 923.781 552.112 935.069 515.932C948.142 474.052 937.155 446.294 934.964 438.817C932.757 431.346 939.783 421.396 942.14 417.839C944.497 414.281 950.122 397.923 965.439 392.221" fill="#DBDFF0"/>
<path d="M995.998 441.991L1007.82 516.359L960.085 523.946L946.405 449.872L995.998 441.991Z" fill="#616161"/>
<path d="M993.885 446.594L1004.38 512.641L961.992 519.378L949.841 453.593L993.885 446.594Z" fill="#E0CEC7"/>
<path d="M981.032 450.317L980.292 445.682L963.157 448.405L963.225 453.147L981.032 450.317" fill="#616161"/>
<path d="M986.667 479.75C986.667 479.75 978.783 481.068 978.047 480.951C977.312 480.829 974.201 475.726 970.584 474.809C966.976 473.891 962.463 473.186 961.352 472.496C960.233 471.801 959.934 475.343 963.397 476.788C966.868 478.233 967.734 480.173 961.237 481.473C957.643 482.196 944.219 480.695 945.33 482.963C945.981 484.297 958.93 485.248 958.93 485.248C958.93 485.248 944.962 485.187 944.487 486.031C943.553 487.694 957.559 488.282 958.149 488.227C958.149 488.227 946.142 488.917 946.043 489.995C945.905 491.329 958.065 490.762 957.95 490.979C957.95 490.979 948.41 491.64 948.51 492.451C948.633 493.519 957.03 493.646 958.655 493.458C960.279 493.269 976.737 491.395 979.488 490.845C982.269 490.289 986.912 489.973 986.912 489.973L986.667 479.75" fill="#EEA886"/>
<path d="M1017.07 414.698C1017.07 414.698 1030.6 465.943 1029.48 478.561C1028.35 491.179 979.588 493.531 979.588 493.531V480.256C979.588 480.256 1005.11 474.586 1009.9 468.728C1012.39 465.682 995.733 426.728 995.733 426.728C995.733 426.728 980.825 402.354 994.956 396.148C1009.09 389.942 1015.16 407.293 1017.07 414.698" fill="#DBDFF0"/>
<path d="M202.393 553.569C202.393 553.569 194.363 557.554 186.757 558.305C186.757 558.305 179.569 547.766 175.364 539.878C165.331 521.062 162.369 512.252 163.225 505.026C164.763 492.036 190.307 440.074 190.307 440.074L218.66 451.019L196.954 489.595C194.928 493.548 192.313 499.973 189.612 505.198C186.073 512.052 190.334 527.727 192.856 534.27C192.856 534.27 197.483 546.949 202.393 553.569" fill="#EEA886"/>
<path d="M113.785 767.607C113.785 767.607 112.949 772.31 116.203 778.591C119.457 784.866 134.034 800.87 133.031 807.44C132.027 814.016 115.18 813.237 104.602 801.67C94.0233 790.097 78.3115 778.085 78.8907 775.306C79.4704 772.526 95.3351 758.091 100.851 756.173C106.366 754.255 113.785 767.607 113.785 767.607" fill="#353A3D"/>
<path d="M119.601 761.42L113.643 767.84L100.246 756.418L106.405 749.275L119.601 761.42Z" fill="#EEA886"/>
<path d="M101.204 749.275C107.74 741.865 160.487 687.892 160.487 687.892C187.388 656.88 197.915 656.063 197.915 656.063C197.915 656.063 204.713 656.208 213.941 657.464C215.267 657.653 219.586 657.603 220.971 657.831C238.1 660.605 238.577 658.654 232.318 672.683C222.019 695.757 118.751 762.338 118.751 762.338L101.204 749.275Z" fill="#248C9E"/>
<path d="M342.172 777.401C342.172 777.401 350.632 781.092 358.086 782.109C365.54 783.121 383.494 780.164 388.597 785.061C393.694 789.958 382.705 804.132 366.162 806.245C349.626 808.357 328.442 811.859 326.38 809.652C324.318 807.451 322.6 787.618 324.306 781.648C326.018 775.673 342.172 777.401 342.172 777.401" fill="#353A3D"/>
<path d="M338.62 768.635L342.172 777.401L324.306 781.648L321.61 772.26L338.62 768.635Z" fill="#EEA886"/>
<path d="M311.805 657.814C311.805 657.814 304.54 630.088 321.611 695.407C321.611 695.407 339.604 765.106 341.588 769.069C342.055 770.008 319.026 774.222 318.603 774.055C314.596 772.454 278.744 683.156 269.834 666.664C261.988 652.145 311.805 657.814 311.805 657.814" fill="#248C9E"/>
<path d="M311.816 657.814L275.976 678.431C275.976 678.431 261.875 661.11 252.534 654.04C251.574 653.323 250.614 652.595 249.641 651.839C248.262 650.799 246.883 649.727 245.504 648.648C244.503 647.864 243.489 647.064 242.503 646.269C235.676 640.822 229.295 635.319 225.78 631.25C215.627 619.527 237.852 545.42 265.918 578.471C265.918 578.471 303.54 613.796 311.816 657.814" fill="#248C9E"/>
<path d="M263.678 569.683C263.678 569.683 246.017 650.833 228.61 678.437C228.61 678.437 199.047 668.47 185.469 663.145C185.469 663.145 184.151 604.502 185.462 589.177C186.684 574.881 263.678 569.683 263.678 569.683" fill="#248C9E"/>
<path d="M181.913 598.143C181.913 598.143 189.359 525.226 183.192 491.296C179.09 468.74 185.024 432.136 198.547 412.387C200.186 409.991 201.887 407.857 203.643 406.045C203.643 406.045 230.942 413.271 233.674 415.177C234.064 415.45 237.015 418.062 240.753 422.637H240.758C248.525 432.164 259.997 449.413 261.112 466.155C261.921 478.334 262.591 489.518 263.352 501.057C263.58 504.57 263.822 508.111 264.074 511.73C264.685 520.412 265.383 529.506 266.256 539.528C266.741 545.103 270.499 562.791 272.971 579.105L181.913 598.143Z" fill="#2AA3B8"/>
<path d="M249.641 651.839C248.262 650.799 246.883 649.727 245.504 648.648C244.503 647.864 243.489 647.064 242.503 646.269C243.936 641.7 251.724 620.855 254.779 605.97C254.779 605.97 257.036 629.154 249.641 651.839Z" fill="#196370"/>
<path d="M264.074 511.73C264.074 511.73 248.186 535.876 245.369 476.244L263.352 501.057C263.58 504.57 263.822 508.111 264.074 511.73" fill="#1D6F7D"/>
<path d="M203.641 406.039C203.641 406.039 206.487 390.269 203.171 381.098C199.857 371.937 230.336 396.551 230.336 396.551C230.336 396.551 230.336 397.829 230.387 399.736C230.427 401.225 230.509 403.099 230.642 405.066C230.917 408.824 231.417 412.915 232.345 415.261C234.385 420.419 203.641 406.039 203.641 406.039" fill="#EEA886"/>
<path d="M247.718 350.776C247.718 350.776 254.141 362.877 250.905 364.728C248.231 366.262 253.937 378.129 254.68 380.069C255.425 382.009 249.834 383.377 248.641 384.611C247.447 385.85 243.831 401.136 239.231 401.564C234.632 401.998 213.967 394.661 208.366 388.757C202.765 382.854 198.314 356.334 202.152 345.189C205.991 334.044 236.379 329.631 247.718 350.776" fill="#EEA886"/>
<path d="M248.998 353.394C248.998 353.394 255.724 340.415 243.729 330.676C231.734 320.937 209.385 337.741 206.874 338.375C204.364 339.003 189.477 343.755 196.947 365.895C203.726 385.984 204.597 388.252 204.597 388.252C204.597 388.252 208.714 374.9 211.334 373.021C215.426 370.092 224.349 370.864 224.349 370.864C224.349 370.864 220.17 359.542 226.829 357.985C233.487 356.429 242.289 350.854 248.998 353.394" fill="#3B3B40"/>
<path d="M217.31 364.35C216.733 362.793 214.882 356.123 209.142 359.997C203.403 363.866 212.593 376.479 213.588 376.645C214.583 376.818 222.157 377.418 217.31 364.35Z" fill="#EEA886"/>
<path d="M230.642 405.066C221.196 402.526 213.097 392.276 213.097 392.276C215.678 394.8 230.387 399.736 230.387 399.736C230.427 401.225 230.509 403.098 230.642 405.066Z" fill="#A77860"/>
<path d="M336.102 490.863L320.721 570.05L269.897 560.178L283.293 480.602L336.102 490.863" fill="#616161"/>
<path d="M332.289 494.715L318.631 565.047L273.49 556.282L285.386 485.604L332.289 494.715" fill="#E0CEC7"/>
<path d="M317.981 493.753L318.937 488.812L300.688 485.271L299.015 490.068L317.981 493.753" fill="#616161"/>
<path d="M330.16 546.454C330.16 546.454 327.925 547.388 326.747 547.321C326.747 547.321 324.612 547.032 323.084 546.921C322.6 546.888 322.178 546.871 321.9 546.888C320.755 546.954 318.253 547.443 315.452 546.832C312.65 546.226 301.244 540.484 301.244 540.484L302.595 533.436L302.917 526.66C302.917 526.66 319.548 521.007 322.222 521.274C322.483 521.301 322.745 521.34 322.984 521.39C325.224 521.841 326.708 523.114 327.858 523.48C328.281 523.619 332.383 525.27 332.783 526.526C333.345 528.272 333.022 529.712 332.233 530.69C332.233 530.69 333.178 534.158 332.189 536.365C332.189 536.365 333.161 539.539 331.149 541.935C331.149 541.935 331.777 545.264 330.16 546.454" fill="#EEA886"/>
<path d="M306.747 525.104C306.747 525.104 305.168 533.925 301.244 540.484C301.244 540.484 288.495 539.978 279.652 538.661C258.561 535.509 249.721 532.641 244.426 527.649C234.911 518.678 208.388 467.206 208.388 467.206L234.065 450.952L252.123 491.363C254.091 495.349 257.695 501.274 260.284 506.555C263.678 513.481 278.807 519.395 285.567 521.268C285.567 521.268 298.509 525.104 306.747 525.104" fill="#EEA886"/>
<path d="M246.87 472.925L217.681 488.1C217.681 488.1 211.894 476.9 210.2 473.259C205.337 462.82 197.82 447.039 207.274 440.374C227.679 425.989 236.45 449.863 241.462 462.953C243.009 466.989 246.87 472.925 246.87 472.925" fill="#2AA3B8"/>
<path d="M528.1 231.778H503.376V127.794H528.1V231.778Z" fill="url(#paint22_linear)"/>
<path d="M463.743 192.151V167.421H567.733V192.151H463.743Z" fill="url(#paint23_linear)"/>
<path d="M168.518 288.837C160.424 305.946 142.776 315.457 124.968 314.023C120.723 313.678 116.469 312.716 112.333 311.082C111.42 310.721 110.511 310.326 109.611 309.904C100.571 305.624 93.652 298.681 89.3485 290.454C83.1368 278.581 82.372 264.04 88.5448 251C90.5814 246.692 93.2245 242.867 96.3201 239.577C109.11 225.992 129.671 221.517 147.45 229.933C169.535 240.383 178.966 266.753 168.518 288.837V288.837ZM153.766 216.586C130.054 205.364 102.634 211.328 85.5704 229.449C81.4392 233.84 77.9157 238.937 75.197 244.679C66.9664 262.078 67.9842 281.477 76.2681 297.308C82.009 308.281 91.2384 317.547 103.297 323.25C104.496 323.817 105.708 324.345 106.925 324.823C112.443 327.002 118.115 328.286 123.778 328.742C147.531 330.659 171.071 317.969 181.868 295.151C195.803 265.696 183.222 230.522 153.766 216.586" fill="#E0E0E0"/>
<path d="M89.3485 290.454L76.2681 297.308C67.9842 281.477 66.9664 262.078 75.197 244.679C77.9157 238.937 81.4392 233.84 85.5704 229.449L96.3201 239.577C93.2245 242.867 90.5814 246.692 88.5448 250.999C82.372 264.04 83.1368 278.581 89.3485 290.454Z" fill="#2D5BAD"/>
<path d="M112.333 311.082L106.925 324.823C105.708 324.345 104.496 323.817 103.297 323.25C91.2385 317.547 82.0091 308.281 76.2682 297.308L89.3486 290.454C93.6521 298.681 100.571 305.624 109.611 309.904C110.511 310.326 111.42 310.721 112.333 311.082" fill="#5D96FF"/>
<path d="M123.778 328.742C118.115 328.286 112.443 327.002 106.925 324.823L112.333 311.082C116.469 312.716 120.723 313.678 124.968 314.023L123.778 328.742" fill="#5D96FF"/>
<path d="M110.404 367.629H0.228149V365.439H108.214V318.77H110.404V367.629Z" fill="#5D96FF"/>
<path d="M58.2217 355.79H0.227539V342.649H58.2217V355.79Z" fill="#E0E0E0"/>
<defs>
<linearGradient id="paint0_linear" x1="855.47" y1="-38.1788" x2="928.108" y2="201.089" gradientUnits="userSpaceOnUse">
<stop stop-color="#40D5E6"/>
<stop offset="1" stop-color="#5577FF"/>
</linearGradient>
<linearGradient id="paint1_linear" x1="1208.19" y1="-293.412" x2="1352.16" y2="180.813" gradientUnits="userSpaceOnUse">
<stop stop-color="#40D5E6"/>
<stop offset="1" stop-color="#5577FF"/>
</linearGradient>
<linearGradient id="paint2_linear" x1="1388.8" y1="-163.456" x2="1458.09" y2="64.774" gradientUnits="userSpaceOnUse">
<stop stop-color="#40D5E6"/>
<stop offset="1" stop-color="#5577FF"/>
</linearGradient>
<linearGradient id="paint3_linear" x1="545.278" y1="91.178" x2="2331.02" y2="91.178" gradientUnits="userSpaceOnUse">
<stop stop-color="#FF9F55"/>
<stop offset="1" stop-color="#FFD255"/>
</linearGradient>
<linearGradient id="paint4_linear" x1="68.7547" y1="536.11" x2="68.7547" y2="408.429" gradientUnits="userSpaceOnUse">
<stop stop-color="#FF9F55"/>
<stop offset="1" stop-color="#FFD255"/>
</linearGradient>
<linearGradient id="paint5_linear" x1="100.226" y1="536.11" x2="100.226" y2="408.429" gradientUnits="userSpaceOnUse">
<stop stop-color="#FF9F55"/>
<stop offset="1" stop-color="#FFD255"/>
</linearGradient>
<linearGradient id="paint6_linear" x1="131.697" y1="536.11" x2="131.697" y2="408.43" gradientUnits="userSpaceOnUse">
<stop stop-color="#FF9F55"/>
<stop offset="1" stop-color="#FFD255"/>
</linearGradient>
<linearGradient id="paint7_linear" x1="163.168" y1="536.11" x2="163.168" y2="408.43" gradientUnits="userSpaceOnUse">
<stop stop-color="#FF9F55"/>
<stop offset="1" stop-color="#FFD255"/>
</linearGradient>
<linearGradient id="paint8_linear" x1="765.63" y1="958.282" x2="785.152" y2="-150.568" gradientUnits="userSpaceOnUse">
<stop stop-color="#40D5E6"/>
<stop offset="1" stop-color="#5577FF"/>
</linearGradient>
<linearGradient id="paint9_linear" x1="766.528" y1="80.1763" x2="903.139" y2="80.1763" gradientUnits="userSpaceOnUse">
<stop stop-color="#40D5E6"/>
<stop offset="1" stop-color="#5577FF"/>
</linearGradient>
<linearGradient id="paint10_linear" x1="756.633" y1="160.412" x2="880.827" y2="160.412" gradientUnits="userSpaceOnUse">
<stop stop-color="#40D5E6"/>
<stop offset="1" stop-color="#5577FF"/>
</linearGradient>
<linearGradient id="paint11_linear" x1="741.713" y1="136.833" x2="847.595" y2="136.833" gradientUnits="userSpaceOnUse">
<stop stop-color="#40D5E6"/>
<stop offset="1" stop-color="#5577FF"/>
</linearGradient>
<linearGradient id="paint12_linear" x1="515.738" y1="309.064" x2="515.738" y2="176.773" gradientUnits="userSpaceOnUse">
<stop stop-color="#7DB3E0"/>
<stop offset="1" stop-color="white"/>
</linearGradient>
<radialGradient id="paint13_radial" cx="0" cy="0" r="1" gradientUnits="userSpaceOnUse" gradientTransform="translate(1438.13 139.479) scale(639.736)">
<stop stop-color="#90C2E8"/>
<stop offset="0.160246" stop-color="#90C2E8"/>
<stop offset="0.58057" stop-color="#47AFFF"/>
<stop offset="1" stop-color="#6783F5"/>
</radialGradient>
<linearGradient id="paint14_linear" x1="1221.29" y1="-49.0767" x2="1283.55" y2="155.993" gradientUnits="userSpaceOnUse">
<stop stop-color="#F1FCFE"/>
<stop offset="1" stop-color="#F2F5FF"/>
</linearGradient>
<linearGradient id="paint15_linear" x1="360.613" y1="290.77" x2="1737.87" y2="290.77" gradientUnits="userSpaceOnUse">
<stop stop-color="#FFF8F2"/>
<stop offset="1" stop-color="#FFFCF2"/>
</linearGradient>
<linearGradient id="paint16_linear" x1="765.63" y1="958.282" x2="785.152" y2="-150.568" gradientUnits="userSpaceOnUse">
<stop stop-color="#F1FCFE"/>
<stop offset="1" stop-color="#F2F5FF"/>
</linearGradient>
<radialGradient id="paint17_radial" cx="0" cy="0" r="1" gradientUnits="userSpaceOnUse" gradientTransform="translate(1049.23 328.019) scale(493.4)">
<stop stop-color="#F7FBFE"/>
<stop offset="0.160246" stop-color="#F7FBFE"/>
<stop offset="0.58057" stop-color="#F1F9FF"/>
<stop offset="1" stop-color="#F4F6FF"/>
</radialGradient>
<linearGradient id="paint18_linear" x1="131.478" y1="655.619" x2="126.622" y2="460.606" gradientUnits="userSpaceOnUse">
<stop stop-color="#FF9F55"/>
<stop offset="1" stop-color="#FFD255"/>
</linearGradient>
<linearGradient id="paint19_linear" x1="107.78" y1="656.208" x2="102.925" y2="461.196" gradientUnits="userSpaceOnUse">
<stop stop-color="#FF9F55"/>
<stop offset="1" stop-color="#FFD255"/>
</linearGradient>
<linearGradient id="paint20_linear" x1="1084.31" y1="-297.725" x2="1030.88" y2="-97.8684" gradientUnits="userSpaceOnUse">
<stop stop-color="#FF9F55"/>
<stop offset="1" stop-color="#FFD255"/>
</linearGradient>
<linearGradient id="paint21_linear" x1="1081.64" y1="-298.432" x2="1028.21" y2="-98.5838" gradientUnits="userSpaceOnUse">
<stop stop-color="#FF9F55"/>
<stop offset="1" stop-color="#FFD255"/>
</linearGradient>
<linearGradient id="paint22_linear" x1="511.347" y1="112.58" x2="521.866" y2="273.608" gradientUnits="userSpaceOnUse">
<stop stop-color="#40D5E6"/>
<stop offset="1" stop-color="#5577FF"/>
</linearGradient>
<linearGradient id="paint23_linear" x1="511.347" y1="112.58" x2="521.866" y2="273.605" gradientUnits="userSpaceOnUse">
<stop stop-color="#40D5E6"/>
<stop offset="1" stop-color="#5577FF"/>
</linearGradient>
</defs>
</svg>
