<svg width="1213" height="2061" viewBox="0 0 1213 2061" fill="none" xmlns="http://www.w3.org/2000/svg">
<g opacity="0.570596" filter="url(#filter0_f)">
<path opacity="0.570596" d="M977 136H236C180.772 136 136 180.772 136 236V1732C136 1787.23 180.772 1832 236 1832H977C1032.23 1832 1077 1787.23 1077 1732V236C1077 180.772 1032.23 136 977 136Z" fill="url(#paint0_linear)"/>
</g>
<g filter="url(#filter1_d)">
<mask id="mask0" mask-type="alpha" maskUnits="userSpaceOnUse" x="172" y="163" width="856" height="1707">
<path d="M1028 163.645H172V1869.65H1028V163.645Z" fill="white"/>
<path fill-rule="evenodd" clip-rule="evenodd" d="M297 166.645C241.77 166.645 197 211.417 197 266.645V396.064H182C178.13 396.064 175 399.198 175 403.064V457.279C175 461.145 178.13 464.279 182 464.279H197V523.465H182C178.13 523.465 175 526.599 175 530.465V638.85C175 642.716 178.13 645.85 182 645.85H197V678.954H182C178.13 678.954 175 682.088 175 685.954V794.34C175 798.206 178.13 801.34 182 801.34H197V1765.99C197 1821.22 241.77 1865.99 297 1865.99H925.12C980.35 1865.99 1025.12 1821.22 1025.12 1765.99V266.645C1025.12 211.417 980.35 166.645 925.12 166.645H297Z" fill="black"/>
</mask>
<g mask="url(#mask0)">
<path fill-rule="evenodd" clip-rule="evenodd" d="M297 166.645C241.77 166.645 197 211.417 197 266.645V396.064H182C178.13 396.064 175 399.198 175 403.064V457.279C175 461.145 178.13 464.279 182 464.279H197V523.465H182C178.13 523.465 175 526.599 175 530.465V638.85C175 642.716 178.13 645.85 182 645.85H197V678.954H182C178.13 678.954 175 682.088 175 685.954V794.34C175 798.206 178.13 801.34 182 801.34H197V1765.99C197 1821.22 241.77 1865.99 297 1865.99H925.12C980.35 1865.99 1025.12 1821.22 1025.12 1765.99V266.645C1025.12 211.417 980.35 166.645 925.12 166.645H297Z" fill="url(#paint1_linear)"/>
<path d="M197 396.064V398.864H199.8V396.064H197ZM197 464.279H199.8V461.479H197V464.279ZM197 523.465V526.265H199.8V523.465H197ZM197 645.85H199.8V643.05H197V645.85ZM197 678.954V681.754H199.8V678.954H197ZM197 801.34H199.8V798.54H197V801.34ZM199.8 266.645C199.8 212.963 243.32 169.445 297 169.445V163.845C240.22 163.845 194.2 209.871 194.2 266.645H199.8ZM199.8 396.064V266.645H194.2V396.064H199.8ZM182 398.864H197V393.264H182V398.864ZM177.8 403.064C177.8 400.745 179.68 398.864 182 398.864V393.264C176.59 393.264 172.2 397.652 172.2 403.064H177.8ZM177.8 457.279V403.064H172.2V457.279H177.8ZM182 461.479C179.68 461.479 177.8 459.598 177.8 457.279H172.2C172.2 462.691 176.59 467.079 182 467.079V461.479ZM197 461.479H182V467.079H197V461.479ZM199.8 523.465V464.279H194.2V523.465H199.8ZM182 526.265H197V520.665H182V526.265ZM177.8 530.465C177.8 528.146 179.68 526.265 182 526.265V520.665C176.59 520.665 172.2 525.053 172.2 530.465H177.8ZM177.8 638.85V530.465H172.2V638.85H177.8ZM182 643.05C179.68 643.05 177.8 641.17 177.8 638.85H172.2C172.2 644.263 176.59 648.65 182 648.65V643.05ZM197 643.05H182V648.65H197V643.05ZM199.8 678.954V645.85H194.2V678.954H199.8ZM182 681.754H197V676.154H182V681.754ZM177.8 685.954C177.8 683.635 179.68 681.754 182 681.754V676.154C176.59 676.154 172.2 680.542 172.2 685.954H177.8ZM177.8 794.34V685.954H172.2V794.34H177.8ZM182 798.54C179.68 798.54 177.8 796.659 177.8 794.34H172.2C172.2 799.752 176.59 804.14 182 804.14V798.54ZM197 798.54H182V804.14H197V798.54ZM199.8 1765.99V801.34H194.2V1765.99H199.8ZM297 1863.19C243.32 1863.19 199.8 1819.68 199.8 1765.99H194.2C194.2 1822.77 240.22 1868.79 297 1868.79V1863.19ZM925.12 1863.19H297V1868.79H925.12V1863.19ZM1022.32 1765.99C1022.32 1819.68 978.8 1863.19 925.12 1863.19V1868.79C981.89 1868.79 1027.92 1822.77 1027.92 1765.99H1022.32ZM1022.32 266.645V1765.99H1027.92V266.645H1022.32ZM925.12 169.445C978.8 169.445 1022.32 212.963 1022.32 266.645H1027.92C1027.92 209.871 981.89 163.845 925.12 163.845V169.445ZM297 169.445H925.12V163.845H297V169.445Z" fill="black" fill-opacity="0.04"/>
</g>
</g>
<path fill-rule="evenodd" clip-rule="evenodd" d="M235 287V1741C235 1787.94 273.06 1826 320 1826H900C946.94 1826 985 1787.94 985 1741V287C985 240.056 946.94 202 900 202H320C273.06 202 235 240.056 235 287Z" fill="#FF3B3B"/>
<path d="M900 202H320C273.056 202 235 240.056 235 287V1741C235 1787.94 273.056 1826 320 1826H900C946.944 1826 985 1787.94 985 1741V287C985 240.056 946.944 202 900 202Z" fill="#F6F6F6" stroke="#979797"/>
<mask id="mask1" mask-type="alpha" maskUnits="userSpaceOnUse" x="234" y="201" width="752" height="1626">
<path d="M900 202H320C273.056 202 235 240.056 235 287V1741C235 1787.94 273.056 1826 320 1826H900C946.944 1826 985 1787.94 985 1741V287C985 240.056 946.944 202 900 202Z" fill="white" stroke="white"/>
</mask>
<g mask="url(#mask1)">
<rect x="406" y="762.826" width="93.1739" height="93.1739" rx="14" fill="#00B4DF"/>
<path fill-rule="evenodd" clip-rule="evenodd" d="M435.177 800.257C435.177 789.625 443.794 781.001 454.413 781.001H455.256C465.882 781.001 474.492 789.619 474.492 800.26C474.492 804.475 473.52 807.624 471.388 811.894C471.247 812.176 470.511 813.626 470.315 814.021C469.938 814.783 469.66 815.388 469.43 815.959C468.895 817.285 468.637 818.403 468.637 819.518C468.637 821.834 469.213 824.214 470.178 826.509C470.519 827.32 470.884 828.06 471.248 828.711C471.46 829.093 471.621 829.353 471.702 829.475C472.308 830.385 471.894 831.623 470.862 831.984L454.132 837.846C453.251 838.155 452.288 837.681 451.992 836.795L449.028 827.892H443.542C438.919 827.892 435.177 824.147 435.177 819.514V815.332H433.502C431.395 815.332 430.115 813.442 430.898 811.482L435.177 800.774V800.257ZM446.888 801.097C446.888 796.934 450.258 793.561 454.416 793.561C458.574 793.561 461.945 796.934 461.945 801.097C461.945 802.022 462.694 802.772 463.618 802.772C464.542 802.772 465.291 802.022 465.291 801.097C465.291 795.084 460.422 790.211 454.416 790.211C448.41 790.211 443.542 795.085 443.542 801.097C443.542 802.022 444.291 802.772 445.215 802.772C446.139 802.772 446.888 802.022 446.888 801.097ZM453.756 801.185C452.69 801.474 451.906 802.45 451.906 803.609C451.906 804.996 453.03 806.121 454.415 806.121C455.801 806.121 456.925 804.996 456.925 803.609C456.925 803.282 456.862 802.969 456.749 802.682L458.421 799.334C458.835 798.507 458.5 797.501 457.673 797.087C456.847 796.673 455.842 797.009 455.429 797.836L453.756 801.185V801.185Z" fill="white"/>
<rect x="511.252" y="762.826" width="93.1739" height="93.1739" rx="14" fill="#FBD020"/>
<path d="M537.613 819.405V819.405C543.126 819.405 547.595 823.874 547.595 829.386V829.386C547.595 832.229 549.908 834.542 552.752 834.542H562.673C565.516 834.542 567.83 832.229 567.83 829.386V829.386C567.83 823.874 572.299 819.405 577.811 819.405V819.405C580.654 819.405 582.969 817.091 582.969 814.247V804.325C582.969 801.482 580.656 799.169 577.811 799.169C577.811 799.169 577.811 799.169 577.811 799.169V799.169C577.811 799.169 567.83 794.7 567.83 789.187V789.187C567.83 786.343 565.517 784.03 562.673 784.03H552.752C549.909 784.03 547.595 786.343 547.595 789.187V789.187C547.595 794.7 543.126 799.168 537.613 799.169V799.169C534.77 799.169 532.456 801.482 532.456 804.325V814.247C532.456 817.09 534.769 819.405 537.613 819.405Z" fill="white" stroke="white" stroke-width="1.75396"/>
<path fill-rule="evenodd" clip-rule="evenodd" d="M567.546 809.714C566.24 809.714 565.076 808.889 564.643 807.657L561.905 799.867C561.708 799.304 560.903 799.341 560.757 799.919L559.76 803.883C558.885 807.36 554.002 807.516 552.906 804.103V804.103C552.734 803.565 551.986 803.539 551.777 804.064L551.598 804.514C550.347 807.654 547.31 809.714 543.93 809.714V809.714C543.599 809.714 543.33 809.984 543.33 810.317C543.33 810.65 543.599 810.92 543.93 810.92H549.933C550.179 810.92 550.4 810.769 550.491 810.541V810.541C551.092 809.032 553.251 809.106 553.747 810.652L556.216 818.339C556.401 818.916 557.221 818.889 557.369 818.302L559.27 810.751C559.915 808.186 563.498 808.022 564.375 810.517V810.517C564.46 810.758 564.687 810.92 564.941 810.92H567.823C568.882 810.92 569.886 811.824 570.944 811.824V811.824C571.779 811.824 572.445 811.149 572.445 810.317C572.445 809.478 571.773 808.809 570.944 808.809V808.809C569.885 808.809 568.882 809.714 567.823 809.714H567.546Z" fill="#FBD020" stroke="#FBD020" stroke-width="1.75396"/>
<rect x="616.504" y="762.826" width="93.1739" height="93.1739" rx="14" fill="#DA2C6C"/>
<path d="M663.095 791.822C666.719 791.822 669.656 788.884 669.656 785.261C669.656 781.638 666.719 778.7 663.095 778.7C659.472 778.7 656.534 781.638 656.534 785.261C656.534 788.884 659.472 791.822 663.095 791.822Z" fill="white"/>
<path fill-rule="evenodd" clip-rule="evenodd" d="M680.818 799.47C682.377 798.951 684 799.795 684.52 801.354C684.975 802.913 684.13 804.537 682.506 805.187C681.012 805.706 673.477 807.85 669.97 804.082C669.754 803.867 669.628 803.697 669.48 803.497V803.497C669.452 803.458 669.391 803.48 669.393 803.528L669.84 812.267V812.527L669.255 836.886C669.255 838.9 667.631 840.459 665.617 840.459H665.552C663.539 840.394 661.915 838.705 661.98 836.691L662.149 829.751C662.162 829.213 661.673 828.831 661.135 828.831V828.831C660.616 828.831 660.161 828.701 659.641 828.507C647.819 823.115 647.819 821.231 647.819 819.348C647.819 817.778 647.88 816.269 655.744 811.067C656.271 810.718 656.605 810.138 656.633 809.506L656.868 804.188C656.882 803.879 656.482 803.734 656.263 803.953V803.953C654.704 805.577 652.366 806.096 650.092 806.096C647.234 806.096 644.571 805.317 643.727 805.057C642.233 804.537 641.323 802.913 641.843 801.354C642.362 799.86 643.986 798.951 645.545 799.47C647.393 800.072 649.383 800.304 650.688 800.242C651.624 800.197 652.339 799.556 652.84 798.764C652.855 798.74 652.87 798.716 652.886 798.691C653.99 796.872 655.874 793.884 660.161 793.884H666.202C670.489 793.884 672.373 796.872 673.477 798.691C673.533 798.78 673.587 798.867 673.639 798.952C673.891 799.361 674.106 799.71 674.322 799.925C674.906 800.445 678.024 800.38 680.818 799.47ZM661.809 815.771C661.061 816.261 660.306 816.755 659.581 817.238C658.404 818.025 658.5 819.741 659.769 820.369C659.812 820.39 659.855 820.412 659.898 820.433C661.07 821.009 662.399 820.147 662.426 818.842L662.482 816.144C662.489 815.795 662.102 815.58 661.809 815.771V815.771Z" fill="white"/>
<rect x="721.756" y="762.826" width="93.1739" height="93.1739" rx="14" fill="#7DDE7A"/>
<path fill-rule="evenodd" clip-rule="evenodd" d="M768.851 793.688C770.616 797.433 773.731 799.209 777.869 799.298C778.116 799.303 778.372 799.314 778.637 799.332C783.858 799.5 788.573 803.542 790.089 808.594C792.952 817.689 786.047 835.54 776.111 835.035C772.743 834.866 769.88 833.519 766.68 833.856C763.985 834.193 760.954 835.708 757.922 834.866C751.018 832.846 745.797 822.572 745.292 816.004C744.45 802.7 755.396 796.3 763.817 800.342V800.342C765.539 801.491 767.661 800.247 767.303 798.208C766.882 795.81 765.751 794.079 764.493 792.469C764.004 791.844 763.971 790.959 764.494 790.363V790.363C765.033 789.749 765.95 789.773 766.517 790.36C767.565 791.445 768.311 792.542 768.851 793.688Z" fill="white"/>
<path fill-rule="evenodd" clip-rule="evenodd" d="M772.843 790.211C769.926 793.659 772.183 797.185 776.564 796.09V796.09C783.784 794.285 777.65 784.529 772.843 790.211V790.211Z" fill="white"/>
<path fill-rule="evenodd" clip-rule="evenodd" d="M486.706 722.158C489.812 724.051 493.286 724.998 497.13 724.998C504.121 724.998 509.455 722.339 513.132 717.02L509.998 714.639C508.327 716.783 506.468 718.342 504.421 719.317C502.373 720.292 500.013 720.779 497.339 720.779C492.882 720.779 489.185 719.074 486.246 715.662C483.308 712.251 481.838 707.983 481.838 702.859V701.898H514.093V699.099C514.093 692.611 512.484 687.493 509.267 683.748C506.05 680.002 501.698 678.129 496.211 678.129C492.701 678.129 489.442 679.125 486.434 681.116C483.426 683.107 481.079 685.843 479.394 689.324C477.709 692.806 476.867 696.718 476.867 701.063V702.859C476.867 707.064 477.73 710.858 479.457 714.242C481.184 717.625 483.6 720.264 486.706 722.158ZM460.384 706.702C462.376 708.206 463.372 710.197 463.372 712.675C463.372 715.015 462.299 716.95 460.155 718.482C458.01 720.013 455.197 720.779 451.715 720.779C447.982 720.779 444.981 719.965 442.711 718.336C440.441 716.706 439.209 714.43 439.014 711.506H434C434 715.405 435.636 718.628 438.909 721.176C442.182 723.724 446.451 724.998 451.715 724.998C456.673 724.998 460.691 723.857 463.769 721.573C466.846 719.289 468.385 716.24 468.385 712.425C468.385 710.085 467.856 708.094 466.798 706.451C465.739 704.808 464.117 703.402 461.93 702.232C459.744 701.063 456.457 699.963 452.07 698.932C447.683 697.902 444.661 696.767 443.004 695.528C441.346 694.288 440.518 692.541 440.518 690.285C440.518 687.946 441.513 686.045 443.505 684.583C445.497 683.121 448.136 682.39 451.422 682.39C454.793 682.39 457.585 683.267 459.799 685.022C462.014 686.776 463.121 688.976 463.121 691.622H468.135C468.135 687.612 466.61 684.36 463.56 681.868C460.51 679.376 456.464 678.129 451.422 678.129C446.771 678.129 442.955 679.292 439.975 681.617C436.994 683.943 435.504 686.888 435.504 690.452C435.504 692.708 436.04 694.63 437.113 696.217C438.185 697.804 439.828 699.148 442.043 700.248C444.257 701.348 447.37 702.323 451.381 703.172C455.392 704.021 458.393 705.198 460.384 706.702ZM496.211 682.39C492.45 682.39 489.282 683.769 486.706 686.526C484.129 689.283 482.562 692.986 482.005 697.637H509.121V697.094C508.981 692.75 507.742 689.213 505.402 686.484C503.063 683.755 499.999 682.39 496.211 682.39ZM528.758 686.693L528.591 678.965H523.828V724.163H528.799V693.209C529.941 689.923 531.703 687.312 534.085 685.377C536.466 683.441 539.203 682.474 542.294 682.474C545.999 682.474 548.694 683.462 550.379 685.44C552.064 687.417 552.921 690.424 552.948 694.462V724.163H557.92V694.504C557.892 689.046 556.695 684.952 554.327 682.223C551.96 679.494 548.353 678.129 543.506 678.129C540.442 678.129 537.643 678.86 535.108 680.322C532.574 681.784 530.457 683.908 528.758 686.693ZM597.904 712.675C597.904 710.197 596.908 708.206 594.917 706.702C592.925 705.198 589.924 704.021 585.913 703.172C581.902 702.323 578.789 701.348 576.575 700.248C574.361 699.148 572.717 697.804 571.645 696.217C570.573 694.63 570.036 692.708 570.036 690.452C570.036 686.888 571.527 683.943 574.507 681.617C577.487 679.292 581.303 678.129 585.955 678.129C590.996 678.129 595.042 679.376 598.092 681.868C601.142 684.36 602.667 687.612 602.667 691.622H597.653C597.653 688.976 596.546 686.776 594.332 685.022C592.117 683.267 589.325 682.39 585.955 682.39C582.668 682.39 580.029 683.121 578.037 684.583C576.046 686.045 575.05 687.946 575.05 690.285C575.05 692.541 575.879 694.288 577.536 695.528C579.193 696.767 582.215 697.902 586.602 698.932C590.989 699.963 594.276 701.063 596.462 702.232C598.649 703.402 600.271 704.808 601.33 706.451C602.388 708.094 602.918 710.085 602.918 712.425C602.918 716.24 601.379 719.289 598.301 721.573C595.223 723.856 591.205 724.998 586.247 724.998C580.983 724.998 576.714 723.724 573.442 721.176C570.169 718.628 568.532 715.405 568.532 711.506H573.546C573.741 714.43 574.973 716.706 577.244 718.336C579.514 719.965 582.515 720.779 586.247 720.779C589.729 720.779 592.542 720.013 594.687 718.482C596.832 716.95 597.904 715.015 597.904 712.675ZM621.238 722.158C624.344 724.051 627.819 724.998 631.663 724.998C638.654 724.998 643.988 722.339 647.664 717.02L644.531 714.639C642.86 716.783 641.001 718.342 638.953 719.317C636.906 720.292 634.545 720.779 631.871 720.779C627.415 720.779 623.717 719.074 620.779 715.662C617.84 712.251 616.371 707.983 616.371 702.859V701.898H648.625V699.099C648.625 692.611 647.017 687.493 643.8 683.748C640.583 680.002 636.231 678.129 630.743 678.129C627.234 678.129 623.975 679.125 620.967 681.116C617.959 683.107 615.612 685.843 613.927 689.324C612.242 692.806 611.399 696.718 611.399 701.063V702.859C611.399 707.064 612.263 710.858 613.989 714.242C615.716 717.625 618.133 720.264 621.238 722.158ZM630.744 682.39C626.984 682.39 623.815 683.769 621.239 686.526C618.662 689.283 617.096 692.986 616.539 697.637H643.654V697.094C643.515 692.75 642.275 689.213 639.936 686.484C637.596 683.755 634.532 682.39 630.744 682.39ZM658.841 718.67C658.215 719.352 657.901 720.18 657.901 721.155C657.901 722.13 658.215 722.931 658.841 723.557C659.468 724.184 660.339 724.497 661.453 724.497C662.567 724.497 663.444 724.184 664.085 723.557C664.725 722.931 665.046 722.13 665.046 721.155C665.046 720.18 664.725 719.352 664.085 718.67C663.444 717.987 662.567 717.646 661.453 717.646C660.339 717.646 659.468 717.987 658.841 718.67Z" fill="#2AA9E0"/>
<path d="M486.706 722.158L485.833 723.589L485.833 723.589L486.706 722.158ZM513.132 717.02L514.511 717.973L515.422 716.655L514.146 715.685L513.132 717.02ZM509.998 714.639L511.013 713.304L509.694 712.302L508.676 713.608L509.998 714.639ZM486.246 715.662L484.976 716.756L484.976 716.756L486.246 715.662ZM481.838 701.898V700.222H480.162V701.898H481.838ZM514.093 701.898V703.574H515.769V701.898H514.093ZM509.267 683.748L510.539 682.656L510.539 682.656L509.267 683.748ZM486.434 681.116L487.359 682.514L487.359 682.514L486.434 681.116ZM479.394 689.324L477.886 688.594L477.886 688.594L479.394 689.324ZM479.457 714.242L477.964 715.004L477.964 715.004L479.457 714.242ZM460.384 706.702L461.394 705.364L461.394 705.364L460.384 706.702ZM460.155 718.482L459.18 717.118L459.18 717.118L460.155 718.482ZM442.711 718.336L441.734 719.697L441.734 719.697L442.711 718.336ZM439.014 711.506L440.686 711.394L440.582 709.83H439.014V711.506ZM434 711.506V709.83H432.324V711.506H434ZM438.909 721.176L439.939 719.853L439.939 719.853L438.909 721.176ZM463.769 721.573L462.77 720.227L462.77 720.227L463.769 721.573ZM466.798 706.451L468.207 705.543L468.207 705.543L466.798 706.451ZM461.93 702.232L461.14 703.71L461.14 703.71L461.93 702.232ZM452.07 698.932L452.453 697.3L452.453 697.3L452.07 698.932ZM443.004 695.528L444.007 694.185L444.007 694.185L443.004 695.528ZM443.505 684.583L442.513 683.232L442.513 683.232L443.505 684.583ZM463.121 691.622H461.445V693.298H463.121V691.622ZM468.135 691.622V693.298H469.811V691.622H468.135ZM463.56 681.868L464.62 680.57L464.62 680.57L463.56 681.868ZM439.975 681.617L438.943 680.296L438.943 680.296L439.975 681.617ZM437.113 696.217L435.724 697.155L435.724 697.155L437.113 696.217ZM442.043 700.248L442.788 698.747L442.788 698.747L442.043 700.248ZM451.381 703.172L451.033 704.812L451.033 704.812L451.381 703.172ZM486.706 686.526L485.481 685.381L485.481 685.381L486.706 686.526ZM482.005 697.637L480.341 697.438L480.116 699.313H482.005V697.637ZM509.121 697.637V699.313H510.797V697.637H509.121ZM509.121 697.094H510.797V697.067L510.796 697.04L509.121 697.094ZM528.591 678.965L530.266 678.929L530.231 677.289H528.591V678.965ZM528.758 686.693L527.082 686.729L527.206 692.455L530.189 687.566L528.758 686.693ZM523.828 678.965V677.289H522.151V678.965H523.828ZM523.828 724.163H522.151V725.839H523.828V724.163ZM528.799 724.163V725.839H530.476V724.163H528.799ZM528.799 693.209L527.216 692.659L527.123 692.926V693.209H528.799ZM550.379 685.44L549.103 686.527L549.103 686.527L550.379 685.44ZM552.948 694.462H554.625L554.625 694.451L552.948 694.462ZM552.948 724.163H551.272V725.839H552.948V724.163ZM557.92 724.163V725.839H559.597V724.163H557.92ZM557.92 694.504H559.597L559.596 694.496L557.92 694.504ZM554.327 682.223L553.061 683.321L553.061 683.321L554.327 682.223ZM535.108 680.322L535.946 681.774L535.946 681.774L535.108 680.322ZM594.917 706.702L595.927 705.364L595.927 705.364L594.917 706.702ZM585.913 703.172L585.566 704.812L585.566 704.812L585.913 703.172ZM576.575 700.248L575.829 701.749L575.829 701.749L576.575 700.248ZM571.645 696.217L573.034 695.279L573.034 695.279L571.645 696.217ZM598.092 681.868L599.153 680.57L599.153 680.57L598.092 681.868ZM602.667 691.622V693.298H604.343V691.622H602.667ZM597.653 691.622H595.977V693.298H597.653V691.622ZM577.536 695.528L576.532 696.87L576.532 696.87L577.536 695.528ZM586.602 698.932L586.219 700.564L586.219 700.564L586.602 698.932ZM596.462 702.232L595.672 703.71L595.672 703.71L596.462 702.232ZM598.301 721.573L597.302 720.227L597.302 720.227L598.301 721.573ZM568.532 711.506V709.83H566.856V711.506H568.532ZM573.546 711.506L575.218 711.394L575.114 709.83H573.546V711.506ZM577.244 718.336L578.221 716.974L578.221 716.974L577.244 718.336ZM594.687 718.482L593.713 717.118L593.713 717.118L594.687 718.482ZM621.238 722.158L622.111 720.727L622.111 720.727L621.238 722.158ZM647.664 717.02L649.043 717.973L649.954 716.655L648.679 715.685L647.664 717.02ZM644.531 714.639L645.545 713.304L644.227 712.302L643.209 713.608L644.531 714.639ZM638.953 719.317L638.233 717.804L638.233 717.804L638.953 719.317ZM616.371 701.898V700.222H614.695V701.898H616.371ZM648.625 701.898V703.574H650.302V701.898H648.625ZM643.8 683.748L642.528 684.84L642.528 684.84L643.8 683.748ZM620.967 681.116L620.042 679.718L620.042 679.718L620.967 681.116ZM613.927 689.324L612.418 688.594L612.418 688.594L613.927 689.324ZM621.239 686.526L620.014 685.381L620.014 685.381L621.239 686.526ZM616.539 697.637L614.874 697.438L614.65 699.313H616.539V697.637ZM643.654 697.637V699.313H645.33V697.637H643.654ZM643.654 697.094H645.33V697.067L645.329 697.04L643.654 697.094ZM639.936 686.484L638.663 687.575L638.663 687.575L639.936 686.484ZM658.841 723.557L660.027 722.372L660.027 722.372L658.841 723.557ZM664.085 723.557L665.257 724.755L665.257 724.755L664.085 723.557ZM664.085 718.67L665.307 717.522L665.307 717.522L664.085 718.67ZM497.13 723.322C493.576 723.322 490.406 722.451 487.578 720.727L485.833 723.589C489.217 725.652 492.997 726.674 497.13 726.674V723.322ZM511.753 716.067C508.418 720.891 503.624 723.322 497.13 723.322V726.674C504.619 726.674 510.492 723.786 514.511 717.973L511.753 716.067ZM508.984 715.973L512.118 718.354L514.146 715.685L511.013 713.304L508.984 715.973ZM505.141 720.831C507.466 719.724 509.521 717.978 511.32 715.669L508.676 713.608C507.134 715.588 505.47 716.961 503.7 717.804L505.141 720.831ZM497.339 722.455C500.218 722.455 502.832 721.93 505.141 720.831L503.7 717.804C501.915 718.654 499.808 719.103 497.339 719.103V722.455ZM484.976 716.756C488.229 720.533 492.389 722.455 497.339 722.455V719.103C493.376 719.103 490.14 717.614 487.516 714.568L484.976 716.756ZM480.162 702.859C480.162 708.325 481.74 712.998 484.976 716.756L487.516 714.568C484.876 711.503 483.515 707.64 483.515 702.859H480.162ZM480.162 701.898V702.859H483.515V701.898H480.162ZM514.093 700.222H481.838V703.574H514.093V700.222ZM512.417 699.099V701.898H515.769V699.099H512.417ZM507.996 684.84C510.879 688.197 512.417 692.883 512.417 699.099H515.769C515.769 692.338 514.09 686.79 510.539 682.656L507.996 684.84ZM496.211 679.806C501.27 679.806 505.135 681.509 507.996 684.84L510.539 682.656C506.965 678.495 502.126 676.453 496.211 676.453V679.806ZM487.359 682.514C490.101 680.699 493.04 679.806 496.211 679.806V676.453C492.363 676.453 488.784 677.551 485.509 679.718L487.359 682.514ZM480.903 690.055C482.467 686.824 484.62 684.327 487.359 682.514L485.509 679.718C482.232 681.888 479.692 684.862 477.886 688.594L480.903 690.055ZM478.543 701.063C478.543 696.94 479.341 693.281 480.903 690.055L477.886 688.594C476.077 692.33 475.19 696.497 475.19 701.063H478.543ZM478.543 702.859V701.063H475.19V702.859H478.543ZM480.95 713.48C479.356 710.357 478.543 706.828 478.543 702.859H475.19C475.19 707.3 476.104 711.36 477.964 715.004L480.95 713.48ZM487.578 720.727C484.75 719.002 482.542 716.6 480.95 713.48L477.964 715.004C479.825 718.651 482.451 721.526 485.833 723.589L487.578 720.727ZM465.048 712.675C465.048 709.667 463.802 707.182 461.394 705.364L459.374 708.04C460.95 709.229 461.695 710.727 461.695 712.675H465.048ZM461.129 719.846C463.649 718.046 465.048 715.631 465.048 712.675H461.695C461.695 714.399 460.949 715.855 459.18 717.118L461.129 719.846ZM451.715 722.455C455.435 722.455 458.621 721.637 461.129 719.846L459.18 717.118C457.399 718.39 454.958 719.103 451.715 719.103V722.455ZM441.734 719.697C444.371 721.59 447.748 722.455 451.715 722.455V719.103C448.217 719.103 445.592 718.34 443.689 716.974L441.734 719.697ZM437.341 711.617C437.568 715.013 439.035 717.76 441.734 719.697L443.689 716.974C441.848 715.653 440.85 713.847 440.686 711.394L437.341 711.617ZM434 713.182H439.014V709.83H434V713.182ZM439.939 719.853C437.044 717.599 435.676 714.851 435.676 711.506H432.324C432.324 715.959 434.229 719.656 437.879 722.499L439.939 719.853ZM451.715 723.322C446.722 723.322 442.846 722.117 439.939 719.853L437.879 722.499C441.518 725.332 446.179 726.674 451.715 726.674V723.322ZM462.77 720.227C460.056 722.241 456.419 723.322 451.715 723.322V726.674C456.927 726.674 461.326 725.472 464.767 722.919L462.77 720.227ZM466.709 712.425C466.709 715.706 465.424 718.258 462.77 720.227L464.767 722.919C468.269 720.321 470.061 716.773 470.061 712.425H466.709ZM465.388 707.359C466.241 708.682 466.709 710.343 466.709 712.425H470.061C470.061 709.828 469.471 707.507 468.207 705.543L465.388 707.359ZM461.14 703.71C463.141 704.781 464.52 706.012 465.388 707.359L468.207 705.543C466.958 703.605 465.092 702.023 462.721 700.754L461.14 703.71ZM451.687 700.564C456.027 701.583 459.146 702.644 461.14 703.71L462.721 700.754C460.341 699.481 456.887 698.342 452.453 697.3L451.687 700.564ZM442 696.87C443.957 698.333 447.278 699.528 451.687 700.564L452.453 697.3C448.088 696.275 445.365 695.201 444.007 694.185L442 696.87ZM438.842 690.285C438.842 693.014 439.877 695.283 442 696.87L444.007 694.185C442.816 693.294 442.194 692.068 442.194 690.285H438.842ZM442.513 683.232C440.12 684.989 438.842 687.378 438.842 690.285H442.194C442.194 688.514 442.907 687.101 444.497 685.934L442.513 683.232ZM451.422 680.714C447.896 680.714 444.874 681.499 442.513 683.232L444.497 685.934C446.119 684.744 448.376 684.066 451.422 684.066V680.714ZM460.84 683.708C458.275 681.676 455.095 680.714 451.422 680.714V684.066C454.49 684.066 456.895 684.859 458.758 686.336L460.84 683.708ZM464.797 691.622C464.797 688.426 463.425 685.756 460.84 683.708L458.758 686.336C460.603 687.797 461.445 689.527 461.445 691.622H464.797ZM468.135 689.946H463.121V693.298H468.135V689.946ZM462.499 683.166C465.151 685.333 466.458 688.104 466.458 691.622H469.811C469.811 687.119 468.068 683.388 464.62 680.57L462.499 683.166ZM451.422 679.806C456.188 679.806 459.824 680.98 462.499 683.166L464.62 680.57C461.195 677.771 456.74 676.453 451.422 676.453V679.806ZM441.006 682.939C443.629 680.892 447.056 679.806 451.422 679.806V676.453C446.486 676.453 442.281 677.692 438.943 680.296L441.006 682.939ZM437.18 690.452C437.18 687.439 438.404 684.969 441.006 682.939L438.943 680.296C435.585 682.917 433.828 686.336 433.828 690.452H437.18ZM438.502 695.279C437.648 694.015 437.18 692.434 437.18 690.452H433.828C433.828 692.982 434.433 695.244 435.724 697.155L438.502 695.279ZM442.788 698.747C440.76 697.739 439.371 696.566 438.502 695.279L435.724 697.155C436.999 699.043 438.897 700.557 441.297 701.749L442.788 698.747ZM451.728 701.532C447.777 700.696 444.821 699.756 442.788 698.747L441.297 701.749C443.693 702.94 446.962 703.95 451.033 704.812L451.728 701.532ZM461.394 705.364C459.12 703.647 455.843 702.404 451.728 701.532L451.033 704.812C454.94 705.639 457.666 706.749 459.374 708.04L461.394 705.364ZM487.93 687.67C490.191 685.251 492.916 684.066 496.211 684.066V680.714C491.984 680.714 488.373 682.286 485.481 685.381L487.93 687.67ZM483.67 697.837C484.195 693.453 485.65 690.11 487.93 687.67L485.481 685.381C482.608 688.456 480.93 692.52 480.341 697.438L483.67 697.837ZM509.121 695.961H482.005V699.313H509.121V695.961ZM507.444 697.094V697.637H510.797V697.094H507.444ZM504.13 687.575C506.172 689.957 507.316 693.102 507.445 697.148L510.796 697.04C510.647 692.397 509.312 688.469 506.675 685.393L504.13 687.575ZM496.211 684.066C499.539 684.066 502.127 685.239 504.13 687.575L506.675 685.393C503.998 682.27 500.458 680.714 496.211 680.714V684.066ZM526.915 679.001L527.082 686.729L530.433 686.657L530.266 678.929L526.915 679.001ZM523.828 680.641H528.591V677.289H523.828V680.641ZM525.504 724.163V678.965H522.151V724.163H525.504ZM528.799 722.487H523.828V725.839H528.799V722.487ZM527.123 693.209V724.163H530.476V693.209H527.123ZM533.027 684.076C530.373 686.233 528.446 689.119 527.216 692.659L530.383 693.76C531.436 690.727 533.033 688.391 535.142 686.678L533.027 684.076ZM542.294 680.798C538.821 680.798 535.71 681.896 533.027 684.076L535.142 686.678C537.222 684.987 539.585 684.15 542.294 684.15V680.798ZM551.655 684.352C549.533 681.863 546.274 680.798 542.294 680.798V684.15C545.724 684.15 547.854 685.061 549.103 686.527L551.655 684.352ZM554.625 694.451C554.595 690.226 553.704 686.757 551.655 684.352L549.103 686.527C550.424 688.077 551.246 690.623 551.272 694.474L554.625 694.451ZM554.625 724.163V694.462H551.272V724.163H554.625ZM557.92 722.487H552.948V725.839H557.92V722.487ZM556.244 694.504V724.163H559.597V694.504H556.244ZM553.061 683.321C555.061 685.626 556.217 689.258 556.244 694.513L559.596 694.496C559.568 688.834 558.329 684.278 555.593 681.125L553.061 683.321ZM543.506 679.806C548.042 679.806 551.111 681.074 553.061 683.321L555.593 681.125C552.808 677.914 548.663 676.453 543.506 676.453V679.806ZM535.946 681.774C538.214 680.466 540.722 679.806 543.506 679.806V676.453C540.163 676.453 537.072 677.254 534.271 678.87L535.946 681.774ZM530.189 687.566C531.759 684.992 533.681 683.081 535.946 681.774L534.271 678.87C531.466 680.488 529.155 682.823 527.327 685.82L530.189 687.566ZM593.907 708.04C595.482 709.229 596.228 710.727 596.228 712.675H599.58C599.58 709.667 598.334 707.182 595.927 705.364L593.907 708.04ZM585.566 704.812C589.472 705.639 592.198 706.749 593.907 708.04L595.927 705.364C593.652 703.647 590.376 702.404 586.26 701.532L585.566 704.812ZM575.829 701.749C578.226 702.94 581.494 703.95 585.566 704.812L586.26 701.532C582.31 700.696 579.353 699.756 577.321 698.747L575.829 701.749ZM570.256 697.155C571.531 699.043 573.429 700.557 575.829 701.749L577.321 698.747C575.292 697.739 573.904 696.566 573.034 695.279L570.256 697.155ZM568.36 690.452C568.36 692.982 568.965 695.244 570.256 697.155L573.034 695.279C572.18 694.015 571.713 692.434 571.713 690.452H568.36ZM573.476 680.296C570.117 682.917 568.36 686.336 568.36 690.452H571.713C571.713 687.439 572.936 684.969 575.538 682.939L573.476 680.296ZM585.955 676.453C581.018 676.453 576.814 677.692 573.476 680.296L575.538 682.939C578.161 680.892 581.588 679.806 585.955 679.806V676.453ZM599.153 680.57C595.728 677.771 591.273 676.453 585.955 676.453V679.806C590.72 679.806 594.356 680.98 597.031 683.166L599.153 680.57ZM604.343 691.622C604.343 687.119 602.6 683.388 599.153 680.57L597.031 683.166C599.684 685.333 600.991 688.104 600.991 691.622H604.343ZM597.653 693.298H602.667V689.946H597.653V693.298ZM593.291 686.336C595.135 687.797 595.977 689.527 595.977 691.622H599.329C599.329 688.426 597.957 685.756 595.373 683.708L593.291 686.336ZM585.955 684.066C589.023 684.066 591.427 684.859 593.291 686.336L595.373 683.708C592.808 681.676 589.627 680.714 585.955 680.714V684.066ZM579.029 685.934C580.651 684.744 582.908 684.066 585.955 684.066V680.714C582.428 680.714 579.406 681.499 577.045 683.232L579.029 685.934ZM576.726 690.285C576.726 688.514 577.44 687.101 579.029 685.934L577.045 683.232C574.652 684.989 573.374 687.378 573.374 690.285H576.726ZM578.54 694.185C577.348 693.294 576.726 692.068 576.726 690.285H573.374C573.374 693.014 574.409 695.283 576.532 696.87L578.54 694.185ZM586.986 697.3C582.62 696.275 579.897 695.201 578.54 694.185L576.532 696.87C578.489 698.333 581.811 699.528 586.219 700.564L586.986 697.3ZM597.253 700.754C594.874 699.481 591.419 698.342 586.986 697.3L586.219 700.564C590.56 701.583 593.678 702.644 595.672 703.71L597.253 700.754ZM602.739 705.543C601.49 703.605 599.625 702.023 597.253 700.754L595.672 703.71C597.673 704.781 599.053 706.012 599.921 707.359L602.739 705.543ZM604.594 712.425C604.594 709.828 604.004 707.507 602.739 705.543L599.921 707.359C600.773 708.682 601.241 710.343 601.241 712.425H604.594ZM599.3 722.919C602.801 720.321 604.594 716.773 604.594 712.425H601.241C601.241 715.706 599.956 718.258 597.302 720.227L599.3 722.919ZM586.247 726.674C591.459 726.674 595.858 725.472 599.3 722.919L597.302 720.227C594.588 722.241 590.951 723.322 586.247 723.322V726.674ZM572.412 722.499C576.05 725.332 580.712 726.674 586.247 726.674V723.322C581.254 723.322 577.378 722.117 574.471 719.853L572.412 722.499ZM566.856 711.506C566.856 715.959 568.761 719.656 572.412 722.499L574.471 719.853C571.576 717.599 570.209 714.851 570.209 711.506H566.856ZM573.546 709.83H568.532V713.182H573.546V709.83ZM578.221 716.974C576.38 715.653 575.382 713.847 575.218 711.394L571.873 711.617C572.1 715.013 573.567 717.76 576.266 719.697L578.221 716.974ZM586.247 719.103C582.749 719.103 580.124 718.34 578.221 716.974L576.266 719.697C578.903 721.59 582.28 722.455 586.247 722.455V719.103ZM593.713 717.118C591.931 718.39 589.491 719.103 586.247 719.103V722.455C589.967 722.455 593.153 721.637 595.661 719.846L593.713 717.118ZM596.228 712.675C596.228 714.399 595.481 715.855 593.713 717.118L595.661 719.846C598.182 718.046 599.58 715.631 599.58 712.675H596.228ZM631.663 723.322C628.108 723.322 624.939 722.451 622.111 720.727L620.366 723.589C623.749 725.652 627.529 726.674 631.663 726.674V723.322ZM646.286 716.067C642.951 720.891 638.156 723.322 631.663 723.322V726.674C639.152 726.674 645.025 723.786 649.043 717.973L646.286 716.067ZM643.517 715.973L646.65 718.354L648.679 715.685L645.545 713.304L643.517 715.973ZM639.674 720.831C641.999 719.724 644.053 717.978 645.853 715.669L643.209 713.608C641.666 715.588 640.002 716.961 638.233 717.804L639.674 720.831ZM631.871 722.455C634.75 722.455 637.365 721.93 639.674 720.831L638.233 717.804C636.447 718.654 634.34 719.103 631.871 719.103V722.455ZM619.509 716.756C622.762 720.533 626.921 722.455 631.871 722.455V719.103C627.909 719.103 624.673 717.614 622.049 714.568L619.509 716.756ZM614.695 702.859C614.695 708.325 616.272 712.998 619.509 716.756L622.049 714.568C619.408 711.503 618.047 707.64 618.047 702.859H614.695ZM614.695 701.898V702.859H618.047V701.898H614.695ZM648.625 700.222H616.371V703.574H648.625V700.222ZM646.949 699.099V701.898H650.302V699.099H646.949ZM642.528 684.84C645.412 688.197 646.949 692.883 646.949 699.099H650.302C650.302 692.338 648.622 686.79 645.071 682.656L642.528 684.84ZM630.743 679.806C635.803 679.806 639.667 681.509 642.528 684.84L645.071 682.656C641.498 678.495 636.658 676.453 630.743 676.453V679.806ZM621.892 682.514C624.634 680.699 627.572 679.806 630.743 679.806V676.453C626.895 676.453 623.316 677.551 620.042 679.718L621.892 682.514ZM615.436 690.055C616.999 686.824 619.153 684.327 621.892 682.514L620.042 679.718C616.764 681.888 614.225 684.862 612.418 688.594L615.436 690.055ZM613.075 701.063C613.075 696.94 613.874 693.281 615.436 690.055L612.418 688.594C610.61 692.33 609.723 696.497 609.723 701.063H613.075ZM613.075 702.859V701.063H609.723V702.859H613.075ZM615.482 713.48C613.888 710.357 613.075 706.828 613.075 702.859H609.723C609.723 707.3 610.637 711.36 612.497 715.004L615.482 713.48ZM622.111 720.727C619.282 719.002 617.075 716.6 615.482 713.48L612.497 715.004C614.358 718.651 616.983 721.526 620.366 723.589L622.111 720.727ZM622.464 687.67C624.724 685.251 627.45 684.066 630.744 684.066V680.714C626.518 680.714 622.906 682.286 620.014 685.381L622.464 687.67ZM618.203 697.837C618.728 693.453 620.184 690.11 622.464 687.67L620.014 685.381C617.141 688.456 615.463 692.52 614.874 697.438L618.203 697.837ZM643.654 695.961H616.539V699.313H643.654V695.961ZM641.978 697.094V697.637H645.33V697.094H641.978ZM638.663 687.575C640.705 689.957 641.849 693.102 641.979 697.148L645.329 697.04C645.181 692.397 643.845 688.469 641.208 685.393L638.663 687.575ZM630.744 684.066C634.073 684.066 636.661 685.239 638.663 687.575L641.208 685.393C638.531 682.27 634.991 680.714 630.744 680.714V684.066ZM659.578 721.155C659.578 720.576 659.749 720.159 660.076 719.804L657.607 717.536C656.68 718.545 656.225 719.785 656.225 721.155H659.578ZM660.027 722.372C659.747 722.092 659.578 721.734 659.578 721.155H656.225C656.225 722.526 656.682 723.769 657.656 724.742L660.027 722.372ZM661.453 722.821C660.662 722.821 660.263 722.608 660.027 722.372L657.656 724.742C658.673 725.759 660.015 726.173 661.453 726.173V722.821ZM662.913 722.359C662.657 722.609 662.241 722.821 661.453 722.821V726.173C662.893 726.173 664.231 725.759 665.257 724.755L662.913 722.359ZM663.37 721.155C663.37 721.723 663.201 722.077 662.913 722.359L665.257 724.755C666.25 723.784 666.722 722.537 666.722 721.155H663.37ZM662.863 719.817C663.199 720.175 663.37 720.587 663.37 721.155H666.722C666.722 719.774 666.252 718.529 665.307 717.522L662.863 719.817ZM661.453 719.322C662.199 719.322 662.599 719.536 662.863 719.817L665.307 717.522C664.289 716.439 662.934 715.97 661.453 715.97V719.322ZM660.076 719.804C660.322 719.536 660.705 719.322 661.453 719.322V715.97C659.972 715.97 658.615 716.439 657.607 717.536L660.076 719.804Z" fill="#2AA9E0"/>
<path fill-rule="evenodd" clip-rule="evenodd" d="M711.63 718.711C714.805 714.52 716.393 708.972 716.393 702.065V701.397C716.393 694.184 714.826 688.503 711.693 684.353C708.559 680.204 704.249 678.129 698.762 678.129C693.275 678.129 688.971 680.065 685.852 683.936V660H678.122V724.163H685.225L685.601 718.941C688.721 722.979 693.135 724.998 698.845 724.998C704.193 724.998 708.455 722.903 711.63 718.711ZM705.614 688.99C707.647 691.859 708.664 695.924 708.664 701.188C708.664 706.953 707.633 711.269 705.572 714.137C703.511 717.006 700.628 718.44 696.924 718.44C691.91 718.44 688.22 716.073 685.852 711.339V691.789C688.08 687.055 691.743 684.688 696.84 684.688C700.656 684.688 703.581 686.122 705.614 688.99Z" fill="black"/>
<path d="M734.526 724.163H726.797V678.965H734.526V724.163Z" fill="black"/>
<path d="M726.17 666.976C726.17 665.723 726.553 664.665 727.319 663.801C728.085 662.938 729.22 662.506 730.724 662.506C732.228 662.506 733.37 662.938 734.15 663.801C734.93 664.665 735.32 665.723 735.32 666.976C735.32 668.229 734.93 669.274 734.15 670.109C733.37 670.944 732.228 671.362 730.724 671.362C729.22 671.362 728.085 670.944 727.319 670.109C726.553 669.274 726.17 668.229 726.17 666.976Z" fill="black"/>
<path fill-rule="evenodd" clip-rule="evenodd" d="M747.458 689.199C745.717 692.736 744.846 696.718 744.846 701.146V701.689C744.846 708.707 746.747 714.346 750.549 718.607C754.351 722.868 759.316 724.998 765.444 724.998C769.511 724.998 773.111 724.024 776.244 722.074C779.378 720.125 781.787 717.403 783.472 713.908C785.158 710.413 786 706.465 786 702.065V701.522C786 694.449 784.099 688.781 780.297 684.521C776.495 680.26 771.516 678.129 765.361 678.129C761.378 678.129 757.833 679.09 754.727 681.012C751.622 682.933 749.199 685.662 747.458 689.199ZM756.106 714.137C753.78 711.102 752.617 707.078 752.617 702.065C752.617 696.412 753.787 692.067 756.127 689.032C758.467 685.996 761.544 684.479 765.36 684.479C769.26 684.479 772.386 686.017 774.74 689.095C777.094 692.172 778.271 696.189 778.271 701.146C778.271 706.688 777.115 710.997 774.803 714.075C772.491 717.152 769.371 718.691 765.444 718.691C761.544 718.691 758.432 717.173 756.106 714.137Z" fill="black"/>
<path fill-rule="evenodd" clip-rule="evenodd" d="M202 273C202 217.771 246.77 173 302 173H918C973.23 173 1018 217.772 1018 273V1755C1018 1810.23 973.23 1855 918 1855H302C246.77 1855 202 1810.23 202 1755V273ZM235 287C235 240.056 273.06 202 320 202H403.03C403.01 202.331 403 202.664 403 203V240C403 261.539 420.46 279 442 279H778C799.54 279 817 261.539 817 240V203C817 202.664 816.99 202.331 816.97 202H900C946.94 202 985 240.056 985 287V1741C985 1787.94 946.94 1826 900 1826H320C273.06 1826 235 1787.94 235 1741V287Z" fill="url(#paint2_linear)"/>
<path d="M403.03 202L405.42 202.131L405.56 199.6H403.03V202ZM816.97 202V199.6H814.44L814.58 202.131L816.97 202ZM302 170.6C245.45 170.6 199.6 216.446 199.6 273H204.4C204.4 219.097 248.1 175.4 302 175.4V170.6ZM918 170.6H302V175.4H918V170.6ZM1020.4 273C1020.4 216.446 974.55 170.6 918 170.6V175.4C971.9 175.4 1015.6 219.097 1015.6 273H1020.4ZM1020.4 1755V273H1015.6V1755H1020.4ZM918 1857.4C974.55 1857.4 1020.4 1811.55 1020.4 1755H1015.6C1015.6 1808.9 971.9 1852.6 918 1852.6V1857.4ZM302 1857.4H918V1852.6H302V1857.4ZM199.6 1755C199.6 1811.55 245.45 1857.4 302 1857.4V1852.6C248.1 1852.6 204.4 1808.9 204.4 1755H199.6ZM199.6 273V1755H204.4V273H199.6ZM320 199.6C271.73 199.6 232.6 238.73 232.6 287H237.4C237.4 241.381 274.38 204.4 320 204.4V199.6ZM403.03 199.6H320V204.4H403.03V199.6ZM405.4 203C405.4 202.708 405.41 202.419 405.42 202.131L400.63 201.869C400.61 202.243 400.6 202.621 400.6 203H405.4ZM405.4 240V203H400.6V240H405.4ZM442 276.6C421.79 276.6 405.4 260.214 405.4 240H400.6C400.6 262.865 419.14 281.4 442 281.4V276.6ZM778 276.6H442V281.4H778V276.6ZM814.6 240C814.6 260.214 798.21 276.6 778 276.6V281.4C800.86 281.4 819.4 262.865 819.4 240H814.6ZM814.6 203V240H819.4V203H814.6ZM814.58 202.131C814.59 202.418 814.6 202.708 814.6 203H819.4C819.4 202.621 819.39 202.244 819.37 201.869L814.58 202.131ZM900 199.6H816.97V204.4H900V199.6ZM987.4 287C987.4 238.73 948.27 199.6 900 199.6V204.4C945.62 204.4 982.6 241.381 982.6 287H987.4ZM987.4 1741V287H982.6V1741H987.4ZM900 1828.4C948.27 1828.4 987.4 1789.27 987.4 1741H982.6C982.6 1786.62 945.62 1823.6 900 1823.6V1828.4ZM320 1828.4H900V1823.6H320V1828.4ZM232.6 1741C232.6 1789.27 271.73 1828.4 320 1828.4V1823.6C274.38 1823.6 237.4 1786.62 237.4 1741H232.6ZM232.6 287V1741H237.4V287H232.6Z" fill="black" fill-opacity="0.03"/>
<g opacity="0.6">
<g opacity="0.75">
<g opacity="0.75" filter="url(#filter2_di)">
<path opacity="0.75" fill-rule="evenodd" clip-rule="evenodd" d="M717 244C723.63 244 729 238.627 729 232C729 225.373 723.63 220 717 220C710.37 220 705 225.373 705 232C705 238.627 710.37 244 717 244Z" fill="#9092A5"/>
</g>
<g opacity="0.75" filter="url(#filter3_di)">
<path opacity="0.75" fill-rule="evenodd" clip-rule="evenodd" d="M717 241C721.97 241 726 236.971 726 232C726 227.029 721.97 223 717 223C712.03 223 708 227.029 708 232C708 236.971 712.03 241 717 241Z" fill="#9092A5"/>
</g>
</g>
<g opacity="0.6" filter="url(#filter4_di)">
<path opacity="0.6" d="M650 227H560C557.239 227 555 229.239 555 232C555 234.761 557.239 237 560 237H650C652.761 237 655 234.761 655 232C655 229.239 652.761 227 650 227Z" fill="#9092A5"/>
</g>
</g>
<path d="M403.558 960V937.961H410.763C413.155 937.961 414.951 938.455 416.152 939.444C417.363 940.433 417.968 941.896 417.968 943.834C417.968 944.863 417.676 945.777 417.09 946.574C416.505 947.361 415.708 947.971 414.699 948.405C415.889 948.738 416.828 949.374 417.514 950.312C418.21 951.241 418.559 952.351 418.559 953.643C418.559 955.62 417.918 957.174 416.636 958.305C415.355 959.435 413.543 960 411.202 960H403.558ZM406.464 949.692V957.624H411.263C412.615 957.624 413.68 957.275 414.457 956.579C415.244 955.873 415.637 954.904 415.637 953.673C415.637 951.019 414.194 949.692 411.308 949.692H406.464ZM406.464 947.361H410.854C412.125 947.361 413.14 947.043 413.896 946.407C414.663 945.771 415.047 944.909 415.047 943.819C415.047 942.608 414.694 941.73 413.987 941.185C413.281 940.63 412.206 940.353 410.763 940.353H406.464V947.361ZM429.23 960.303C427.01 960.303 425.204 959.576 423.811 958.123C422.418 956.66 421.722 954.707 421.722 952.265V951.75C421.722 950.126 422.03 948.678 422.646 947.406C423.271 946.125 424.139 945.126 425.249 944.409C426.369 943.683 427.58 943.319 428.882 943.319C431.011 943.319 432.666 944.021 433.847 945.423C435.027 946.826 435.618 948.834 435.618 951.448V952.613H424.522C424.563 954.228 425.032 955.535 425.93 956.534C426.838 957.523 427.989 958.017 429.381 958.017C430.37 958.017 431.208 957.815 431.894 957.412C432.58 957.008 433.181 956.473 433.695 955.807L435.406 957.139C434.033 959.248 431.975 960.303 429.23 960.303ZM428.882 945.62C427.752 945.62 426.803 946.034 426.036 946.861C425.269 947.679 424.795 948.829 424.613 950.312H432.817V950.101C432.737 948.678 432.353 947.578 431.667 946.801C430.981 946.014 430.052 945.62 428.882 945.62ZM445.441 958.017C446.44 958.017 447.313 957.714 448.06 957.109C448.807 956.503 449.221 955.747 449.301 954.838H451.95C451.9 955.777 451.577 956.67 450.981 957.518C450.386 958.365 449.589 959.041 448.59 959.546C447.601 960.05 446.551 960.303 445.441 960.303C443.211 960.303 441.435 959.561 440.113 958.078C438.801 956.584 438.146 954.546 438.146 951.962V951.493C438.146 949.899 438.438 948.481 439.023 947.24C439.609 945.999 440.446 945.035 441.536 944.349C442.636 943.662 443.933 943.319 445.426 943.319C447.263 943.319 448.787 943.869 449.998 944.969C451.219 946.069 451.869 947.497 451.95 949.253H449.301C449.221 948.193 448.817 947.326 448.09 946.649C447.374 945.963 446.486 945.62 445.426 945.62C444.003 945.62 442.898 946.135 442.111 947.164C441.334 948.183 440.946 949.662 440.946 951.599V952.129C440.946 954.016 441.334 955.469 442.111 956.488C442.888 957.507 443.998 958.017 445.441 958.017ZM465.21 960C465.049 959.677 464.917 959.102 464.816 958.274C463.515 959.627 461.961 960.303 460.154 960.303C458.54 960.303 457.213 959.849 456.173 958.94C455.144 958.022 454.629 956.862 454.629 955.459C454.629 953.754 455.275 952.432 456.567 951.493C457.869 950.545 459.695 950.07 462.046 950.07H464.771V948.784C464.771 947.805 464.478 947.028 463.893 946.453C463.308 945.867 462.445 945.575 461.305 945.575C460.306 945.575 459.468 945.827 458.792 946.332C458.116 946.836 457.778 947.447 457.778 948.163H454.962C454.962 947.346 455.25 946.559 455.825 945.802C456.41 945.035 457.198 944.429 458.187 943.985C459.186 943.541 460.28 943.319 461.471 943.319C463.358 943.319 464.837 943.794 465.906 944.742C466.976 945.681 467.531 946.977 467.571 948.632V956.17C467.571 957.674 467.763 958.87 468.146 959.758V960H465.21ZM460.563 957.866C461.441 957.866 462.273 957.639 463.061 957.185C463.848 956.73 464.418 956.14 464.771 955.414V952.053H462.576C459.145 952.053 457.43 953.057 457.43 955.065C457.43 955.943 457.722 956.63 458.308 957.124C458.893 957.618 459.645 957.866 460.563 957.866ZM482.072 958.38C480.982 959.662 479.383 960.303 477.274 960.303C475.528 960.303 474.196 959.798 473.278 958.789C472.37 957.77 471.91 956.266 471.9 954.278V943.622H474.701V954.203C474.701 956.685 475.71 957.926 477.728 957.926C479.867 957.926 481.29 957.129 481.997 955.535V943.622H484.797V960H482.133L482.072 958.38ZM498.602 955.656C498.602 954.899 498.314 954.314 497.739 953.9C497.174 953.476 496.18 953.113 494.757 952.81C493.344 952.507 492.219 952.144 491.381 951.72C490.554 951.296 489.938 950.792 489.535 950.207C489.141 949.621 488.944 948.925 488.944 948.118C488.944 946.776 489.509 945.64 490.64 944.712C491.78 943.784 493.233 943.319 494.999 943.319C496.856 943.319 498.359 943.799 499.51 944.757C500.67 945.716 501.25 946.942 501.25 948.436H498.435C498.435 947.669 498.107 947.008 497.451 946.453C496.805 945.898 495.988 945.62 494.999 945.62C493.98 945.62 493.183 945.842 492.607 946.286C492.032 946.73 491.745 947.31 491.745 948.027C491.745 948.703 492.012 949.213 492.547 949.556C493.082 949.899 494.045 950.227 495.438 950.54C496.841 950.852 497.976 951.226 498.844 951.66C499.712 952.094 500.352 952.618 500.766 953.234C501.19 953.839 501.402 954.581 501.402 955.459C501.402 956.922 500.817 958.098 499.646 958.986C498.475 959.864 496.957 960.303 495.09 960.303C493.778 960.303 492.618 960.071 491.608 959.606C490.599 959.142 489.807 958.496 489.232 957.669C488.667 956.831 488.384 955.928 488.384 954.959H491.185C491.235 955.898 491.608 956.645 492.305 957.2C493.011 957.745 493.939 958.017 495.09 958.017C496.149 958.017 496.997 957.805 497.633 957.381C498.279 956.947 498.602 956.372 498.602 955.656ZM511.846 960.303C509.626 960.303 507.82 959.576 506.427 958.123C505.035 956.66 504.338 954.707 504.338 952.265V951.75C504.338 950.126 504.646 948.678 505.262 947.406C505.887 946.125 506.755 945.126 507.865 944.409C508.985 943.683 510.196 943.319 511.498 943.319C513.627 943.319 515.282 944.021 516.463 945.423C517.644 946.826 518.234 948.834 518.234 951.448V952.613H507.139C507.179 954.228 507.648 955.535 508.546 956.534C509.455 957.523 510.605 958.017 511.998 958.017C512.986 958.017 513.824 957.815 514.51 957.412C515.196 957.008 515.797 956.473 516.312 955.807L518.022 957.139C516.65 959.248 514.591 960.303 511.846 960.303ZM511.498 945.62C510.368 945.62 509.419 946.034 508.652 946.861C507.885 947.679 507.411 948.829 507.229 950.312H515.434V950.101C515.353 948.678 514.969 947.578 514.283 946.801C513.597 946.014 512.669 945.62 511.498 945.62ZM534.536 955.898L538.351 943.622H541.348L534.763 962.528C533.744 965.252 532.124 966.615 529.904 966.615L529.375 966.569L528.33 966.373V964.102L529.087 964.163C530.035 964.163 530.772 963.971 531.297 963.587C531.832 963.204 532.271 962.503 532.614 961.483L533.234 959.818L527.392 943.622H530.449L534.536 955.898ZM542.876 951.66C542.876 950.055 543.189 948.612 543.815 947.331C544.451 946.049 545.329 945.06 546.449 944.364C547.579 943.667 548.866 943.319 550.309 943.319C552.539 943.319 554.34 944.091 555.712 945.635C557.095 947.179 557.786 949.233 557.786 951.796V951.993C557.786 953.587 557.478 955.02 556.863 956.292C556.257 957.553 555.384 958.537 554.244 959.243C553.114 959.95 551.812 960.303 550.339 960.303C548.119 960.303 546.318 959.531 544.935 957.987C543.563 956.443 542.876 954.399 542.876 951.856V951.66ZM545.692 951.993C545.692 953.809 546.111 955.267 546.948 956.367C547.796 957.467 548.926 958.017 550.339 958.017C551.762 958.017 552.892 957.462 553.729 956.352C554.567 955.232 554.986 953.668 554.986 951.66C554.986 949.863 554.557 948.41 553.699 947.3C552.852 946.18 551.721 945.62 550.309 945.62C548.926 945.62 547.811 946.17 546.963 947.27C546.116 948.37 545.692 949.944 545.692 951.993ZM571.409 958.38C570.319 959.662 568.72 960.303 566.611 960.303C564.865 960.303 563.533 959.798 562.615 958.789C561.707 957.77 561.247 956.266 561.237 954.278V943.622H564.038V954.203C564.038 956.685 565.047 957.926 567.065 957.926C569.204 957.926 570.627 957.129 571.333 955.535V943.622H574.134V960H571.47L571.409 958.38ZM586.319 946.135C585.895 946.064 585.436 946.029 584.941 946.029C583.105 946.029 581.859 946.811 581.203 948.375V960H578.402V943.622H581.127L581.172 945.514C582.091 944.051 583.392 943.319 585.078 943.319C585.623 943.319 586.036 943.39 586.319 943.531V946.135ZM599.397 945.605C600.638 944.081 602.253 943.319 604.241 943.319C607.702 943.319 609.448 945.272 609.478 949.177V960H606.678V949.162C606.668 947.981 606.395 947.109 605.86 946.543C605.336 945.978 604.513 945.696 603.393 945.696C602.485 945.696 601.688 945.938 601.001 946.422C600.315 946.907 599.78 947.542 599.397 948.33V960H596.597V936.75H599.397V945.605ZM620.467 960.303C618.247 960.303 616.441 959.576 615.048 958.123C613.656 956.66 612.959 954.707 612.959 952.265V951.75C612.959 950.126 613.267 948.678 613.883 947.406C614.508 946.125 615.376 945.126 616.486 944.409C617.606 943.683 618.817 943.319 620.119 943.319C622.248 943.319 623.903 944.021 625.084 945.423C626.265 946.826 626.855 948.834 626.855 951.448V952.613H615.76C615.8 954.228 616.269 955.535 617.167 956.534C618.076 957.523 619.226 958.017 620.619 958.017C621.608 958.017 622.445 957.815 623.131 957.412C623.818 957.008 624.418 956.473 624.933 955.807L626.643 957.139C625.271 959.248 623.212 960.303 620.467 960.303ZM620.119 945.62C618.989 945.62 618.04 946.034 617.273 946.861C616.507 947.679 616.032 948.829 615.851 950.312H624.055V950.101C623.974 948.678 623.59 947.578 622.904 946.801C622.218 946.014 621.29 945.62 620.119 945.62ZM640.221 960C640.059 959.677 639.928 959.102 639.827 958.274C638.525 959.627 636.971 960.303 635.165 960.303C633.55 960.303 632.223 959.849 631.184 958.94C630.155 958.022 629.64 956.862 629.64 955.459C629.64 953.754 630.286 952.432 631.578 951.493C632.879 950.545 634.706 950.07 637.057 950.07H639.782V948.784C639.782 947.805 639.489 947.028 638.904 946.453C638.319 945.867 637.456 945.575 636.315 945.575C635.316 945.575 634.479 945.827 633.803 946.332C633.127 946.836 632.789 947.447 632.789 948.163H629.973C629.973 947.346 630.261 946.559 630.836 945.802C631.421 945.035 632.208 944.429 633.197 943.985C634.196 943.541 635.291 943.319 636.482 943.319C638.369 943.319 639.847 943.794 640.917 944.742C641.987 945.681 642.542 946.977 642.582 948.632V956.17C642.582 957.674 642.774 958.87 643.157 959.758V960H640.221ZM635.574 957.866C636.452 957.866 637.284 957.639 638.071 957.185C638.858 956.73 639.429 956.14 639.782 955.414V952.053H637.587C634.156 952.053 632.44 953.057 632.44 955.065C632.44 955.943 632.733 956.63 633.318 957.124C633.904 957.618 634.655 957.866 635.574 957.866ZM650.014 960H647.214V936.75H650.014V960ZM658.309 939.656V943.622H661.367V945.787H658.309V955.943C658.309 956.599 658.445 957.094 658.718 957.427C658.99 957.75 659.454 957.911 660.11 957.911C660.433 957.911 660.877 957.851 661.442 957.729V960C660.706 960.202 659.989 960.303 659.293 960.303C658.042 960.303 657.098 959.924 656.462 959.167C655.827 958.411 655.509 957.336 655.509 955.943V945.787H652.527V943.622H655.509V939.656H658.309ZM667.452 945.605C668.693 944.081 670.307 943.319 672.295 943.319C675.757 943.319 677.502 945.272 677.533 949.177V960H674.732V949.162C674.722 947.981 674.45 947.109 673.915 946.543C673.39 945.978 672.568 945.696 671.448 945.696C670.54 945.696 669.742 945.938 669.056 946.422C668.37 946.907 667.835 947.542 667.452 948.33V960H664.651V936.75H667.452V945.605ZM695.984 958.017C696.983 958.017 697.856 957.714 698.603 957.109C699.35 956.503 699.764 955.747 699.844 954.838H702.493C702.443 955.777 702.12 956.67 701.524 957.518C700.929 958.365 700.132 959.041 699.133 959.546C698.144 960.05 697.094 960.303 695.984 960.303C693.754 960.303 691.978 959.561 690.656 958.078C689.344 956.584 688.688 954.546 688.688 951.962V951.493C688.688 949.899 688.981 948.481 689.566 947.24C690.152 945.999 690.989 945.035 692.079 944.349C693.179 943.662 694.476 943.319 695.969 943.319C697.806 943.319 699.33 943.869 700.541 944.969C701.762 946.069 702.412 947.497 702.493 949.253H699.844C699.764 948.193 699.36 947.326 698.633 946.649C697.917 945.963 697.029 945.62 695.969 945.62C694.546 945.62 693.441 946.135 692.654 947.164C691.877 948.183 691.489 949.662 691.489 951.599V952.129C691.489 954.016 691.877 955.469 692.654 956.488C693.431 957.507 694.541 958.017 695.984 958.017ZM704.9 951.66C704.9 950.055 705.213 948.612 705.838 947.331C706.474 946.049 707.352 945.06 708.472 944.364C709.602 943.667 710.889 943.319 712.332 943.319C714.562 943.319 716.363 944.091 717.736 945.635C719.118 947.179 719.81 949.233 719.81 951.796V951.993C719.81 953.587 719.502 955.02 718.886 956.292C718.281 957.553 717.408 958.537 716.268 959.243C715.137 959.95 713.836 960.303 712.362 960.303C710.142 960.303 708.341 959.531 706.958 957.987C705.586 956.443 704.9 954.399 704.9 951.856V951.66ZM707.715 951.993C707.715 953.809 708.134 955.267 708.972 956.367C709.819 957.467 710.95 958.017 712.362 958.017C713.785 958.017 714.915 957.462 715.753 956.352C716.59 955.232 717.009 953.668 717.009 951.66C717.009 949.863 716.58 948.41 715.723 947.3C714.875 946.18 713.745 945.62 712.332 945.62C710.95 945.62 709.834 946.17 708.987 947.27C708.139 948.37 707.715 949.944 707.715 951.993ZM725.955 943.622L726.031 945.438C727.232 944.026 728.851 943.319 730.89 943.319C733.18 943.319 734.739 944.197 735.567 945.953C736.112 945.166 736.818 944.53 737.686 944.046C738.564 943.562 739.598 943.319 740.789 943.319C744.382 943.319 746.208 945.222 746.269 949.026V960H743.468V949.192C743.468 948.022 743.201 947.149 742.666 946.574C742.131 945.988 741.233 945.696 739.972 945.696C738.932 945.696 738.069 946.009 737.383 946.634C736.697 947.25 736.299 948.082 736.188 949.132V960H733.372V949.268C733.372 946.887 732.207 945.696 729.875 945.696C728.039 945.696 726.783 946.478 726.106 948.042V960H723.306V943.622H725.955ZM757.303 960.303C755.083 960.303 753.277 959.576 751.884 958.123C750.492 956.66 749.795 954.707 749.795 952.265V951.75C749.795 950.126 750.103 948.678 750.719 947.406C751.344 946.125 752.212 945.126 753.322 944.409C754.442 943.683 755.653 943.319 756.955 943.319C759.084 943.319 760.739 944.021 761.92 945.423C763.101 946.826 763.691 948.834 763.691 951.448V952.613H752.596C752.636 954.228 753.105 955.535 754.003 956.534C754.912 957.523 756.062 958.017 757.455 958.017C758.444 958.017 759.281 957.815 759.967 957.412C760.653 957.008 761.254 956.473 761.769 955.807L763.479 957.139C762.107 959.248 760.048 960.303 757.303 960.303ZM756.955 945.62C755.825 945.62 754.876 946.034 754.109 946.861C753.342 947.679 752.868 948.829 752.687 950.312H760.891V950.101C760.81 948.678 760.426 947.578 759.74 946.801C759.054 946.014 758.126 945.62 756.955 945.62ZM776.481 955.656C776.481 954.899 776.194 954.314 775.619 953.9C775.054 953.476 774.06 953.113 772.637 952.81C771.224 952.507 770.099 952.144 769.261 951.72C768.434 951.296 767.818 950.792 767.415 950.207C767.021 949.621 766.824 948.925 766.824 948.118C766.824 946.776 767.389 945.64 768.52 944.712C769.66 943.784 771.113 943.319 772.879 943.319C774.736 943.319 776.239 943.799 777.39 944.757C778.55 945.716 779.13 946.942 779.13 948.436H776.315C776.315 947.669 775.987 947.008 775.331 946.453C774.685 945.898 773.868 945.62 772.879 945.62C771.86 945.62 771.062 945.842 770.487 946.286C769.912 946.73 769.625 947.31 769.625 948.027C769.625 948.703 769.892 949.213 770.427 949.556C770.962 949.899 771.925 950.227 773.318 950.54C774.721 950.852 775.856 951.226 776.724 951.66C777.591 952.094 778.232 952.618 778.646 953.234C779.07 953.839 779.282 954.581 779.282 955.459C779.282 956.922 778.696 958.098 777.526 958.986C776.355 959.864 774.837 960.303 772.97 960.303C771.658 960.303 770.497 960.071 769.488 959.606C768.479 959.142 767.687 958.496 767.112 957.669C766.547 956.831 766.264 955.928 766.264 954.959H769.064C769.115 955.898 769.488 956.645 770.185 957.2C770.891 957.745 771.819 958.017 772.97 958.017C774.029 958.017 774.877 957.805 775.513 957.381C776.159 956.947 776.481 956.372 776.481 955.656ZM791.558 960V945.787H788.969V943.622H791.558V942.229C791.558 940.403 792.077 938.98 793.117 937.961C794.166 936.942 795.645 936.432 797.552 936.432C798.682 936.432 800.11 936.74 801.835 937.355L801.366 939.717C800.105 939.212 798.904 938.96 797.764 938.96C796.563 938.96 795.695 939.232 795.16 939.777C794.635 940.312 794.373 941.119 794.373 942.199V943.622H797.718V945.787H794.373V960H791.558ZM803.228 960H800.413V943.622H803.228V960ZM815.701 946.135C815.277 946.064 814.818 946.029 814.323 946.029C812.487 946.029 811.24 946.811 810.584 948.375V960H807.784V943.622H810.509L810.554 945.514C811.472 944.051 812.774 943.319 814.459 943.319C815.004 943.319 815.418 943.39 815.701 943.531V946.135ZM827.825 955.656C827.825 954.899 827.538 954.314 826.962 953.9C826.397 953.476 825.403 953.113 823.98 952.81C822.568 952.507 821.443 952.144 820.605 951.72C819.778 951.296 819.162 950.792 818.758 950.207C818.365 949.621 818.168 948.925 818.168 948.118C818.168 946.776 818.733 945.64 819.863 944.712C821.004 943.784 822.457 943.319 824.223 943.319C826.079 943.319 827.583 943.799 828.733 944.757C829.894 945.716 830.474 946.942 830.474 948.436H827.659C827.659 947.669 827.331 947.008 826.675 946.453C826.029 945.898 825.212 945.62 824.223 945.62C823.203 945.62 822.406 945.842 821.831 946.286C821.256 946.73 820.968 947.31 820.968 948.027C820.968 948.703 821.236 949.213 821.771 949.556C822.305 949.899 823.269 950.227 824.662 950.54C826.064 950.852 827.2 951.226 828.067 951.66C828.935 952.094 829.576 952.618 829.99 953.234C830.414 953.839 830.625 954.581 830.625 955.459C830.625 956.922 830.04 958.098 828.87 958.986C827.699 959.864 826.18 960.303 824.313 960.303C823.002 960.303 821.841 960.071 820.832 959.606C819.823 959.142 819.031 958.496 818.456 957.669C817.89 956.831 817.608 955.928 817.608 954.959H820.408C820.459 955.898 820.832 956.645 821.528 957.2C822.235 957.745 823.163 958.017 824.313 958.017C825.373 958.017 826.221 957.805 826.856 957.381C827.502 956.947 827.825 956.372 827.825 955.656ZM838.073 939.656V943.622H841.13V945.787H838.073V955.943C838.073 956.599 838.209 957.094 838.481 957.427C838.754 957.75 839.218 957.911 839.874 957.911C840.197 957.911 840.641 957.851 841.206 957.729V960C840.469 960.202 839.753 960.303 839.057 960.303C837.805 960.303 836.862 959.924 836.226 959.167C835.59 958.411 835.272 957.336 835.272 955.943V945.787H832.291V943.622H835.272V939.656H838.073Z" fill="#7C7373"/>
</g>
<defs>
<filter id="filter0_f" x="0.0859985" y="0.0859985" width="1212.83" height="1967.83" filterUnits="userSpaceOnUse" color-interpolation-filters="sRGB">
<feFlood flood-opacity="0" result="BackgroundImageFix"/>
<feBlend mode="normal" in="SourceGraphic" in2="BackgroundImageFix" result="shape"/>
<feGaussianBlur stdDeviation="67.957" result="effect1_foregroundBlur"/>
</filter>
<filter id="filter1_d" x="52.2" y="115.845" width="1095.72" height="1944.95" filterUnits="userSpaceOnUse" color-interpolation-filters="sRGB">
<feFlood flood-opacity="0" result="BackgroundImageFix"/>
<feColorMatrix in="SourceAlpha" type="matrix" values="0 0 0 0 0 0 0 0 0 0 0 0 0 0 0 0 0 0 127 0"/>
<feOffset dy="72"/>
<feGaussianBlur stdDeviation="60"/>
<feColorMatrix type="matrix" values="0 0 0 0 0 0 0 0 0 0 0 0 0 0 0 0 0 0 0.132841 0"/>
<feBlend mode="normal" in2="BackgroundImageFix" result="effect1_dropShadow"/>
<feBlend mode="normal" in="SourceGraphic" in2="effect1_dropShadow" result="shape"/>
</filter>
<filter id="filter2_di" x="702" y="217" width="30" height="30" filterUnits="userSpaceOnUse" color-interpolation-filters="sRGB">
<feFlood flood-opacity="0" result="BackgroundImageFix"/>
<feColorMatrix in="SourceAlpha" type="matrix" values="0 0 0 0 0 0 0 0 0 0 0 0 0 0 0 0 0 0 127 0"/>
<feOffset/>
<feGaussianBlur stdDeviation="1.5"/>
<feColorMatrix type="matrix" values="0 0 0 0 0.49062 0 0 0 0 0.49062 0 0 0 0 0.49062 0 0 0 0.25 0"/>
<feBlend mode="normal" in2="BackgroundImageFix" result="effect1_dropShadow"/>
<feBlend mode="normal" in="SourceGraphic" in2="effect1_dropShadow" result="shape"/>
<feColorMatrix in="SourceAlpha" type="matrix" values="0 0 0 0 0 0 0 0 0 0 0 0 0 0 0 0 0 0 127 0" result="hardAlpha"/>
<feOffset dx="2" dy="2"/>
<feGaussianBlur stdDeviation="2"/>
<feComposite in2="hardAlpha" operator="arithmetic" k2="-1" k3="1"/>
<feColorMatrix type="matrix" values="0 0 0 0 0 0 0 0 0 0 0 0 0 0 0 0 0 0 0.344061 0"/>
<feBlend mode="normal" in2="shape" result="effect2_innerShadow"/>
</filter>
<filter id="filter3_di" x="705" y="221" width="24" height="26" filterUnits="userSpaceOnUse" color-interpolation-filters="sRGB">
<feFlood flood-opacity="0" result="BackgroundImageFix"/>
<feColorMatrix in="SourceAlpha" type="matrix" values="0 0 0 0 0 0 0 0 0 0 0 0 0 0 0 0 0 0 127 0"/>
<feOffset dy="3"/>
<feGaussianBlur stdDeviation="1.5"/>
<feColorMatrix type="matrix" values="0 0 0 0 0.49062 0 0 0 0 0.49062 0 0 0 0 0.49062 0 0 0 0.428838 0"/>
<feBlend mode="normal" in2="BackgroundImageFix" result="effect1_dropShadow"/>
<feBlend mode="normal" in="SourceGraphic" in2="effect1_dropShadow" result="shape"/>
<feColorMatrix in="SourceAlpha" type="matrix" values="0 0 0 0 0 0 0 0 0 0 0 0 0 0 0 0 0 0 127 0" result="hardAlpha"/>
<feOffset dx="-2" dy="-2"/>
<feGaussianBlur stdDeviation="2.5"/>
<feComposite in2="hardAlpha" operator="arithmetic" k2="-1" k3="1"/>
<feColorMatrix type="matrix" values="0 0 0 0 0 0 0 0 0 0 0 0 0 0 0 0 0 0 0.344061 0"/>
<feBlend mode="normal" in2="shape" result="effect2_innerShadow"/>
</filter>
<filter id="filter4_di" x="552" y="224" width="106" height="16" filterUnits="userSpaceOnUse" color-interpolation-filters="sRGB">
<feFlood flood-opacity="0" result="BackgroundImageFix"/>
<feColorMatrix in="SourceAlpha" type="matrix" values="0 0 0 0 0 0 0 0 0 0 0 0 0 0 0 0 0 0 127 0"/>
<feOffset/>
<feGaussianBlur stdDeviation="1.5"/>
<feColorMatrix type="matrix" values="0 0 0 0 0.49062 0 0 0 0 0.49062 0 0 0 0 0.49062 0 0 0 0.25 0"/>
<feBlend mode="normal" in2="BackgroundImageFix" result="effect1_dropShadow"/>
<feBlend mode="normal" in="SourceGraphic" in2="effect1_dropShadow" result="shape"/>
<feColorMatrix in="SourceAlpha" type="matrix" values="0 0 0 0 0 0 0 0 0 0 0 0 0 0 0 0 0 0 127 0" result="hardAlpha"/>
<feOffset dx="2" dy="2"/>
<feGaussianBlur stdDeviation="2"/>
<feComposite in2="hardAlpha" operator="arithmetic" k2="-1" k3="1"/>
<feColorMatrix type="matrix" values="0 0 0 0 0 0 0 0 0 0 0 0 0 0 0 0 0 0 0.344061 0"/>
<feBlend mode="normal" in2="shape" result="effect2_innerShadow"/>
</filter>
<linearGradient id="paint0_linear" x1="136" y1="136" x2="136" y2="1832" gradientUnits="userSpaceOnUse">
<stop stop-color="#ABB2C4" stop-opacity="0.238649"/>
<stop offset="1" stop-color="#737A91" stop-opacity="0.331635"/>
</linearGradient>
<linearGradient id="paint1_linear" x1="-250.058" y1="1016.32" x2="1109.84" y2="1696.63" gradientUnits="userSpaceOnUse">
<stop stop-color="white"/>
<stop offset="1" stop-color="#FEFEFE"/>
</linearGradient>
<linearGradient id="paint2_linear" x1="-206" y1="1014" x2="1115.07" y2="1654.9" gradientUnits="userSpaceOnUse">
<stop stop-color="white"/>
<stop offset="1" stop-color="#FEFEFE"/>
</linearGradient>
</defs>
</svg>
