<svg width="65" height="78" viewBox="0 0 65 78" fill="none" xmlns="http://www.w3.org/2000/svg">
<path d="M18.7929 77.6451C18.5617 77.2864 18.4594 76.8596 18.5029 76.4351C18.5029 70.2951 18.5029 64.1451 18.5029 58.0051C18.5029 57.4351 18.3629 57.2151 17.7829 57.1551C16.0529 56.9851 14.3229 56.7351 12.5929 56.5451C12.0329 56.4851 11.8229 56.1651 11.6629 55.7051C10.9629 53.7551 10.2429 51.8251 9.5629 49.8751C9.44564 49.5193 9.20426 49.2176 8.88289 49.0251C7.13289 47.9151 5.41289 46.7751 3.65289 45.6651C3.43868 45.561 3.26532 45.3884 3.16026 45.1747C3.05521 44.961 3.02446 44.7183 3.07289 44.4851C3.32289 42.3751 3.51289 40.2651 3.74289 38.1551C3.76421 37.8293 3.66846 37.5066 3.47289 37.2451C2.40289 35.5051 1.35289 33.7451 0.262894 32.0251C0.0925837 31.8084 0 31.5407 0 31.2651C0 30.9895 0.0925837 30.7218 0.262894 30.5051C1.36289 28.7751 2.40289 27.0251 3.48289 25.2851C3.67368 25.0182 3.76239 24.6918 3.73289 24.3651C3.50289 22.2551 3.3029 20.1451 3.0629 18.0351C3.01327 17.8149 3.03962 17.5843 3.13766 17.381C3.23571 17.1776 3.39967 17.0134 3.60289 16.9151C5.35289 15.8051 7.08289 14.6751 8.83289 13.5551C9.1777 13.3494 9.43687 13.0263 9.5629 12.6451C10.2429 10.6451 10.9729 8.75509 11.6629 6.80509C11.7173 6.57803 11.8444 6.37498 12.025 6.22692C12.2055 6.07887 12.4296 5.99394 12.6629 5.98509C14.6629 5.76509 16.7229 5.4851 18.7529 5.2451C19.1785 5.20385 19.5756 5.01241 19.8729 4.70509C21.2829 3.29509 22.7529 1.93509 24.1429 0.505091C24.3301 0.273625 24.5906 0.11284 24.8815 0.0492195C25.1723 -0.0144007 25.4761 0.0229329 25.7429 0.155085C27.5629 0.815085 29.4229 1.40508 31.2529 2.04508C31.7234 2.22241 32.2424 2.22241 32.7129 2.04508C34.5929 1.38508 36.4929 0.775097 38.3629 0.105097C38.6022 -0.00328977 38.8709 -0.0287112 39.1263 0.0328774C39.3817 0.094466 39.6093 0.239538 39.7729 0.445094C41.1829 1.86509 42.6329 3.23509 44.0429 4.65509C44.3972 5.01355 44.8701 5.23045 45.3729 5.26509C47.3729 5.49509 49.3729 5.7751 51.3729 5.9951C51.5849 6.00484 51.7884 6.08179 51.9538 6.21482C52.1192 6.34786 52.2379 6.53007 52.2929 6.73509C52.9729 8.66509 53.6929 10.5751 54.3729 12.4951C54.5177 12.9479 54.819 13.3343 55.2229 13.5851C56.9329 14.6551 58.6129 15.7751 60.3329 16.8451C60.5467 16.9503 60.7201 17.1226 60.8267 17.3357C60.9332 17.5488 60.967 17.791 60.9229 18.0251C60.7029 20.0251 60.5229 22.0251 60.3029 24.0251C60.2424 24.5501 60.3738 25.0793 60.6729 25.5151C61.7329 27.2051 62.7529 28.9251 63.8129 30.6051C63.9524 30.7816 64.0283 31.0001 64.0283 31.2251C64.0283 31.4501 63.9524 31.6685 63.8129 31.8451C62.7229 33.5751 61.6829 35.3351 60.5929 37.0651C60.3429 37.4421 60.2365 37.8963 60.2929 38.3451C60.5129 40.3451 60.6929 42.3451 60.9129 44.3451C60.9642 44.602 60.9293 44.8687 60.8136 45.1037C60.6979 45.3388 60.5078 45.5291 60.2729 45.6451C58.5329 46.7251 56.8329 47.8551 55.1029 48.9451C54.7821 49.1383 54.5409 49.4397 54.4229 49.7951C53.7529 51.6951 53.0429 53.5851 52.4229 55.4951C52.3617 55.7766 52.2066 56.0288 51.9831 56.2106C51.7596 56.3923 51.4809 56.4926 51.1929 56.4951C49.5329 56.6451 47.8829 56.9051 46.1929 57.0851C45.6029 57.1451 45.4729 57.3951 45.4729 57.9551C45.4729 64.0951 45.4729 70.2451 45.4729 76.3851C45.5338 76.6048 45.5363 76.8366 45.4802 77.0576C45.4241 77.2786 45.3113 77.4811 45.1529 77.6451H44.5429C44.5429 77.5851 44.4929 77.5051 44.4429 77.4651C40.2696 74.4184 36.0929 71.3684 31.9129 68.3151C31.8671 68.267 31.812 68.2287 31.751 68.2025C31.69 68.1763 31.6243 68.1628 31.5579 68.1628C31.4915 68.1628 31.4258 68.1763 31.3648 68.2025C31.3037 68.2287 31.2487 68.267 31.2029 68.3151L19.3929 77.6451H18.7929ZM41.7029 73.8651C42.3529 74.3451 42.9929 74.8651 43.6529 75.2951C43.8229 75.4151 43.9629 75.7151 44.2129 75.5651C44.4629 75.4151 44.2929 75.1951 44.2929 74.9951C44.2929 69.4418 44.2929 63.8851 44.2929 58.3251C44.2929 58.1751 44.3929 57.9651 44.2229 57.8951L41.8529 60.1551C41.1629 60.8151 40.4529 61.4651 39.7829 62.1551C39.6307 62.3398 39.4218 62.4693 39.1887 62.5235C38.9555 62.5777 38.711 62.5537 38.4929 62.4551C36.6429 61.7951 34.7629 61.2051 32.9129 60.5451C32.3717 60.3399 31.7741 60.3399 31.2329 60.5451C29.3529 61.2051 27.4529 61.8051 25.5729 62.4751C25.368 62.5742 25.1355 62.6005 24.9137 62.5496C24.6918 62.4987 24.494 62.3736 24.3529 62.1951C23.6729 61.5151 22.9729 60.8651 22.2829 60.1951C21.508 59.3274 20.6761 58.5123 19.7929 57.7551V75.7551L22.2929 73.7551C25.0662 71.6084 27.8429 69.4584 30.6229 67.3051C31.5729 66.5651 31.6229 66.5651 32.6229 67.3051L41.7029 73.8651ZM4.3829 44.0751C4.2329 44.5051 4.52289 44.7451 4.89289 44.9851C6.53289 45.9851 8.16289 47.0951 9.80289 48.1351C10.1853 48.3616 10.4757 48.7157 10.6229 49.1351C11.2629 50.9651 11.9529 52.7851 12.6229 54.6251C12.6596 54.8311 12.7661 55.0181 12.9246 55.1547C13.0831 55.2913 13.2838 55.3691 13.4929 55.3751C15.0229 55.5151 16.5429 55.7851 18.0729 55.9251C18.674 55.928 19.2679 56.0557 19.817 56.3001C20.3661 56.5446 20.8585 56.9004 21.2629 57.3451C22.3129 58.5651 23.5729 59.6051 24.7129 60.7551C24.8504 60.9263 25.0405 61.0475 25.2538 61.0999C25.4671 61.1523 25.6917 61.133 25.8929 61.0451C27.6729 60.4051 29.4829 59.8351 31.2629 59.1951C31.7779 58.9972 32.3479 58.9972 32.8629 59.1951C34.6929 59.8451 36.5429 60.4351 38.3829 61.0651C38.5378 61.1371 38.7123 61.1556 38.8788 61.1175C39.0454 61.0795 39.1946 60.9872 39.3029 60.8551C40.7129 59.4451 42.1629 58.0751 43.5829 56.6651C43.9418 56.3089 44.4181 56.0956 44.9229 56.0651C46.8529 55.8451 48.7729 55.5751 50.7029 55.3651C50.8757 55.3626 51.0426 55.3021 51.1768 55.1933C51.311 55.0845 51.4048 54.9336 51.4429 54.7651C52.0829 52.9351 52.7729 51.1151 53.4429 49.2751C53.6148 48.7644 53.9715 48.3363 54.4429 48.0751C56.1129 47.0751 57.7629 45.9451 59.4429 44.8851C59.7129 44.7151 59.9029 44.5451 59.8529 44.1651C59.6529 42.5151 59.5129 40.8551 59.2929 39.1651C59.185 38.614 59.1887 38.0469 59.3037 37.4972C59.4188 36.9476 59.643 36.4266 59.9629 35.9651C60.9029 34.6551 61.6429 33.2051 62.5229 31.8451C62.6778 31.664 62.763 31.4334 62.763 31.1951C62.763 30.9567 62.6778 30.7262 62.5229 30.5451C61.5229 28.9251 60.5229 27.2751 59.5229 25.6451C59.2937 25.3631 59.173 25.0083 59.1829 24.6451C59.4129 22.5651 59.6229 20.4851 59.8629 18.4051C59.9002 18.2354 59.879 18.058 59.8027 17.9019C59.7265 17.7458 59.5997 17.62 59.4429 17.5451C57.7729 16.5451 56.1329 15.4051 54.4429 14.3651C54.0099 14.1072 53.6836 13.7028 53.5229 13.2251C52.8829 11.4151 52.1929 9.62509 51.5829 7.80509C51.5301 7.58136 51.4018 7.38266 51.2197 7.24241C51.0376 7.10217 50.8127 7.02895 50.5829 7.03509C49.1529 6.88509 47.7329 6.64509 46.2929 6.55509C45.6035 6.54988 44.9234 6.39622 44.2987 6.10459C43.6741 5.81297 43.1195 5.39022 42.6729 4.86509C41.6729 3.69509 40.4729 2.70509 39.3829 1.61509C39.2672 1.46872 39.1051 1.36617 38.9233 1.32435C38.7415 1.28254 38.5509 1.30396 38.3829 1.3851C36.5229 2.0451 34.6529 2.65509 32.7929 3.28509C32.4233 3.44553 32.009 3.47033 31.6229 3.3551C29.7129 2.6951 27.7929 2.0751 25.8929 1.3551C25.7044 1.26479 25.4908 1.24133 25.2873 1.28858C25.0837 1.33584 24.9023 1.45099 24.7729 1.61509C23.4929 2.91509 22.1629 4.1551 20.9029 5.4651C20.3995 5.99671 19.7136 6.31822 18.9829 6.36509C17.2029 6.54509 15.4229 6.7851 13.6529 6.9951C13.4231 6.98895 13.1982 7.06216 13.0161 7.2024C12.8339 7.34265 12.7057 7.54136 12.6529 7.76509C12.0629 9.51509 11.4029 11.2351 10.7929 12.9751C10.6041 13.5766 10.2023 14.0886 9.66289 14.4151C8.09289 15.4151 6.56289 16.4151 5.00289 17.4151C4.80001 17.5073 4.63375 17.6646 4.53048 17.8621C4.42721 18.0596 4.39287 18.2859 4.43289 18.5051C4.64289 20.2551 4.79289 22.0151 4.99289 23.7751C5.12858 24.5236 4.97489 25.2956 4.5629 25.9351C3.5629 27.4751 2.63289 29.0751 1.65289 30.6351C1.53207 30.7911 1.46651 30.9828 1.46651 31.1801C1.46651 31.3774 1.53207 31.5691 1.65289 31.7251C2.65289 33.2651 3.51289 34.8551 4.53289 36.3651C4.98372 37.0635 5.14511 37.9098 4.98289 38.7251C4.70289 40.5851 4.55289 42.3251 4.37289 44.1151L4.3829 44.0751Z" fill="#6C0A86"/>
<path d="M19.3929 77.6451L31.2329 68.3651C31.2786 68.317 31.3337 68.2787 31.3947 68.2525C31.4558 68.2263 31.5215 68.2128 31.5879 68.2128C31.6543 68.2128 31.72 68.2263 31.781 68.2525C31.842 68.2787 31.8971 68.317 31.9429 68.3651C36.1162 71.4184 40.2929 74.4684 44.4729 77.5151C44.5229 77.5151 44.5429 77.6351 44.5729 77.6951L19.3929 77.6451Z" fill="#FAFAFB"/>
<path d="M4.37287 44.1151C4.55287 42.3151 4.69287 40.5851 4.91287 38.8551C5.07508 38.0398 4.91369 37.1934 4.46287 36.4951C3.46287 34.9851 2.56287 33.3951 1.58287 31.8551C1.46205 31.6991 1.39648 31.5074 1.39648 31.3101C1.39648 31.1128 1.46205 30.921 1.58287 30.7651C2.58287 29.2051 3.48287 27.6051 4.49287 26.0651C4.90486 25.4256 5.05856 24.6535 4.92287 23.9051C4.71287 22.1551 4.56287 20.3951 4.36287 18.6351C4.32285 18.4158 4.35719 18.1895 4.46046 17.9921C4.56372 17.7946 4.72999 17.6373 4.93287 17.5451C6.50287 16.5451 8.02287 15.5451 9.59287 14.5451C10.1323 14.2186 10.534 13.7066 10.7229 13.1051C11.3329 11.3651 11.9929 9.64506 12.5829 7.89506C12.6357 7.67133 12.7639 7.47262 12.9461 7.33238C13.1282 7.19214 13.3531 7.11891 13.5829 7.12506C15.3629 6.92506 17.1329 6.68507 18.9129 6.49507C19.6435 6.4482 20.3294 6.12668 20.8329 5.59506C22.0929 4.28506 23.4329 3.04507 24.7029 1.74507C24.8323 1.58097 25.0137 1.4658 25.2172 1.41855C25.4208 1.37129 25.6344 1.39475 25.8229 1.48506C27.7229 2.16506 29.6429 2.77506 31.5529 3.48506C31.9389 3.60029 32.3533 3.5755 32.7229 3.41507C34.5829 2.78507 36.4529 2.16506 38.3129 1.51506C38.4809 1.43393 38.6715 1.4125 38.8533 1.45431C39.0351 1.49613 39.1972 1.5987 39.3129 1.74507C40.4029 2.83507 41.6029 3.82507 42.6029 4.99507C43.0495 5.5202 43.604 5.94295 44.2287 6.23457C44.8534 6.52619 45.5335 6.67984 46.2229 6.68506C47.6529 6.77506 49.0829 7.00507 50.5129 7.16507C50.7427 7.15892 50.9676 7.23213 51.1497 7.37237C51.3318 7.51262 51.4601 7.71133 51.5129 7.93506C52.1229 9.75506 52.8129 11.5451 53.4529 13.3551C53.6136 13.8327 53.9399 14.2371 54.3729 14.4951C56.0429 15.4951 57.6829 16.6351 59.3729 17.6751C59.5296 17.75 59.6565 17.8758 59.7327 18.0319C59.809 18.188 59.8302 18.3654 59.7929 18.5351C59.5529 20.6151 59.3429 22.6951 59.1129 24.7751C59.103 25.1383 59.2236 25.4931 59.4529 25.7751C60.4529 27.4151 61.4529 29.0551 62.4529 30.6751C62.6078 30.8562 62.6929 31.0867 62.6929 31.3251C62.6929 31.5634 62.6078 31.7939 62.4529 31.9751C61.5729 33.3351 60.8329 34.7751 59.8929 36.0951C59.5729 36.5566 59.3488 37.0776 59.2337 37.6272C59.1186 38.1768 59.115 38.744 59.2229 39.2951C59.4329 40.9451 59.5829 42.6051 59.7829 44.2951C59.7829 44.6751 59.6429 44.8351 59.3729 45.0151C57.7129 46.0751 56.0729 47.1651 54.3729 48.2051C53.9015 48.4663 53.5448 48.8943 53.3729 49.4051C52.7329 51.2351 52.0529 53.0551 51.3729 54.8951C51.3347 55.0636 51.241 55.2144 51.1068 55.3232C50.9726 55.4321 50.8056 55.4926 50.6329 55.4951C48.7029 55.7151 46.7829 55.9851 44.8529 56.1951C44.3481 56.2255 43.8718 56.4388 43.5129 56.7951C42.1029 58.2051 40.6429 59.5751 39.2329 60.9851C39.1245 61.1172 38.9754 61.2095 38.8088 61.2475C38.6423 61.2855 38.4678 61.2671 38.3129 61.1951C36.4729 60.5551 34.6229 59.9651 32.7929 59.3251C32.2779 59.1271 31.7078 59.1271 31.1929 59.3251C29.4129 59.9651 27.6029 60.5351 25.8229 61.1751C25.6216 61.263 25.397 61.2823 25.1838 61.2298C24.9705 61.1774 24.7804 61.0563 24.6429 60.8851C23.5029 59.7351 22.2429 58.6951 21.1929 57.4751C20.7885 57.0304 20.2961 56.6745 19.747 56.4301C19.1978 56.1857 18.6039 56.058 18.0029 56.0551C16.4729 55.9151 14.9529 55.6551 13.4229 55.5051C13.2137 55.4991 13.0131 55.4213 12.8546 55.2847C12.6961 55.1481 12.5896 54.961 12.5529 54.7551C11.9129 52.9251 11.2229 51.1051 10.5529 49.2651C10.4056 48.8457 10.1153 48.4916 9.73287 48.2651C8.09287 47.2651 6.46287 46.1551 4.82287 45.1151C4.51287 44.7851 4.23287 44.5451 4.37287 44.1151ZM6.79287 31.2251C6.77711 36.2153 8.24097 41.0982 10.9995 45.2568C13.758 49.4154 17.6873 52.6629 22.2909 54.589C26.8945 56.5151 31.9657 57.0333 36.8637 56.0781C41.7618 55.123 46.2667 52.7373 49.8093 49.2227C53.3519 45.708 55.7732 41.2221 56.7671 36.3318C57.761 31.4415 57.2829 26.3663 55.3933 21.7476C53.5038 17.1289 50.2875 13.174 46.1509 10.3826C42.0143 7.59129 37.1431 6.08881 32.1529 6.06506C28.8354 6.04927 25.5474 6.68789 22.4771 7.94436C19.4067 9.20084 16.6143 11.0505 14.2597 13.3875C11.9051 15.7245 10.0345 18.5029 8.75492 21.5637C7.47538 24.6245 6.81204 27.9076 6.80287 31.2251H6.79287Z" fill="#7AA751"/>
<path d="M22.2729 60.2351C22.9629 60.8951 23.6729 61.5451 24.3429 62.2351C24.484 62.4136 24.6819 62.5386 24.9037 62.5896C25.1255 62.6405 25.358 62.6142 25.5629 62.5151C27.4429 61.8551 29.3429 61.2551 31.2229 60.5851C31.7641 60.3799 32.3617 60.3799 32.9029 60.5851C34.7529 61.2351 36.6329 61.8351 38.4829 62.4951C38.701 62.5936 38.9455 62.6177 39.1787 62.5635C39.4118 62.5092 39.6206 62.3798 39.7729 62.1951C40.4429 61.5151 41.1529 60.8651 41.8429 60.1951C41.8429 64.5284 41.8429 68.8617 41.8429 73.1951C41.8429 73.4351 41.9229 73.7051 41.6929 73.9051L32.5529 67.2751C31.5529 66.5751 31.5529 66.5851 30.5529 67.2751C27.7862 69.4284 25.0096 71.5784 22.2229 73.7251C22.2629 69.2384 22.2796 64.7417 22.2729 60.2351Z" fill="#FA4394"/>
<path d="M22.2729 60.2351C22.2729 64.7417 22.2729 69.2484 22.2729 73.7551L19.7729 75.7551V57.7551C20.6609 58.5248 21.4961 59.3533 22.2729 60.2351V60.2351Z" fill="#F75EB0"/>
<path d="M41.6929 73.9051C41.9229 73.7051 41.8429 73.4351 41.8429 73.1951C41.8429 68.8617 41.8429 64.5284 41.8429 60.1951L44.2129 57.9351C44.3829 58.0051 44.2829 58.2151 44.2829 58.3651C44.2829 63.9184 44.2829 69.4751 44.2829 75.0351C44.2829 75.2251 44.3829 75.4951 44.2029 75.6051C44.0229 75.7151 43.8129 75.4551 43.6429 75.3351C42.9929 74.8651 42.3429 74.3751 41.6929 73.9051Z" fill="#DD2579"/>
<path d="M6.80292 31.2251C6.8208 26.2314 8.31955 21.3553 11.1095 17.2137C13.8995 13.0721 17.8554 9.85117 22.4765 7.95851C27.0976 6.06584 32.1763 5.58648 37.0699 6.5811C41.9636 7.57571 46.4522 9.9996 49.9678 13.546C53.4834 17.0925 55.8681 21.6021 56.82 26.5042C57.7719 31.4063 57.2482 36.4806 55.3153 41.085C53.3824 45.6895 50.1271 49.6171 45.9613 52.3708C41.7956 55.1246 36.9065 56.5808 31.9129 56.5551C25.2266 56.518 18.828 53.8304 14.1206 49.0818C9.41331 44.3333 6.78164 37.9114 6.80292 31.2251V31.2251ZM36.5729 54.8051C36.8242 54.7919 37.0745 54.7652 37.3229 54.7251C43.2473 53.3726 48.4408 49.8293 51.8611 44.8065C55.2814 39.7836 56.6753 33.653 55.7629 27.6451C55.2633 24.2439 54.0273 20.9928 52.1412 18.1187C50.2551 15.2446 47.7644 12.8169 44.8429 11.0051C42.2088 9.2484 39.21 8.11315 36.0729 7.68505C33.3747 7.12776 30.5911 7.12776 27.8929 7.68505C25.0152 8.14077 22.2557 9.16027 19.7729 10.6851C15.7497 13.0728 12.512 16.5845 10.4582 20.7881C8.40441 24.9916 7.62398 29.7038 8.21292 34.3451C8.66464 38.1044 10.0109 41.7006 12.1388 44.8325C14.2667 47.9643 17.1143 50.5405 20.4429 52.3451C22.7791 53.718 25.3667 54.6089 28.0529 54.9651C30.6519 55.4708 33.324 55.4708 35.9229 54.9651C36.1529 54.9351 36.3829 54.9851 36.5629 54.8051H36.5729Z" fill="#6B0A84"/>
<path d="M35.9329 54.9451C33.3339 55.4509 30.6619 55.4509 28.0629 54.9451C26.4029 54.2959 24.7774 53.5616 23.1929 52.7451C19.2889 50.5325 16.063 47.2962 13.8629 43.3851C11.2551 38.7227 10.2285 33.3406 10.9371 28.0457C11.6456 22.7507 14.051 17.8279 17.7929 14.0151C19.6506 12.1218 21.81 10.5504 24.1829 9.3651C25.3929 8.7451 26.7029 8.3651 27.8929 7.7251C30.5943 7.16642 33.3815 7.16642 36.0829 7.7251C36.1929 7.9351 36.4229 7.9351 36.6029 7.9951C41.0227 9.43645 44.9234 12.1412 47.8229 15.7751C49.9371 18.3336 51.5016 21.3002 52.4186 24.49C53.3356 27.6799 53.5856 31.0244 53.1529 34.3151C52.7964 37.4547 51.8064 40.4893 50.2429 43.2351C47.4373 48.3203 42.9197 52.2462 37.4929 54.3151C37.1529 54.4451 36.7629 54.4951 36.4929 54.8151C36.3329 54.7751 36.1029 54.7051 35.9329 54.9451ZM15.7629 33.0151C15.7629 36.4551 15.7629 39.8951 15.7629 43.3351C15.7629 43.9651 15.9129 44.3351 16.6229 44.3351H26.5629C27.1729 44.3351 27.4429 44.0551 27.4229 43.4551C27.4229 43.2551 27.4229 43.0451 27.4229 42.8451C27.3429 42.2951 27.5329 42.1051 28.1229 42.1151C30.1929 42.1151 32.2729 42.1151 34.3429 42.1151C37.5529 42.1151 40.7629 42.1151 43.9729 42.1151C44.437 42.1517 44.9024 42.065 45.3221 41.8637C45.7419 41.6624 46.1009 41.3537 46.3628 40.9689C46.6248 40.5841 46.7803 40.1369 46.8137 39.6726C46.8471 39.2083 46.7571 38.7434 46.5529 38.3251C46.4029 37.9351 46.5529 37.8851 46.8229 37.7351C47.185 37.5624 47.5026 37.3089 47.7513 36.994C47.9999 36.6792 48.1729 36.3115 48.257 35.9192C48.3411 35.5269 48.3339 35.1206 48.2361 34.7315C48.1383 34.3424 47.9524 33.981 47.6929 33.6751C47.4929 33.4051 47.4529 33.2751 47.6929 32.9851C48.109 32.5166 48.3388 31.9117 48.3388 31.2851C48.3388 30.6585 48.109 30.0536 47.6929 29.5851C47.6423 29.5419 47.6016 29.4883 47.5737 29.4278C47.5458 29.3674 47.5314 29.3016 47.5314 29.2351C47.5314 29.1685 47.5458 29.1028 47.5737 29.0424C47.6016 28.9819 47.6423 28.9283 47.6929 28.8851C48.0426 28.4938 48.2614 28.003 48.3188 27.4813C48.3762 26.9596 48.2692 26.4331 48.0129 25.9751C47.7795 25.5085 47.4122 25.1221 46.9579 24.8656C46.5036 24.609 45.983 24.4939 45.4629 24.5351C42.7029 24.5351 39.9529 24.5351 37.1929 24.5351C36.0929 24.5351 36.0929 24.5351 36.0929 23.4751C36.0929 20.9751 36.0929 18.4751 36.0929 15.9651C36.1077 15.6031 36.0494 15.2417 35.9216 14.9027C35.7938 14.5636 35.5991 14.2538 35.349 13.9916C35.0989 13.7294 34.7986 13.5202 34.466 13.3765C34.1334 13.2328 33.7752 13.1575 33.4129 13.1551C33.0523 13.1529 32.6951 13.2251 32.3638 13.3673C32.0324 13.5094 31.7339 13.7185 31.487 13.9813C31.2401 14.2441 31.0502 14.5551 30.929 14.8947C30.8079 15.2344 30.7581 15.5953 30.7829 15.9551C30.7829 17.4451 30.7829 18.9551 30.7829 20.4351C30.811 21.2132 30.6062 21.982 30.1946 22.643C29.7831 23.3039 29.1836 23.827 28.4729 24.1451C27.5329 24.5951 27.4729 24.5451 27.4729 23.4851C27.4729 23.2851 27.4729 23.0851 27.4729 22.8751C27.4729 21.8751 27.3229 21.7251 26.3329 21.7251H16.9529C15.8929 21.7251 15.7629 21.8551 15.7629 22.8951C15.7629 26.2818 15.7629 29.6551 15.7629 33.0151Z" fill="#F8BE4C"/>
<path d="M27.8929 7.70508C26.7029 8.35508 25.3929 8.70508 24.1829 9.34508C20.7241 11.0909 17.7292 13.633 15.4448 16.7624C13.1604 19.8917 11.6517 23.5188 11.0429 27.3451C10.1084 32.8602 11.1044 38.5289 13.8629 43.3951C16.063 47.3062 19.2889 50.5425 23.1929 52.7551C24.7774 53.5715 26.4029 54.3058 28.0629 54.9551C25.3767 54.5989 22.7891 53.7081 20.4529 52.3351C17.1243 50.5305 14.2767 47.9543 12.1488 44.8225C10.0208 41.6906 8.67463 38.0944 8.22291 34.3351C7.62687 29.6901 8.40279 24.9722 10.4551 20.7628C12.5074 16.5534 15.7464 13.0363 19.7729 10.6451C22.2602 9.14135 25.0194 8.14233 27.8929 7.70508V7.70508Z" fill="#F6DA6A"/>
<path d="M36.5629 54.8151C36.8029 54.4851 37.2029 54.4451 37.5629 54.3151C42.9897 52.2462 47.5073 48.3203 50.3129 43.2351C51.8765 40.4893 52.8664 37.4547 53.2229 34.3151C53.6516 31.0177 53.3951 27.6674 52.4693 24.4738C51.5436 21.2801 49.9686 18.312 47.8429 15.7551C44.9434 12.1212 41.0427 9.41644 36.6229 7.97508C36.4429 7.91508 36.2129 7.91508 36.1029 7.70508C39.24 8.13317 42.2388 9.26842 44.8729 11.0251C47.7864 12.838 50.2699 15.264 52.1506 18.1342C54.0313 21.0045 55.264 24.25 55.7629 27.6451C56.6722 33.6528 55.2756 39.7822 51.8535 44.803C48.4315 49.8239 43.2371 53.3648 37.3129 54.7151C37.0649 54.7619 36.8145 54.7953 36.5629 54.8151Z" fill="#D99F2F"/>
<path d="M35.9329 54.9451C36.1029 54.7051 36.3429 54.7751 36.5729 54.8051C36.3829 54.9851 36.1529 54.9351 35.9329 54.9451Z" fill="#D99F2F"/>
<path d="M15.7629 33.0151C15.7629 29.6817 15.7629 26.3184 15.7629 22.9251C15.7629 21.9251 15.8929 21.7551 16.9529 21.7551H26.2829C27.2829 21.7551 27.4129 21.9151 27.4229 22.9051C27.4229 23.1051 27.4229 23.3051 27.4229 23.5151C27.4229 24.5751 27.5029 24.6351 28.4229 24.1751C29.1336 23.857 29.7331 23.3339 30.1446 22.673C30.5562 22.012 30.761 21.2432 30.7329 20.4651C30.7329 18.9751 30.7329 17.4651 30.7329 15.9851C30.7081 15.6253 30.7579 15.2643 30.879 14.9247C31.0002 14.5851 31.1901 14.2741 31.437 14.0113C31.6839 13.7485 31.9824 13.5394 32.3138 13.3973C32.6451 13.2551 33.0023 13.1828 33.3629 13.1851C33.7252 13.1875 34.0834 13.2628 34.416 13.4065C34.7486 13.5502 35.0489 13.7594 35.299 14.0216C35.5491 14.2838 35.7438 14.5936 35.8716 14.9327C35.9994 15.2717 36.0577 15.6331 36.0429 15.9951C36.0429 18.4951 36.0429 20.9951 36.0429 23.5051C36.0429 24.5651 36.0429 24.5651 37.1429 24.5651C39.9029 24.5651 42.6529 24.5651 45.4129 24.5651C45.933 24.5239 46.4536 24.639 46.9079 24.8955C47.3622 25.1521 47.7295 25.5384 47.9629 26.0051C48.2192 26.4631 48.3262 26.9896 48.2688 27.5113C48.2114 28.033 47.9926 28.5238 47.6429 28.9151C47.5923 28.9583 47.5516 29.0119 47.5237 29.0723C47.4958 29.1328 47.4814 29.1985 47.4814 29.2651C47.4814 29.3316 47.4958 29.3974 47.5237 29.4578C47.5516 29.5182 47.5923 29.5719 47.6429 29.6151C48.059 30.0836 48.2888 30.6885 48.2888 31.3151C48.2888 31.9417 48.059 32.5466 47.6429 33.0151C47.4329 33.3051 47.4729 33.4451 47.6429 33.7051C47.9025 34.011 48.0883 34.3724 48.1861 34.7615C48.2839 35.1506 48.2911 35.5569 48.207 35.9492C48.1229 36.3415 47.9499 36.7092 47.7013 37.024C47.4526 37.3389 47.135 37.5924 46.7729 37.7651C46.5129 37.9151 46.3529 37.9651 46.5029 38.3551C46.7071 38.7734 46.7971 39.2383 46.7637 39.7025C46.7303 40.1668 46.5748 40.6141 46.3128 40.9989C46.0509 41.3837 45.6919 41.6924 45.2721 41.8937C44.8524 42.0949 44.387 42.1817 43.9229 42.1451C40.7129 42.1451 37.5029 42.1451 34.2929 42.1451C32.2229 42.1451 30.1429 42.1451 28.0729 42.1451C27.4829 42.1451 27.3029 42.3251 27.3729 42.8751C27.3729 43.0751 27.3729 43.2751 27.3729 43.4851C27.3729 44.0851 27.1229 44.3651 26.5129 44.3651H16.5729C15.8629 44.3651 15.7029 43.9551 15.7129 43.3651C15.7729 39.8951 15.7629 36.4551 15.7629 33.0151ZM35.9429 40.9151H43.5329C43.8686 40.9241 44.2042 40.8939 44.5329 40.8251C44.8253 40.7559 45.0847 40.5876 45.267 40.3488C45.4493 40.11 45.5433 39.8154 45.5329 39.5151C45.5517 39.2013 45.4629 38.8905 45.281 38.6341C45.0992 38.3777 44.8352 38.1911 44.5329 38.1051C44.3829 38.1051 44.2329 38.1051 44.0829 38.0351C43.9279 38.0175 43.7862 37.9392 43.6887 37.8174C43.5913 37.6956 43.546 37.5402 43.5629 37.3851C43.5667 37.3089 43.5856 37.2342 43.6183 37.1653C43.6511 37.0964 43.6971 37.0346 43.7538 36.9835C43.8104 36.9324 43.8766 36.893 43.9486 36.8675C44.0205 36.8421 44.0967 36.831 44.1729 36.8351H45.3129C46.3129 36.8351 46.9429 36.3951 47.0429 35.6051C47.1429 34.8151 46.7229 34.2251 45.6629 33.9851C45.3329 33.9051 45.0829 33.7651 45.0629 33.4051C45.0545 33.3227 45.0635 33.2395 45.0893 33.1608C45.1152 33.0822 45.1573 33.0098 45.213 32.9485C45.2686 32.8872 45.3365 32.8383 45.4123 32.805C45.4881 32.7717 45.5701 32.7547 45.6529 32.7551L45.9529 32.6951C46.2708 32.6198 46.553 32.4371 46.7519 32.178C46.9508 31.9188 47.0542 31.5991 47.0448 31.2725C47.0355 30.946 46.9138 30.6326 46.7003 30.3854C46.4868 30.1381 46.1946 29.972 45.8729 29.9151C45.4729 29.8451 45.0929 29.7851 45.0729 29.2951C45.0529 28.8051 45.4929 28.7151 45.9029 28.6251C46.1539 28.583 46.3888 28.4737 46.5828 28.3089C46.7767 28.1441 46.9224 27.9298 47.0044 27.6889C47.0864 27.448 47.1017 27.1893 47.0486 26.9404C46.9955 26.6915 46.8761 26.4616 46.7029 26.2751C46.5213 26.1005 46.3036 25.9679 46.0652 25.8866C45.8267 25.8054 45.5733 25.7776 45.3229 25.8051H35.9929C34.9329 25.8051 34.8729 25.7351 34.8729 24.6851C34.8729 21.8751 34.8729 19.0751 34.8729 16.2651C34.8729 15.1251 34.2829 14.4051 33.4029 14.4351C32.5229 14.4651 32.0229 15.1051 32.0229 16.2451C32.0229 17.7351 32.0229 19.2451 32.0229 20.7251C32.0039 21.8587 31.6114 22.9543 30.9063 23.842C30.2011 24.7298 29.2228 25.3601 28.1229 25.6351C27.6329 25.7551 27.4729 25.9151 27.4829 26.4251C27.4829 31.0251 27.4829 35.6284 27.4829 40.2351C27.4829 40.7951 27.6129 40.9651 28.1929 40.9551C30.7329 40.8951 33.3429 40.9151 35.9429 40.9151V40.9151ZM16.9429 33.0751C16.9429 36.2051 16.9429 39.3351 16.9429 42.4751C16.9429 42.8651 16.9429 43.1351 17.4829 43.1251C20.1829 43.1251 22.8929 43.1251 25.5929 43.1251C26.0529 43.1251 26.1429 42.9351 26.1229 42.5351C26.1229 41.9351 26.0729 41.3251 26.0729 40.7151C26.0729 35.0551 26.0929 29.3884 26.1329 23.7151C26.1329 23.1751 26.0229 22.9751 25.4329 22.9751C22.8329 22.9751 20.2329 22.9751 17.6329 22.9751C17.0229 22.9751 16.9429 23.1951 16.9429 23.7251C17.0029 26.8651 16.9929 29.9651 16.9929 33.0751H16.9429Z" fill="#6C0B86"/>
<path d="M35.9429 40.9151C33.3429 40.9151 30.7329 40.9151 28.1329 40.9151C27.5529 40.9151 27.4229 40.7551 27.4229 40.1951C27.4229 35.5951 27.4229 30.9917 27.4229 26.3851C27.4229 25.8751 27.5829 25.7151 28.0629 25.5951C29.1628 25.32 30.1412 24.6898 30.8463 23.802C31.5514 22.9143 31.9439 21.8186 31.9629 20.6851C31.9629 19.1951 31.9629 17.6851 31.9629 16.2051C31.9629 15.0651 32.4629 14.4151 33.3429 14.3951C34.2229 14.3751 34.8129 15.0851 34.8129 16.2251C34.8129 19.0351 34.8129 21.8351 34.8129 24.6451C34.8129 25.6951 34.8829 25.7651 35.9329 25.7651H45.2629C45.5133 25.7376 45.7667 25.7654 46.0052 25.8466C46.2436 25.9278 46.4613 26.0604 46.6429 26.2351C46.8161 26.4216 46.9356 26.6515 46.9886 26.9004C47.0417 27.1493 47.0265 27.4079 46.9444 27.6489C46.8624 27.8898 46.7167 28.1041 46.5228 28.2689C46.3288 28.4337 46.0939 28.543 45.8429 28.5851C45.4329 28.6851 44.9929 28.7051 45.0129 29.2551C45.0329 29.8051 45.4029 29.8051 45.8129 29.8751C46.1346 29.932 46.4268 30.0981 46.6403 30.3454C46.8538 30.5926 46.9755 30.906 46.9849 31.2325C46.9943 31.559 46.8908 31.8788 46.6919 32.138C46.493 32.3971 46.2108 32.5797 45.8929 32.6551L45.5929 32.7151C45.5101 32.7146 45.4282 32.7316 45.3524 32.765C45.2766 32.7983 45.2086 32.8472 45.153 32.9085C45.0973 32.9698 45.0552 33.0422 45.0294 33.1208C45.0035 33.1995 44.9945 33.2827 45.0029 33.3651C45.0029 33.7251 45.2729 33.8651 45.6029 33.9451C46.6629 34.1851 47.0929 34.7051 46.9829 35.5651C46.8729 36.4251 46.2829 36.7751 45.2529 36.7951H44.1529C44.0767 36.791 44.0005 36.802 43.9286 36.8275C43.8566 36.853 43.7904 36.8924 43.7338 36.9435C43.6771 36.9946 43.6311 37.0564 43.5983 37.1253C43.5656 37.1942 43.5467 37.2689 43.5429 37.3451C43.526 37.5001 43.5713 37.6556 43.6687 37.7774C43.7662 37.8992 43.9079 37.9775 44.0629 37.9951C44.2029 37.9951 44.3629 37.9951 44.5129 38.0651C44.8153 38.1511 45.0792 38.3377 45.261 38.5941C45.4429 38.8505 45.5317 39.1613 45.5129 39.4751C45.5233 39.7753 45.4293 40.0699 45.247 40.3088C45.0647 40.5476 44.8053 40.7159 44.5129 40.7851C44.1842 40.8539 43.8486 40.8841 43.5129 40.8751L35.9429 40.9151Z" fill="#EFE9E8"/>
<path d="M16.9929 33.0751C16.9929 29.9651 16.9929 26.8651 16.9929 23.7551C16.9929 23.2351 17.0629 23.0051 17.6829 23.0051C20.2829 23.0384 22.8829 23.0384 25.4829 23.0051C26.0729 23.0051 26.1829 23.1951 26.1829 23.7451C26.1495 29.4051 26.1295 35.0717 26.1229 40.7451C26.1229 41.3551 26.1229 41.9551 26.1729 42.5651C26.1729 42.9651 26.1029 43.1551 25.6429 43.1551C22.9429 43.1551 20.2329 43.1551 17.5329 43.1551C16.9929 43.1551 16.9929 42.8951 16.9929 42.5051C16.9929 39.3351 16.9929 36.2051 16.9929 33.0751Z" fill="#EFEAE9"/>
</svg>
