<svg width="476" height="428" viewBox="0 0 476 428" fill="none" xmlns="http://www.w3.org/2000/svg">
<path d="M34.3546 407.893C26.7293 407.893 19.104 406.361 13.2853 403.297C1.64929 397.169 1.64929 387.233 13.284 381.104C19.1026 378.04 26.728 376.507 34.3533 376.507C41.9786 376.507 49.604 378.04 55.4226 381.104C67.0573 387.233 67.0586 397.169 55.4226 403.298C49.6053 406.361 41.98 407.893 34.3546 407.893Z" fill="#899ABF"/>
<path d="M68.252 378.78V370.097H66.4546C64.8413 367.563 62.1546 365.177 58.3226 363.159C45.0853 356.187 23.6213 356.187 10.3827 363.159C6.55066 365.177 3.8653 367.563 2.25197 370.097H0.457321V378.733H0.459974C0.437307 383.317 3.74263 387.907 10.384 391.404C23.6226 398.376 45.0853 398.376 58.324 391.405C64.9426 387.917 68.252 383.349 68.252 378.78Z" fill="#55dede"/>
<path d="M58.324 382.721C45.0853 389.693 23.6226 389.693 10.384 382.721C-2.85337 375.748 -2.85334 364.445 10.3827 357.472C23.6213 350.5 45.0853 350.5 58.3226 357.472C71.56 364.445 71.5613 375.749 58.324 382.721Z" fill="#55dede"/>
<path d="M18.0147 376.008C17.444 375.708 17.12 375.298 17.1213 374.868L17.156 363.237C17.1586 362.351 18.5267 361.632 20.212 361.632C21.8973 361.632 23.2573 362.355 23.2573 363.243L23.228 372.888L53.9147 369.46C55.564 369.276 57.1827 369.831 57.5333 370.697C57.8827 371.567 56.8293 372.419 55.1813 372.604L20.8053 376.444C19.904 376.544 18.9653 376.425 18.2493 376.12L18.0147 376.008" fill="white"/>
<path d="M198.684 427.577C194.725 427.577 190.944 426.776 188.123 425.141L73.872 358.981C67.6653 355.387 68.4533 349.125 75.6306 344.993L315.411 207C319.325 204.747 324.332 203.593 329.081 203.593C333.041 203.593 336.823 204.396 339.644 206.029L453.893 272.189C460.101 275.785 459.313 282.047 452.135 286.179L212.356 424.172C208.441 426.424 203.435 427.577 198.684 427.577Z" fill="#899ABF"/>
<path d="M463.052 223.184L344.152 154.329C335.803 149.492 321.205 150.077 311.548 155.635L68.3146 295.616C58.6586 301.175 57.5986 309.599 65.9466 314.436L184.848 383.291C193.197 388.127 207.795 387.541 217.451 381.983L460.685 242.003C470.343 236.445 471.401 228.02 463.052 223.184Z" fill="#D9EFFB"/>
<path d="M184.799 400.636L65.8973 331.781C61.992 329.52 60.1706 326.468 60.3 323.297L60.2733 323.305L60.3226 306.052L66.9346 313.799C67.3626 313.516 67.7946 313.233 68.2653 312.963L311.499 172.981C321.156 167.424 335.752 166.839 344.103 171.676L461.332 239.563C463.705 236.965 468.68 231.479 468.68 231.479L468.624 248.355L468.621 248.353C468.797 252.157 466.089 256.209 460.636 259.348L217.401 399.329C207.745 404.886 193.148 405.472 184.799 400.636Z" fill="#4067B1"/>
<path d="M184.759 385.132L65.8573 316.277C61.5506 313.783 59.768 310.333 60.3546 306.816C60.5653 309.673 62.3973 312.38 65.9467 314.436L184.848 383.291C193.197 388.127 207.795 387.541 217.451 381.983L460.685 242.003C465.363 239.311 468.003 235.947 468.555 232.643C468.84 236.508 466.147 240.648 460.596 243.844L217.361 383.825C207.704 389.383 193.107 389.967 184.759 385.132Z" fill="white"/>
<path d="M453.893 225.896L339.644 159.736C333.437 156.14 322.588 156.576 315.411 160.707L75.6306 298.7C68.4533 302.831 67.6653 309.093 73.872 312.688L188.123 378.849C194.328 382.443 205.177 382.008 212.356 377.877L452.135 239.884C459.313 235.753 460.101 229.491 453.893 225.896" fill="#263C7A"/>
<path d="M216.901 344.485L136.28 297.94L141.427 294.968L222.048 341.516L216.901 344.485" fill="#D9EFFB"/>
<path d="M160.808 330.915L119.987 307.348L125.132 304.376L165.953 327.945L160.808 330.915Z" fill="#D9EFFB"/>
<path d="M180.617 342.355L167.379 334.709L172.524 331.739L185.764 339.383L180.617 342.355" fill="#55dede"/>
<path d="M200.607 353.895L187.367 346.249L192.512 343.28L205.753 350.923L200.607 353.895Z" fill="white"/>
<path d="M161.264 321.772L128.133 302.643L133.279 299.673L166.409 318.8L161.264 321.772Z" fill="white"/>
<path d="M201.707 345.121L168.575 325.992L173.72 323.021L206.852 342.149L201.707 345.121Z" fill="#D9EFFB"/>
<path d="M177.177 304.232C175.52 305.189 172.832 305.189 171.173 304.232C169.516 303.275 169.516 301.724 171.173 300.765C172.832 299.808 175.52 299.808 177.177 300.765C178.835 301.724 178.835 303.275 177.177 304.232Z" fill="#55dede"/>
<path d="M186.149 309.411C184.491 310.368 181.803 310.368 180.145 309.411C178.488 308.455 178.488 306.903 180.145 305.945C181.803 304.988 184.491 304.988 186.149 305.945C187.807 306.903 187.807 308.455 186.149 309.411Z" fill="white"/>
<path d="M195.119 314.591C193.461 315.548 190.773 315.548 189.115 314.591C187.457 313.633 187.457 312.081 189.115 311.125C190.772 310.168 193.461 310.168 195.119 311.125C196.776 312.081 196.776 313.633 195.119 314.591Z" fill="#D9EFFB"/>
<path d="M204.091 319.769C202.432 320.727 199.744 320.727 198.087 319.769C196.429 318.812 196.428 317.26 198.087 316.303C199.744 315.347 202.432 315.347 204.089 316.303C205.748 317.26 205.748 318.812 204.091 319.769Z" fill="#55dede"/>
<path d="M213.06 324.949C211.403 325.907 208.715 325.907 207.056 324.949C205.399 323.992 205.399 322.44 207.056 321.483C208.715 320.525 211.403 320.525 213.06 321.483C214.717 322.44 214.717 323.992 213.06 324.949Z" fill="white"/>
<path d="M393.372 226.407L379.797 218.569L385.073 215.523L398.648 223.36L393.372 226.407Z" fill="#55dede"/>
<path d="M412.273 237.319L398.7 229.481L403.976 226.436L417.549 234.273L412.273 237.319" fill="white"/>
<path d="M332.74 191.073L319.165 183.236L324.441 180.188L338.016 188.025L332.74 191.073Z" fill="white"/>
<path d="M390.345 234.304L371.444 223.392L376.72 220.347L395.621 231.259L390.345 234.304" fill="white"/>
<path d="M403.92 242.141L395.627 237.355L400.901 234.307L409.196 239.096L403.92 242.141" fill="#D9EFFB"/>
<path d="M452.133 380.069L429.159 366.804L452.133 353.54L475.108 366.804L452.133 380.069Z" fill="#899ABF"/>
<path d="M475.108 349.964L452.133 363.228V336.7L475.108 323.436V349.964Z" fill="#D1078D"/>
<path d="M452.133 336.7L429.16 323.436L452.133 310.172L475.107 323.436L452.133 336.7Z" fill="#55dede"/>
<path d="M452.133 363.228L429.16 349.964V323.436L452.133 336.7V363.228Z" fill="#55dede"/>
<path d="M443.86 348.897L437.435 345.188V337.767L443.86 341.477V348.897Z" fill="white"/>
<path d="M55.048 274.608L31.1293 260.799L55.0453 246.991L78.9653 260.799L55.048 274.608Z" fill="#899ABF"/>
<path d="M78.9653 243.267L55.048 257.076V229.459L78.9653 215.649V243.267Z" fill="#263C7A"/>
<path d="M55.048 229.459L31.1293 215.649L55.0467 201.841L78.964 215.649L55.048 229.459" fill="#D9EFFB"/>
<path d="M55.048 257.076L31.1293 243.267V215.649L55.048 229.459V257.076" fill="#5F92D3"/>
<path d="M46.4333 242.156L39.744 238.295V230.569L46.4333 234.432V242.156Z" fill="white"/>
<path d="M218.045 29.2787L168.285 0.550688C167.3 -0.018645 166.411 -0.0386189 165.713 0.344048L165.716 0.312049L160.889 3.10004C160.889 3.10004 163.027 3.88004 164.281 4.34004V40.576C164.281 43.524 166.073 46.9494 168.285 48.2267L215.845 75.6854V79.936L220.721 77.1294L220.696 77.12C221.519 76.6174 222.048 75.5147 222.048 73.928V36.928C222.048 33.98 220.256 30.556 218.045 29.2787" fill="#D1078D"/>
<path d="M213.129 79.788L163.371 51.0587C161.16 49.7827 159.367 46.3574 159.367 43.4094V6.40937C159.367 3.46137 161.16 2.10668 163.371 3.38402L213.129 32.112C215.34 33.3894 217.133 36.8134 217.133 39.7614V76.76C217.133 79.7094 215.34 81.064 213.129 79.788Z" fill="#55dede"/>
<path d="M180.104 38.308C180.104 40.4507 178.601 41.3174 176.747 40.2467C174.892 39.1774 173.388 36.5734 173.388 34.432C173.388 32.292 174.892 31.4227 176.747 32.4934C178.601 33.5654 180.104 36.168 180.104 38.308Z" fill="white"/>
<path d="M190.273 44.1814C190.273 46.3214 188.771 47.1894 186.917 46.12C185.063 45.0494 183.559 42.4454 183.559 40.304C183.559 38.164 185.063 37.296 186.917 38.3654C188.771 39.436 190.273 42.0401 190.273 44.1814Z" fill="white"/>
<path d="M200.444 50.0533C200.444 52.1933 198.941 53.0627 197.088 51.992C195.233 50.92 193.731 48.3174 193.731 46.1774C193.731 44.0347 195.233 43.168 197.088 44.2387C198.941 45.308 200.444 47.912 200.444 50.0533Z" fill="white"/>
<path d="M299.441 219.144L299.463 209.551L310.811 152.371L299.603 145.447L277.145 157.843L276.985 231.54C276.975 236.5 278.832 239.853 281.688 240.945V240.949L291.672 247.227L292.927 242.48L294.643 233.835C297.535 229.575 299.431 224.129 299.441 219.144" fill="#5F92D3"/>
<path d="M299.389 247.007C293.189 250.428 288.176 246.605 288.195 238.465L288.355 164.767L310.811 152.371L310.651 226.069C310.632 234.208 305.592 243.583 299.389 247.007" fill="#5F92D3"/>
<path d="M360.004 112.688C360.004 131.392 346.873 138.972 330.673 129.621C314.475 120.268 301.343 97.5227 301.343 78.8187C301.343 60.1147 314.475 52.532 330.673 61.8853C346.873 71.2387 360.004 93.9827 360.004 112.688Z" fill="#55dede"/>
<path d="M351.703 131.504L266.344 180.451L220.459 111.523L309.384 60.1667L351.703 131.504" fill="#55dede"/>
<path d="M318.131 137.667C318.131 118.428 304.624 95.0347 287.963 85.4147C280.391 81.044 273.477 80.28 268.18 82.5414L268.172 82.528L268.063 82.5814L267.928 82.648C267.695 82.752 267.467 82.8654 267.24 82.9827C235.739 98.4654 200.876 105.865 165.792 104.5L155.852 104.113L236.772 242.784L241.156 234.312C257.14 203.42 280.5 176.965 309.147 157.275C314.691 154.16 318.131 147.371 318.131 137.667" fill="#D9EFFB"/>
<path d="M237.519 216.525C237.519 253.432 211.608 268.391 179.647 249.937C147.685 231.484 121.775 186.607 121.775 149.701C121.775 112.797 147.685 97.8387 179.647 116.292C211.608 134.744 237.519 179.621 237.519 216.525Z" fill="#5F92D3"/>
<path d="M230.421 212.428C230.421 244.807 207.688 257.931 179.647 241.741C151.604 225.552 128.873 186.179 128.873 153.799C128.873 121.42 151.604 108.297 179.647 124.487C207.688 140.677 230.421 180.049 230.421 212.428" fill="#263C7A"/>
<path d="M172.048 170.976L245.717 114.013L272.471 160.425L186 195.908L172.048 170.976Z" fill="#D9EFFB"/>
<path d="M189.785 188.968C189.785 195.435 185.247 198.055 179.647 194.821C174.048 191.588 169.507 183.727 169.507 177.26C169.507 170.795 174.048 168.173 179.647 171.407C185.247 174.639 189.785 182.503 189.785 188.968Z" fill="#5F92D3"/>
<path d="M282.779 219.776L282.381 219.548C280.907 218.703 279.708 216.427 279.703 214.465L279.661 200.253C279.656 198.292 280.845 197.387 282.32 198.232L282.717 198.461C284.191 199.305 285.389 201.58 285.396 203.543L285.437 217.755C285.443 219.716 284.253 220.621 282.779 219.776Z" fill="white"/>
<path d="M254.641 296.228L336.291 249.085C345.131 243.983 344.021 235.069 333.816 229.176C323.608 223.284 308.168 222.643 299.329 227.747L217.679 274.888C208.84 279.991 209.948 288.905 220.156 294.799C230.363 300.689 245.801 301.331 254.641 296.228" fill="#21305F"/>
<path d="M184.759 385.132L65.8573 316.277C61.5506 313.783 59.768 310.333 60.3546 306.816C60.5653 309.673 62.3973 312.38 65.9467 314.436L184.848 383.291C193.197 388.127 207.795 387.541 217.451 381.983L460.685 242.003C465.363 239.311 468.003 235.947 468.555 232.643C468.84 236.508 466.147 240.648 460.596 243.844L217.361 383.825C207.704 389.383 193.107 389.967 184.759 385.132Z" fill="white"/>
</svg>
