<svg width="797" height="797" viewBox="0 0 797 797" fill="none" xmlns="http://www.w3.org/2000/svg">
<path d="M369.93 212.67C351.81 212.67 344.34 215.74 341.23 217.17C336.677 219.263 332.325 221.77 328.23 224.66C328.23 224.66 347.77 212.22 370.89 216.66C370.89 216.66 370.23 212.01 378.68 210.94C387.13 209.87 379.52 208.27 378.57 208.47C377.62 208.67 380 208.69 380 208.69L369.93 212.67Z" fill="#E5785C"/>
<path d="M520.95 344.71C520.381 346.98 519.079 348.999 517.246 350.455C515.412 351.91 513.151 352.72 510.81 352.76C509.828 352.76 508.851 352.615 507.91 352.33C503.578 352.185 499.287 351.438 495.16 350.11C489.74 348.41 482.43 346.53 475.61 344.25C441.74 332.93 437.44 328.62 435.61 327.64C430.47 324.94 418.85 312.99 415.13 295.41C413.53 287.88 411.65 277.27 407.98 269.73C402.37 258.21 396.65 247.73 392.31 243.3C390.286 241.213 389.13 238.434 389.076 235.527C389.022 232.62 390.075 229.801 392.02 227.64C396.02 223.23 401.91 224.24 406.95 227.33C417.86 234.02 425.52 232.38 434.69 255.33C438.6 265.14 447.8 305.27 450.2 308.54C456.2 312.54 487.49 323.16 513.74 331C516.483 331.908 518.767 333.844 520.111 336.4C521.456 338.957 521.757 341.936 520.95 344.71Z" fill="#FFB287"/>
<path d="M363.61 471.09C362.37 473.68 361.18 476.09 360 478.33C358.387 481.493 356.583 484.555 354.6 487.5C352.11 491.263 348.967 494.552 345.32 497.21C331.9 506.75 311.56 508.48 299.47 508.61H298.34H295.34C285.963 508.715 276.595 508.005 267.34 506.49C264.78 506.11 262.13 505.72 259.07 505.36C252.63 504.61 248 498.51 248.72 491.76C248.847 490.188 249.285 488.657 250.01 487.257C250.735 485.856 251.732 484.614 252.942 483.603C254.152 482.592 255.552 481.832 257.059 481.368C258.566 480.904 260.151 480.745 261.72 480.9C265.12 481.3 267.95 481.72 270.67 482.12C279.757 483.618 288.965 484.247 298.17 484H299.3C307.16 483.93 315.3 482.26 317.25 481C317.828 480.563 318.331 480.037 318.74 479.44C321.45 475.85 325.47 467.57 328.25 461.76C331.17 455.69 334.38 457.86 340.17 460.92C342.741 462.003 345.424 462.798 348.17 463.29C356.07 465 365.71 466.81 363.61 471.09Z" fill="#FFB287"/>
<path d="M360.04 478.33C358.427 481.493 356.623 484.555 354.64 487.5C347.03 490.06 335.34 490.85 318.73 479.44C321.44 475.85 325.46 467.57 328.24 461.76C331.16 455.69 334.37 457.86 340.16 460.92C342.731 462.003 345.414 462.798 348.16 463.29L360.04 478.33Z" fill="#E5785C"/>
<path d="M336.69 390C333.15 391.31 332.97 401.6 334.17 405.68L343.47 437.3C344.67 441.39 348.27 442.96 351.47 440.8L399.4 428.24C405.72 425.9 428.4 398.17 422.67 378.85L412.49 370.16C411.28 366.08 407.39 363.81 403.85 365.16L336.69 390Z" fill="#343F86"/>
<path d="M322 461.74C322.031 460.907 322.236 460.09 322.6 459.34L329.7 446.34C337.7 427.55 324.51 410.81 324.78 389.71C324.95 376.33 356.69 362.27 368.25 358.99C379.81 355.71 386.61 337 389.61 350C396.8 381.95 405.4 405.12 394.44 434C388.61 449.11 360.61 483.31 360.61 483.31C357.93 488.64 347.27 487.6 336.78 480.99C335.57 480.24 334.42 479.43 333.34 478.6C327.49 474.15 323.45 468.87 322.34 464.47C322.088 463.583 321.973 462.662 322 461.74V461.74Z" fill="#212C63"/>
<path d="M324.79 378.46V384.46C324.79 385.69 324.79 386.9 324.79 388.08C324.79 391.6 324.79 380.6 324.97 383.64C325.62 398.35 326.33 403.44 342.75 417.86C344.86 419.71 347.75 422.93 350.75 425.86C353.3 428.34 356.37 431.86 360.63 436.37L372.42 415.19C372.42 415.19 396.42 409.73 384.64 395.65C382.64 393.283 380.71 391.157 378.85 389.27C376.758 387.152 374.504 385.2 372.11 383.43V383.43C365.37 378.53 359.06 376.9 352.84 378.43C348.966 379.224 345.014 379.579 341.06 379.49C335.622 379.454 330.19 379.11 324.79 378.46V378.46Z" fill="#343F86"/>
<path d="M416.36 247.43L410.36 376.62C410.36 376.62 386.97 381.35 364.65 383.62C361.54 383.95 358.44 384.23 355.42 384.43C338.96 385.56 325.1 384.7 324.81 378.63C324.806 378.563 324.806 378.497 324.81 378.43C324.81 363.86 327.71 360.77 330.4 351.03C330.4 350.89 330.47 350.75 330.52 350.61C332.12 344.69 333.65 336.32 334.43 321.61V245.85C334.43 228.59 337.05 219.7 346.97 216.41C347.45 216.24 347.97 216.09 348.47 215.95C351.922 215.134 355.464 214.758 359.01 214.83L390.39 218.39C402.81 218.5 416.36 228.31 416.36 247.43Z" fill="#F23D3D"/>
<path d="M362.53 214.83H384.61C386.11 214.89 404.38 220.05 405.96 238.66C406.85 249.08 407.77 255.66 393.24 255.66H391.43C379.27 255.66 377.55 245.32 375.28 235.38C371.98 220.94 369.9 218.22 366.57 216.24C363.61 214.41 362.53 214.83 362.53 214.83Z" fill="#FFB287" stroke="white" stroke-width="6.55" stroke-miterlimit="10"/>
<path d="M415.61 449.87C410.42 458.49 402.32 466.44 399.37 466.63C393.68 467 393.31 471.15 388.82 466.44C388.08 465.66 381.89 458.59 381.12 457.78C369.8 445.98 361.54 437.34 356.57 432.1C354.33 429.74 352.93 428.24 352.08 427.33C351.5 426.71 351.08 426.33 350.88 426.01C346.822 421.385 344.515 415.482 344.364 409.33C344.212 403.179 346.225 397.169 350.05 392.35C356.98 383.83 370.17 380.53 380.96 391.17L381.84 392.05C382.606 392.824 383.317 393.649 383.97 394.52C385.54 396.19 388.07 398.86 392.16 403.14C396.39 407.57 402.28 413.73 410.48 422.28C411.29 423.11 417.56 430.44 418.23 431.36C421.53 436 419.79 442.88 415.61 449.87Z" fill="#343F86"/>
<path d="M415.61 449.87L405.52 451.19L399.93 441.69C393.18 435.37 371.93 413.45 368.21 408.92C366.71 407.08 367.46 403.09 369.7 399.8C372.97 395.02 379.39 391.72 386.7 398.63C388.24 400.09 395.06 397.91 397.13 399.48C398.496 401.064 399.759 402.734 400.91 404.48C407.24 413.6 417.68 430.73 418.24 431.48C421.61 435.68 419.78 442.88 415.61 449.87Z" fill="#404FA1"/>
<path d="M403.4 408.17C400.85 404.41 396.23 404.97 386.81 402.62C374.02 399.42 371.72 397.41 369.68 399.78C373.1 393.39 379.37 391.7 386.68 398.61C388.22 400.07 395.04 397.89 397.11 399.46C397.93 400.34 402.77 404 403.4 408.17Z" fill="#343F86"/>
<path d="M424.23 436.64C424.38 441.18 421.87 447.55 417.3 453.78C416.46 454.95 415.53 456.1 414.54 457.23C412.501 459.59 410.237 461.747 407.78 463.67C407.12 464.18 406.47 464.67 405.78 465.1C399.78 469.24 394.08 470.46 391.2 467.72C388.55 465.16 388.92 459.8 391.67 453.72C392.212 452.513 392.816 451.334 393.48 450.19C395.053 447.487 396.878 444.939 398.93 442.58C398.977 442.508 399.03 442.441 399.09 442.38C400.09 441.19 401.2 440.07 402.28 439.04C402.97 438.37 403.84 438.28 404.54 437.68C404.54 437.68 405.09 438.23 404.8 437.47C408.543 434.297 412.891 431.916 417.58 430.47C417.683 430.454 417.788 430.454 417.89 430.47C418.72 430.409 419.553 430.532 420.33 430.83C420.6 430.94 421 431.62 421.58 432.18C422.16 432.74 423.35 433.46 423.65 434.26C423.984 435.012 424.18 435.818 424.23 436.64Z" fill="#212C63"/>
<path d="M451.61 542.92C450.7 543.17 446.82 544.64 445.92 544.64C440.82 544.64 442.1 553.78 440.16 548.58C435.88 537.14 431.64 511.06 427.83 491.97C425.68 481.22 414.04 471.19 405.83 465.13C405.3 464.74 404.71 464.3 404.09 463.83C399.7 460.49 393.52 455.49 391.72 453.77C392.262 452.563 392.866 451.384 393.53 450.24C395.103 447.537 396.928 444.989 398.98 442.63C399.027 442.558 399.08 442.491 399.14 442.43C400.14 441.24 401.25 440.12 402.33 439.09C403.02 438.42 414.99 430.82 417.63 430.5H417.71H417.94C418.767 430.455 419.595 430.549 420.39 430.78L423.78 434.01C443.61 452.91 446.4 457 448.93 464.3C450.14 467.72 449.66 468.18 453.54 488.86C456.91 506.86 458.44 522.52 459.86 528.5C460.627 531.504 460.194 534.689 458.654 537.38C457.115 540.071 454.589 542.058 451.61 542.92V542.92Z" fill="#FFB287"/>
<path d="M420.54 430.93C412.63 439.04 407.05 451.4 404.04 463.82C399.65 460.48 393.47 455.48 391.67 453.76C392.212 452.553 392.816 451.374 393.48 450.23C395.053 447.527 396.878 444.979 398.93 442.62C398.977 442.548 399.03 442.481 399.09 442.42C400.064 441.224 401.131 440.107 402.28 439.08C409.46 433.14 414.94 430.81 417.58 430.49H417.66C418.87 430.36 420.25 430.49 420.54 430.93Z" fill="#E5785C"/>
<path d="M434.27 525.61C434.27 525.61 438.1 542.28 440.02 553.69C440.95 559.24 446.49 564.83 451.55 565.42C452.42 565.526 453.3 565.526 454.17 565.42C460.26 564.62 466.56 559.88 465.46 553.42C463.4 541.24 460.68 529.42 457.99 517.42L434.27 525.61Z" fill="white"/>
<path d="M397.44 223.47C397.44 223.47 393.01 226.86 382.91 226.86C380.682 226.695 378.481 226.273 376.35 225.6C376.35 225.6 373.6 217.84 370.16 216.21C367.65 215.02 367.97 214.79 367.97 214.79L377.18 191.56L403.77 190L397.44 223.47Z" fill="#FFB287"/>
<path d="M398.84 213.38C398.49 215.04 391.23 211.8 385.84 212.27C380.45 212.74 374.29 213.47 371.31 216.11C370.87 216.5 369.31 212.05 368.96 213.51C367.96 218.25 373.7 183.82 373.7 183.82L404.89 184.88L398.84 213.38Z" fill="#E5785C"/>
<path d="M379.09 208.43C379.59 211.12 379.5 212.57 387.22 212.15C400.13 211.45 415.5 210.15 420.12 193.84C424.25 179.25 392.12 186.28 392.12 186.28C392.12 186.28 383.83 191.06 381.91 195.07C379.99 199.08 379.09 208.43 379.09 208.43Z" fill="#E5785C"/>
<path d="M324.77 374.87V388.12L368.89 383.5C359.39 383.5 351.53 382.25 341.05 379.5C336.31 378.27 331.01 376.73 324.77 374.87Z" fill="#D33939"/>
<path d="M372.13 383.49C365.6 383.49 352.58 385.29 341.85 388.38C340.44 388.79 339.08 389.21 337.77 389.66C331.1 391.93 326.57 396.55 325.58 399.77C323.26 383.29 324.77 374.86 324.77 374.86C329.27 376.21 333.29 377.39 336.96 378.39C338.38 378.79 339.754 379.16 341.08 379.5H341.21C351.343 381.941 361.71 383.279 372.13 383.49V383.49Z" fill="#212C63"/>
<path d="M393.96 446.65C393.08 447.99 392.28 449.34 391.58 450.65C381.69 440.29 363.95 422.75 356.25 415.14L354.94 413.85C353.87 412.79 352.77 411.78 351.61 410.7C346.07 405.59 339.93 399.92 337.77 389.7C337.216 387.009 336.945 384.267 336.96 381.52V378.4C338.38 378.8 339.754 379.17 341.08 379.51H341.21V381.46C341.193 383.776 341.407 386.087 341.85 388.36C343.63 397.17 348.85 401.97 354.3 407.01C355.44 408.07 356.62 409.15 357.75 410.27L359.06 411.56C367.28 419.72 383.99 436.24 393.96 446.65Z" fill="white"/>
<path d="M341.2 381.49V379.54H341.07C339.737 379.2 338.364 378.83 336.95 378.43V381.52C336.935 384.267 337.206 387.009 337.76 389.7C339.07 389.25 340.43 388.83 341.84 388.42C341.395 386.137 341.181 383.816 341.2 381.49V381.49Z" fill="#F2E7E1"/>
<path d="M425.38 133.26V147.33C425.38 149.67 425.07 151.05 422.38 151.05C420.13 151.05 420.82 141.24 417.85 141.24H394.61C384.11 141.31 358.1 140.89 355.02 154.72L354.74 150.2L354.39 144.63L354.22 141.9L354.09 139.81C356.63 126.01 384.59 126.81 394.62 126.72H417.93C419.326 126.668 420.721 126.844 422.06 127.24C424.06 128 425.38 129.61 425.38 133.26Z" fill="#D2324B"/>
<path d="M423.61 147.15L423.38 150.96C423.1 155.39 422.87 157.61 422.84 162.05C419.31 148.23 393.84 148.64 383.09 148.58H359.76C356.76 148.58 357.48 158.38 355.23 158.38C352.57 158.38 352.23 156.99 352.23 154.66V140.59C352.188 139.391 352.393 138.197 352.83 137.08C353.205 136.267 353.793 135.571 354.533 135.067C355.273 134.563 356.136 134.27 357.03 134.22C357.928 134.095 358.834 134.039 359.74 134.05H383.05C384.59 134.05 386.45 134.05 388.49 134.19C394.67 134.462 400.821 135.197 406.89 136.39C411.73 137.39 416.19 138.79 419.27 140.68C422.08 142.4 423.76 144.53 423.61 147.15Z" fill="#AF1E3A"/>
<path d="M353.94 160.65C354.33 169.41 355.87 185.95 367.38 185.88C373.38 185.88 378.48 177.09 378.26 175.03C378.04 172.97 375.87 160.87 374.13 160.19C372.39 159.51 353.94 160.65 353.94 160.65Z" fill="#8E3925"/>
<path d="M371.26 181.65C370.06 179.12 369.26 187.11 369.26 186.2C369.7 173.66 354.16 176.43 354.06 163.2C353.94 148.05 353.06 147.01 352.59 139.34C351.01 114.51 374.59 110.07 393.1 109.93C403.83 109.85 413.59 113.38 417.6 124.43C422.09 136.81 421.86 151.09 419.15 164.17C403.19 169.9 387.23 175.79 371.26 181.65Z" fill="#8E3925"/>
<path d="M423.34 174.36C423.34 183.36 422.83 196.59 414.88 201.64C412.62 203.07 411.3 206.2 406.66 207.32C401.66 208.53 399.56 209.78 398.97 212.76C398.5 215.17 394.76 208.47 393.28 207.92C383.92 204.48 377 205.15 370.28 196.04C365.28 189.28 362.88 179.53 362.79 171.11L368.99 150.78C368.84 134.96 379.89 121.59 395.34 121.78C410.43 121.93 423.64 133.59 423.53 150.04C422.956 158.135 422.892 166.257 423.34 174.36V174.36Z" fill="#E5785C"/>
<path d="M423.92 148.83L423.71 155.45C423.49 162.63 423.28 165.96 424.42 173.45C423.42 210.81 412.47 215.85 391.69 211.23C372.25 206.91 372.47 186.4 372.69 164.48L373.61 150C373.61 149.39 373.61 148.78 373.61 148.2C373.55 132.2 381.06 118.58 397.69 118.54C415.06 118.49 424.77 131.64 423.92 148.83Z" fill="#FFB287"/>
<path d="M372.96 163.7C373.39 170.02 370.32 175.45 366.12 175.83C361.92 176.21 358.12 171.39 357.73 165.06C357.34 158.73 359.65 153.82 363.81 153.06C367.97 152.3 372.53 157.38 372.96 163.7Z" fill="#E5785C"/>
<path d="M420.08 128.5L420.16 128.66L420.06 128.55C418.29 132.92 414.32 135.69 410.89 135.75C401.31 135.92 395.03 126.81 385.75 127.64C384.114 127.761 382.527 128.249 381.106 129.068C379.684 129.887 378.466 131.016 377.54 132.37C376.08 134.53 375.08 137.6 375.07 141.95C375.07 150.17 375.07 164.73 373.07 166.62C372.07 167.53 369.61 164.53 369.61 164.53C369.61 158.14 368.7 154.53 364.82 152.66C365.52 150.89 365.88 150 366.57 148.23C366.579 142.373 368.161 136.626 371.15 131.59C372.747 128.919 374.74 126.505 377.06 124.43C373.98 120.43 372.91 114.21 373.52 113.85C382.27 108.7 396.52 109.74 407.99 111.46C414.36 112.46 420.51 117.46 420.72 124.15C420.777 125.627 420.56 127.102 420.08 128.5V128.5Z" fill="#A34C31"/>
<g style="mix-blend-mode:darken">
<path d="M423.96 134.75V149.27C423.96 143.56 420.75 142.73 416.45 142.73H393.15C387.124 142.828 381.11 143.329 375.15 144.23C368.43 145.23 354.86 147.02 353.6 156.23L352.61 141.3C354.14 131.79 368.67 130.3 375.61 129.46C381.415 128.707 387.258 128.29 393.11 128.21H416.42C420.75 128.21 423.96 129 423.96 134.75Z" fill="#E5785C"/>
</g>
<path d="M421.32 129.07C429.09 121.07 425.83 112.63 421.32 103.99C421.32 103.99 407.91 118.41 405.42 118.52C402.93 118.63 409.67 129.07 409.67 129.07H421.32Z" fill="#A34C31"/>
<path d="M416.35 129.44C421.35 120.44 420 108.51 411.69 102C404.36 110.75 385.24 110.06 381.64 110.62C378.04 111.18 397.25 125.16 404.98 132.09L416.35 129.44Z" fill="#A34C31"/>
<path d="M420.08 128.5L420.16 128.66L420.06 128.55C418.29 132.92 414.32 135.69 410.89 135.75C401.31 135.92 395.03 126.81 385.75 127.64C384.114 127.761 382.527 128.249 381.106 129.068C379.684 129.887 378.466 131.016 377.54 132.37C375.719 132.486 373.889 132.389 372.09 132.08C371.767 131.962 371.466 131.79 371.2 131.57C370.322 130.833 369.54 129.99 368.87 129.06C368.87 129.06 369.78 124.27 370.5 123.76C371.22 123.25 374.76 120.12 374.76 120.12C375.65 122.48 376.76 123.52 380.12 123.59C383.48 123.66 399.48 123.59 409.45 123.59C411.92 123.59 414.09 123.48 415.97 123.59C420.16 123.82 420.61 127 420.08 128.5Z" fill="#8E3925"/>
<path d="M423.96 132.51V147C423.96 141.29 420.75 140.46 416.45 140.46H393.15C387.124 140.558 381.11 141.059 375.15 141.96C368.43 142.96 354.86 144.75 353.6 153.96L352.61 139.06C354.14 129.55 368.67 128.06 375.61 127.22C381.415 126.467 387.258 126.05 393.11 125.97H416.42C420.75 126 423.96 126.8 423.96 132.51Z" fill="#D2324B"/>
<path d="M353.94 158.23C354.1 163.16 349.73 173.23 346.19 172.03C346.19 172.03 353.3 178.42 357.68 175.85L355.12 162.74L353.94 158.23Z" fill="#8E3925"/>
<path d="M375.1 142C368.29 142.92 354.81 144.79 353.55 154L352.61 139.06C354.14 129.55 368.61 128.06 375.61 127.22C375.23 128.626 374.988 130.066 374.89 131.52C374.43 134.93 375.12 135.61 375.1 142Z" fill="#AF1E3A"/>
<path d="M425.38 135.55V139.19C425.144 138.41 424.641 137.738 423.96 137.29C422.516 136.567 420.899 136.259 419.29 136.4H391.02C385.666 136.439 380.321 136.84 375.02 137.6C374.96 136.71 374.9 136.01 374.86 135.38C379.401 134.731 383.975 134.337 388.56 134.2C389.69 134.2 390.56 134.2 391.06 134.2H419.34C420.923 134.138 422.504 134.358 424.01 134.85C424.495 135.024 424.955 135.26 425.38 135.55V135.55Z" fill="white"/>
<path d="M374.98 137.59L373.13 137.87C363.82 139.34 357.32 141.72 354.33 144.61C353.829 145.084 353.401 145.63 353.06 146.23C352.575 147.23 352.299 148.319 352.25 149.43V144.3C352.287 143.798 352.503 143.325 352.86 142.97C353.271 142.577 353.705 142.21 354.16 141.87C358.55 138.61 366.08 136.74 372.8 135.65L374.8 135.35C374.86 136 374.93 136.71 374.98 137.59Z" fill="#CDC8D6"/>
<path d="M422.61 384.38C422.611 383.746 422.765 383.121 423.06 382.56C423.132 382.199 423.233 381.845 423.36 381.5C423.36 381.22 423.44 380.95 423.5 380.67C423.4 374.24 421.23 367.07 419.68 352.26C418.11 337.26 418.68 316.56 416.52 291.94C415.67 282.06 414.52 256.55 413.12 245.3C412.91 243.56 412.67 241.75 412.33 239.86C412.33 239.86 399.99 276.49 398.15 280.11C396.31 283.73 386.74 290.47 382.96 293.46C379.18 296.45 366.07 308.7 361.29 313.56C356.51 318.42 324.87 372.8 327.91 373.79C331.65 375.01 335.12 376.23 338.37 377.47L338.99 377.71L340.09 378.12C360.43 386.02 372.33 390.89 385.4 391.92C392.4 392.47 399.69 391.92 408.8 390.16C413.34 389.29 417.19 391.24 421.96 387.27C422.15 386.27 422.41 385.34 422.61 384.52C422.61 384.47 422.61 384.43 422.61 384.38Z" fill="#F23D3D"/>
<path d="M424.07 396.43C423.6 397.49 423.07 398.59 422.47 399.78C423.038 398.869 423.549 397.924 424 396.95L424.07 396.43Z" fill="#F23D3D"/>
<path d="M399.33 157.31C398.18 159.36 397.25 163.23 392.83 163.09C392.048 163.111 391.273 162.931 390.58 162.567C389.887 162.203 389.299 161.667 388.871 161.011C388.444 160.355 388.192 159.601 388.139 158.82C388.087 158.039 388.235 157.257 388.57 156.55C389.67 154.34 399.33 157.31 399.33 157.31Z" fill="#F58D6C"/>
<path d="M422.61 157.31C421.46 159.36 420.53 163.23 416.11 163.09C415.328 163.111 414.553 162.931 413.86 162.567C413.167 162.203 412.579 161.667 412.151 161.011C411.724 160.355 411.472 159.601 411.419 158.82C411.367 158.039 411.515 157.257 411.85 156.55C412.98 154.34 422.61 157.31 422.61 157.31Z" fill="#F58D6C"/>
<path d="M368.11 192.68C370.88 201.1 364.27 212.74 355.54 213.44L371.41 214.79L373 204.28C373 204.28 372 194.58 370.5 192.68C369 190.78 368.11 192.68 368.11 192.68Z" fill="#E5785C"/>
<path d="M407.12 178.62C409.82 178.62 412.12 177.01 411.95 175.39C411.95 174.8 411.35 174.09 410.29 174.61C409.275 174.977 408.2 175.15 407.12 175.12C406.122 175.111 405.133 174.925 404.2 174.57C402.49 174.03 401.96 174.74 401.91 175.33C401.8 176.95 404.42 178.55 407.12 178.62Z" fill="#E5785C"/>
<path d="M391.94 163C391.929 163.648 392.174 164.275 392.621 164.745C393.068 165.214 393.682 165.489 394.33 165.51C394.65 165.506 394.965 165.439 395.259 165.312C395.552 165.186 395.818 165.003 396.04 164.773C396.262 164.543 396.437 164.272 396.553 163.975C396.67 163.677 396.727 163.359 396.72 163.04C396.734 162.391 396.49 161.763 396.042 161.293C395.595 160.822 394.979 160.548 394.33 160.53C394.011 160.534 393.695 160.601 393.402 160.728C393.108 160.854 392.843 161.037 392.621 161.267C392.398 161.497 392.224 161.768 392.107 162.065C391.99 162.363 391.934 162.681 391.94 163V163Z" fill="#422B27"/>
<path d="M413.04 163.38C413.036 163.706 413.097 164.029 413.218 164.331C413.339 164.634 413.518 164.909 413.745 165.142C413.973 165.376 414.244 165.562 414.544 165.69C414.843 165.818 415.165 165.886 415.49 165.89C415.814 165.896 416.135 165.835 416.435 165.713C416.734 165.59 417.006 165.407 417.232 165.176C417.459 164.945 417.636 164.67 417.752 164.368C417.869 164.066 417.923 163.743 417.91 163.42C417.895 162.764 417.63 162.139 417.169 161.672C416.708 161.205 416.086 160.933 415.43 160.91C415.11 160.913 414.794 160.979 414.5 161.105C414.206 161.231 413.94 161.414 413.718 161.644C413.495 161.874 413.321 162.146 413.204 162.444C413.088 162.742 413.032 163.06 413.04 163.38V163.38Z" fill="#422B27"/>
<path d="M388.61 155.65L399.37 155.42" stroke="#8E3925" stroke-width="5.46" stroke-miterlimit="10" stroke-linecap="round"/>
<path d="M412.68 155.84L421.94 156.54" stroke="#8E3925" stroke-width="5.46" stroke-miterlimit="10" stroke-linecap="round"/>
<path d="M400.18 190.69C402.013 189.651 404.074 189.084 406.18 189.04C408.78 189.04 410.06 190.04 410.59 190.69L406.18 191.84" stroke="#E5785C" stroke-width="4.37" stroke-linecap="round" stroke-linejoin="round"/>
<path d="M379.99 223.12C381.9 226.39 397.25 224.57 397.25 224.57C397.25 221.02 398.97 218.51 401.4 216.57C401.66 216.36 401.91 216.16 402.18 215.97C404.549 214.419 407.025 213.038 409.59 211.84L409.74 211.77C410.36 211.45 410.94 211.13 411.48 210.77C412.89 209.94 413.48 209.48 413.56 209.16C413.85 208.31 410.66 208.47 411.02 204.84C411.02 204.84 399.02 208.47 391.02 210.99L387.91 211.99C386.14 212.56 384.85 212.99 384.37 213.21C383.763 213.503 383.209 213.895 382.73 214.37C382.406 214.683 382.102 215.017 381.82 215.37C380.05 217.61 378.69 220.88 379.99 223.12Z" fill="#FFB287"/>
<path d="M373.46 213.42C375.15 212.12 377.46 210.99 382.94 213.42L383.46 213.64C389.529 216.085 396.144 216.848 402.61 215.85C402.87 215.64 403.14 215.43 403.42 215.24C405.853 213.651 408.396 212.237 411.03 211.01L411.18 210.94C411.81 210.61 412.41 210.29 412.96 209.94C414.41 209.09 414.96 208.62 415.1 208.3C410.1 211.17 400.5 212.97 391.97 210.16C391.59 210.04 391.22 209.91 390.85 209.77C377.28 204.62 374.76 189.56 374.32 180.77C374.32 180.77 375.71 207.39 375.54 208.92C375.45 209.69 372.92 211.45 372.14 212.77C371.8 213.34 372.78 214.17 372.78 214.17C372.78 214.17 372.27 214.33 373.46 213.42Z" fill="#E5785C"/>
<path d="M404.55 195.66C405.971 195.614 407.382 195.396 408.75 195.01C410.11 194.67 410.82 195.85 409.59 196.77C408.09 197.89 406.238 198.433 404.37 198.3C403.314 198.254 402.284 197.952 401.37 197.42C400.06 196.65 400.19 195.01 401.37 195.29C402.412 195.536 403.48 195.66 404.55 195.66V195.66Z" fill="#F58D6C"/>
<path d="M363.28 384L356.14 383.39C344.21 382.34 333.97 381.09 325.53 377.59C323.01 376.59 326.3 378.02 324.11 376.52C324.11 376.52 327.68 360.05 331.11 350V349.93C331.147 349.815 331.177 349.698 331.2 349.58C332.8 343.66 334.33 335.29 335.11 320.58V268.31C342.02 259.55 350 254.82 351.71 255.39C357.45 257.29 351.36 338.47 350.71 344.99C347.61 377.3 368.17 384.38 363.28 384Z" fill="#C62433"/>
<path d="M334.4 248.13V263.2C334.4 274.44 338.75 280.79 349.32 280.79C370.89 280.79 367.08 248.89 363.55 234.16C360.02 219.43 350.93 214.83 347.29 216C339.65 217.86 335.64 222.17 333.75 229.79C332.67 234 334.4 241.62 334.4 248.13Z" fill="#FFB287"/>
<path d="M349.32 283.25C335.05 283.25 332.05 272.34 332.05 263.2V248.13C332.05 245.68 331.79 243 331.53 240.41C331.11 236.15 330.71 232.13 331.47 229.11C333.6 220.54 338.87 217.78 346.82 215.11C348.166 214.683 349.539 214.349 350.93 214.11C353.93 214.11 354.99 215.11 358 218.18C360.52 220.76 363.92 225.51 365.83 233.49C367.52 240.49 372.33 264.49 363.41 276.49C360.11 281 355.37 283.25 349.32 283.25ZM348.43 218.25C348.265 218.246 348.1 218.266 347.94 218.31H347.81C341.15 219.93 337.73 223.41 336.01 230.31C335.47 232.47 335.82 236.06 336.2 239.86C336.47 242.57 336.74 245.38 336.74 248.08V263.2C336.74 273.66 340.62 278.33 349.31 278.33C353.9 278.33 357.31 276.76 359.7 273.52C363.7 268.18 366.16 255.2 361.26 234.76C359.62 227.9 356.79 223.91 354.7 221.76C352.19 219.18 349.75 218.26 348.43 218.26V218.25Z" fill="white"/>
<g style="mix-blend-mode:multiply" opacity="0.6">
<path d="M335.06 245.85V254.25C335.06 254.6 335.06 286.71 335.06 287.06C356.99 287.06 354.29 221.84 354.29 221.84H349.71C339.12 225.09 335.06 228.59 335.06 245.85Z" fill="#E5785C"/>
</g>
<path d="M273.12 348.17C275.794 348.119 278.368 347.149 280.41 345.422C282.452 343.696 283.836 341.318 284.33 338.69C290.41 309.52 301.42 281.79 306.16 274.89C317.86 266.96 326.25 272.06 349.92 251.45C354.8 247.2 360.15 229.31 356.47 223.89C352.54 218.11 347.13 220.19 339.25 219.69C326.46 218.89 301.48 236.13 289.25 251.69C281.78 261.18 278.69 274.19 273.13 295.29C268.19 314.06 264.5 331.69 264.34 332.44C262.98 338.94 264.44 346.51 270.63 347.93C271.448 348.104 272.284 348.185 273.12 348.17V348.17Z" fill="#FFB287"/>
<path d="M270.1 334.59C267.078 334.418 264.086 335.278 261.617 337.03C259.147 338.781 257.347 341.32 256.51 344.23L256.26 345.23C255.608 348.231 255.937 351.362 257.197 354.163C258.457 356.964 260.582 359.287 263.26 360.79L268.39 363.41C273.74 366.15 279.16 363.58 280.44 357.71L282.86 346.62C283.189 345.285 283.222 343.894 282.954 342.546C282.687 341.197 282.126 339.923 281.313 338.815C280.499 337.707 279.452 336.791 278.246 336.131C277.039 335.472 275.702 335.086 274.33 335L270.1 334.59Z" fill="#FFB287"/>
<path d="M291.61 352.54C291.09 350.88 290.72 347.41 289.98 344.37C289.809 343.497 289.586 342.636 289.31 341.79C288.899 339.556 287.973 337.448 286.605 335.634C285.237 333.82 283.465 332.35 281.43 331.34C280.49 330.92 276.22 332.78 277.23 332.94C278.24 333.1 277.37 334.3 276.85 335.45C276.01 334.45 278.37 334.36 277.96 333.01C277.24 330.6 274.33 331.01 273.53 332.8L273.47 332.72C273.382 332.596 273.259 332.5 273.117 332.445C272.975 332.39 272.819 332.378 272.67 332.41C272.67 332.32 272.61 332.24 272.59 332.16C272.3 331.16 270.79 331.65 271.08 332.67C272.08 336.29 274.59 339.02 277.51 341.22L277.71 341.41C278.71 342.36 282.21 342.41 283.8 343.78C283.89 348.45 285.63 355.35 287.5 356.49C290.55 358.33 293.03 357 291.61 352.54Z" fill="#FFB287"/>
<path d="M286.36 331.19C286.02 332.35 283.66 334.35 279.89 334.51C276.12 334.67 266.12 334.45 264.05 333.27C263.77 333.11 266.76 321.79 266.76 321.79C266.76 321.79 282.55 327.38 282.41 327.16C282.27 326.94 286.36 331.19 286.36 331.19Z" fill="#E5785C"/>
<path d="M271.07 359.21C270.19 362.39 270.83 363.04 270.23 364.3C270.036 364.84 269.955 365.414 269.993 365.987C270.031 366.56 270.187 367.118 270.451 367.628C270.714 368.138 271.081 368.588 271.526 368.949C271.972 369.311 272.487 369.577 273.04 369.73C276.26 370.92 277.78 370.04 279.72 361.14C281.66 352.24 276.07 353.05 276.07 353.05L271.07 359.21Z" fill="#FFB287"/>
<path d="M270.37 330.09C270.129 330.033 269.902 329.928 269.703 329.782C269.503 329.635 269.335 329.45 269.208 329.238C269.081 329.025 268.998 328.789 268.964 328.544C268.93 328.299 268.946 328.049 269.01 327.81L271.01 320.75C271.169 320.272 271.503 319.872 271.944 319.629C272.385 319.386 272.902 319.319 273.39 319.44L282.39 321.78C282.631 321.837 282.858 321.942 283.058 322.088C283.257 322.235 283.426 322.42 283.552 322.632C283.679 322.845 283.762 323.081 283.796 323.326C283.83 323.571 283.815 323.821 283.75 324.06L281.75 331.12C281.591 331.598 281.258 331.998 280.817 332.241C280.376 332.484 279.859 332.551 279.37 332.43L270.37 330.09Z" fill="#C1BFE2"/>
<path d="M279.23 330.85C278.98 330.844 278.731 330.807 278.49 330.74L272.01 329.05C271.554 328.986 271.141 328.745 270.86 328.38C270.777 328.18 270.734 327.966 270.734 327.75C270.734 327.534 270.777 327.32 270.86 327.12L272.24 322.24C272.51 321.24 272.78 320.99 273.37 320.99C273.672 321 273.971 321.047 274.26 321.13L280.74 322.82C281.203 322.877 281.625 323.11 281.92 323.47C282.089 323.88 282.089 324.34 281.92 324.75L280.54 329.63C280.2 330.71 279.69 330.85 279.23 330.85Z" fill="#4F4351"/>
<path d="M273.36 321.21C273.645 321.222 273.927 321.269 274.2 321.35L280.68 323.04C281.27 323.19 281.6 323.37 281.68 323.59C281.818 323.947 281.818 324.343 281.68 324.7L280.3 329.58C280.02 330.58 279.61 330.64 279.24 330.64C279.007 330.636 278.775 330.602 278.55 330.54L272.07 328.85C271.679 328.794 271.322 328.594 271.07 328.29C270.931 327.94 270.931 327.55 271.07 327.2L272.45 322.32C272.74 321.32 272.99 321.23 273.36 321.23V321.21ZM273.36 320.79C272.61 320.79 272.29 321.23 272.02 322.2L270.61 327.06C270.26 328.3 270.61 328.92 271.93 329.26L278.41 330.95C278.671 331.023 278.94 331.064 279.21 331.07C279.94 331.07 280.42 330.68 280.7 329.69L282.08 324.81C282.44 323.53 282.17 322.97 280.76 322.61L274.28 320.92C273.955 320.827 273.619 320.776 273.28 320.77L273.36 320.79Z" fill="#C1BFE2"/>
<path d="M281.61 331.44C281.815 331.324 282.04 331.249 282.273 331.22C282.507 331.19 282.744 331.208 282.97 331.27L285.82 332.01C285.82 332.01 287.1 332.45 288.09 328.95V329.02C289.09 325.52 287.74 325.28 287.74 325.28L284.89 324.54C284.664 324.487 284.451 324.389 284.263 324.252C284.076 324.114 283.919 323.94 283.8 323.74L281.61 331.44Z" fill="#D14D2A"/>
<path d="M268.92 328.12C268.802 327.92 268.645 327.746 268.457 327.608C268.27 327.471 268.057 327.373 267.83 327.32L264.98 326.58C264.98 326.58 263.64 326.34 264.63 322.84V322.91C265.63 319.41 266.9 319.85 266.9 319.85L269.75 320.59C269.977 320.652 270.214 320.669 270.447 320.64C270.681 320.611 270.906 320.536 271.11 320.42L268.92 328.12Z" fill="#D14D2A"/>
<path opacity="0.7" d="M273.3 320.24L282.23 322.71C282.511 322.789 282.771 322.931 282.989 323.125C283.207 323.319 283.379 323.56 283.49 323.83C283.554 323.387 283.456 322.935 283.213 322.559C282.971 322.182 282.6 321.906 282.17 321.78L273.72 319.44C273.26 319.316 272.77 319.378 272.355 319.612C271.94 319.845 271.633 320.233 271.5 320.69C271.736 320.467 272.026 320.308 272.341 320.229C272.657 320.15 272.987 320.154 273.3 320.24V320.24Z" fill="white"/>
<path opacity="0.8" d="M279.53 331.8L270.39 329.27C270.103 329.187 269.838 329.041 269.615 328.842C269.391 328.643 269.216 328.396 269.1 328.12C269.034 328.574 269.134 329.037 269.382 329.423C269.63 329.809 270.01 330.092 270.45 330.22L279.1 332.62C279.571 332.747 280.072 332.683 280.497 332.444C280.921 332.205 281.235 331.808 281.37 331.34C281.129 331.568 280.832 331.73 280.51 331.81C280.188 331.891 279.851 331.887 279.53 331.8V331.8Z" fill="#FFB287"/>
<path d="M385.02 168.73C388.54 168.04 393.09 166.84 395.64 168.73C398.19 170.62 391.93 173.22 391.93 173.22C386.33 174.31 385.02 168.73 385.02 168.73Z" fill="#FFB287"/>
<path d="M405.98 169.55C409.5 168.86 414.05 167.66 416.6 169.55C419.15 171.44 412.89 174.04 412.89 174.04C407.28 175.13 405.98 169.55 405.98 169.55Z" fill="#FFB287"/>
<path d="M424.97 153.47C427.36 154.47 432.64 157.94 429.28 160.26C425.92 162.58 424.97 153.47 424.97 153.47Z" fill="#3BBCF4"/>
<path d="M375.94 167.71C375.53 170.8 370.15 175.71 374.67 176.94C378.99 178.07 375.94 167.71 375.94 167.71Z" fill="#3BBCF4"/>
<path d="M437.53 592.94C437.99 596.42 439.01 599.71 458.47 596.49C465.53 595.32 473.62 593.19 485.78 592.31C503.78 591.02 513.98 586.4 519.29 583.01C523.66 580.22 527.29 577.51 527.21 576.15C527.21 575.95 527.16 575.75 527.12 575.56C527.23 576.24 527.3 576.89 527.36 577.35C527.46 578.71 523.81 581.42 519.44 584.21C514.13 587.6 504.18 591.75 486.26 593.82C473.99 595.24 465.68 596.51 458.62 597.68C438.62 601 438.11 597.4 437.62 593.82C437.61 593.54 437.61 593.24 437.53 592.94Z" fill="#717275"/>
<path d="M435.47 560.44C435.902 561.213 436.383 561.958 436.91 562.67C438.039 563.973 438.759 565.58 438.98 567.29L439.98 567.19C439.897 566.209 439.629 565.252 439.19 564.37H439.28C439.177 562.583 438.653 560.846 437.75 559.3C436.9 557.88 435.97 557.3 435.31 557.66C434.99 557.84 434.42 558.49 435.47 560.44ZM435.86 558.64C436.283 558.96 436.626 559.374 436.86 559.85C437.308 560.643 437.645 561.495 437.86 562.38L437.62 562.05C437.122 561.373 436.668 560.665 436.26 559.93C436.049 559.528 435.914 559.091 435.86 558.64V558.64Z" fill="#0D0B42"/>
<path fill-rule="evenodd" clip-rule="evenodd" d="M455.44 589.31C459.58 588.77 463.07 589.22 469.26 589.22C475.45 589.22 484.73 589.07 491.81 588.01C498.919 586.743 505.934 585.003 512.81 582.8C517.612 581.195 522.176 578.951 526.38 576.13L526.56 573.91C525.959 572.903 525.09 572.083 524.05 571.54C522.43 570.76 519.05 570.46 509.81 568.97C497.98 567.07 494.07 565.97 487.74 562.35C481.41 558.73 473.82 555.8 471.98 556.7C470.14 557.6 467.17 560.56 460.78 563.97C448.26 570.65 455.26 569.56 445.1 567.39C440.51 566.39 439.54 560.91 439.37 562.13C439.876 564.848 439.556 567.656 438.45 570.19C436.18 574.7 436.34 581.51 438.13 588.46C442.85 590.37 451.41 589.84 455.44 589.31Z" fill="#252B67"/>
<path fill-rule="evenodd" clip-rule="evenodd" d="M462.45 553.21C463.51 551.03 463 548.99 464.75 547.07C465.69 546.07 468.48 546.73 472.83 552.13C476.6 556.8 483.14 559.83 483.14 559.83H482.82C487.874 562.607 493.27 564.708 498.87 566.08L498.43 567.72C489.22 564.81 480.87 561.64 475.01 559.32C472.53 558.84 469.15 560.85 467.57 560.27C462.78 558.52 461.76 554.61 462.45 553.21Z" fill="#0D0B42"/>
<path fill-rule="evenodd" clip-rule="evenodd" d="M525.39 575.07C525.38 575.687 525.195 576.289 524.857 576.806C524.519 577.323 524.042 577.733 523.48 577.99L522.48 578.55L521.37 579.14L520.15 579.77L518.9 580.37H518.8C518.36 580.57 517.92 580.78 517.46 580.97C517 581.18 516.53 581.38 516.05 581.56H515.95L514.58 582.08H514.46C513.97 582.26 513.46 582.43 512.98 582.59C506.104 584.793 499.089 586.533 491.98 587.8C484.501 588.733 476.966 589.137 469.43 589.01C464.53 589.01 442.84 591.01 438.16 589.13C438.01 588.57 438.05 586.33 437.93 585.78C439.336 586.626 440.796 587.377 442.3 588.03C449.04 590.22 468.68 587.64 475.64 587.7C489.63 587.824 503.463 584.746 516.08 578.7C516.08 578.7 524.14 574.24 517.56 572.06C511.86 570.18 498.56 567.5 498.56 567.5L498.38 565.75C517.67 570.91 518.19 566.96 523.06 569.26C523.83 569.63 526.2 571.26 526.43 573.04C525.99 573.33 525.42 573.94 525.39 575.07Z" fill="#404FA1"/>
<path d="M437.7 586.51C436.17 580.02 436.35 574.51 438.49 570.19C438.6 569.98 438.69 569.77 438.78 569.57C439.73 569.57 440.32 570.28 439.43 572.64C437.85 576.81 438.31 584.16 438.57 586.79C438.292 586.664 438 586.57 437.7 586.51Z" fill="#252B67"/>
<path fill-rule="evenodd" clip-rule="evenodd" d="M500.19 571.74C500.19 571.74 495.27 567.1 501.49 567.48C503.76 567.61 522.96 570.95 521.97 574.26C521.33 576.41 521.87 576.49 518.25 579.01C514.63 581.53 496.49 586.44 499.7 584.92C506.64 581.64 504.9 578.77 499.7 575.48C497.382 573.924 494.925 572.585 492.36 571.48L500.19 571.74Z" fill="#404FA1"/>
<path d="M494.46 571.53C494.46 571.53 477.72 589.61 493.22 586.59C493.22 586.59 482.22 589.39 479.49 587.74C476.76 586.09 478.56 578.2 487.05 568.84L494.46 571.53Z" fill="#404FA1"/>
<path d="M485.03 567.35C485.03 567.35 467.84 587.65 479.52 588.02C479.52 588.02 470.93 589.89 468.52 587.84C463.62 583.65 469.15 574.02 477.64 564.66L485.03 567.35Z" fill="#404FA1"/>
<path d="M475.61 563.89C475.61 563.89 455.09 587.89 468.12 588.73C468.12 588.73 457.39 591.1 454.97 589.04C451.91 586.43 462.85 572.27 449.07 568.83C446.32 568.14 466.33 563.89 469.52 560.38L475.61 563.89Z" fill="#404FA1"/>
<path fill-rule="evenodd" clip-rule="evenodd" d="M437.68 572.22C437.905 571.534 438.179 570.866 438.5 570.22C438.576 570.081 438.642 569.937 438.7 569.79C439.159 567.404 439.18 564.954 438.76 562.56C437.48 555.05 441.53 558.56 441.99 559.69C442.99 562.11 443.99 567.84 454.28 565.59C459.89 564.391 465.087 561.739 469.35 557.9C471.96 555.51 473.19 555.31 473.58 555.36C478.95 557.04 479.87 558.73 484.68 561.68C490.561 564.724 496.762 567.102 503.17 568.77C503.17 568.77 500.94 573.16 496.03 572.57L495.53 572.49L494.99 572.38H494.89L494.43 572.26L493.83 572.06C487.05 569.69 475.92 564.37 473.24 563.36C470.56 562.35 465.62 564.02 462.17 565.84C452.17 571.12 450.09 568.19 443.82 571.53C441.64 572.69 439.17 576.22 437.97 582.76C437.97 582.87 437.35 577.17 437.26 577.2C437.17 577.23 439.16 572.86 439.13 572.87C439.054 572.884 438.976 572.884 438.9 572.87V572.87C438.801 572.87 438.703 572.853 438.61 572.82V572.82C438.514 572.79 438.423 572.747 438.34 572.69C438.102 572.56 437.881 572.402 437.68 572.22V572.22Z" fill="#252B67"/>
<path fill-rule="evenodd" clip-rule="evenodd" d="M473.05 558.44C473.091 558.714 473.023 558.993 472.86 559.217C472.697 559.442 472.453 559.593 472.18 559.64C472.043 559.661 471.904 559.654 471.77 559.618C471.636 559.582 471.511 559.519 471.403 559.433C471.295 559.346 471.206 559.238 471.142 559.115C471.078 558.993 471.04 558.858 471.03 558.72C470.99 558.446 471.058 558.167 471.221 557.943C471.383 557.718 471.627 557.567 471.9 557.52C472.037 557.499 472.177 557.506 472.311 557.542C472.444 557.578 472.569 557.641 472.677 557.727C472.785 557.814 472.874 557.922 472.939 558.045C473.003 558.167 473.041 558.302 473.05 558.44V558.44Z" fill="white"/>
<path fill-rule="evenodd" clip-rule="evenodd" d="M472.84 558.47C472.862 558.581 472.861 558.695 472.838 558.806C472.815 558.917 472.77 559.022 472.706 559.115C472.641 559.208 472.559 559.288 472.464 559.349C472.368 559.409 472.262 559.451 472.15 559.47C471.933 559.492 471.716 559.428 471.545 559.292C471.375 559.155 471.265 558.957 471.24 558.74C471.217 558.628 471.217 558.513 471.241 558.401C471.264 558.289 471.309 558.183 471.375 558.089C471.44 557.996 471.524 557.916 471.622 557.856C471.719 557.796 471.827 557.757 471.94 557.74C472.156 557.718 472.373 557.782 472.541 557.919C472.71 558.056 472.818 558.254 472.84 558.47V558.47Z" fill="#231F20"/>
<path fill-rule="evenodd" clip-rule="evenodd" d="M472.68 559.39C472.68 559.39 477.39 558.84 477.95 556.73C477.95 556.73 477.61 555.51 477.02 556.13C475.37 557.84 474.66 557.32 471.94 557.74C471.94 557.74 471.1 559.3 472.68 559.39Z" fill="#BBBDBF"/>
<path fill-rule="evenodd" clip-rule="evenodd" d="M479.14 562.34C479.211 562.61 479.174 562.898 479.035 563.141C478.897 563.384 478.669 563.563 478.4 563.64C478.267 563.675 478.127 563.683 477.991 563.661C477.854 563.64 477.724 563.591 477.607 563.517C477.491 563.442 477.391 563.345 477.314 563.23C477.237 563.115 477.185 562.986 477.16 562.85C477.095 562.58 477.135 562.295 477.272 562.053C477.41 561.811 477.634 561.631 477.9 561.55C478.034 561.515 478.173 561.507 478.31 561.529C478.446 561.55 478.577 561.599 478.693 561.673C478.81 561.748 478.91 561.845 478.987 561.96C479.064 562.075 479.116 562.204 479.14 562.34V562.34Z" fill="white"/>
<path fill-rule="evenodd" clip-rule="evenodd" d="M478.94 562.4C478.987 562.612 478.95 562.833 478.839 563.019C478.727 563.205 478.549 563.341 478.34 563.4C478.234 563.43 478.122 563.437 478.013 563.421C477.903 563.406 477.798 563.367 477.704 563.309C477.61 563.251 477.53 563.174 477.467 563.083C477.404 562.992 477.361 562.889 477.34 562.78C477.293 562.57 477.328 562.349 477.438 562.164C477.547 561.978 477.723 561.841 477.93 561.78C478.037 561.75 478.15 561.743 478.26 561.759C478.37 561.774 478.475 561.812 478.57 561.87C478.665 561.929 478.747 562.006 478.81 562.097C478.874 562.188 478.918 562.291 478.94 562.4V562.4Z" fill="#231F20"/>
<path fill-rule="evenodd" clip-rule="evenodd" d="M478.88 563.34C478.88 563.34 483.51 562.25 483.88 560.09C483.88 560.09 483.41 558.91 482.88 559.6C481.43 561.49 480.66 561.06 477.99 561.78C477.96 561.77 477.29 563.43 478.88 563.34Z" fill="#BBBDBF"/>
<path fill-rule="evenodd" clip-rule="evenodd" d="M485.31 565.36C485.407 565.622 485.4 565.911 485.291 566.168C485.181 566.425 484.977 566.629 484.72 566.74C484.594 566.789 484.459 566.811 484.323 566.806C484.188 566.801 484.055 566.769 483.932 566.711C483.81 566.653 483.7 566.571 483.611 566.469C483.521 566.368 483.453 566.249 483.41 566.12C483.311 565.858 483.316 565.568 483.426 565.311C483.536 565.053 483.742 564.849 484 564.74C484.127 564.691 484.262 564.669 484.397 564.674C484.533 564.679 484.666 564.711 484.788 564.769C484.911 564.827 485.02 564.909 485.11 565.011C485.2 565.112 485.268 565.231 485.31 565.36Z" fill="white"/>
<path fill-rule="evenodd" clip-rule="evenodd" d="M485.11 565.44C485.19 565.647 485.185 565.877 485.097 566.081C485.009 566.284 484.845 566.446 484.64 566.53C484.441 566.594 484.225 566.577 484.038 566.484C483.852 566.39 483.709 566.227 483.64 566.03C483.563 565.824 483.568 565.596 483.653 565.393C483.739 565.191 483.899 565.028 484.1 564.94C484.301 564.873 484.519 564.888 484.708 564.982C484.897 565.076 485.042 565.24 485.11 565.44V565.44Z" fill="#231F20"/>
<path fill-rule="evenodd" clip-rule="evenodd" d="M485.16 566.38C485.16 566.38 489.49 564.82 489.58 562.64C489.58 562.64 488.98 561.53 488.58 562.27C487.35 564.34 486.67 563.89 484.1 564.94C484.07 564.94 483.61 566.67 485.16 566.38Z" fill="#BBBDBF"/>
<path fill-rule="evenodd" clip-rule="evenodd" d="M491.75 567.76C491.891 568.003 491.933 568.291 491.868 568.565C491.803 568.838 491.635 569.076 491.4 569.23C491.285 569.301 491.156 569.348 491.022 569.367C490.888 569.387 490.752 569.379 490.621 569.345C490.49 569.31 490.368 569.249 490.261 569.166C490.154 569.083 490.066 568.979 490 568.86C489.858 568.616 489.816 568.326 489.884 568.052C489.951 567.778 490.122 567.541 490.36 567.39C490.475 567.321 490.603 567.275 490.736 567.256C490.869 567.237 491.004 567.246 491.134 567.28C491.263 567.315 491.385 567.375 491.491 567.457C491.597 567.54 491.685 567.643 491.75 567.76Z" fill="white"/>
<path fill-rule="evenodd" clip-rule="evenodd" d="M491.61 567.88C491.719 568.075 491.75 568.303 491.698 568.519C491.646 568.736 491.515 568.925 491.33 569.05C491.239 569.103 491.137 569.138 491.032 569.152C490.927 569.166 490.82 569.158 490.717 569.13C490.615 569.102 490.519 569.054 490.436 568.989C490.352 568.924 490.282 568.843 490.23 568.75C490.118 568.558 490.084 568.33 490.136 568.114C490.189 567.897 490.323 567.71 490.51 567.59C490.601 567.533 490.702 567.496 490.807 567.48C490.912 567.464 491.02 567.47 491.123 567.497C491.226 567.524 491.323 567.572 491.406 567.638C491.49 567.704 491.56 567.786 491.61 567.88V567.88Z" fill="#231F20"/>
<path fill-rule="evenodd" clip-rule="evenodd" d="M491.77 568.8C491.77 568.8 495.47 566.94 495.2 564.8C495.2 564.8 494.43 563.8 494.12 564.63C493.25 566.88 492.81 566.11 490.46 567.63C490.46 567.58 490.28 569.37 491.77 568.8Z" fill="#BBBDBF"/>
<path fill-rule="evenodd" clip-rule="evenodd" d="M475.81 560.34C475.854 560.614 475.786 560.895 475.623 561.12C475.46 561.345 475.215 561.496 474.94 561.54C474.803 561.561 474.664 561.554 474.53 561.518C474.396 561.482 474.271 561.419 474.163 561.333C474.055 561.246 473.966 561.138 473.902 561.015C473.838 560.893 473.8 560.758 473.79 560.62C473.75 560.344 473.82 560.064 473.984 559.84C474.149 559.615 474.395 559.464 474.67 559.42C474.806 559.4 474.945 559.409 475.078 559.445C475.21 559.482 475.334 559.545 475.441 559.632C475.548 559.718 475.636 559.825 475.699 559.947C475.763 560.069 475.801 560.203 475.81 560.34V560.34Z" fill="white"/>
<path fill-rule="evenodd" clip-rule="evenodd" d="M475.61 560.37C475.633 560.481 475.634 560.596 475.611 560.707C475.589 560.819 475.544 560.924 475.479 561.018C475.415 561.111 475.332 561.19 475.236 561.251C475.14 561.312 475.032 561.352 474.92 561.37C474.813 561.385 474.703 561.379 474.599 561.35C474.494 561.322 474.396 561.273 474.311 561.205C474.226 561.138 474.155 561.054 474.103 560.959C474.052 560.863 474.02 560.758 474.01 560.65C473.987 560.539 473.987 560.424 474.009 560.313C474.032 560.202 474.077 560.096 474.141 560.002C474.206 559.909 474.289 559.83 474.385 559.769C474.481 559.708 474.588 559.668 474.7 559.65C474.807 559.638 474.916 559.646 475.019 559.676C475.123 559.705 475.22 559.755 475.305 559.821C475.389 559.888 475.46 559.971 475.512 560.065C475.564 560.159 475.598 560.263 475.61 560.37Z" fill="#231F20"/>
<path fill-rule="evenodd" clip-rule="evenodd" d="M475.84 555.64C475.84 555.64 478.98 555.84 476.89 559.11C475.58 561.11 475.01 560.91 474.75 560.57C474.49 560.23 474.11 560.03 475.27 558.97C476.69 557.69 476.52 555.68 475.84 555.64Z" fill="white"/>
<path fill-rule="evenodd" clip-rule="evenodd" d="M482.09 563.91C482.158 564.182 482.118 564.469 481.978 564.712C481.838 564.954 481.609 565.133 481.34 565.21C481.207 565.245 481.069 565.253 480.933 565.232C480.797 565.212 480.667 565.163 480.55 565.09C480.434 565.017 480.334 564.921 480.257 564.807C480.179 564.693 480.126 564.565 480.1 564.43C480.032 564.158 480.073 563.871 480.213 563.628C480.353 563.386 480.581 563.207 480.85 563.13C480.983 563.095 481.122 563.087 481.258 563.108C481.394 563.128 481.524 563.177 481.64 563.25C481.757 563.323 481.857 563.419 481.934 563.533C482.012 563.647 482.065 563.775 482.09 563.91V563.91Z" fill="white"/>
<path fill-rule="evenodd" clip-rule="evenodd" d="M481.88 564C481.925 564.21 481.889 564.43 481.78 564.615C481.67 564.8 481.496 564.937 481.29 565C481.184 565.028 481.073 565.034 480.964 565.018C480.855 565.002 480.75 564.963 480.657 564.905C480.563 564.847 480.482 564.771 480.419 564.68C480.356 564.59 480.312 564.488 480.29 564.38C480.241 564.169 480.275 563.948 480.385 563.762C480.495 563.575 480.672 563.439 480.88 563.38C480.987 563.35 481.098 563.343 481.208 563.359C481.317 563.374 481.422 563.413 481.516 563.471C481.61 563.529 481.691 563.606 481.754 563.697C481.816 563.788 481.86 563.891 481.88 564V564Z" fill="#231F20"/>
<path fill-rule="evenodd" clip-rule="evenodd" d="M481.61 559C481.61 559 484.78 559 483.05 562.53C481.96 564.71 481.37 564.53 481.05 564.23C480.73 563.93 480.36 563.77 481.41 562.59C482.69 561.19 482.27 559 481.61 559Z" fill="white"/>
<path fill-rule="evenodd" clip-rule="evenodd" d="M488.41 566.56C488.509 566.823 488.502 567.114 488.39 567.372C488.278 567.629 488.07 567.833 487.81 567.94C487.684 567.989 487.549 568.011 487.413 568.006C487.278 568.001 487.145 567.969 487.022 567.911C486.9 567.853 486.79 567.771 486.701 567.669C486.611 567.568 486.543 567.449 486.5 567.32C486.403 567.058 486.41 566.769 486.52 566.512C486.63 566.255 486.834 566.051 487.09 565.94C487.217 565.89 487.353 565.866 487.49 565.87C487.627 565.874 487.761 565.906 487.885 565.964C488.008 566.022 488.119 566.105 488.209 566.208C488.3 566.31 488.368 566.43 488.41 566.56Z" fill="white"/>
<path fill-rule="evenodd" clip-rule="evenodd" d="M488.21 566.63C488.285 566.837 488.277 567.065 488.19 567.268C488.103 567.47 487.942 567.632 487.74 567.72C487.543 567.784 487.328 567.769 487.141 567.678C486.954 567.586 486.811 567.426 486.74 567.23C486.661 567.021 486.665 566.79 486.753 566.585C486.84 566.38 487.005 566.217 487.21 566.13C487.309 566.097 487.413 566.084 487.516 566.091C487.62 566.099 487.721 566.126 487.814 566.173C487.907 566.219 487.99 566.283 488.058 566.362C488.126 566.44 488.178 566.531 488.21 566.63Z" fill="#231F20"/>
<path fill-rule="evenodd" clip-rule="evenodd" d="M487.29 562.08C487.29 562.08 490.52 561.42 489.2 565.08C488.37 567.38 487.76 567.28 487.43 567.01C487.1 566.74 486.69 566.64 487.6 565.33C488.69 563.78 487.96 562 487.29 562.08Z" fill="white"/>
<path fill-rule="evenodd" clip-rule="evenodd" d="M495 568.38C495.14 568.625 495.18 568.913 495.113 569.187C495.046 569.46 494.877 569.698 494.64 569.85C494.524 569.921 494.395 569.967 494.261 569.986C494.126 570.005 493.99 569.996 493.859 569.961C493.728 569.925 493.605 569.863 493.499 569.779C493.393 569.695 493.305 569.589 493.24 569.47C493.102 569.224 493.063 568.935 493.132 568.661C493.201 568.387 493.372 568.151 493.61 568C493.726 567.931 493.854 567.886 493.987 567.868C494.121 567.85 494.256 567.859 494.386 567.894C494.516 567.93 494.637 567.991 494.743 568.075C494.848 568.158 494.936 568.262 495 568.38V568.38Z" fill="white"/>
<path fill-rule="evenodd" clip-rule="evenodd" d="M494.82 568.5C494.93 568.693 494.963 568.92 494.911 569.136C494.858 569.351 494.726 569.539 494.54 569.66C494.449 569.715 494.347 569.75 494.242 569.765C494.136 569.78 494.029 569.773 493.926 569.745C493.824 569.716 493.728 569.668 493.644 569.602C493.561 569.536 493.491 569.454 493.44 569.36C493.33 569.167 493.298 568.94 493.35 568.724C493.402 568.509 493.535 568.321 493.72 568.2C493.812 568.145 493.913 568.11 494.019 568.095C494.124 568.081 494.231 568.087 494.334 568.115C494.437 568.144 494.533 568.192 494.617 568.258C494.7 568.324 494.769 568.406 494.82 568.5V568.5Z" fill="#231F20"/>
<path fill-rule="evenodd" clip-rule="evenodd" d="M492.82 564.3C492.82 564.3 496.24 562.94 495.54 566.8C495.1 569.22 494.49 569.23 494.11 569.02C493.73 568.81 493.32 568.79 494 567.34C494.83 565.58 493.45 564.06 492.82 564.3Z" fill="white"/>
<path fill-rule="evenodd" clip-rule="evenodd" d="M475.83 556.32C475.83 556.32 465.9 553.83 468.16 548.67C470.42 543.51 475.16 553.18 475.97 555.75H475.36C475.36 555.75 472.66 549.4 470.54 548.81C468.42 548.22 468.61 550.13 469.18 550.92C470.54 552.852 472.313 554.458 474.37 555.62C474.56 555.73 475.37 555.62 475.58 555.71C475.79 555.8 475.52 556.19 475.83 556.32Z" fill="#BBBDBF"/>
<path fill-rule="evenodd" clip-rule="evenodd" d="M474.67 555.07C474.67 555.07 471.82 548.53 474.67 545.53C477.52 542.53 479.95 544.37 477.9 550.34L475.84 556.34L475.11 555.76C475.959 553.664 476.629 551.5 477.11 549.29C477.45 547.01 477.62 544.57 476.23 545.76C474.84 546.95 473.99 548 474.51 551.53C474.76 553.22 475.37 554.64 475.46 555.36C475.55 556.08 475.1 556.15 475.1 556.15L474.67 555.07Z" fill="#BBBDBF"/>
<path fill-rule="evenodd" clip-rule="evenodd" d="M476.23 555.91C477.407 556.257 478.638 556.379 479.86 556.27C480.85 556.336 481.817 556.598 482.704 557.041C483.592 557.484 484.382 558.099 485.03 558.85C485.03 559.07 485.75 559.09 485.75 559.09C485.75 559.09 486.17 558.6 485.56 557.57C484.95 556.54 483.68 554.57 479.96 555.25C476.24 555.93 475.14 555.45 475.14 555.45C475.14 555.45 474.21 556.31 476.23 555.91Z" fill="#D0D2D3"/>
<path fill-rule="evenodd" clip-rule="evenodd" d="M474.82 555.38C476.604 556.185 478.438 556.873 480.31 557.44C482.31 557.94 484.95 560 486.1 559.95C487.25 559.9 487.1 560.9 487.1 560.9C487.1 560.9 486.5 561.47 482.91 559.3C479.32 557.13 477.8 557.41 476.63 556.82C475.46 556.23 474.88 556.19 474.82 555.38Z" fill="#D0D2D3"/>
<path d="M437.44 589.69C437.647 588.467 437.754 587.23 437.76 585.99C447.753 588.506 458.107 589.267 468.36 588.24C474.52 587.62 484.59 587.44 491.66 586.4C498.618 585.361 505.505 583.892 512.28 582C516.06 580.772 519.71 579.177 523.18 577.24C523.753 576.911 524.205 576.407 524.471 575.803C524.737 575.198 524.804 574.525 524.66 573.88C524.41 572.09 524.66 570.26 525.94 571.88C526.74 572.88 527.15 575.88 527.25 576.74C527.35 578.1 523.7 580.81 519.33 583.6C514.02 586.99 503.89 591.16 485.97 593.23C473.74 594.65 465.57 595.89 458.5 597.07C438.45 600.39 437.99 596.79 437.5 593.21C437.344 592.043 437.324 590.862 437.44 589.69V589.69Z" fill="#D3D4D6"/>
<path d="M442.51 591.21C442.51 591.21 455.51 592.73 460.95 591.96C469.45 590.75 464.39 593.48 455.73 595.62C441.15 599.23 436.96 591.7 442.51 591.21Z" fill="#AAACAF"/>
<path d="M497.25 590.39C497.25 590.39 512.32 588.39 521.52 581.33L511.78 584.53C497.11 589.39 494.7 586.15 497.25 590.39Z" fill="#AAACAF"/>
<path d="M243.48 504.69L265.1 505.86C265.1 505.86 256.87 485.19 261.33 476.38L248.61 475.27C248.61 475.27 238.82 478.81 243.48 504.69Z" fill="white"/>
<path d="M223.98 462.47C220.68 461.9 217.38 461.96 214.35 483.59C213.25 491.44 212.72 500.68 209.79 513.84C205.45 533.31 206.53 545.56 207.98 552.23C209.18 557.73 210.54 562.41 211.79 562.73L212.37 562.83C211.7 562.74 211.1 562.62 210.67 562.53C209.4 562.23 208.05 557.53 206.86 552.03C205.41 545.36 204.68 533.55 208.28 513.89C210.74 500.45 212.13 491.24 213.23 483.39C216.35 461.1 219.76 461.72 223.16 462.32L223.98 462.47Z" fill="#717275"/>
<path d="M254.14 470.23C253.301 470.454 252.479 470.738 251.68 471.08C250.2 471.865 248.502 472.139 246.85 471.86L246.64 472.93C247.563 473.129 248.518 473.129 249.44 472.93V473.02C251.105 473.461 252.858 473.436 254.51 472.95C256.07 472.48 256.92 471.68 256.75 470.86C256.61 470.52 256.24 469.73 254.14 470.23ZM255.66 471.23C255.254 471.585 254.766 471.832 254.24 471.95C253.395 472.205 252.513 472.319 251.63 472.29L252 472.15C252.759 471.823 253.542 471.552 254.34 471.34C254.749 471.206 255.181 471.155 255.61 471.19L255.66 471.23Z" fill="#0D0B42"/>
<path fill-rule="evenodd" clip-rule="evenodd" d="M221.79 482.57C221.02 487.13 219.53 490.7 217.65 497.27C215.252 505.245 213.315 513.352 211.85 521.55C210.821 529.484 210.254 537.47 210.15 545.47C210.133 550.999 210.771 556.511 212.05 561.89L214.05 562.77C215.193 562.417 216.21 561.744 216.98 560.83C218.18 559.35 219.49 555.83 223.67 546.51C229.01 534.51 231.25 530.74 236.44 525.13C241.63 519.52 246.66 512.37 246.44 510.13C246.22 507.89 244.44 503.84 243.26 496.03C241.02 480.7 239.87 488.46 244.95 478.34C247.24 473.78 252.54 474.43 251.48 473.88C248.824 473.56 246.356 472.347 244.48 470.44C241.07 466.66 234.84 464.72 227.98 464.51C224.68 468.9 222.54 478.15 221.79 482.57Z" fill="#252B67"/>
<path fill-rule="evenodd" clip-rule="evenodd" d="M252.46 501.06C254.1 502.85 256.12 502.93 257.32 505.38C257.96 506.69 256.49 509.44 250.26 512.38C244.86 515 240.11 521 240.11 521L240.2 520.65C236.08 525.246 232.525 530.319 229.61 535.76L228.26 534.76C233.72 525.88 239.16 517.98 243.06 512.48C244.25 510 243.46 505.79 244.47 504.31C247.53 499.79 251.4 499.9 252.46 501.06Z" fill="#0D0B42"/>
<path fill-rule="evenodd" clip-rule="evenodd" d="M213.34 561.14C212.758 560.897 212.255 560.495 211.89 559.981C211.524 559.466 211.309 558.86 211.27 558.23C211.2 557.84 211.14 557.43 211.07 556.98C211 556.54 210.93 556.09 210.87 555.62C210.8 555.13 210.74 554.62 210.67 554.13C210.61 553.63 210.55 553.13 210.5 552.61C210.503 552.57 210.503 552.53 210.5 552.49C210.45 551.97 210.4 551.43 210.35 550.88C210.35 550.33 210.27 549.77 210.25 549.21C210.25 549.21 210.25 549.13 210.25 549.09C210.25 548.55 210.25 548.01 210.19 547.47C210.19 547.47 210.19 547.38 210.19 547.33C210.19 546.76 210.19 546.19 210.19 545.62C210.294 537.62 210.861 529.634 211.89 521.7C213.328 513.496 215.265 505.388 217.69 497.42C219.23 492.24 223.97 468.59 227.14 464.22C227.7 464.22 229.72 464.96 230.27 464.99C229.062 466.255 227.93 467.591 226.88 468.99C222.88 475.46 219.17 497.1 216.98 504.45C212.578 519.236 211.144 534.747 212.76 550.09C212.76 550.09 214.34 560.01 218.34 553.69C221.8 548.23 228.28 534.98 228.28 534.98L229.93 535.33C219.34 554.21 222.78 555.97 219.19 560.43C218.62 561.14 216.41 563.15 214.72 562.86C214.71 562.462 214.57 562.078 214.32 561.767C214.071 561.457 213.727 561.236 213.34 561.14V561.14Z" fill="#404FA1"/>
<path d="M229.77 464.62C236.13 464.98 241.12 466.86 244.35 470.45C244.51 470.63 244.67 470.79 244.84 470.95C244.52 471.95 243.72 472.37 241.84 470.7C238.53 467.7 231.71 465.98 229.24 465.45C229.447 465.194 229.625 464.915 229.77 464.62V464.62Z" fill="#252B67"/>
<path fill-rule="evenodd" clip-rule="evenodd" d="M224.07 535.42C224.07 535.42 229.79 531.61 227.55 538.1C226.73 540.46 217.83 559.81 215.12 557.75C213.36 556.41 213.12 556.97 211.94 552.35C210.76 547.73 211.85 527 212.25 530.86C213.1 539.22 216.25 538.26 220.83 533.7C222.99 531.692 224.968 529.497 226.74 527.14L224.07 535.42Z" fill="#404FA1"/>
<path d="M226.01 529.41C226.01 529.41 214.7 506.12 212.71 523.49C212.71 523.49 213.55 510.91 215.87 508.57C218.19 506.23 224.81 510.5 230.72 522.37L226.01 529.41Z" fill="#404FA1"/>
<path d="M232.7 520.69C232.7 520.69 219.51 496.24 215.61 508.52C215.61 508.52 216.54 498.83 219.15 496.89C224.45 492.97 231.51 501.78 237.42 513.65L232.7 520.69Z" fill="#404FA1"/>
<path d="M238.74 511.7C238.74 511.7 223.18 482.58 218.46 496.16C218.46 496.16 219.59 484.05 222.2 482.16C225.5 479.71 235.03 495.65 242.37 482.08C243.84 479.37 241.58 501.9 243.8 506.36L238.74 511.7Z" fill="#404FA1"/>
<path fill-rule="evenodd" clip-rule="evenodd" d="M242.76 469C243.33 469.452 243.862 469.95 244.35 470.49L244.68 470.83C246.682 472.035 248.913 472.808 251.23 473.1C258.44 474.03 253.99 477.25 252.85 477.4C250.34 477.75 244.85 476.98 243.73 488.63C243.083 494.844 243.895 501.124 246.1 506.97C247.47 510.47 247.28 511.84 247.1 512.24C243.94 517.42 242.1 517.88 237.97 522.09C233.353 527.47 229.302 533.311 225.88 539.52C224.904 538.311 224.271 536.862 224.047 535.324C223.824 533.786 224.018 532.217 224.61 530.78V530.78C224.68 530.61 224.75 530.44 224.83 530.27L225.09 529.74L225.15 529.64C225.23 529.49 225.31 529.34 225.41 529.18C225.51 529.02 225.64 528.8 225.76 528.61C229.99 522.15 238.23 511.96 239.97 509.42C241.71 506.88 241.7 501.13 241.1 496.93C239.37 484.68 242.66 483.39 241.54 475.73C241.15 473.06 238.7 469.35 233.12 466.08C233.03 466.08 238.39 467.08 238.39 467.03C238.39 466.98 241.75 470.37 241.75 470.34C241.738 470.254 241.738 470.166 241.75 470.08V470.08C241.786 469.978 241.833 469.881 241.89 469.79V469.79C241.951 469.702 242.018 469.619 242.09 469.54C242.287 469.329 242.513 469.148 242.76 469V469Z" fill="#252B67"/>
<path fill-rule="evenodd" clip-rule="evenodd" d="M244.47 510.71C244.19 510.648 243.945 510.477 243.79 510.236C243.635 509.994 243.581 509.701 243.64 509.42C243.654 509.28 243.695 509.144 243.763 509.02C243.83 508.897 243.921 508.788 244.031 508.7C244.141 508.612 244.268 508.548 244.403 508.51C244.539 508.472 244.681 508.462 244.82 508.48C245.098 508.547 245.338 508.719 245.491 508.959C245.644 509.2 245.698 509.491 245.64 509.77C245.634 509.912 245.597 510.051 245.533 510.177C245.469 510.304 245.378 510.415 245.268 510.504C245.157 510.593 245.029 510.658 244.891 510.693C244.754 510.729 244.61 510.734 244.47 510.71V510.71Z" fill="white"/>
<path fill-rule="evenodd" clip-rule="evenodd" d="M244.51 510.48C244.293 510.43 244.104 510.298 243.981 510.112C243.858 509.926 243.811 509.7 243.85 509.48C243.863 509.369 243.897 509.262 243.951 509.165C244.005 509.068 244.078 508.982 244.165 508.913C244.253 508.845 244.353 508.794 244.46 508.764C244.568 508.734 244.68 508.726 244.79 508.74C245.006 508.793 245.193 508.925 245.314 509.111C245.434 509.297 245.48 509.522 245.44 509.74C245.428 509.85 245.394 509.956 245.34 510.052C245.287 510.149 245.215 510.234 245.129 510.303C245.042 510.371 244.943 510.422 244.837 510.453C244.731 510.483 244.62 510.493 244.51 510.48V510.48Z" fill="#231F20"/>
<path fill-rule="evenodd" clip-rule="evenodd" d="M243.71 510C243.71 510 242.78 515.16 244.52 516.41C244.52 516.41 245.73 516.41 245.35 515.6C244.3 513.33 244.99 512.73 245.44 509.72C245.45 509.74 244.27 508.38 243.71 510Z" fill="#BBBDBF"/>
<path fill-rule="evenodd" clip-rule="evenodd" d="M239.05 516C238.905 515.991 238.763 515.953 238.633 515.888C238.503 515.823 238.388 515.732 238.294 515.62C238.201 515.509 238.131 515.38 238.089 515.24C238.047 515.101 238.034 514.955 238.05 514.81C238.056 514.524 238.173 514.252 238.377 514.052C238.58 513.852 238.855 513.74 239.14 513.74C239.285 513.749 239.426 513.786 239.555 513.851C239.684 513.916 239.799 514.006 239.892 514.116C239.986 514.227 240.056 514.355 240.099 514.493C240.141 514.631 240.155 514.776 240.14 514.92C240.138 515.207 240.022 515.482 239.818 515.684C239.613 515.887 239.338 516 239.05 516Z" fill="white"/>
<path fill-rule="evenodd" clip-rule="evenodd" d="M239.07 515.74C238.958 515.729 238.85 515.695 238.751 515.642C238.652 515.589 238.565 515.516 238.494 515.429C238.423 515.341 238.371 515.241 238.339 515.133C238.308 515.025 238.298 514.912 238.31 514.8C238.316 514.575 238.408 514.362 238.569 514.205C238.73 514.048 238.946 513.96 239.17 513.96C239.282 513.971 239.391 514.004 239.49 514.058C239.589 514.111 239.676 514.184 239.747 514.271C239.817 514.359 239.87 514.459 239.901 514.567C239.933 514.675 239.943 514.788 239.93 514.9C239.923 515.124 239.829 515.336 239.669 515.492C239.509 515.649 239.294 515.738 239.07 515.74Z" fill="#231F20"/>
<path fill-rule="evenodd" clip-rule="evenodd" d="M238.23 515.39C238.23 515.39 237.81 520.63 239.67 521.65C239.67 521.65 240.88 521.52 240.42 520.74C239.14 518.62 239.78 517.94 239.93 514.89C239.93 514.89 238.61 513.68 238.23 515.39Z" fill="#BBBDBF"/>
<path fill-rule="evenodd" clip-rule="evenodd" d="M234.43 521.6C234.288 521.612 234.145 521.593 234.011 521.544C233.876 521.496 233.754 521.42 233.652 521.32C233.55 521.221 233.47 521.101 233.418 520.968C233.366 520.835 233.343 520.692 233.35 520.55C233.328 520.259 233.42 519.971 233.607 519.747C233.793 519.523 234.06 519.38 234.35 519.35C234.487 519.34 234.625 519.359 234.755 519.405C234.884 519.451 235.003 519.523 235.103 519.617C235.204 519.711 235.284 519.824 235.338 519.95C235.393 520.077 235.421 520.213 235.42 520.35C235.44 520.497 235.429 520.647 235.39 520.791C235.35 520.934 235.282 521.068 235.19 521.185C235.098 521.301 234.983 521.398 234.852 521.469C234.722 521.541 234.578 521.585 234.43 521.6Z" fill="white"/>
<path fill-rule="evenodd" clip-rule="evenodd" d="M234.41 521.37C234.3 521.373 234.19 521.353 234.087 521.313C233.984 521.272 233.89 521.211 233.81 521.134C233.731 521.057 233.668 520.964 233.625 520.862C233.582 520.76 233.56 520.651 233.56 520.54C233.529 520.307 233.591 520.07 233.734 519.883C233.876 519.696 234.087 519.572 234.32 519.54C234.431 519.537 234.541 519.557 234.644 519.597C234.747 519.638 234.841 519.699 234.92 519.776C234.999 519.853 235.062 519.946 235.105 520.048C235.148 520.15 235.17 520.259 235.17 520.37C235.202 520.603 235.139 520.839 234.997 521.027C234.854 521.214 234.643 521.338 234.41 521.37V521.37Z" fill="#231F20"/>
<path fill-rule="evenodd" clip-rule="evenodd" d="M233.54 521.12C233.54 521.12 233.61 526.19 235.61 527C235.61 527 236.8 526.7 236.26 526C234.77 524.06 235.37 523.49 235.2 520.44C235.18 520.41 233.75 519.38 233.54 521.12Z" fill="#BBBDBF"/>
<path fill-rule="evenodd" clip-rule="evenodd" d="M230.27 527.7C230.135 527.732 229.995 527.735 229.859 527.71C229.722 527.685 229.592 527.632 229.477 527.554C229.363 527.476 229.266 527.374 229.192 527.257C229.118 527.139 229.07 527.007 229.05 526.87C228.983 526.588 229.023 526.291 229.164 526.037C229.305 525.784 229.535 525.592 229.81 525.5C229.946 525.466 230.087 525.462 230.225 525.486C230.363 525.511 230.494 525.564 230.61 525.642C230.726 525.72 230.824 525.822 230.898 525.94C230.972 526.059 231.021 526.192 231.04 526.33C231.105 526.613 231.062 526.91 230.92 527.164C230.777 527.417 230.546 527.608 230.27 527.7V527.7Z" fill="white"/>
<path fill-rule="evenodd" clip-rule="evenodd" d="M230.22 527.46C230.112 527.491 229.997 527.499 229.886 527.482C229.774 527.465 229.667 527.425 229.572 527.363C229.477 527.301 229.397 527.22 229.336 527.125C229.275 527.029 229.236 526.922 229.22 526.81C229.166 526.586 229.197 526.35 229.308 526.148C229.419 525.946 229.602 525.794 229.82 525.72C229.929 525.69 230.043 525.684 230.154 525.702C230.265 525.719 230.371 525.76 230.466 525.821C230.56 525.883 230.64 525.963 230.702 526.058C230.763 526.152 230.803 526.259 230.82 526.37C230.877 526.594 230.847 526.831 230.736 527.034C230.624 527.236 230.44 527.388 230.22 527.46V527.46Z" fill="#231F20"/>
<path fill-rule="evenodd" clip-rule="evenodd" d="M229.32 527.4C229.32 527.4 229.88 531.9 231.94 532.28C231.94 532.28 233.07 531.77 232.43 531.18C230.65 529.57 231.48 529.34 230.83 526.39C230.82 526.38 229.26 525.64 229.32 527.4Z" fill="#BBBDBF"/>
<path fill-rule="evenodd" clip-rule="evenodd" d="M241.9 513.06C241.619 512.995 241.375 512.823 241.219 512.58C241.064 512.337 241.011 512.042 241.07 511.76C241.084 511.62 241.125 511.484 241.193 511.36C241.26 511.237 241.351 511.128 241.461 511.04C241.571 510.952 241.698 510.888 241.833 510.85C241.969 510.812 242.111 510.802 242.25 510.82C242.528 510.887 242.768 511.059 242.921 511.299C243.074 511.54 243.128 511.831 243.07 512.11C243.058 512.25 243.018 512.386 242.952 512.51C242.886 512.634 242.795 512.744 242.686 512.833C242.577 512.921 242.451 512.987 242.316 513.026C242.181 513.065 242.04 513.077 241.9 513.06V513.06Z" fill="white"/>
<path fill-rule="evenodd" clip-rule="evenodd" d="M241.93 512.82C241.712 512.772 241.521 512.641 241.397 512.454C241.274 512.267 241.229 512.04 241.27 511.82C241.281 511.709 241.315 511.601 241.368 511.503C241.422 511.405 241.495 511.319 241.583 511.25C241.671 511.181 241.771 511.13 241.879 511.101C241.987 511.072 242.1 511.065 242.21 511.08C242.426 511.133 242.613 511.265 242.734 511.451C242.854 511.637 242.9 511.862 242.86 512.08C242.849 512.19 242.816 512.297 242.763 512.394C242.71 512.492 242.638 512.577 242.551 512.646C242.465 512.715 242.365 512.766 242.258 512.796C242.152 512.826 242.04 512.834 241.93 512.82V512.82Z" fill="#231F20"/>
<path fill-rule="evenodd" clip-rule="evenodd" d="M246.15 514.53C246.15 514.53 245.01 517.8 242.68 514.58C241.22 512.58 241.62 512.04 242.01 511.87C242.4 511.7 242.69 511.35 243.3 512.87C244.03 514.8 245.9 515.24 246.15 514.53Z" fill="white"/>
<path fill-rule="evenodd" clip-rule="evenodd" d="M236.72 518.61C236.576 518.601 236.435 518.564 236.306 518.499C236.176 518.434 236.062 518.344 235.968 518.234C235.875 518.123 235.805 517.995 235.762 517.857C235.719 517.719 235.705 517.574 235.72 517.43C235.726 517.144 235.843 516.872 236.047 516.672C236.25 516.472 236.525 516.36 236.81 516.36C237.085 516.409 237.332 516.557 237.504 516.776C237.677 516.995 237.764 517.269 237.748 517.548C237.732 517.826 237.614 518.089 237.418 518.286C237.221 518.484 236.959 518.603 236.68 518.62L236.72 518.61Z" fill="white"/>
<path fill-rule="evenodd" clip-rule="evenodd" d="M236.73 518.38C236.507 518.347 236.305 518.231 236.163 518.056C236.021 517.881 235.95 517.659 235.964 517.435C235.978 517.21 236.075 516.998 236.238 516.842C236.4 516.685 236.615 516.596 236.84 516.59C236.952 516.601 237.06 516.634 237.158 516.688C237.257 516.742 237.343 516.814 237.413 516.902C237.483 516.99 237.535 517.09 237.565 517.198C237.596 517.306 237.604 517.419 237.59 517.53C237.588 517.756 237.496 517.973 237.335 518.132C237.174 518.291 236.957 518.38 236.73 518.38Z" fill="#231F20"/>
<path fill-rule="evenodd" clip-rule="evenodd" d="M241.3 519.59C241.3 519.59 240.3 522.94 237.65 520.04C236 518.22 236.34 517.64 236.71 517.42C237.08 517.2 237.34 516.82 238.1 518.3C239.02 520.09 241.12 520.32 241.3 519.59Z" fill="white"/>
<path fill-rule="evenodd" clip-rule="evenodd" d="M232.39 524.52C232.253 524.53 232.116 524.511 231.986 524.465C231.857 524.419 231.738 524.347 231.638 524.253C231.537 524.159 231.457 524.046 231.403 523.92C231.348 523.793 231.32 523.657 231.32 523.52C231.295 523.229 231.386 522.939 231.573 522.714C231.761 522.49 232.029 522.348 232.32 522.32C232.457 522.31 232.595 522.329 232.724 522.375C232.854 522.421 232.973 522.493 233.073 522.587C233.174 522.681 233.253 522.794 233.308 522.92C233.363 523.047 233.391 523.183 233.39 523.32C233.413 523.611 233.321 523.899 233.134 524.123C232.947 524.347 232.68 524.49 232.39 524.52Z" fill="white"/>
<path fill-rule="evenodd" clip-rule="evenodd" d="M232.38 524.28C232.27 524.283 232.161 524.263 232.059 524.224C231.956 524.184 231.863 524.124 231.784 524.048C231.705 523.971 231.642 523.88 231.598 523.779C231.555 523.678 231.532 523.57 231.53 523.46C231.515 523.344 231.523 523.226 231.553 523.112C231.583 522.999 231.636 522.893 231.707 522.8C231.779 522.707 231.868 522.629 231.97 522.571C232.072 522.512 232.184 522.475 232.3 522.46C232.411 522.457 232.521 522.477 232.624 522.517C232.727 522.558 232.821 522.619 232.9 522.696C232.979 522.773 233.042 522.866 233.085 522.968C233.128 523.07 233.15 523.179 233.15 523.29C233.166 523.406 233.158 523.523 233.127 523.636C233.097 523.749 233.044 523.854 232.973 523.946C232.901 524.038 232.812 524.115 232.71 524.173C232.608 524.23 232.496 524.266 232.38 524.28Z" fill="#231F20"/>
<path fill-rule="evenodd" clip-rule="evenodd" d="M236.8 524.71C236.8 524.71 236.41 528.34 233.48 525.81C231.63 524.23 231.91 523.61 232.26 523.34C232.61 523.07 232.82 522.67 233.73 524.03C234.83 525.68 236.7 525.44 236.8 524.71Z" fill="white"/>
<path fill-rule="evenodd" clip-rule="evenodd" d="M228.71 530.95C228.576 530.982 228.436 530.986 228.301 530.961C228.165 530.937 228.035 530.884 227.921 530.807C227.806 530.73 227.709 530.63 227.635 530.514C227.56 530.397 227.511 530.266 227.49 530.13C227.423 529.848 227.463 529.551 227.604 529.297C227.745 529.044 227.975 528.852 228.25 528.76C228.385 528.726 228.526 528.721 228.663 528.745C228.8 528.769 228.931 528.821 229.046 528.898C229.162 528.976 229.261 529.076 229.335 529.193C229.41 529.311 229.459 529.442 229.48 529.58C229.547 529.863 229.505 530.161 229.363 530.415C229.22 530.669 228.987 530.86 228.71 530.95V530.95Z" fill="white"/>
<path fill-rule="evenodd" clip-rule="evenodd" d="M228.61 530.72C228.501 530.751 228.386 530.758 228.274 530.741C228.161 530.724 228.054 530.682 227.959 530.62C227.864 530.557 227.784 530.474 227.723 530.378C227.663 530.281 227.625 530.173 227.61 530.06C227.556 529.837 227.588 529.603 227.699 529.403C227.81 529.202 227.993 529.051 228.21 528.98C228.319 528.949 228.433 528.941 228.545 528.958C228.657 528.975 228.764 529.015 228.858 529.077C228.953 529.139 229.034 529.22 229.094 529.315C229.155 529.411 229.195 529.518 229.21 529.63C229.263 529.854 229.23 530.089 229.119 530.29C229.009 530.491 228.827 530.644 228.61 530.72Z" fill="#231F20"/>
<path fill-rule="evenodd" clip-rule="evenodd" d="M233.09 529.89C233.09 529.89 233.27 533.89 229.98 532.01C227.92 530.8 228.09 530.15 228.39 529.82C228.69 529.49 228.84 529.05 229.96 530.21C231.31 531.62 233.11 530.63 233.09 529.89Z" fill="white"/>
<path fill-rule="evenodd" clip-rule="evenodd" d="M245.54 514.3C245.54 514.3 250.84 504.52 254.84 508.49C258.84 512.46 248.59 514.58 246.02 514.62L246.24 513.98C246.24 513.98 252.84 513.06 254.03 510.98C255.22 508.9 253.42 508.53 252.52 508.89C250.258 509.782 248.234 511.19 246.61 513C246.45 513.17 246.31 514.07 246.15 514.26C245.99 514.45 245.75 514 245.54 514.3Z" fill="#BBBDBF"/>
<path fill-rule="evenodd" clip-rule="evenodd" d="M247.03 513.46C247.03 513.46 253.85 512.46 255.71 516.37C257.57 520.28 255.15 522.37 250.35 518.31L245.54 514.31L246.29 513.72C247.914 515.258 249.674 516.643 251.55 517.86C253.55 518.92 255.69 519.86 255.03 518.01C254.37 516.16 253.67 514.95 250.31 514.41C248.7 514.16 247.22 514.41 246.54 514.25C245.86 514.09 245.94 513.63 245.94 513.63L247.03 513.46Z" fill="#BBBDBF"/>
<path fill-rule="evenodd" clip-rule="evenodd" d="M245.79 514.86C245.114 516.017 244.631 517.277 244.36 518.59C243.701 520.602 242.299 522.287 240.44 523.3C240.22 523.23 240 523.98 240 523.98C240 523.98 240.31 524.57 241.44 524.24C242.57 523.91 244.71 523.15 245.25 519.01C245.79 514.87 246.55 513.83 246.55 513.83C246.55 513.83 246.04 512.6 245.79 514.86Z" fill="#D0D2D3"/>
<path fill-rule="evenodd" clip-rule="evenodd" d="M246.7 513.52C245.412 515.179 244.227 516.916 243.15 518.72C242.07 520.72 239.4 522.85 239.09 524.09C238.78 525.33 237.94 524.82 237.94 524.82C237.94 524.82 237.61 524.01 240.68 520.82C243.75 517.63 243.97 515.97 244.85 514.91C245.73 513.85 245.95 513.33 246.7 513.52Z" fill="#D0D2D3"/>
<path d="M226.95 463.38C227.992 463.97 229.087 464.463 230.22 464.85C224.826 474.803 220.979 485.519 218.81 496.63C217.48 503.35 214.56 514.08 213.35 521.91C212.169 529.606 211.404 537.361 211.06 545.14C211.017 549.494 211.352 553.844 212.06 558.14C212.144 558.8 212.445 559.414 212.915 559.885C213.386 560.356 214 560.656 214.66 560.74C216.36 561.03 217.95 561.83 216.07 562.74C214.91 563.28 212.07 562.8 211.25 562.65C209.98 562.34 208.63 557.65 207.44 552.15C205.98 545.48 205.29 533.47 208.89 513.82C211.34 500.41 212.71 491.35 213.81 483.51C216.93 461.23 220.33 461.84 223.74 462.45C224.847 462.617 225.926 462.93 226.95 463.38V463.38Z" fill="#D3D4D6"/>
<path d="M224.02 468.29C224.02 468.29 218.66 481.62 217.7 487.62C216.19 497.02 215.27 490.8 215.97 480.97C217.16 464.39 225.28 462.25 224.02 468.29Z" fill="#AAACAF"/>
<path d="M208.02 526.6C208.02 526.6 205.24 543.21 208.83 555.13C208.83 555.13 208.83 548.45 208.9 543.81C208.97 526.76 212.61 525.2 208.02 526.6Z" fill="#AAACAF"/>
<path d="M520.03 542.76C514.03 539.2 504.92 543.13 500.35 544.45C492.74 546.65 491.5 548.45 490.12 552.39C489.84 553.17 520.76 543.19 520.03 542.76Z" fill="#F7BFC2"/>
<path d="M623.47 248.62L507.18 304.56C504.817 305.617 502.922 307.502 501.851 309.86C500.781 312.217 500.61 314.885 501.37 317.36L633.81 264.85L634.44 252.16C633.367 250.325 631.654 248.949 629.631 248.296C627.607 247.643 625.414 247.759 623.47 248.62Z" fill="#A8BDCC"/>
<path d="M693.61 688.25C692.287 690.109 690.538 691.624 688.51 692.668C686.481 693.711 684.232 694.254 681.95 694.25H559.7C557.79 694.3 555.889 693.968 554.109 693.272C552.329 692.575 550.707 691.53 549.338 690.197C547.969 688.863 546.881 687.269 546.138 685.508C545.395 683.748 545.012 681.856 545.012 679.945C545.012 678.034 545.395 676.142 546.138 674.382C546.881 672.621 547.969 671.027 549.338 669.693C550.707 668.36 552.329 667.314 554.109 666.618C555.889 665.922 557.79 665.589 559.7 665.64H662.05C635.65 582.89 621.48 488.75 622.14 404.49C622.257 382.87 623.502 361.27 625.87 339.78C625.934 339.152 626.048 338.53 626.21 337.92C627.078 334.385 629.26 331.313 632.314 329.332C635.367 327.35 639.061 326.607 642.643 327.255C646.225 327.903 649.425 329.892 651.591 332.818C653.757 335.743 654.726 339.385 654.3 343C652.059 363.428 650.88 383.959 650.77 404.51C650.635 438.23 652.639 471.924 656.77 505.39C663.95 564.68 677.33 623.39 695.46 675.24C696.213 677.399 696.438 679.706 696.116 681.97C695.794 684.233 694.935 686.387 693.61 688.25V688.25Z" fill="#8A9099"/>
<path d="M654.3 343C652.059 363.428 650.88 383.959 650.77 404.51H622.14C622.257 382.89 623.502 361.29 625.87 339.8C625.934 339.172 626.048 338.55 626.21 337.94H653.95C654.369 339.592 654.488 341.306 654.3 343V343Z" fill="#5C5866"/>
<path d="M695.25 686.08C694.895 686.841 694.47 687.568 693.98 688.25C692.658 690.109 690.909 691.625 688.88 692.669C686.852 693.713 684.602 694.255 682.32 694.25H638.14V686.05L695.25 686.08Z" fill="#5C5866"/>
<path d="M682.52 688.25C681.197 690.109 679.448 691.624 677.42 692.668C675.391 693.711 673.142 694.254 670.86 694.25H548.61C544.882 694.151 541.339 692.601 538.737 689.929C536.135 687.257 534.679 683.675 534.679 679.945C534.679 676.215 536.135 672.633 538.737 669.961C541.339 667.289 544.882 665.739 548.61 665.64H650.99C645.32 647.88 640.22 629.64 635.71 611.01H665.21C670.78 633.23 677.21 654.77 684.35 675.23C685.11 677.388 685.34 679.697 685.022 681.963C684.703 684.229 683.845 686.385 682.52 688.25V688.25Z" fill="#47454C"/>
<path d="M418.24 687.09C416.917 688.949 415.168 690.464 413.14 691.508C411.111 692.551 408.862 693.094 406.58 693.09H92.6103C88.8818 692.992 85.3392 691.441 82.737 688.769C80.1348 686.097 78.6785 682.515 78.6785 678.785C78.6785 675.055 80.1348 671.473 82.737 668.801C85.3392 666.129 88.8818 664.579 92.6103 664.48H194.99C189.32 646.72 187.47 641.39 182.99 622.79L213.69 627C219.26 649.22 412.91 653.64 420.06 674.1C420.816 676.253 421.045 678.556 420.729 680.816C420.412 683.076 419.559 685.228 418.24 687.09V687.09Z" fill="#47454C"/>
<path d="M665.21 611H635.71C617.35 535.34 608.71 454.48 611.6 382.58C611.74 378.927 611.914 375.3 612.12 371.7C612.734 360.987 613.607 350.51 614.74 340.27L614.8 339.77C614.817 339.595 614.844 339.422 614.88 339.25C615.378 335.489 617.348 332.08 620.359 329.772C623.37 327.465 627.175 326.448 630.935 326.945C634.696 327.442 638.105 329.413 640.413 332.424C642.721 335.435 643.738 339.239 643.24 343C642.487 349.667 641.857 356.457 641.35 363.37C638.15 406.71 639.61 455.37 645.67 505.37C649.973 540.953 656.499 576.232 665.21 611V611Z" fill="#5C5866"/>
<path d="M740.9 282.83C740.698 286.658 739.207 290.306 736.67 293.18L705.21 326.24C705.21 326.24 699.43 331.46 696.87 332.65L692.87 334.53L626.44 365.58C624.448 366.631 622.195 367.089 619.95 366.9L619.88 366.97H478.61L509.7 334.53L559.25 282.83L585.07 259.83L725.87 256.07C727.677 256.101 729.43 256.696 730.882 257.772C732.334 258.848 733.414 260.35 733.97 262.07L740.3 277.25C740.862 279.053 741.066 280.949 740.9 282.83V282.83Z" fill="#5C5866"/>
<path d="M692.86 334.53L626.43 365.58C624.438 366.631 622.185 367.089 619.94 366.9L619.87 366.97H478.61L509.7 334.53H692.86Z" fill="#47454C"/>
<path d="M740.94 282.86H559.29L585.61 256.09H725.91C727.717 256.121 729.47 256.716 730.922 257.792C732.374 258.868 733.454 260.37 734.01 262.09L740.34 277.27C740.904 279.076 741.108 280.975 740.94 282.86Z" fill="#8C9899"/>
<path d="M719.61 630.24V635.87C719.609 637.223 719.536 638.575 719.39 639.92C718.379 649.369 713.913 658.111 706.85 664.468C699.786 670.824 690.623 674.347 681.12 674.36H527.12C526.04 674.36 524.98 674.36 523.93 674.25C504.2 672.82 488.62 658.16 488.62 638.25L506.53 620.15L533.15 593.25H680.61C681.277 593.21 681.944 593.19 682.61 593.19C690.687 593.159 698.55 595.786 704.987 600.665C711.424 605.544 716.078 612.405 718.23 620.19C719.138 623.463 719.602 626.843 719.61 630.24V630.24Z" fill="#47454C"/>
<path opacity="0.2" d="M719.36 639.92C718.349 649.369 713.883 658.111 706.82 664.468C699.756 670.824 690.593 674.347 681.09 674.36H527.09C526.01 674.36 524.95 674.36 523.9 674.25C533.13 664.12 542.3 654.75 542.3 654.75H676.51C698.76 654.75 716.85 655.06 718.22 642.67C718.275 641.65 718.677 640.68 719.36 639.92V639.92Z" fill="#7FB4DD"/>
<path d="M718.21 620.12H506.54L533.16 593.22H680.61C681.277 593.18 681.944 593.16 682.61 593.16C690.687 593.129 698.55 595.756 704.987 600.635C711.424 605.514 716.078 612.375 718.23 620.16L718.21 620.12Z" fill="#8C9899"/>
<path d="M93.9603 687.8C85.3439 687.845 77.0613 684.471 70.9292 678.418C64.7972 672.365 61.3164 664.126 61.2503 655.51C61.2503 637.25 76.2503 621.61 94.8003 620.65L535.49 597.65C535.96 597.65 536.42 597.65 536.89 597.65C553.09 597.65 565.78 611.97 565.78 630.24V635.96C565.78 654.83 556.37 669.96 544.35 670.45L95.2903 687.79L93.9603 687.8Z" fill="#B9BAC0"/>
<path d="M536.88 602.88C549.99 602.88 560.53 614.88 560.53 630.23V635.95C560.53 651.69 553.16 664.85 544.14 665.2L512.95 666.41L469.55 668.09L95.0903 682.53H93.9603C90.3807 682.574 86.828 681.908 83.5067 680.573C80.1855 679.237 77.1614 677.257 74.6088 674.747C72.0563 672.237 70.0256 669.247 68.634 665.949C67.2423 662.651 66.5172 659.11 66.5003 655.53C66.5003 640.06 79.3602 626.73 95.0702 625.91L453.4 607.2L496.48 605L535.76 603H536.88V602.88ZM536.88 592.51C536.33 592.51 535.76 592.51 535.21 592.51L495.93 594.51L452.84 596.75L94.5203 615.41C73.2803 616.52 56.0003 634.51 56.0003 655.51C55.9815 660.477 56.9605 665.397 58.8793 669.978C60.7981 674.56 63.6175 678.709 67.1702 682.18C74.3273 689.173 83.954 693.061 93.9603 693H95.4903L469.96 678.55L513.36 676.87L544.55 675.66C552.55 675.35 559.98 670.17 564.87 661.45C568.87 654.37 571.02 645.31 571.02 635.93V630.21C571.124 620.592 567.758 611.258 561.54 603.92C558.516 600.319 554.743 597.42 550.484 595.426C546.225 593.431 541.583 592.388 536.88 592.37V592.51Z" fill="#6B7680"/>
<path d="M536.88 613.37C544.13 613.37 550.03 620.93 550.03 630.23V635.95C550.03 647.29 545.43 653.95 543.6 654.72L512.54 655.92L469.14 657.6L94.6803 672H93.9603C91.7499 672.055 89.5509 671.667 87.4926 670.86C85.4342 670.052 83.558 668.842 81.9742 667.299C80.3904 665.756 79.1309 663.912 78.2699 661.876C77.4089 659.839 76.9636 657.651 76.9603 655.44C76.9603 645.59 85.4903 636.82 95.5903 636.3L453.91 617.61L496.99 615.37L536.27 613.37H536.84H536.88ZM536.84 602.88H535.72L496.44 604.88L453.36 607.12L95.0703 625.89C79.3503 626.71 66.5003 640.04 66.5003 655.51C66.5172 659.09 67.2423 662.631 68.634 665.929C70.0257 669.227 72.0563 672.217 74.6089 674.727C77.1615 677.237 80.1855 679.217 83.5068 680.553C86.828 681.888 90.3808 682.554 93.9603 682.51H95.0903L469.56 668.06L512.96 666.38L544.15 665.17C553.15 664.82 560.54 651.66 560.54 635.92V630.2C560.54 614.9 550 602.85 536.89 602.85L536.84 602.88Z" fill="#47454C"/>
<path d="M93.5203 672.59C103.395 672.59 111.4 664.585 111.4 654.71C111.4 644.835 103.395 636.83 93.5203 636.83C83.6454 636.83 75.6403 644.835 75.6403 654.71C75.6403 664.585 83.6454 672.59 93.5203 672.59Z" fill="#6D7D84"/>
<g style="mix-blend-mode:multiply" opacity="0.3">
<path d="M527.76 665.83L498.15 667C492.05 647.09 486.64 626.57 481.97 605.73L510.97 604.22C515.86 625.37 521.47 646 527.76 665.83Z" fill="#47454C"/>
</g>
<g style="mix-blend-mode:multiply" opacity="0.3">
<path d="M494.32 654.65H356.61C353.971 654.591 351.346 655.059 348.89 656.028C346.434 656.998 344.196 658.448 342.309 660.294C340.421 662.14 338.921 664.344 337.897 666.778C336.873 669.211 336.345 671.825 336.345 674.465C336.345 677.105 336.873 679.719 337.897 682.152C338.921 684.586 340.421 686.79 342.309 688.636C344.196 690.482 346.434 691.932 348.89 692.901C351.346 693.871 353.971 694.339 356.61 694.28H506.51L494.32 654.65Z" fill="#47454C"/>
</g>
<path d="M556.02 686.08C555.665 686.841 555.24 687.568 554.75 688.25C553.428 690.109 551.679 691.625 549.65 692.669C547.622 693.713 545.372 694.255 543.09 694.25H420.87C417.142 694.151 413.599 692.601 410.997 689.929C408.395 687.257 406.939 683.675 406.939 679.945C406.939 676.215 408.395 672.633 410.997 669.961C413.599 667.289 417.142 665.739 420.87 665.64H523.23C496.83 582.89 482.66 488.75 483.32 404.5C483.441 382.88 484.686 361.281 487.05 339.79C487.117 339.162 487.234 338.54 487.4 337.93C488.233 334.564 490.262 331.616 493.109 329.636C495.955 327.656 499.425 326.78 502.87 327.17C508.97 327.87 503.87 333.49 505.28 339.17C505.69 340.78 505.47 344.85 505.28 346.6C503.1 365.96 512.13 383.02 511.96 404.55C511.808 438.265 513.796 471.956 517.91 505.42C525.1 564.71 538.48 623.42 556.6 675.28C557.828 678.817 557.62 682.695 556.02 686.08V686.08Z" fill="#8A9099"/>
<path d="M515.48 343C513.239 363.428 512.06 383.959 511.95 404.51H483.32C483.437 382.89 484.682 361.29 487.05 339.8C487.114 339.172 487.228 338.55 487.39 337.94H515.13C515.549 339.592 515.668 341.306 515.48 343V343Z" fill="#5C5866"/>
<path d="M503.02 357.1H520.17L517.78 342.32L503.02 357.1Z" fill="#47454C"/>
<path d="M556.02 686.08C555.665 686.841 555.24 687.568 554.75 688.25C553.428 690.109 551.679 691.625 549.65 692.669C547.622 693.713 545.372 694.255 543.09 694.25H498.9V686.05L556.02 686.08Z" fill="#5C5866"/>
<path d="M512.16 665.67C478.74 560.91 464.91 437.92 475.98 339.81C476.171 337.927 476.733 336.101 477.634 334.438C478.535 332.774 479.757 331.305 481.23 330.117C482.702 328.928 484.396 328.044 486.212 327.514C488.029 326.984 489.932 326.82 491.813 327.031C493.693 327.242 495.513 327.824 497.167 328.743C498.821 329.662 500.276 330.9 501.449 332.385C502.621 333.87 503.488 335.573 503.998 337.395C504.508 339.217 504.651 341.122 504.42 343C498.98 391.19 499.82 447.34 506.85 505.38C514.03 564.67 527.41 623.38 545.54 675.24C546.288 677.395 546.509 679.697 546.187 681.954C545.864 684.212 545.007 686.359 543.686 688.218C542.365 690.077 540.619 691.594 538.593 692.641C536.568 693.689 534.321 694.237 532.04 694.24" fill="#646870"/>
<path d="M490.78 331.39L483.78 331.96L451.08 334.65L376.4 340.89H375.78C373.985 340.886 372.254 340.227 370.911 339.035C369.569 337.844 368.708 336.203 368.49 334.422C368.273 332.64 368.714 330.841 369.731 329.361C370.747 327.882 372.269 326.826 374.01 326.39H374.12C374.469 326.309 374.823 326.252 375.18 326.22L460.35 319.11L483.42 317.21L485.12 317.08L485.78 317.02L489.5 316.71C491.447 316.55 493.378 317.169 494.868 318.432C496.358 319.695 497.285 321.498 497.445 323.445C497.606 325.392 496.986 327.322 495.723 328.812C494.46 330.302 492.657 331.23 490.71 331.39H490.78Z" fill="#47454C"/>
<path d="M487.22 319.62C487.306 320.577 487.028 321.532 486.44 322.292C485.852 323.052 484.998 323.562 484.05 323.72H483.75L451.61 326.6L372.4 333.54H372.07C371.397 333.539 370.736 333.36 370.155 333.021C369.574 332.682 369.092 332.195 368.76 331.61C369.101 330.346 369.774 329.195 370.709 328.279C371.645 327.363 372.809 326.714 374.08 326.4V326.4H374.19C374.539 326.319 374.893 326.262 375.25 326.23L460.42 319.12L483.49 317.22L485.19 317.09L485.85 317.03C486.24 317.349 486.561 317.742 486.796 318.187C487.032 318.632 487.176 319.119 487.22 319.62V319.62Z" fill="#5C5866"/>
<path d="M484.31 330.34C484.308 330.919 484.138 331.485 483.82 331.97L451.12 334.66C450.39 332.16 451.3 329.34 452.88 326.78C454.783 323.703 457.348 321.089 460.39 319.13C460.782 318.883 461.216 318.71 461.67 318.62V318.62L483.2 316.72H483.29C483.35 316.9 483.39 317.07 483.45 317.23C483.589 317.714 483.702 318.205 483.79 318.7C483.79 318.7 483.99 321.13 484.14 324.02C484.28 326.14 484.36 328.53 484.31 330.34Z" fill="#47454C"/>
<path d="M576.5 273.14L545.05 306.21C545.05 306.21 539.27 311.43 536.71 312.62C522.54 319.25 483.44 350.26 474.48 354.98C468.97 357.89 458.48 334.05 443.48 335.29C438.19 335.73 450.85 329.44 451.79 328.8L559.26 279.48C563 277.9 560.26 278.48 562.66 281.35C563.36 282.19 571.98 267.51 572.36 268.63L577.76 268.31C579.45 273.3 580.16 269.39 576.5 273.14Z" fill="#47454C"/>
<path d="M595.1 293.17L563.61 326.24C563.61 326.24 557.83 331.46 555.27 332.65L484.83 365.58C474 370.64 471.07 360.14 471.07 360.14L458.91 326.79C458.774 326.392 458.671 325.984 458.6 325.57C458.18 323.236 458.551 320.828 459.657 318.73C460.762 316.631 462.537 314.963 464.7 313.99L580.99 258.05C582.711 257.287 584.634 257.106 586.467 257.533C588.3 257.961 589.944 258.974 591.15 260.42C591.875 261.292 592.428 262.293 592.78 263.37L598.69 277.29C600.4 282.26 598.76 289.41 595.1 293.17Z" fill="#646870"/>
<path d="M594.13 266.43C594.13 266.43 591.91 260.07 583.96 263.97L458.61 325.57C458.19 323.236 458.561 320.828 459.667 318.73C460.772 316.632 462.547 314.963 464.71 313.99L583.23 256.63C587.01 255.05 591.94 258 594.13 266.43Z" fill="#8C9899"/>
<path d="M518.68 651H368.41C362.674 651 357.172 653.279 353.116 657.335C349.059 661.392 346.78 666.893 346.78 672.63C346.78 678.367 349.059 683.868 353.116 687.925C357.172 691.981 362.674 694.26 368.41 694.26H532.03L518.68 651Z" fill="#646870"/>
<path opacity="0.8" d="M696.86 269.41C696.5 273.15 690.08 278.41 686.32 278.41H644.98C640.675 278.173 636.585 276.448 633.41 273.53L619.61 259.3C619.61 259.3 617.66 256.1 612.12 256.1H682.36L693.05 256.86L696.86 269.41Z" fill="#47454C"/>
<path d="M695.8 256.09L699.02 266.62C698.71 269.76 693.33 274.15 690.18 274.15H645.68C642.066 273.95 638.634 272.501 635.97 270.05L624.37 258.14C624.37 258.14 622.67 256.09 618.02 256.09C613.37 256.09 630.6 252.09 630.6 252.09L695.8 256.09Z" fill="#A8BDCC"/>
<path d="M699.16 265.22C698.948 266.992 698.103 268.628 696.78 269.827C695.457 271.025 693.745 271.704 691.96 271.74H650.96C646.817 271.513 642.882 269.851 639.83 267.04L625.73 252.57C623.21 249.99 624.11 247.87 627.73 247.87H694.31C695.144 247.854 695.971 248.017 696.736 248.348C697.502 248.679 698.187 249.169 698.747 249.787C699.307 250.405 699.728 251.135 699.982 251.929C700.236 252.723 700.317 253.562 700.22 254.39L699.16 265.22Z" fill="#CAD8E5"/>
<path d="M90.0003 664.24C95.3575 664.24 99.7003 659.973 99.7003 654.71C99.7003 649.447 95.3575 645.18 90.0003 645.18C84.6431 645.18 80.3003 649.447 80.3003 654.71C80.3003 659.973 84.6431 664.24 90.0003 664.24Z" fill="#47454C"/>
<path d="M373.94 675.57C373.729 676.226 373.408 676.842 372.99 677.39C372.567 677.947 372.057 678.434 371.48 678.83C370.869 679.264 370.194 679.601 369.48 679.83C368.732 680.061 367.953 680.176 367.17 680.17C366.598 680.177 366.028 680.117 365.47 679.99C365.034 679.892 364.616 679.727 364.23 679.5C363.941 679.338 363.702 679.1 363.54 678.81C363.474 678.687 363.435 678.551 363.424 678.411C363.414 678.272 363.433 678.132 363.48 678C363.612 677.598 363.867 677.248 364.21 677C364.573 676.737 365.012 676.6 365.46 676.61C365.675 676.614 365.887 676.651 366.09 676.72L366.78 676.96C367.042 677.055 367.309 677.136 367.58 677.2C367.892 677.271 368.211 677.305 368.53 677.3C368.964 677.299 369.387 677.163 369.74 676.91C370.102 676.672 370.373 676.32 370.51 675.91C370.593 675.69 370.614 675.451 370.57 675.22C370.522 675.027 370.418 674.853 370.27 674.72C370.086 674.565 369.876 674.443 369.65 674.36L368.77 674.03C368.254 673.869 367.755 673.658 367.28 673.4C366.913 673.204 366.592 672.932 366.34 672.6C366.128 672.307 366.003 671.961 365.98 671.6C365.97 671.123 366.048 670.649 366.21 670.2C366.412 669.584 366.717 669.006 367.11 668.49C367.525 667.914 368.032 667.411 368.61 667C369.175 666.606 369.795 666.299 370.45 666.09C371.135 665.868 371.851 665.757 372.57 665.76C373.062 665.751 373.552 665.805 374.03 665.92C374.385 666.006 374.724 666.151 375.03 666.35C375.271 666.501 375.457 666.725 375.56 666.99C375.649 667.243 375.649 667.518 375.56 667.77C375.45 668.167 375.215 668.517 374.89 668.77C374.559 669.009 374.159 669.132 373.75 669.12C373.564 669.119 373.379 669.092 373.2 669.04L372.66 668.88L372.1 668.72C371.908 668.668 371.71 668.641 371.51 668.64C371.08 668.624 370.654 668.739 370.29 668.97C369.982 669.164 369.75 669.456 369.63 669.8C369.56 669.99 369.56 670.2 369.63 670.39C369.705 670.553 369.832 670.687 369.99 670.77C370.204 670.891 370.428 670.991 370.66 671.07L371.58 671.4C372.499 671.666 373.304 672.229 373.87 673C374.072 673.396 374.182 673.833 374.195 674.277C374.207 674.722 374.12 675.163 373.94 675.57V675.57Z" fill="#7FB4DD"/>
<path d="M379.34 668.35C379.444 668.004 379.582 667.669 379.75 667.35C379.889 667.091 380.076 666.86 380.3 666.67C380.526 666.486 380.788 666.352 381.07 666.28C381.427 666.191 381.793 666.151 382.16 666.16H384.92C385.602 666.141 386.281 666.253 386.92 666.49C387.42 666.675 387.857 666.997 388.18 667.42C388.486 667.848 388.663 668.355 388.69 668.88C388.723 669.527 388.635 670.175 388.43 670.79C388.051 672.129 387.256 673.313 386.16 674.17C385.049 675.004 383.689 675.438 382.3 675.4H380.22L379.48 677.73C379.02 679.197 378.274 679.93 377.24 679.93C376.207 679.93 375.924 679.197 376.39 677.73L379.34 668.35ZM382.4 672.6C382.984 672.665 383.571 672.52 384.058 672.193C384.546 671.865 384.901 671.375 385.06 670.81C385.163 670.598 385.208 670.363 385.192 670.128C385.176 669.893 385.1 669.666 384.97 669.47C384.769 669.302 384.536 669.177 384.285 669.103C384.034 669.029 383.77 669.008 383.51 669.04H382.18L381.06 672.6H382.4Z" fill="#7FB4DD"/>
<path d="M390.24 673C390.544 671.937 391.006 670.926 391.61 670C392.162 669.15 392.836 668.385 393.61 667.73C394.365 667.11 395.217 666.617 396.13 666.27C397.038 665.926 398 665.75 398.97 665.75C399.842 665.728 400.708 665.905 401.5 666.27C402.176 666.593 402.748 667.099 403.15 667.73C403.57 668.416 403.811 669.197 403.85 670C403.901 670.998 403.772 671.997 403.47 672.95C403.171 673.991 402.719 674.981 402.13 675.89C401.585 676.748 400.91 677.517 400.13 678.17C399.367 678.794 398.505 679.288 397.58 679.63C396.653 679.976 395.67 680.153 394.68 680.15C393.789 680.174 392.904 679.996 392.09 679.63C391.406 679.317 390.829 678.809 390.43 678.17C390.025 677.477 389.801 676.693 389.78 675.89C389.766 674.907 389.922 673.93 390.24 673V673ZM393.51 673.31C393.375 673.873 393.327 674.453 393.37 675.03C393.4 675.476 393.538 675.908 393.77 676.29C393.983 676.623 394.294 676.881 394.66 677.03C395.073 677.194 395.519 677.255 395.96 677.21C396.454 677.171 396.936 677.039 397.38 676.82C397.846 676.591 398.269 676.283 398.63 675.91C399.03 675.506 399.367 675.044 399.63 674.54C399.915 673.984 400.123 673.392 400.25 672.78C400.389 672.198 400.439 671.598 400.4 671C400.371 670.545 400.234 670.102 400 669.71C399.795 669.376 399.491 669.114 399.13 668.96C398.718 668.794 398.272 668.732 397.83 668.78C397.332 668.821 396.847 668.956 396.4 669.18C395.937 669.414 395.518 669.725 395.16 670.1C394.76 670.515 394.423 670.987 394.16 671.5C393.868 672.067 393.65 672.668 393.51 673.29V673.31Z" fill="#7FB4DD"/>
<path d="M409.44 674.4L408.44 677.75C408.02 679.217 407.294 679.95 406.26 679.95C405.227 679.95 404.924 679.217 405.35 677.75L408.08 668.36C408.173 668.015 408.301 667.68 408.46 667.36C408.591 667.101 408.771 666.87 408.99 666.68C409.21 666.498 409.465 666.365 409.74 666.29C410.093 666.202 410.457 666.161 410.82 666.17H413.2C413.917 666.153 414.631 666.262 415.31 666.49C415.829 666.663 416.296 666.962 416.67 667.36C417.005 667.735 417.217 668.202 417.28 668.7C417.35 669.278 417.299 669.863 417.13 670.42C416.873 671.364 416.341 672.21 415.6 672.85C414.822 673.513 413.872 673.943 412.86 674.09L414.53 676.81C414.719 677.062 414.853 677.35 414.926 677.656C414.998 677.962 415.006 678.28 414.95 678.59C414.827 678.988 414.582 679.338 414.25 679.59C413.918 679.863 413.501 680.011 413.07 680.01C412.931 680.014 412.792 679.991 412.661 679.941C412.531 679.891 412.412 679.816 412.31 679.72C412.072 679.479 411.873 679.202 411.72 678.9L409.44 674.4ZM411.44 672.33C412 672.351 412.552 672.198 413.02 671.89C413.445 671.592 413.75 671.153 413.88 670.65C413.959 670.455 413.985 670.242 413.957 670.034C413.929 669.825 413.847 669.628 413.72 669.46C413.547 669.299 413.341 669.178 413.117 669.104C412.893 669.03 412.655 669.004 412.42 669.03H410.96L410.01 672.32L411.44 672.33Z" fill="#7FB4DD"/>
<path d="M422.47 669H421.33C419.877 669 419.284 668.523 419.55 667.57C419.817 666.617 420.674 666.137 422.12 666.13H427.44C428.887 666.13 429.48 666.61 429.22 667.57C428.96 668.53 428.114 669.007 426.68 669H425.54L423.16 677.7C422.76 679.173 422.044 679.907 421.01 679.9C419.977 679.893 419.664 679.16 420.07 677.7L422.47 669Z" fill="#7FB4DD"/>
<path d="M653.27 353.04H640.58L638.27 368.79H647.25L653.27 353.04Z" fill="#5C5866"/>
<path d="M643.24 343C642.487 349.667 641.857 356.457 641.35 363.37C636.67 365.55 621.09 376.08 611.6 382.6C611.74 378.947 611.914 375.32 612.12 371.72C612.734 361.007 613.607 350.53 614.74 340.29L614.8 339.79C614.817 339.615 614.844 339.442 614.88 339.27H643.17C643.357 340.505 643.381 341.759 643.24 343V343Z" fill="#47454C"/>
</svg>
