<svg width="140" height="65" viewBox="0 0 140 65" fill="none" xmlns="http://www.w3.org/2000/svg">
<g id="Logo">
<g id="squares">
<g id="blue_sqaure">
<rect id="Rectangle1" y="33.614" width="31.0629" height="31.0629" rx="4" fill="#00B4DF"/>
<g id="brain">
<path id="Shape" fill-rule="evenodd" clip-rule="evenodd" d="M9.72707 46.0931C9.72707 42.5484 12.6001 39.6732 16.1401 39.6732H16.4212C19.9637 39.6732 22.8342 42.5464 22.8342 46.0938C22.8342 47.4991 22.5103 48.5491 21.7993 49.9726C21.7523 50.0667 21.507 50.5499 21.4418 50.6816C21.316 50.9359 21.2234 51.1373 21.1465 51.3277C20.9682 51.7698 20.8821 52.1427 20.8821 52.5144C20.8821 53.2864 21.0742 54.0798 21.3961 54.8451C21.5098 55.1153 21.6315 55.3619 21.7526 55.5791C21.8236 55.7064 21.8769 55.7932 21.9039 55.8338C22.106 56.1372 21.968 56.55 21.6241 56.6705L16.0466 58.6246C15.7528 58.7275 15.4316 58.5698 15.3332 58.2741L14.3448 55.306H12.5158C10.9747 55.306 9.72707 54.0574 9.72707 52.513V51.1187H9.16873C8.46645 51.1187 8.03949 50.4886 8.30055 49.8353L9.72707 46.2655V46.0931ZM13.6313 46.373C13.6313 44.9853 14.7548 43.8606 16.1412 43.8606C17.5275 43.8606 18.6511 44.9852 18.6511 46.373C18.6511 46.6813 18.9008 46.9313 19.2088 46.9313C19.5169 46.9313 19.7666 46.6813 19.7666 46.373C19.7666 44.3685 18.1436 42.7439 16.1412 42.7439C14.1387 42.7439 12.5158 44.3686 12.5158 46.373C12.5158 46.6813 12.7655 46.9313 13.0736 46.9313C13.3816 46.9313 13.6313 46.6813 13.6313 46.373ZM15.9213 46.4022C15.5659 46.4988 15.3046 46.8241 15.3046 47.2104C15.3046 47.673 15.6792 48.0479 16.1412 48.0479C16.6033 48.0479 16.9778 47.673 16.9778 47.2104C16.9778 47.1014 16.957 46.9971 16.9191 46.9016L17.4767 45.7852C17.6145 45.5094 17.5028 45.174 17.2273 45.0361C16.9518 44.8982 16.6167 45.01 16.479 45.2858L15.9213 46.4022Z" fill="white"/>
</g>
</g>
<g id="yellow_square">
<rect id="Rectangle2" x="36.0629" y="33.614" width="31.0629" height="31.0629" rx="4" fill="#FBD020"/>
<g id="heart">
<path id="Shape_2" d="M44.8513 52.4765C46.6891 52.4765 48.1791 53.9665 48.1789 55.8042C48.1789 56.7521 48.95 57.5233 49.8983 57.5233H53.2058C54.1536 57.5233 54.9252 56.7521 54.9252 55.8042C54.9252 53.9665 56.415 52.4765 58.2527 52.4765C59.2005 52.4765 59.9721 51.7053 59.9721 50.757V47.4493C59.9721 46.5015 59.201 45.7303 58.2527 45.7303C58.2527 45.7303 54.9252 44.2403 54.9252 42.4025C54.9252 41.4542 54.154 40.6831 53.2058 40.6831H49.8983C48.9505 40.6831 48.1789 41.4542 48.1789 42.4025C48.1789 44.2402 46.689 45.73 44.8513 45.7303C43.9035 45.7303 43.1319 46.5015 43.1319 47.4493V50.757C43.1319 51.7049 43.9031 52.4765 44.8513 52.4765Z" fill="white" stroke="white" stroke-width="0.584746"/>
<path id="Stroke 8" fill-rule="evenodd" clip-rule="evenodd" d="M54.8305 49.2457C54.3951 49.2457 54.0071 48.9708 53.8627 48.56L52.95 45.9628C52.8841 45.7752 52.6158 45.7875 52.5672 45.9804L52.2347 47.3017C51.9429 48.4609 50.3151 48.5131 49.9497 47.375C49.8922 47.1959 49.643 47.1873 49.5734 47.362L49.5136 47.5123C49.0968 48.5589 48.084 49.2457 46.9574 49.2457C46.8469 49.2457 46.7572 49.3357 46.7572 49.4467C46.7572 49.5577 46.8469 49.6477 46.9574 49.6477H48.9587C49.0406 49.6477 49.1142 49.5977 49.1445 49.5213C49.3448 49.0185 50.0648 49.0431 50.2302 49.5585L51.0531 52.1214C51.1148 52.3135 51.3883 52.3047 51.4376 52.109L52.0712 49.5914C52.2865 48.7362 53.481 48.6816 53.7734 49.5136C53.8016 49.594 53.8772 49.6477 53.9621 49.6477H54.9229C55.2758 49.6477 55.6105 49.9492 55.9634 49.9492C56.2417 49.9492 56.4638 49.7242 56.4638 49.4467C56.4638 49.1672 56.2398 48.9442 55.9634 48.9442C55.6105 48.9442 55.2759 49.2457 54.923 49.2457H54.8305Z" fill="#FBD020" stroke="#FBD020" stroke-width="0.584746"/>
</g>
</g>
<g id="red_square">
<rect id="Rectangle3" x="72.1258" y="33.614" width="31.0629" height="31.0629" rx="4" fill="#DA2C6C"/>
<g id="yoga">
<g id="Group">
<path id="Oval" d="M87.6586 43.2807C88.8665 43.2807 89.8458 42.3015 89.8458 41.0935C89.8458 39.8855 88.8665 38.9062 87.6586 38.9062C86.4506 38.9062 85.4713 39.8855 85.4713 41.0935C85.4713 42.3015 86.4506 43.2807 87.6586 43.2807Z" fill="white"/>
<path id="Shape_3" fill-rule="evenodd" clip-rule="evenodd" d="M93.567 45.8307C94.0867 45.6575 94.6281 45.939 94.8014 46.4588C94.9529 46.9785 94.6714 47.5199 94.13 47.7365C93.6319 47.9097 91.1198 48.6244 89.9504 47.3683C89.8786 47.2965 89.8366 47.2396 89.7874 47.173C89.7778 47.16 89.7574 47.1674 89.7582 47.1835L89.9071 50.097V50.1836L89.7122 58.3046C89.7122 58.9759 89.1708 59.4957 88.4995 59.4957H88.4778C87.8065 59.474 87.2651 58.911 87.2867 58.2396L87.3432 55.9257C87.3475 55.7464 87.1845 55.6193 87.0052 55.6193C86.8319 55.6193 86.6803 55.5759 86.5071 55.511C82.5657 53.7135 82.5657 53.0855 82.5657 52.4575C82.5657 51.9342 82.5859 51.4311 85.2077 49.6968C85.3836 49.5804 85.4948 49.3872 85.5041 49.1765L85.5826 47.4034C85.5871 47.3006 85.4537 47.2522 85.381 47.325C84.8612 47.8664 84.0816 48.0396 83.3237 48.0396C82.3708 48.0396 81.4829 47.7798 81.2014 47.6932C80.7033 47.5199 80.4001 46.9785 80.5733 46.4588C80.7466 45.9607 81.288 45.6575 81.8077 45.8307C82.4564 46.0419 83.1577 46.1165 83.5894 46.0838C83.8564 46.0635 84.0576 45.8765 84.2033 45.6519C84.2204 45.6255 84.2376 45.5985 84.2549 45.5709C84.623 44.9645 85.251 43.9683 86.6803 43.9683H88.6944C90.1237 43.9683 90.7517 44.9645 91.1198 45.5709C91.1384 45.6006 91.1564 45.6297 91.1738 45.6579C91.2578 45.7942 91.3296 45.9106 91.4014 45.9823C91.5963 46.1556 92.6358 46.1339 93.567 45.8307ZM87.23 51.2652C86.9807 51.4283 86.7287 51.5931 86.4871 51.7543C86.0946 52.0164 86.1268 52.5886 86.5497 52.7981C86.564 52.8052 86.5784 52.8122 86.5927 52.8193C86.9835 53.0114 87.4264 52.7241 87.4355 52.2888L87.4542 51.3895C87.4567 51.273 87.3275 51.2015 87.23 51.2652Z" fill="white"/>
</g>
</g>
</g>
<g id="green_square">
<rect id="Rectangle4" x="108.189" y="33.614" width="31.0629" height="31.0629" rx="4" fill="#7DDE7A"/>
<g id="apple">
<g id="Group_2">
<path id="Path" fill-rule="evenodd" clip-rule="evenodd" d="M123.89 43.903C124.478 45.1514 125.516 45.7437 126.896 45.7731C126.978 45.7749 127.064 45.7786 127.152 45.7845C128.893 45.8407 130.465 47.1882 130.97 48.8725C131.924 51.9044 129.622 57.8559 126.31 57.6874C125.187 57.6313 124.232 57.1821 123.166 57.2944C122.267 57.4067 121.257 57.912 120.246 57.6313C117.944 56.9575 116.204 53.5326 116.035 51.3429C115.754 46.9074 119.404 44.7739 122.211 46.1214C122.785 46.5042 123.493 46.0896 123.373 45.4099C123.233 44.6104 122.856 44.0334 122.436 43.4965C122.274 43.2883 122.262 42.9931 122.437 42.7945C122.617 42.5899 122.922 42.5977 123.111 42.7935C123.461 43.1552 123.71 43.5208 123.89 43.903Z" fill="white"/>
<path id="Path_2" fill-rule="evenodd" clip-rule="evenodd" d="M125.22 42.7437C124.248 43.8932 125 45.0688 126.461 44.7037C128.868 44.1021 126.823 40.8494 125.22 42.7437Z" fill="white"/>
</g>
</g>
</g>
</g>
<g id="text">
<g id="sense.bio">
<path fill-rule="evenodd" clip-rule="evenodd" d="M12.044 17.7786C12.8022 18.351 13.1812 19.109 13.1812 20.0526C13.1812 20.9431 12.773 21.6799 11.9566 22.2629C11.1401 22.846 10.0692 23.1376 8.74374 23.1376C7.32288 23.1376 6.18038 22.8275 5.3162 22.2073C4.45202 21.5871 3.98283 20.7204 3.90861 19.6073H2C2 21.0915 2.62294 22.3186 3.86884 23.2886C5.11474 24.2587 6.73969 24.7437 8.74374 24.7437C10.6311 24.7437 12.1607 24.309 13.3323 23.4397C14.504 22.5704 15.0899 21.4095 15.0899 19.9571C15.0899 19.0666 14.8884 18.3086 14.4855 17.6831C14.0825 17.0577 13.4649 16.5223 12.6325 16.077C11.8002 15.6318 10.549 15.213 8.87893 14.8208C7.20889 14.4285 6.05844 13.9965 5.42754 13.5247C4.79663 13.053 4.48119 12.3877 4.48119 11.529C4.48119 10.6385 4.86025 9.91497 5.6184 9.35839C6.37654 8.80181 7.3812 8.52353 8.6324 8.52353C9.91542 8.52353 10.9784 8.85747 11.8214 9.52536C12.6643 10.1933 13.0858 11.0308 13.0858 12.0379H14.9944C14.9944 10.5113 14.4139 9.27358 13.2528 8.32475C12.0917 7.37592 10.5516 6.90151 8.6324 6.90151C6.86163 6.90151 5.40899 7.34412 4.27442 8.22934C3.13986 9.11456 2.57258 10.2356 2.57258 11.5926C2.57258 12.4514 2.77669 13.1828 3.18493 13.7871C3.59316 14.3914 4.21875 14.9029 5.06172 15.3217C5.90469 15.7404 7.08961 16.1115 8.6165 16.4348C10.1434 16.7582 11.2859 17.2061 12.044 17.7786ZM22.0642 23.6623C23.2465 24.3832 24.5692 24.7437 26.0325 24.7437C28.694 24.7437 30.7245 23.7313 32.1241 21.7064L30.9313 20.8C30.2951 21.6163 29.5873 22.2099 28.8079 22.581C28.0286 22.952 27.13 23.1376 26.112 23.1376C24.4155 23.1376 23.0079 22.4882 21.8893 21.1896C20.7706 19.8909 20.2113 18.2662 20.2113 16.3156V15.9498H32.49V14.8844C32.49 12.4142 31.8776 10.4662 30.6529 9.04035C29.4282 7.61445 27.7715 6.90151 25.6826 6.90151C24.3466 6.90151 23.106 7.28051 21.9608 8.03851C20.8157 8.79652 19.9223 9.8381 19.2808 11.1633C18.6393 12.4885 18.3186 13.9779 18.3186 15.6318V16.3156C18.3186 17.9164 18.6473 19.3608 19.3047 20.6489C19.9621 21.937 20.8819 22.9414 22.0642 23.6623ZM25.6826 8.52353C24.2512 8.52353 23.045 9.04829 22.0642 10.0978C21.0834 11.1474 20.487 12.5574 20.2749 14.3278H30.5973V14.1211C30.5443 12.4672 30.0724 11.1209 29.1817 10.0819C28.291 9.04299 27.1247 8.52353 25.6826 8.52353ZM38.0726 10.1614L38.009 7.21956H36.1958V24.4256H38.0885V12.6422C38.5233 11.3912 39.1939 10.3973 40.1005 9.66053C41.0071 8.92373 42.0489 8.55533 43.2259 8.55533C44.6361 8.55533 45.662 8.93168 46.3035 9.68438C46.945 10.4371 47.2711 11.582 47.2817 13.1192V24.4256H49.1744V13.1351C49.1638 11.0573 48.7078 9.49886 47.8065 8.45992C46.9052 7.42098 45.5321 6.90151 43.6871 6.90151C42.5207 6.90151 41.4551 7.1798 40.4902 7.73637C39.5253 8.29295 38.7195 9.1013 38.0726 10.1614ZM64.3955 20.0526C64.3955 19.109 64.0164 18.351 63.2583 17.7786C62.5001 17.2061 61.3576 16.7582 59.8307 16.4348C58.3038 16.1115 57.1189 15.7404 56.276 15.3217C55.433 14.9029 54.8074 14.3914 54.3992 13.7871C53.9909 13.1828 53.7868 12.4514 53.7868 11.5926C53.7868 10.2356 54.3541 9.11456 55.4887 8.22934C56.6232 7.34412 58.0759 6.90151 59.8466 6.90151C61.7659 6.90151 63.306 7.37592 64.4671 8.32475C65.6281 9.27358 66.2087 10.5113 66.2087 12.0379H64.3001C64.3001 11.0308 63.8786 10.1933 63.0356 9.52536C62.1926 8.85747 61.1297 8.52353 59.8466 8.52353C58.5954 8.52353 57.5908 8.80181 56.8326 9.35839C56.0745 9.91497 55.6954 10.6385 55.6954 11.529C55.6954 12.3877 56.0109 13.053 56.6418 13.5247C57.2727 13.9965 58.4231 14.4285 60.0932 14.8208C61.7632 15.213 63.0144 15.6318 63.8468 16.077C64.6791 16.5223 65.2968 17.0577 65.6997 17.6831C66.1026 18.3086 66.3041 19.0666 66.3041 19.9571C66.3041 21.4095 65.7183 22.5704 64.5466 23.4397C63.3749 24.309 61.8454 24.7437 59.958 24.7437C57.9539 24.7437 56.329 24.2587 55.0831 23.2886C53.8372 22.3186 53.2142 21.0915 53.2142 19.6073H55.1228C55.1971 20.7204 55.6663 21.5871 56.5304 22.2073C57.3946 22.8275 58.5371 23.1376 59.958 23.1376C61.2834 23.1376 62.3543 22.846 63.1708 22.2629C63.9873 21.6799 64.3955 20.9431 64.3955 20.0526ZM73.2785 23.6623C74.4607 24.3832 75.7835 24.7437 77.2468 24.7437C79.9082 24.7437 81.9387 23.7313 83.3384 21.7064L82.1455 20.8C81.5093 21.6163 80.8015 22.2099 80.0222 22.581C79.2428 22.952 78.3442 23.1376 77.3263 23.1376C75.6297 23.1376 74.2222 22.4882 73.1035 21.1896C71.9848 19.8909 71.4255 18.2662 71.4255 16.3156V15.9498H83.7042V14.8844C83.7042 12.4142 83.0919 10.4662 81.8672 9.04035C80.6425 7.61445 78.9857 6.90151 76.8969 6.90151C75.5608 6.90151 74.3202 7.28051 73.1751 8.03851C72.0299 8.79652 71.1366 9.8381 70.4951 11.1633C69.8536 12.4885 69.5328 13.9779 69.5328 15.6318V16.3156C69.5328 17.9164 69.8615 19.3608 70.5189 20.6489C71.1763 21.937 72.0962 22.9414 73.2785 23.6623ZM76.8969 8.52353C75.4654 8.52353 74.2593 9.04829 73.2785 10.0978C72.2976 11.1474 71.7012 12.5574 71.4891 14.3278H81.8115V14.1211C81.7585 12.4672 81.2867 11.1209 80.396 10.0819C79.5053 9.04299 78.3389 8.52353 76.8969 8.52353ZM87.593 22.3345C87.3544 22.5942 87.2351 22.9096 87.2351 23.2807C87.2351 23.6517 87.3544 23.9565 87.593 24.1951C87.8316 24.4336 88.1629 24.5529 88.5871 24.5529C89.0112 24.5529 89.3452 24.4336 89.5891 24.1951C89.833 23.9565 89.9549 23.6517 89.9549 23.2807C89.9549 22.9096 89.833 22.5942 89.5891 22.3345C89.3452 22.0748 89.0112 21.9449 88.5871 21.9449C88.1629 21.9449 87.8316 22.0748 87.593 22.3345Z" fill="#2AA9E0"/>
<path d="M11.9566 22.2629L12.3274 22.7822L11.9566 22.2629ZM5.3162 22.2073L4.94416 22.7257H4.94416L5.3162 22.2073ZM3.90861 19.6073L4.54529 19.5648L4.50557 18.9692H3.90861V19.6073ZM2 19.6073V18.9692H1.3619V19.6073H2ZM3.86884 23.2886L4.26085 22.7851L4.26085 22.7851L3.86884 23.2886ZM13.3323 23.4397L12.9521 22.9272L13.3323 23.4397ZM14.4855 17.6831L15.0219 17.3376L14.4855 17.6831ZM8.87893 14.8208L8.73303 15.442L8.87893 14.8208ZM5.42754 13.5247L5.80966 13.0137L5.42754 13.5247ZM5.6184 9.35839L5.24078 8.84402L5.6184 9.35839ZM11.8214 9.52536L11.4251 10.0255V10.0255L11.8214 9.52536ZM13.0858 12.0379H12.4477V12.676H13.0858V12.0379ZM14.9944 12.0379V12.676H15.6325V12.0379H14.9944ZM13.2528 8.32475L12.849 8.81885L13.2528 8.32475ZM4.27442 8.22934L4.66694 8.73242L4.27442 8.22934ZM3.18493 13.7871L2.65618 14.1443H2.65618L3.18493 13.7871ZM5.06172 15.3217L4.77784 15.8931L5.06172 15.3217ZM22.0642 23.6623L22.3964 23.1175L22.0642 23.6623ZM32.1241 21.7064L32.6491 22.0692L32.9959 21.5674L32.5102 21.1983L32.1241 21.7064ZM30.9313 20.8L31.3173 20.2919L30.8155 19.9105L30.428 20.4077L30.9313 20.8ZM28.8079 22.581L28.5336 22.0049V22.0049L28.8079 22.581ZM20.2113 15.9498V15.3117H19.5732V15.9498H20.2113ZM32.49 15.9498V16.5879H33.1281V15.9498H32.49ZM30.6529 9.04035L31.137 8.62459V8.62459L30.6529 9.04035ZM21.9608 8.03851L22.313 8.57061V8.57061L21.9608 8.03851ZM19.3047 20.6489L19.873 20.3588L19.3047 20.6489ZM22.0642 10.0978L22.5304 10.5335L22.0642 10.0978ZM20.2749 14.3278L19.6413 14.2519L19.5558 14.9659H20.2749V14.3278ZM30.5973 14.3278V14.9659H31.2354V14.3278H30.5973ZM30.5973 14.1211H31.2354V14.1108L31.235 14.1006L30.5973 14.1211ZM29.1817 10.0819L29.6662 9.66662V9.66662L29.1817 10.0819ZM38.009 7.21956L38.647 7.20576L38.6335 6.58146H38.009V7.21956ZM38.0726 10.1614L37.4347 10.1752L37.4818 12.355L38.6174 10.4938L38.0726 10.1614ZM36.1958 7.21956V6.58146H35.5578V7.21956H36.1958ZM36.1958 24.4256H35.5578V25.0637H36.1958V24.4256ZM38.0885 24.4256V25.0637H38.7266V24.4256H38.0885ZM38.0885 12.6422L37.4858 12.4327L37.4505 12.5345V12.6422H38.0885ZM40.1005 9.66053L40.503 10.1557V10.1557L40.1005 9.66053ZM47.2817 13.1192H47.9198L47.9197 13.1148L47.2817 13.1192ZM47.2817 24.4256H46.6436V25.0637H47.2817V24.4256ZM49.1744 24.4256V25.0637H49.8125V24.4256H49.1744ZM49.1744 13.1351H49.8125L49.8125 13.1319L49.1744 13.1351ZM47.8065 8.45992L48.2885 8.04178V8.04178L47.8065 8.45992ZM40.4902 7.73637L40.1714 7.18364L40.1714 7.18364L40.4902 7.73637ZM63.2583 17.7786L62.8738 18.2878L62.8738 18.2878L63.2583 17.7786ZM59.8307 16.4348L59.6985 17.0591L59.8307 16.4348ZM54.3992 13.7871L53.8704 14.1443L53.8704 14.1443L54.3992 13.7871ZM55.4887 8.22934L55.8812 8.73242V8.73242L55.4887 8.22934ZM64.4671 8.32475L64.8708 7.83066V7.83066L64.4671 8.32475ZM66.2087 12.0379V12.676H66.8468V12.0379H66.2087ZM64.3001 12.0379H63.662V12.676H64.3001V12.0379ZM63.0356 9.52536L63.4319 9.02522L63.0356 9.52536ZM56.6418 13.5247L56.2597 14.0358L56.2597 14.0358L56.6418 13.5247ZM60.0932 14.8208L59.9473 15.442L60.0932 14.8208ZM63.8468 16.077L64.1477 15.5144V15.5144L63.8468 16.077ZM65.6997 17.6831L65.1633 18.0287V18.0287L65.6997 17.6831ZM64.5466 23.4397L64.1664 22.9272L64.5466 23.4397ZM55.0831 23.2886L55.4751 22.7851L55.4751 22.7851L55.0831 23.2886ZM53.2142 19.6073V18.9692H52.5761V19.6073H53.2142ZM55.1228 19.6073L55.7595 19.5648L55.7198 18.9692H55.1228V19.6073ZM56.5304 22.2073L56.1584 22.7257L56.1584 22.7257L56.5304 22.2073ZM73.2785 23.6623L73.6106 23.1175H73.6106L73.2785 23.6623ZM83.3384 21.7064L83.8633 22.0692L84.2102 21.5674L83.7244 21.1983L83.3384 21.7064ZM82.1455 20.8L82.5316 20.2919L82.0297 19.9105L81.6422 20.4077L82.1455 20.8ZM80.0222 22.581L80.2965 23.1571L80.2965 23.1571L80.0222 22.581ZM73.1035 21.1896L72.62 21.606L72.62 21.606L73.1035 21.1896ZM71.4255 15.9498V15.3117H70.7874V15.9498H71.4255ZM83.7042 15.9498V16.5879H84.3423V15.9498H83.7042ZM81.8672 9.04035L81.3831 9.4561L81.3831 9.4561L81.8672 9.04035ZM73.1751 8.03851L73.5273 8.57061L73.5273 8.57061L73.1751 8.03851ZM70.4951 11.1633L71.0694 11.4413V11.4413L70.4951 11.1633ZM70.5189 20.6489L71.0873 20.3588V20.3588L70.5189 20.6489ZM73.2785 10.0978L72.8122 9.66216V9.66216L73.2785 10.0978ZM71.4891 14.3278L70.8556 14.2519L70.7701 14.9659H71.4891V14.3278ZM81.8115 14.3278V14.9659H82.4496V14.3278H81.8115ZM81.8115 14.1211H82.4496V14.1108L82.4493 14.1006L81.8115 14.1211ZM80.396 10.0819L79.9115 10.4972L79.9115 10.4972L80.396 10.0819ZM89.5891 24.1951L89.1429 23.7389L89.1429 23.7389L89.5891 24.1951ZM89.5891 22.3345L89.1239 22.7713L89.1239 22.7713L89.5891 22.3345ZM13.8193 20.0526C13.8193 18.9073 13.3451 17.9614 12.4286 17.2693L11.6595 18.2878C12.2593 18.7406 12.5432 19.3108 12.5432 20.0526H13.8193ZM12.3274 22.7822C13.287 22.0969 13.8193 21.1776 13.8193 20.0526H12.5432C12.5432 20.7085 12.259 21.2628 11.5857 21.7437L12.3274 22.7822ZM8.74374 23.7757C10.1598 23.7757 11.3728 23.464 12.3274 22.7822L11.5857 21.7437C10.9074 22.2281 9.97849 22.4995 8.74374 22.4995V23.7757ZM4.94416 22.7257C5.94791 23.4461 7.23365 23.7757 8.74374 23.7757V22.4995C7.41211 22.4995 6.41285 22.2089 5.68824 21.6889L4.94416 22.7257ZM3.27192 19.6497C3.35812 20.9424 3.91661 21.9883 4.94416 22.7257L5.68824 21.6889C4.98744 21.1859 4.60754 20.4985 4.54529 19.5648L3.27192 19.6497ZM2 20.2454H3.90861V18.9692H2V20.2454ZM4.26085 22.7851C3.15875 21.9271 2.6381 20.8806 2.6381 19.6073H1.3619C1.3619 21.3024 2.08713 22.7101 3.47684 23.7921L4.26085 22.7851ZM8.74374 24.1056C6.84292 24.1056 5.36752 23.6468 4.26085 22.7851L3.47684 23.7921C4.86197 24.8706 6.63647 25.3818 8.74374 25.3818V24.1056ZM12.9521 22.9272C11.9189 23.6939 10.5345 24.1056 8.74374 24.1056V25.3818C10.7278 25.3818 12.4024 24.9242 13.7126 23.9522L12.9521 22.9272ZM14.4518 19.9571C14.4518 21.2065 13.9624 22.1777 12.9521 22.9272L13.7126 23.9522C15.0456 22.9631 15.7279 21.6126 15.7279 19.9571H14.4518ZM13.949 18.0287C14.2735 18.5324 14.4518 19.1648 14.4518 19.9571H15.7279C15.7279 18.9685 15.5033 18.0849 15.0219 17.3376L13.949 18.0287ZM12.3315 16.6397C13.0934 17.0472 13.6186 17.5158 13.949 18.0287L15.0219 17.3376C14.5465 16.5996 13.8363 15.9973 12.9335 15.5144L12.3315 16.6397ZM8.73303 15.442C10.3854 15.83 11.5727 16.2337 12.3315 16.6397L12.9335 15.5144C12.0276 15.0298 10.7126 14.596 9.02483 14.1996L8.73303 15.442ZM5.04541 14.0358C5.79037 14.5928 7.0548 15.0478 8.73303 15.442L9.02483 14.1996C7.36299 13.8092 6.32651 13.4002 5.80966 13.0137L5.04541 14.0358ZM3.84309 11.529C3.84309 12.5679 4.23732 13.4315 5.04541 14.0358L5.80966 13.0137C5.35595 12.6744 5.11928 12.2075 5.11928 11.529H3.84309ZM5.24078 8.84402C4.32966 9.51291 3.84309 10.4224 3.84309 11.529H5.11928C5.11928 10.8547 5.39085 10.317 5.99601 9.87276L5.24078 8.84402ZM8.6324 7.88543C7.28985 7.88543 6.13954 8.18422 5.24078 8.84402L5.99601 9.87276C6.61355 9.4194 7.47255 9.16162 8.6324 9.16162V7.88543ZM12.2176 9.02522C11.2412 8.25161 10.0305 7.88543 8.6324 7.88543V9.16162C9.80035 9.16162 10.7156 9.46333 11.4251 10.0255L12.2176 9.02522ZM13.7239 12.0379C13.7239 10.8211 13.2014 9.80468 12.2176 9.02522L11.4251 10.0255C12.1273 10.5818 12.4477 11.2404 12.4477 12.0379H13.7239ZM14.9944 11.3998H13.0858V12.676H14.9944V11.3998ZM12.849 8.81885C13.8587 9.64397 14.3563 10.6988 14.3563 12.0379H15.6325C15.6325 10.3238 14.9691 8.9032 13.6566 7.83066L12.849 8.81885ZM8.6324 7.53961C10.4464 7.53961 11.8306 7.98662 12.849 8.81885L13.6566 7.83066C12.3528 6.76523 10.6569 6.26342 8.6324 6.26342V7.53961ZM4.66694 8.73242C5.66547 7.95334 6.97025 7.53961 8.6324 7.53961V6.26342C6.75302 6.26342 5.1525 6.7349 3.8819 7.72626L4.66694 8.73242ZM3.21068 11.5926C3.21068 10.4456 3.6765 9.50519 4.66694 8.73242L3.8819 7.72626C2.60321 8.72393 1.93449 10.0257 1.93449 11.5926H3.21068ZM3.71367 13.4299C3.38863 12.9488 3.21068 12.3471 3.21068 11.5926H1.93449C1.93449 12.5556 2.16476 13.4169 2.65618 14.1443L3.71367 13.4299ZM5.3456 14.7502C4.57337 14.3666 4.04474 13.92 3.71367 13.4299L2.65618 14.1443C3.14157 14.8628 3.86413 15.4392 4.77784 15.8931L5.3456 14.7502ZM8.74869 15.8106C7.24479 15.4921 6.11931 15.1346 5.3456 14.7502L4.77784 15.8931C5.69007 16.3463 6.93443 16.7309 8.4843 17.0591L8.74869 15.8106ZM12.4286 17.2693C11.5627 16.6155 10.3154 16.1423 8.74869 15.8106L8.4843 17.0591C9.97138 17.374 11.0091 17.7966 11.6595 18.2878L12.4286 17.2693ZM26.0325 24.1056C24.6795 24.1056 23.4729 23.7739 22.3964 23.1175L21.732 24.2071C23.0201 24.9926 24.459 25.3818 26.0325 25.3818V24.1056ZM31.5992 21.3435C30.3297 23.1802 28.5045 24.1056 26.0325 24.1056V25.3818C28.8835 25.3818 31.1193 24.2823 32.6491 22.0692L31.5992 21.3435ZM30.5452 21.308L31.7381 22.2144L32.5102 21.1983L31.3173 20.2919L30.5452 21.308ZM29.0822 23.1571C29.9673 22.7357 30.7494 22.0714 31.4346 21.1922L30.428 20.4077C29.8407 21.1612 29.2073 21.6841 28.5336 22.0049L29.0822 23.1571ZM26.112 23.7757C27.208 23.7757 28.2032 23.5756 29.0822 23.1571L28.5336 22.0049C27.854 22.3284 27.0519 22.4995 26.112 22.4995V23.7757ZM21.4058 21.606C22.6442 23.0437 24.2276 23.7757 26.112 23.7757V22.4995C24.6034 22.4995 23.3716 21.9327 22.3727 20.7731L21.4058 21.606ZM19.5732 16.3156C19.5732 18.3966 20.1736 20.1756 21.4058 21.606L22.3727 20.7731C21.3676 19.6062 20.8494 18.1358 20.8494 16.3156H19.5732ZM19.5732 15.9498V16.3156H20.8494V15.9498H19.5732ZM32.49 15.3117H20.2113V16.5879H32.49V15.3117ZM31.8519 14.8844V15.9498H33.1281V14.8844H31.8519ZM30.1689 9.4561C31.2665 10.7341 31.8519 12.5181 31.8519 14.8844H33.1281C33.1281 12.3104 32.4888 10.1984 31.137 8.62459L30.1689 9.4561ZM25.6826 7.53961C27.6087 7.53961 29.0798 8.18809 30.1689 9.4561L31.137 8.62459C29.7767 7.04082 27.9343 6.26342 25.6826 6.26342V7.53961ZM22.313 8.57061C23.3568 7.87969 24.4755 7.53961 25.6826 7.53961V6.26342C24.2177 6.26342 22.8552 6.68133 21.6086 7.50642L22.313 8.57061ZM19.8552 11.4413C20.4505 10.2115 21.2703 9.26083 22.313 8.57061L21.6086 7.50642C20.3611 8.33221 19.3942 9.46468 18.7065 10.8852L19.8552 11.4413ZM18.9567 15.6318C18.9567 14.0623 19.2605 12.6697 19.8552 11.4413L18.7065 10.8852C18.0181 12.3073 17.6805 13.8936 17.6805 15.6318H18.9567ZM18.9567 16.3156V15.6318H17.6805V16.3156H18.9567ZM19.873 20.3588C19.2662 19.1698 18.9567 17.8265 18.9567 16.3156H17.6805C17.6805 18.0063 18.0283 19.5518 18.7363 20.939L19.873 20.3588ZM22.3964 23.1175C21.3195 22.4609 20.4793 21.5467 19.873 20.3588L18.7363 20.939C19.4449 22.3273 20.4444 23.422 21.732 24.2071L22.3964 23.1175ZM22.5304 10.5335C23.3911 9.61257 24.4286 9.16162 25.6826 9.16162V7.88543C24.0737 7.88543 22.699 8.48401 21.598 9.66216L22.5304 10.5335ZM20.9085 14.4037C21.1084 12.7349 21.6626 11.4622 22.5304 10.5335L21.598 9.66216C20.5042 10.8326 19.8656 12.3798 19.6413 14.2519L20.9085 14.4037ZM30.5973 13.6897H20.2749V14.9659H30.5973V13.6897ZM29.9592 14.1211V14.3278H31.2354V14.1211H29.9592ZM28.6973 10.4972C29.4748 11.4041 29.9101 12.6015 29.9595 14.1415L31.235 14.1006C31.1784 12.333 30.6701 10.8376 29.6662 9.66662L28.6973 10.4972ZM25.6826 9.16162C26.9498 9.16162 27.9351 9.60816 28.6973 10.4972L29.6662 9.66662C28.647 8.47783 27.2995 7.88543 25.6826 7.88543V9.16162ZM37.3711 7.23335L37.4347 10.1752L38.7106 10.1476L38.647 7.20576L37.3711 7.23335ZM36.1958 7.85765H38.009V6.58146H36.1958V7.85765ZM36.8339 24.4256V7.21956H35.5578V24.4256H36.8339ZM38.0885 23.7875H36.1958V25.0637H38.0885V23.7875ZM37.4505 12.6422V24.4256H38.7266V12.6422H37.4505ZM39.6981 9.16535C38.6877 9.98655 37.9541 11.0851 37.4858 12.4327L38.6913 12.8516C39.0924 11.6973 39.7002 10.8081 40.503 10.1557L39.6981 9.16535ZM43.2259 7.91724C41.9035 7.91724 40.7194 8.33535 39.6981 9.16535L40.503 10.1557C41.2949 9.51211 42.1943 9.19343 43.2259 9.19343V7.91724ZM46.7891 9.27048C45.9816 8.32296 44.7407 7.91724 43.2259 7.91724V9.19343C44.5316 9.19343 45.3424 9.5404 45.8179 10.0983L46.7891 9.27048ZM47.9197 13.1148C47.9086 11.5066 47.5694 10.1859 46.7891 9.27048L45.8179 10.0983C46.3207 10.6882 46.6335 11.6575 46.6436 13.1236L47.9197 13.1148ZM47.9198 24.4256V13.1192H46.6436V24.4256H47.9198ZM49.1744 23.7875H47.2817V25.0637H49.1744V23.7875ZM48.5363 13.1351V24.4256H49.8125V13.1351H48.5363ZM47.3245 8.87806C48.0857 9.75554 48.5261 11.1379 48.5363 13.1384L49.8125 13.1319C49.8015 10.9766 49.3299 9.24219 48.2885 8.04178L47.3245 8.87806ZM43.6871 7.53961C45.4138 7.53961 46.5822 8.02231 47.3245 8.87806L48.2885 8.04178C47.2283 6.81964 45.6505 6.26342 43.6871 6.26342V7.53961ZM40.809 8.28911C41.6724 7.79113 42.6272 7.53961 43.6871 7.53961V6.26342C42.4143 6.26342 41.2379 6.56846 40.1714 7.18364L40.809 8.28911ZM38.6174 10.4938C39.215 9.51419 39.9469 8.78638 40.809 8.28911L40.1714 7.18364C39.1037 7.79952 38.2239 8.68841 37.5279 9.82911L38.6174 10.4938ZM62.8738 18.2878C63.4735 18.7406 63.7574 19.3108 63.7574 20.0526H65.0336C65.0336 18.9073 64.5593 17.9614 63.6428 17.2693L62.8738 18.2878ZM59.6985 17.0591C61.1856 17.374 62.2233 17.7966 62.8738 18.2878L63.6428 17.2693C62.777 16.6155 61.5296 16.1423 59.9629 15.8106L59.6985 17.0591ZM55.9921 15.8931C56.9043 16.3463 58.1487 16.7309 59.6985 17.0591L59.9629 15.8106C58.459 15.4921 57.3336 15.1346 56.5598 14.7502L55.9921 15.8931ZM53.8704 14.1443C54.3558 14.8628 55.0784 15.4392 55.9921 15.8931L56.5598 14.7502C55.7876 14.3666 55.259 13.92 54.9279 13.4299L53.8704 14.1443ZM53.1487 11.5926C53.1487 12.5556 53.379 13.4169 53.8704 14.1443L54.9279 13.4299C54.6029 12.9488 54.4249 12.3471 54.4249 11.5926H53.1487ZM55.0961 7.72626C53.8174 8.72393 53.1487 10.0257 53.1487 11.5926H54.4249C54.4249 10.4456 54.8907 9.50519 55.8812 8.73242L55.0961 7.72626ZM59.8466 6.26342C57.9673 6.26342 56.3667 6.7349 55.0961 7.72626L55.8812 8.73242C56.8797 7.95334 58.1845 7.53961 59.8466 7.53961V6.26342ZM64.8708 7.83066C63.5671 6.76523 61.8711 6.26342 59.8466 6.26342V7.53961C61.6606 7.53961 63.0449 7.98662 64.0633 8.81885L64.8708 7.83066ZM66.8468 12.0379C66.8468 10.3238 66.1833 8.9032 64.8708 7.83066L64.0633 8.81885C65.073 9.64397 65.5706 10.6988 65.5706 12.0379H66.8468ZM64.3001 12.676H66.2087V11.3998H64.3001V12.676ZM62.6393 10.0255C63.3415 10.5818 63.662 11.2404 63.662 12.0379H64.9382C64.9382 10.8211 64.4157 9.80468 63.4319 9.02522L62.6393 10.0255ZM59.8466 9.16162C61.0146 9.16162 61.9298 9.46333 62.6393 10.0255L63.4319 9.02522C62.4555 8.25161 61.2447 7.88543 59.8466 7.88543V9.16162ZM57.2103 9.87276C57.8278 9.4194 58.6868 9.16162 59.8466 9.16162V7.88543C58.5041 7.88543 57.3538 8.18422 56.455 8.84402L57.2103 9.87276ZM56.3335 11.529C56.3335 10.8547 56.6051 10.317 57.2103 9.87276L56.455 8.84402C55.5439 9.51291 55.0573 10.4224 55.0573 11.529H56.3335ZM57.0239 13.0137C56.5702 12.6744 56.3335 12.2075 56.3335 11.529H55.0573C55.0573 12.5679 55.4516 13.4315 56.2597 14.0358L57.0239 13.0137ZM60.2391 14.1996C58.5772 13.8092 57.5408 13.4002 57.0239 13.0137L56.2597 14.0358C57.0046 14.5928 58.269 15.0478 59.9473 15.442L60.2391 14.1996ZM64.1477 15.5144C63.2419 15.0298 61.9268 14.596 60.2391 14.1996L59.9473 15.442C61.5996 15.83 62.7869 16.2337 63.5458 16.6397L64.1477 15.5144ZM66.2361 17.3376C65.7607 16.5996 65.0506 15.9973 64.1477 15.5144L63.5458 16.6397C64.3077 17.0472 64.8328 17.5158 65.1633 18.0287L66.2361 17.3376ZM66.9422 19.9571C66.9422 18.9685 66.7175 18.0849 66.2361 17.3376L65.1633 18.0287C65.4877 18.5324 65.666 19.1648 65.666 19.9571H66.9422ZM64.9268 23.9522C66.2598 22.9631 66.9422 21.6126 66.9422 19.9571H65.666C65.666 21.2065 65.1767 22.1777 64.1664 22.9272L64.9268 23.9522ZM59.958 25.3818C61.942 25.3818 63.6167 24.9242 64.9268 23.9522L64.1664 22.9272C63.1331 23.6939 61.7488 24.1056 59.958 24.1056V25.3818ZM54.6911 23.7921C56.0762 24.8706 57.8507 25.3818 59.958 25.3818V24.1056C58.0572 24.1056 56.5818 23.6468 55.4751 22.7851L54.6911 23.7921ZM52.5761 19.6073C52.5761 21.3024 53.3014 22.7101 54.6911 23.7921L55.4751 22.7851C54.373 21.9271 53.8523 20.8806 53.8523 19.6073H52.5761ZM55.1228 18.9692H53.2142V20.2454H55.1228V18.9692ZM56.9025 21.6889C56.2017 21.1859 55.8218 20.4985 55.7595 19.5648L54.4862 19.6497C54.5724 20.9424 55.1308 21.9883 56.1584 22.7257L56.9025 21.6889ZM59.958 22.4995C58.6263 22.4995 57.6271 22.2089 56.9025 21.6889L56.1584 22.7257C57.1622 23.4461 58.4479 23.7757 59.958 23.7757V22.4995ZM62.8 21.7437C62.1217 22.2281 61.1927 22.4995 59.958 22.4995V23.7757C61.3741 23.7757 62.587 23.464 63.5416 22.7822L62.8 21.7437ZM63.7574 20.0526C63.7574 20.7085 63.4733 21.2628 62.8 21.7437L63.5416 22.7822C64.5013 22.0969 65.0336 21.1776 65.0336 20.0526H63.7574ZM77.2468 24.1056C75.8937 24.1056 74.6871 23.7739 73.6106 23.1175L72.9463 24.2071C74.2344 24.9926 75.6732 25.3818 77.2468 25.3818V24.1056ZM82.8135 21.3435C81.544 23.1802 79.7187 24.1056 77.2468 24.1056V25.3818C80.0977 25.3818 82.3335 24.2823 83.8633 22.0692L82.8135 21.3435ZM81.7595 21.308L82.9523 22.2144L83.7244 21.1983L82.5316 20.2919L81.7595 21.308ZM80.2965 23.1571C81.1816 22.7357 81.9636 22.0714 82.6488 21.1922L81.6422 20.4077C81.055 21.1612 80.4215 21.6841 79.7479 22.0049L80.2965 23.1571ZM77.3263 23.7757C78.4222 23.7757 79.4174 23.5756 80.2965 23.1571L79.7479 22.0049C79.0683 22.3284 78.2662 22.4995 77.3263 22.4995V23.7757ZM72.62 21.606C73.8585 23.0437 75.4418 23.7757 77.3263 23.7757V22.4995C75.8177 22.4995 74.5858 21.9327 73.587 20.7731L72.62 21.606ZM70.7874 16.3156C70.7874 18.3966 71.3879 20.1756 72.62 21.606L73.587 20.7731C72.5818 19.6062 72.0636 18.1358 72.0636 16.3156H70.7874ZM70.7874 15.9498V16.3156H72.0636V15.9498H70.7874ZM83.7042 15.3117H71.4255V16.5879H83.7042V15.3117ZM83.0661 14.8844V15.9498H84.3423V14.8844H83.0661ZM81.3831 9.4561C82.4807 10.7341 83.0661 12.5181 83.0661 14.8844H84.3423C84.3423 12.3104 83.703 10.1984 82.3512 8.62459L81.3831 9.4561ZM76.8969 7.53961C78.8229 7.53961 80.294 8.18809 81.3831 9.4561L82.3512 8.62459C80.9909 7.04082 79.1485 6.26342 76.8969 6.26342V7.53961ZM73.5273 8.57061C74.5711 7.87969 75.6897 7.53961 76.8969 7.53961V6.26342C75.4319 6.26342 74.0694 6.68133 72.8229 7.50642L73.5273 8.57061ZM71.0694 11.4413C71.6647 10.2115 72.4845 9.26083 73.5273 8.57061L72.8229 7.50642C71.5753 8.33221 70.6084 9.46468 69.9207 10.8852L71.0694 11.4413ZM70.1709 15.6318C70.1709 14.0623 70.4748 12.6697 71.0694 11.4413L69.9207 10.8852C69.2323 12.3073 68.8947 13.8936 68.8947 15.6318H70.1709ZM70.1709 16.3156V15.6318H68.8947V16.3156H70.1709ZM71.0873 20.3588C70.4804 19.1698 70.1709 17.8265 70.1709 16.3156H68.8947C68.8947 18.0063 69.2426 19.5518 69.9506 20.939L71.0873 20.3588ZM73.6106 23.1175C72.5337 22.4609 71.6935 21.5467 71.0873 20.3588L69.9506 20.939C70.6591 22.3273 71.6586 23.422 72.9463 24.2071L73.6106 23.1175ZM73.7447 10.5335C74.6053 9.61258 75.6428 9.16162 76.8969 9.16162V7.88543C75.288 7.88543 73.9132 8.48401 72.8122 9.66216L73.7447 10.5335ZM72.1227 14.4037C72.3226 12.7349 72.8768 11.4622 73.7447 10.5335L72.8122 9.66216C71.7185 10.8326 71.0798 12.3798 70.8556 14.2519L72.1227 14.4037ZM81.8115 13.6897H71.4891V14.9659H81.8115V13.6897ZM81.1734 14.1211V14.3278H82.4496V14.1211H81.1734ZM79.9115 10.4972C80.689 11.4041 81.1244 12.6015 81.1737 14.1415L82.4493 14.1006C82.3926 12.333 81.8843 10.8376 80.8804 9.66662L79.9115 10.4972ZM76.8969 9.16162C78.1641 9.16162 79.1493 9.60816 79.9115 10.4972L80.8804 9.66662C79.8612 8.47783 78.5137 7.88543 76.8969 7.88543V9.16162ZM87.8732 23.2807C87.8732 23.0604 87.9385 22.9016 88.0629 22.7662L87.1231 21.9029C86.7703 22.2869 86.597 22.7589 86.597 23.2807H87.8732ZM88.0442 23.7438C87.9378 23.6375 87.8732 23.501 87.8732 23.2807H86.597C86.597 23.8024 86.771 24.2756 87.1418 24.6463L88.0442 23.7438ZM88.5871 23.9148C88.2863 23.9148 88.1341 23.8338 88.0442 23.7438L87.1418 24.6463C87.529 25.0334 88.0396 25.1909 88.5871 25.1909V23.9148ZM89.1429 23.7389C89.0457 23.8339 88.8872 23.9148 88.5871 23.9148V25.1909C89.1352 25.1909 89.6447 25.0332 90.0353 24.6512L89.1429 23.7389ZM89.3168 23.2807C89.3168 23.4967 89.2526 23.6316 89.1429 23.7389L90.0352 24.6512C90.4133 24.2815 90.593 23.8068 90.593 23.2807H89.3168ZM89.1239 22.7713C89.2517 22.9074 89.3168 23.0645 89.3168 23.2807H90.593C90.593 22.7548 90.4142 22.2811 90.0542 21.8977L89.1239 22.7713ZM88.5871 22.583C88.8714 22.583 89.0235 22.6643 89.1239 22.7713L90.0543 21.8977C89.6669 21.4852 89.151 21.3068 88.5871 21.3068V22.583ZM88.0629 22.7662C88.1564 22.6643 88.3023 22.583 88.5871 22.583V21.3068C88.0235 21.3068 87.5067 21.4852 87.1231 21.9029L88.0629 22.7662Z" fill="#2AA9E0"/>
</g>
<path id="Path 2" fill-rule="evenodd" clip-rule="evenodd" d="M107.689 22.3504C108.898 20.7549 109.502 18.6426 109.502 16.0134V15.759C109.502 13.0132 108.906 10.8505 107.713 9.27093C106.52 7.69131 104.879 6.90151 102.79 6.90151C100.701 6.90151 99.0632 7.6383 97.8756 9.11191V0H94.9332V24.4256H97.637L97.7802 22.4379C98.9678 23.9751 100.648 24.7437 102.822 24.7437C104.858 24.7437 106.48 23.9459 107.689 22.3504ZM105.399 11.0361C106.173 12.128 106.56 13.6758 106.56 15.6795C106.56 17.874 106.167 19.5172 105.383 20.6091C104.598 21.7011 103.501 22.247 102.09 22.247C100.182 22.247 98.7769 21.3459 97.8756 19.5437V12.1015C98.7239 10.2993 100.118 9.39815 102.059 9.39815C103.511 9.39815 104.625 9.94411 105.399 11.0361Z" fill="black"/>
<path id="Path_3" d="M116.405 24.4256H113.463V7.21955H116.405V24.4256Z" fill="black"/>
<path id="Path_4" d="M113.224 2.65565C113.224 2.17858 113.37 1.77573 113.661 1.44709C113.953 1.11844 114.385 0.954124 114.958 0.954124C115.53 0.954124 115.965 1.11844 116.262 1.44709C116.559 1.77573 116.707 2.17858 116.707 2.65565C116.707 3.13272 116.559 3.53026 116.262 3.84831C115.965 4.16635 115.53 4.32537 114.958 4.32537C114.385 4.32537 113.953 4.16635 113.661 3.84831C113.37 3.53026 113.224 3.13272 113.224 2.65565Z" fill="black"/>
<path id="Path 3" fill-rule="evenodd" clip-rule="evenodd" d="M121.328 11.1156C120.665 12.462 120.334 13.9779 120.334 15.6636V15.8703C120.334 18.5419 121.057 20.6886 122.505 22.3107C123.952 23.9327 125.842 24.7437 128.175 24.7437C129.723 24.7437 131.093 24.3726 132.286 23.6305C133.479 22.8884 134.396 21.8521 135.038 20.5217C135.679 19.1912 136 17.6884 136 16.0134V15.8067C136 13.1139 135.276 10.9566 133.829 9.33454C132.382 7.71251 130.486 6.90151 128.143 6.90151C126.627 6.90151 125.277 7.26726 124.095 7.99876C122.913 8.73026 121.99 9.76919 121.328 11.1156ZM124.62 20.6091C123.735 19.4536 123.292 17.9217 123.292 16.0134C123.292 13.8613 123.737 12.2075 124.628 11.052C125.519 9.8964 126.69 9.31863 128.143 9.31863C129.627 9.31863 130.818 9.90435 131.714 11.0758C132.61 12.2473 133.058 13.7765 133.058 15.6636C133.058 17.7733 132.618 19.4138 131.737 20.5853C130.857 21.7567 129.67 22.3425 128.175 22.3425C126.69 22.3425 125.505 21.7647 124.62 20.6091Z" fill="black"/>
</g>
</g>
</svg>
